<?xml version="1.0" encoding="utf-8"?>
<!-- Generator: Adobe Illustrator 15.1.0, SVG Export Plug-In . SVG Version: 6.00 Build 0)  -->
<!DOCTYPE svg PUBLIC "-//W3C//DTD SVG 1.1//EN" "http://www.w3.org/Graphics/SVG/1.1/DTD/svg11.dtd">
<svg version="1.1" id="Layer_1" xmlns="http://www.w3.org/2000/svg" xmlns:xlink="http://www.w3.org/1999/xlink" x="0px" y="0px"
	 width="24.67px" height="31.604px" viewBox="0 0 24.67 31.604" enable-background="new 0 0 24.67 31.604" xml:space="preserve">
<g>
	<defs>
		<rect id="SVGID_1_" width="24.67" height="31.604"/>
	</defs>
	<clipPath id="SVGID_2_">
		<use xlink:href="#SVGID_1_"  overflow="visible"/>
	</clipPath>
	
		<path clip-path="url(#SVGID_2_)" fill="none" stroke="#FFFFFF" stroke-width="0.9" stroke-linejoin="round" stroke-miterlimit="10" d="
		M13.055,0.45C4.674,0.45,0.45,6.457,0.45,11.467c0,3.033,1.147,5.732,3.612,6.738c0.402,0.164,0.766,0.005,0.882-0.442
		c0.083-0.309,0.274-1.09,0.36-1.416c0.118-0.442,0.073-0.596-0.253-0.983c-0.71-0.837-1.164-1.921-1.164-3.458
		c0-4.457,3.334-8.446,8.683-8.446c4.735,0,7.339,2.893,7.339,6.758c0,5.086-2.25,9.377-5.593,9.377
		c-1.846,0-3.225-1.526-2.783-3.398c0.531-2.233,1.556-4.644,1.556-6.257c0-1.444-0.771-2.648-2.377-2.648
		c-1.887,0-3.403,1.951-3.403,4.565c0,1.664,0.564,2.791,0.564,2.791s-1.93,8.178-2.269,9.61c-0.675,2.852-0.101,6.349-0.053,6.702
		c0.028,0.209,0.298,0.259,0.42,0.1c0.172-0.226,2.419-3,3.184-5.771c0.216-0.784,1.241-4.849,1.241-4.849
		c0.613,1.17,2.404,2.199,4.308,2.199c5.669,0,9.516-5.169,9.516-12.087C24.22,5.321,19.788,0.45,13.055,0.45z"/>
</g>
</svg>
