<?xml version="1.0" encoding="utf-8"?>
<!-- Generator: Adobe Illustrator 15.1.0, SVG Export Plug-In . SVG Version: 6.00 Build 0)  -->
<!DOCTYPE svg PUBLIC "-//W3C//DTD SVG 1.1//EN" "http://www.w3.org/Graphics/SVG/1.1/DTD/svg11.dtd">
<svg version="1.1" id="Layer_1" xmlns="http://www.w3.org/2000/svg" xmlns:xlink="http://www.w3.org/1999/xlink" x="0px" y="0px"
	 width="31.18px" height="25.51px" viewBox="0 0 31.18 25.51" enable-background="new 0 0 31.18 25.51" xml:space="preserve">
<path fill="none" stroke="#FFFFFF" stroke-width="0.9" stroke-linejoin="round" stroke-miterlimit="10" d="M29.751,4.081
	c-1.063,0.473-2.21,0.792-3.413,0.935c1.229-0.734,2.168-1.9,2.614-3.288c-1.15,0.682-2.423,1.176-3.775,1.442
	c-1.084-1.154-2.63-1.876-4.338-1.876c-3.283,0-5.943,2.66-5.943,5.943c0,0.466,0.053,0.92,0.153,1.355
	c-4.938-0.248-9.319-2.614-12.25-6.21C2.288,3.26,1.994,4.281,1.994,5.37c0,2.062,1.049,3.881,2.644,4.946
	c-0.975-0.03-1.891-0.297-2.692-0.743v0.075c0,2.88,2.051,5.282,4.767,5.828c-0.497,0.136-1.021,0.208-1.564,0.208
	c-0.385,0-0.755-0.037-1.118-0.105c0.755,2.36,2.951,4.079,5.551,4.127c-2.034,1.594-4.594,2.544-7.381,2.544
	c-0.479,0-0.951-0.027-1.418-0.082c2.631,1.686,5.754,2.67,9.112,2.67c10.932,0,16.909-9.058,16.909-16.91
	c0-0.258-0.005-0.515-0.017-0.769C27.947,6.319,28.955,5.272,29.751,4.081z"/>
</svg>
