<?xml version="1.0" encoding="utf-8"?>
<!-- Generator: Adobe Illustrator 15.1.0, SVG Export Plug-In . SVG Version: 6.00 Build 0)  -->
<!DOCTYPE svg PUBLIC "-//W3C//DTD SVG 1.1//EN" "http://www.w3.org/Graphics/SVG/1.1/DTD/svg11.dtd">
<svg version="1.1" id="Layer_1" xmlns="http://www.w3.org/2000/svg" xmlns:xlink="http://www.w3.org/1999/xlink" x="0px" y="0px"
	 width="57.78px" height="57.78px" viewBox="0 0 57.78 57.78" enable-background="new 0 0 57.78 57.78" xml:space="preserve">
<path fill="#FFFFFF" d="M29.238-0.13c-15.931,0-28.891,12.961-28.891,28.893c0,1.797,0.17,3.586,0.501,5.344
	c0.106,0.564,0.229,1.125,0.369,1.682c0.047,0.189,0.094,0.381,0.146,0.57c0.033,0.121,0.069,0.242,0.105,0.362l0.044,0.15
	c0.158,0.542,0.308,1.012,0.458,1.439c0.022,0.063,0.046,0.126,0.069,0.188l0.045,0.121c0.721,1.98,1.657,3.879,2.782,5.642
	c0.087,0.137,0.178,0.271,0.267,0.406c0.041,0.063,0.082,0.125,0.124,0.187c0.16,0.238,0.323,0.474,0.489,0.706
	c0.09,0.125,0.182,0.248,0.274,0.371l0.036,0.048l0.021,0.027c5.443,7.294,14.102,11.647,23.162,11.647
	c9.063,0,17.721-4.354,23.163-11.646c0.037-0.049,0.072-0.099,0.108-0.148c0.102-0.137,0.204-0.274,0.304-0.413
	c0.138-0.195,0.273-0.394,0.407-0.593c0.065-0.098,0.129-0.198,0.193-0.296c0.09-0.138,0.182-0.274,0.269-0.413
	c1.094-1.732,2.005-3.591,2.71-5.524l0.036-0.099c0.019-0.05,0.037-0.1,0.055-0.149c0.159-0.449,0.316-0.94,0.48-1.501l0.045-0.149
	c0.029-0.096,0.058-0.191,0.085-0.289c0.059-0.214,0.112-0.429,0.166-0.645c0.14-0.557,0.262-1.117,0.368-1.682
	c0.33-1.758,0.501-3.546,0.501-5.344C58.129,12.831,45.168-0.13,29.238-0.13 M3.207,36.934c-0.06-0.035-0.119-0.068-0.178-0.104
	C3.087,36.865,3.147,36.898,3.207,36.934 M2.604,36.566C2.5,36.5,2.397,36.431,2.294,36.361C2.397,36.431,2.5,36.5,2.604,36.566
	 M1.361,35.677c0.204,0.164,0.413,0.319,0.624,0.473C1.773,35.997,1.565,35.841,1.361,35.677 M29.238,55.19
	c-7.894,0-15.179-3.434-20.224-9.457c0.656-0.372,1.283-0.789,1.866-1.247c2.642,2.077,5.935,3.219,9.292,3.219
	c3.357,0,6.65-1.142,9.292-3.219c2.643,2.077,5.936,3.219,9.292,3.219c3.357,0,6.651-1.142,9.292-3.219
	c0.494,0.388,1.023,0.736,1.567,1.063C44.566,51.687,37.214,55.19,29.238,55.19 M53.665,38.835c-0.579,1.4-1.276,2.748-2.07,4.005
	c-0.133,0.209-0.268,0.416-0.405,0.622c-0.029,0.043-0.059,0.085-0.088,0.127c-0.097,0.143-0.193,0.283-0.293,0.423
	c-0.564-0.326-1.105-0.692-1.611-1.095c-0.169-0.135-0.334-0.273-0.51-0.428c-0.034-0.032-0.069-0.063-0.11-0.094
	c-0.011-0.009-0.022-0.017-0.033-0.023c-0.149-0.102-0.313-0.153-0.484-0.153c-0.282,0-0.502,0.146-0.614,0.238
	c-0.178,0.158-0.357,0.312-0.543,0.46c-2.344,1.863-5.16,2.848-8.146,2.848c-2.984,0-5.8-0.984-8.145-2.848
	c-0.169-0.134-0.333-0.273-0.474-0.395c-0.311-0.321-0.722-0.391-1.094-0.188c-0.035,0.008-0.068,0.023-0.095,0.047l-0.099,0.088
	l0.123,0.142l-0.004,0.002l-0.157-0.11c-0.162,0.142-0.327,0.281-0.495,0.415c-2.344,1.863-5.16,2.848-8.145,2.848
	s-5.801-0.984-8.145-2.848c-0.168-0.134-0.333-0.273-0.493-0.412c-0.04-0.04-0.08-0.076-0.124-0.108
	c-0.011-0.01-0.021-0.018-0.033-0.024c-0.285-0.193-0.635-0.202-0.943-0.023c-0.03,0.009-0.058,0.023-0.082,0.045l-0.124,0.108
	c-0.162,0.142-0.326,0.281-0.495,0.415c-0.61,0.484-1.26,0.911-1.935,1.277c-0.103-0.142-0.2-0.287-0.3-0.431
	c-0.07-0.102-0.142-0.201-0.21-0.303c-0.11-0.163-0.22-0.326-0.326-0.491c-0.825-1.291-1.549-2.682-2.151-4.135
	c-0.007-0.02-0.016-0.037-0.024-0.055c1.857,0.786,3.871,1.204,5.866,1.204c3.358,0,6.651-1.143,9.292-3.22
	c2.642,2.077,5.936,3.22,9.293,3.22s6.65-1.143,9.292-3.22c2.642,2.077,5.935,3.22,9.292,3.22c1.996,0,4.01-0.418,5.866-1.205
	L53.665,38.835z M26.247,31.863c-0.403-0.248-0.843-0.463-1.312-0.642c-3.133-1.126-11.55-4.857-12.854-8.538
	c-0.006-0.019-0.014-0.04-0.021-0.054c-0.012-0.028-1.112-2.74-0.795-6.222c0.877,0.966,3.439,3.303,7.698,3.303
	c0.646,0,1.313-0.056,1.972-0.164c0.183-0.022,3.868-0.427,6.607,0.688c-0.943,1.064-1.42,2.396-1.42,3.966L26.247,31.863z
	 M28.074,24.186c0-1.174,0.392-2.145,1.167-2.891c0.771,0.743,1.162,1.709,1.162,2.875l-0.226,13.833
	c-0.311,0.021-0.623,0.039-0.938,0.039c-0.316,0-0.628-0.018-0.94-0.039L28.074,24.186z M30.937,20.236
	c2.688-1.097,6.304-0.722,6.595-0.69c0.668,0.11,1.334,0.166,1.981,0.166c4.257,0,6.82-2.337,7.697-3.303
	c0.317,3.485-0.783,6.192-0.795,6.221l-0.02,0.052c-1.303,3.679-9.73,7.417-12.871,8.549c-0.461,0.175-0.896,0.387-1.295,0.632
	l0.125-7.675C32.354,22.625,31.878,21.298,30.937,20.236 M54.805,35.44c-0.062,0.232-0.125,0.465-0.19,0.696
	c-2.038,1.245-4.384,1.906-6.792,1.906c-2.984,0-5.801-0.985-8.145-2.848c-0.168-0.134-0.333-0.273-0.474-0.394
	c-0.312-0.322-0.723-0.392-1.094-0.189c-0.036,0.008-0.068,0.024-0.096,0.048l-0.102,0.09l0.127,0.143l-0.003,0.002l-0.159-0.115
	c-0.162,0.143-0.327,0.282-0.495,0.416c-1.567,1.245-3.35,2.089-5.249,2.518l0.055-3.325c0.522-0.572,1.2-1.02,2.014-1.329
	c0.493-0.179,12.127-4.421,14.022-9.698c0.153-0.375,1.478-3.781,0.812-8.086c-0.005-0.033-0.011-0.066-0.021-0.098
	c-0.183-0.7-0.678-1.447-1.519-1.447c-0.604,0-1.128,0.394-1.541,1.144c-0.234,0.296-2.407,2.886-6.443,2.886
	c-0.545,0-1.11-0.048-1.721-0.148c-0.008-0.001-0.829-0.104-2.054-0.104c-2.684,0-4.87,0.465-6.499,1.383
	c-1.631-0.917-3.817-1.383-6.501-1.383c-1.216,0-2.046,0.103-2.05,0.104l-0.043,0.006c-0.568,0.094-1.134,0.142-1.682,0.142
	c-4.06,0-6.21-2.589-6.425-2.857c-0.432-0.778-0.956-1.173-1.559-1.173c-0.842,0-1.337,0.748-1.52,1.447
	c-0.009,0.032-0.015,0.065-0.02,0.099c-0.666,4.307,0.658,7.712,0.809,8.078c1.904,5.302,13.52,9.523,14.009,9.699
	c0.821,0.313,1.504,0.764,2.03,1.341l0.054,3.32c-1.899-0.429-3.681-1.272-5.249-2.518c-0.169-0.134-0.333-0.272-0.494-0.413
	c-0.039-0.038-0.08-0.074-0.121-0.106c-0.013-0.011-0.026-0.02-0.041-0.027c-0.25-0.166-0.61-0.179-0.885-0.049
	c-0.04,0.005-0.078,0.021-0.109,0.049l-0.091,0.08c-0.018,0.016-0.034,0.028-0.059,0.052c-0.162,0.143-0.326,0.281-0.495,0.415
	c-2.344,1.862-5.16,2.848-8.145,2.848c-2.408,0-4.753-0.661-6.792-1.907c-0.066-0.231-0.129-0.463-0.19-0.696
	c-0.569-2.174-0.861-4.413-0.861-6.677c0-14.573,11.856-26.429,26.428-26.429s26.427,11.856,26.427,26.429
	C55.665,31.026,55.373,33.266,54.805,35.44"/>
</svg>
