<?xml version="1.0" encoding="utf-8"?>
<!-- Generator: Adobe Illustrator 15.1.0, SVG Export Plug-In . SVG Version: 6.00 Build 0)  -->
<!DOCTYPE svg PUBLIC "-//W3C//DTD SVG 1.1//EN" "http://www.w3.org/Graphics/SVG/1.1/DTD/svg11.dtd">
<svg version="1.1" id="Layer_1" xmlns="http://www.w3.org/2000/svg" xmlns:xlink="http://www.w3.org/1999/xlink" x="0px" y="0px"
	 width="97.615px" height="68.007px" viewBox="0 0 97.615 68.007" enable-background="new 0 0 97.615 68.007" xml:space="preserve">
<g>
	<defs>
		<rect id="SVGID_1_" y="0" width="97.615" height="68.007"/>
	</defs>
	<clipPath id="SVGID_2_">
		<use xlink:href="#SVGID_1_"  overflow="visible"/>
	</clipPath>
	<path clip-path="url(#SVGID_2_)" fill="#FFFFFF" d="M28.569,12.746c-0.976,0.011-1.749,0.042-2.332,0.125
		c0,0-0.417-0.666-1.083-1.125c0,0,0.167,0.209,0.167,0.584c0,0-0.833-0.334-1.042-0.334c0,0,0.584,0.334,0.709,0.708
		c0,0-0.935,0.142-1.458-0.499c-0.327-0.401-0.625-0.542-0.625-0.542s0.153,0.382,0,0.792c0,0-0.499-0.125-0.999-1.042
		c0,0,0.125,0.292-0.084,0.5c0,0-0.237-0.708-0.957-0.833c-0.323-0.056-0.459-0.333-0.084-0.791c0,0-0.499-0.125-0.666,0.166
		c0,0,0.042-0.541,0.333-0.541c0,0-1.207-0.375-1.582,0c0,0-0.208-0.666-0.708-1.124c0,0,0.125,0.416-0.292,0.916
		c0,0-0.249-0.5-0.125-0.791c0,0-0.624,0.624-0.416,1.041c0,0-0.625-0.417-0.417-0.875c0,0-0.868,0.185-1.242,0.443
		c-0.254,0.175-1.131,0.806-0.548,1.722c0,0-0.5-0.249-0.875-0.666c-0.374-0.416-0.083-0.666-0.583-1.041
		c0,0,0.273,0.332,0.125,1.166c-0.123,0.693,0.292,1.458,0.875,1.5c0,0-1.333,0.541-2.249-0.042c0,0,0.292,0.917,0.708,0.958
		c0,0-0.75,0.375-1.374,0.875c0,0,0.586-0.078,0.874,0.166c0,0-0.666,0.708-0.958,1.333c0,0,0.541,0.013,0.75,0.458
		c0,0-0.666,0.25-1.166,0.666c0,0,0.414-0.025,0.416,0.25c0,0.14,0.053,0.537-0.583,0.583c-0.583,0.042-1.041,0.875-1.166,1.582
		c0,0-0.416-0.166-0.291-0.582c0,0-0.375,0.874-1.041,1.373c-0.666,0.5,0.25,0.917,0.25,0.917s-1.077-0.115-0.946-0.775
		c0.104-0.517,0.487-1.224,0.487-1.224s-1.332,1.291-1.082,2.041c0,0-0.257-0.042-0.5-0.667c0,0-0.041,0.962,0.75,1.999
		c0,0-0.417,0.125-0.625-0.333c0,0,0.291,1.541,0.833,1.874c0,0-0.625,0.541-0.833,0.125c0,0,0.25,0.916,0.791,0.999
		c0,0-0.416,0.417-0.75,0.126c0,0,0.542,1.582,0.5,2.29c-0.041,0.708-0.832,0.25-0.832,0.874c0,0.625-0.302,0.543-0.542,0.167
		c0,0-0.208,0.291,0.083,0.625c0,0-0.624-0.417-1.332-0.042s-1.208,0.708-1.5,0.291c-0.291-0.416-0.832-0.249-1.041-0.041
		c0,0,0.618-0.341,1.005,0.37c0.245,0.447,0.495,0.379,0.911,0.379c0,0-0.916,0.708-1.666,0.875c0,0,0.2,0.387,1.083,0.208
		c0,0-1.291,0.625-1.541,0.25c0,0,0.09,0.588,0.625,0.75c0.36,0.109-1.625,1.124-2.291,0.583c0,0,0.583,0.833,1.332,0.833
		c0,0-1.309,0.93-1.749,2.249c0,0,0.958-0.959,1.791-0.917c0,0-1.125,0.708-1.125,1.25c0,0,1.125-0.75,1.458-0.542
		c0,0-0.727,0.882-0.727,1.423c0,0,0.982-0.672,0.394,0.66c-0.281,0.633-0.278,1.576,0.292,2.207
		c0.336,0.372,1.292,1.153,2.707,1.083c1.25-0.063,0.916-0.292,1.332,0.583c0.417,0.874,1.166,1.457,1.166,1.457
		s-0.683-1.104-0.583-1.541c0.052-0.229,0.365-0.313,1.083,0.167c0.5,0.333,1.582,0.208,1.166,0.541
		c-0.417,0.333-0.708,1.041-0.541,1.374c0,0,0.333-0.833,0.874-0.916s1.083-0.333,1.374-1.124c0.292-0.791,0.333-0.084,0.333,0.583
		c0,0.666,0.209,0.874,0.209,0.874s0.076-1.353,0.208-1.082c0.079,0.162-0.14,0.679,0.157,0.924
		c0.293-0.317,0.355-0.088,0.233,0.263c-0.183,0.525-0.674,2.027-0.64,2.978c0.042,1.166,1.166,2.29,1.833,2.499
		c0.666,0.208,1.041-0.792,1.291-2.124c0.249-1.333,0.297-2.191,0.541-2.499c0.237-0.299,0.562-0.448,0.833-0.208
		c0,0,1.249,1.083,2.332,0.625s3.456-2.333,4.331-3.415c0,0-0.5,0.291-1.166,0.291c0,0,1.374-1.416,1.624-2.165
		c0,0-0.5,0.292-1.041,0.416c0,0-0.25-1.166,0.333-2.04c0.583-0.875,1.166-2.29,1.541-2.957c0.375-0.666,1.79-1.791,2.54-2.082
		c0.75-0.292,2.166-0.5,2.749-0.375c0,0-0.209,0.233-0.499,0.333c0,0,0.609,0.128,1.291-0.541c0,0,0.833,0.749,1.499,0.916
		c0,0-0.417-0.75-0.417-1.041c0-0.292,0.625,0.125,0.75,0.458c0,0,0.358-0.211,0.504-0.864c0.108-0.487,0.62-0.011,0.912,0.573
		c0,0,0.428,0.034,0.583-0.542c0.042-0.156,0.07-0.075,0.116,0.011c0.139,0.26,0.436,0.853,0.592,1.447
		c0.208,0.791-0.084,1.624-0.5,1.041c0,0,0.292,1.166,1.208,1.166c0,0-0.542,0.916-1.416,0.916c0,0,1.041,0.791,1.749,0.208
		c0,0,0.499,0.833,0.291,1.291s-0.624,0.417-0.749,1.416c0,0,0.291-0.417,0.583-0.583c0,0-0.125,1.124-0.917,1.707
		c0,0,0.834,0.084,1.125-0.583c0,0,0.375,1.375-0.708,1.458c0,0,0.208,0.5,0.874,0.291c0,0,0.25,1.75-0.166,2.125
		c-0.416,0.374-0.875,0.499-1.25,0.999c-0.374,0.5-1.207,1.083-1.082,0.042c0,0-0.666,0.333-0.541,1.249
		c0,0-1.125-0.875-1.541-0.292c-0.417,0.584,0.041,1.042-0.292,1.625s-0.624,0.291-1.249,0.583c0,0,0.625,0.083,1,0.291
		c0,0-1.458,0.083-1.916,0.541c0,0,1-0.041,1.291,0.209c0,0-2.332,0.499-3.04,0.541c0,0-0.167,0.75,0.458,1.124
		c0,0-1.083,0.25-1.291,0.75c0,0,0.833,0.042,1.208,0.416c0,0-1.417,0.708-1.542,1.333c0,0,0.908-0.307,1.431-0.085
		c0.26,0.108,0.069,0.21,0.069,0.21s-0.958,0.542-1.416,1.5c0,0,1.374-0.208,1.624-0.125c0,0-0.708,0.708-0.667,1.249
		c0,0,0.744-0.168,1.077-0.126s0.679,0.218,0.096,0.385c-0.583,0.166-1.797,1.199-1.714,2.199c0,0,0.5-0.792,0.958-0.792
		s0.167,0.667,0.792,0.458c0.624-0.208,0.624,0.459-0.125,0.5c0,0,0.125,0.292,0.541,0.292c0,0-1.333,1.416-1.499,2.54
		c0,0,0.916-0.583,1.416-0.625c0,0-0.625,1-0.792,1.791c0,0,0.25-0.25,1.083-0.583c0,0-0.541,1.041-0.541,1.499
		c0,0,0.458-0.333,0.874-0.333c0,0-0.539,0.561-0.25,1.666c0.161,0.612,1.333,1.957,1.916,2.04c0,0-0.184-0.285,0.042-0.499
		c0,0,1.29,0.832,2.207,0.166c0.916-0.666,1.583-1.124,1.415-0.666c0,0,0.709-0.375,0.417-1c0,0,0.666-0.125,1.291-1.582
		c0,0-0.644,0.082-0.541-0.375c0.169-0.756,0.935-1.238,1.499-2.166c0,0-0.333-0.041-0.5-0.041c0,0,0.042-1.249,0.625-1.333
		c0.583-0.083,1.249-0.208,1.624-0.708c0,0-0.666-0.291-0.542-0.749c0.281,0.117,0.958,0.208,1.375,0.042
		c0,0-0.084-0.542,0.125-0.75c0,0,1.082-1.249,1.166,0.5c0.083,1.749,0.25,2.998-1.125,3.248c0,0,0.125,0.791,1,0.541
		c0,0-0.833,0.875-1.666,0.875c0,0,0.4,0.503,0.75,0.625c-0.307,0.104-1.583,0.749-2.082,1.415c0,0,1.54,0.292,2.332-0.041
		c0,0-0.084,0.166-0.167,0.624c0,0,0.333-0.333,1.083-0.374c0,0-0.167,0.416-0.666,0.583c0,0,1.082,0.541,1.623,0.166
		c0,0,1.154,0.329,0.292,0.791c0,0,0.417,0.333,1.166,0.125c0,0,0.792,1.541,1.291,1.166c0.5-0.374,0.625-1.082,1.291-0.791
		c0.667,0.292,1.083,1,0.625,1.333c1.187,0.841,2.868-1.148,3.461-1.48c0,0-0.42-0.011-0.804-0.395c0,0,0.577,0,0.742-0.276
		c0,0-0.193-0.302-0.221-0.495c0,0,0.522,0.028,1.045-0.22c0,0-0.577-1.018-0.467-1.732c0,0,0.412,0.357,0.742,0.468
		c0,0-0.109-0.716-0.082-1.154c0,0,0.357,0.054,0.604-0.111c0,0-0.412-0.577-0.495-0.852c0,0,0.798-0.165,1.044-0.605
		c0,0-1.181-0.248-1.375-0.77c0,0,0.661-0.11,0.771-0.44c0,0-0.05-0.744-0.99-1.595c0,0,0.056-0.33,0.357-0.358
		c0,0-0.468-0.412-1.072-0.495c0,0,0.604-0.356,0.771-0.687c0.163-0.33,0.439-1.348,0.659-1.183c0.22,0.164,0.385,0.522,0.275,0.853
		c0,0,0.602-0.549-0.33-1.568c-0.833-0.908-0.204-0.939-0.027-1.017c0.693-0.304,0.412-0.605,0.302-0.99
		c-0.109-0.385,0.936-1.155,0.494-1.814c-0.438-0.66-0.852-1.568-0.521-1.514c0.33,0.057,0.908-0.191,1.155-0.026
		s0.413,0.412,0.274,0.798c0,0,0.982-0.655,0.605-1.21c-0.132-0.195,0.281-0.03,0.281-0.03s0.517,0.139,0.517-0.823
		c0,0-0.729,0.748-0.854-0.055c-0.049-0.318,0.021-0.495,0.605-0.495c0,0,0.44-0.11,0.798,0.247c0,0,0.192-0.413-0.22-0.88
		c0,0,1.072,0.303,1.1,0.908c0,0,0.165-0.578-0.66-1.32c0,0,1.237-0.083,1.044,0.962c0,0,0.799-0.989-0.081-1.896
		c0,0,0.604,0.055,0.962-0.386c0,0-0.247-0.055-0.412-0.33c0,0,0.357-1.018,0.688-0.55c0,0,0.33-0.385,0.027-0.66
		c0,0,2.558,0.716,2.86,1.375c0.303,0.66,0.771,0.605,1.183,0.578c0,0-0.578-0.386-0.275-0.825c0,0,0.33,0.551,1.155,0.604
		c0,0-0.468-0.549-0.22-1.017c0.247-0.469,1.045,0.083,1.678-0.083c0.632-0.164,0.715-0.798,0.686-1.155
		c-0.026-0.357,0.606-0.33,1.102,0.22c0,0,0.33-0.439,0.33-1.045c0,0,0.77,0.111,0.77,0.523c0,0,0.385-0.028,0.632-0.551
		c0,0,0.964,0.469,0.908,1.32c0,0,0.715-1.182,0.88-1.843c0,0,0.495-1.155,1.044-0.467c0.552,0.687,1.558-0.734,1.915-0.927
		c0,0-0.439-0.302-0.165-0.77c0,0,0.854,0.22,1.127,0.77c0,0,0.716-0.165,0.909-0.88c0,0,0.576,0.66,0.356,1.349
		c0,0,0.523,0.191,1.046-0.358c0,0,0.203,2.274-0.402,2.824c0,0,0.495,0.494,1.21,0.219c0,0,0.33,0.908-0.055,1.486
		c0,0,0.2,0.357,0.769,0.467c0.587,0.111,1.992,0.527,1.8,1.101c-0.191,0.575-0.733,1.725-0.733,2.555c0,0,0.159-0.287,0.605-0.702
		c0,0,0.191,1.468,0.416,2.17c0,0,0.223-0.415,0.543-0.67c0,0-0.097,1.628,0.095,2.139c0,0,0.256-0.223,0.605-0.287
		c0,0-0.03,0.895,0.033,1.469c0,0,0.415-0.096,0.702,0.031c0,0-0.223,0.703-0.032,1.245c0,0,0.64,0.001,0.735,0.16
		c0,0-0.353,0.606-0.288,1.085c0.063,0.479-0.096,0.735-0.798,0.99c0,0,0.224,0.288,0.798,0.255c0,0-1.053,1.085-2.011,0.926
		c0,0,0.702,0.543,1.182,0.543c0,0-0.703,0.83-1.629,0.607c0,0-0.064,0.479,0.383,0.702c0,0-0.798,0.798-1.915,0.573
		c0,0-0.319,0.353-0.191,0.99c0,0-1.054,0.287-1.66,0.702c0,0,0.67,0.128,1.054,0.415c0,0-0.671,0.288-1.278,0.033
		c0,0,0,0.702,0.353,0.957c0,0-1.149-0.255-1.756-0.224c0,0-0.031,0.861,0.479,1.372c0,0-0.351,0.319-0.479,0.543
		c0,0,0.338,0.619,1.012,0.801c0.045,0.012,0.091,0.021,0.138,0.029c0.767,0.128-0.287,0.83,0.159,1.245
		c0.447,0.415,1.149-0.032,1.277,0.479c0.128,0.51,0.86,0.223,1.437,0.383c0.574,0.16,1.245,0.958,1.947,0.351
		c0.702-0.605,1.085-0.447,1.819-0.128c0.734,0.32,1.213,0.159,2.012-0.159c0.798-0.318,0.798-0.446,1.563-0.318
		c0.768,0.127,1.183-0.385,1.438-0.991c0.256-0.606,0.894-0.924,1.213-0.542c0,0,0.543-0.702,0.32-1.245c0,0,0.511-0.12,0.66,0.295
		c0,0,0.648-1.196-0.382-2.294c-1.03-1.096,0.748-0.764,0.897-0.914c0.149-0.148,0.199-0.548,0.101-0.831
		c0,0,0.515-0.05,0.698,0.267c0,0,0.448-0.532,0.299-1.098c0,0,0.731-0.481,0.964-0.05c0,0,0.382-0.182,0.315-0.764
		c0,0,0.648,0.299,1.08,0.299c0,0-0.183-0.932,0.066-1.247c0,0,0.615,0.682,0.932,0.831c0,0,0.017-0.465,0.35-0.731
		c0.332-0.266,0.714-0.148,1.08-0.564c0.365-0.415,0.765-0.831,1.08-1.363c0.316-0.532,0.516-0.898,0.931-0.864
		c0,0-0.199-0.433-0.665-0.448c0,0,0.632-0.831,0.415-1.496c0,0,0.649-0.3,0.649-0.831c0,0-0.365,0.198-0.832-0.017
		c0,0,0.582-0.766,0.5-1.214c0,0-0.5,0.233-0.766,0.15c0,0,0.438-0.745,0.3-1.231c-0.102-0.349,0.581-0.664,0.681-1.329
		c0,0-0.747,0.116-0.797-0.896c-0.051-1.015-0.532-1.696-1.348-2.211c0,0,0.781-0.033,1.064,0.315c0,0-0.416-1.047-1.346-1.812
		c0,0-0.739-0.795-0.516-1.064c0.166-0.198,0.614-0.148,0.914,0.316c0,0-0.166-0.864-1.197-1.729c-1.03-0.864-0.303-1.447,0.2-1.131
		c0.315,0.2,0.447,0.517,0.447,0.517s0.4-1.33-0.248-2.161s-0.765-1.213-0.765-1.213s0.532-0.067,0.748,0.182
		c0,0-0.299-0.581-1.13-1.313s-0.205-1.942,0.05-2.311c0.814-1.18,2.293-1.131,2.892-0.715c0,0-0.066-0.465-0.565-0.914
		c0,0,0.632-0.482,0.6-0.847c0,0-0.566,0.465-0.998,0.348c-0.432-0.116-1.196-0.947-0.881-1.562
		c0.316-0.615,0.432-1.878-0.366-2.361c0,0,0.865-0.963,0.616-2.043c0,0-0.284,0.576-0.799,0.598
		c-0.398,0.016-0.599-1.031-0.116-1.563c0.482-0.532,0.931-0.532,0.931-0.532s-0.365-0.698-1.048-1.046c0,0,0.683,0.132,1.099,0.066
		c0,0-1.214-0.848-1.563-1.663c0,0,0.631-0.132,1.064,0.051c0,0-0.565-0.632-1.33-1.214s-0.315-0.731,0.116-0.632
		c0,0-0.549-0.564-1.163-0.664c0,0,0.05-0.649-0.35-1.496c0,0-0.017,0.482-0.349,0.715c0,0-1.446-1.712-1.929-2.959
		c-0.481-1.247-0.781-2.494-1.612-3.125c-0.831-0.631,0.116-1.263,0.05-1.762c-0.065-0.499,0.316-0.365,0.499-0.017
		c0,0-0.133-0.997-0.865-1.03c0,0,0.301-0.133,0.433-0.698c0,0-0.465,0.299-0.83-0.034c-0.366-0.332,0.332-0.581,0.465-0.515
		c0,0-0.45-0.317-1.048-1.097c-0.598-0.781-0.432-1.646,0.167-1.429c0,0-0.252-0.813-1.03-1.281
		c-0.416-0.248-0.731-0.465-0.599-1.312c0,0-1.031-0.416-1.463-0.998c-0.433-0.581-0.066-0.764,0.183-0.598
		c0,0-0.55-0.555-1.479-0.532C81.624,1.6,81.108,0.908,80.76,0.702c-0.365-0.216-0.664-0.398-1.346-0.166
		c0,0-0.017-0.266,0.449-0.516c0,0-0.815-0.099-1.363,0.3c0,0-0.582-0.416-1.329-0.3c0,0,0.415,0.25,0.531,0.499
		c0,0-1.014-0.615-1.978-0.298c0,0,0.848,0.298,1.097,0.631c0,0-1.646-0.266-2.46,0.033c0,0,0.998,0.2,1.347,0.466
		c0,0-1.479,0.066-2.377,0.282c0,0,0.981,0.116,1.38,0.416c0,0-5.053,1.263-6.034,1.03c0,0,0.466,0.399,1.064,0.433
		c0,0-2.128,0.332-3.291,0.066c-1.164-0.266-1.313-0.232-1.313-0.232s0.482,0.332,1.279,1.312c0.798,0.981,1.479,1.912,2.743,1.862
		c1.262-0.049,3.557-0.482,3.906-0.2c0.349,0.283-0.434,0.682-0.997,0.466c0,0,1.13,0.765,1.629-0.017c0,0,0.428-0.526,0.675,0.505
		c0.549-0.357,0.565-1.257,0.787-0.838c0.167,0.317,0.2,0.416,0.2,0.566c0,0,0.397-0.1,0.631-0.748c0,0,0.389,0.017,0.549,0.432
		c0,0,0.415,0.067,0.765-0.515c0,0,1.28-0.133,2.16,0.233c0.44,0.182,0.798,0.498,0.998,0.764c0.218,0.292,0.465,0.881,0.017,0.964
		c0,0,0.149,0.582,0.199,0.815s0.1,0.85-0.682,0.864c-0.833,0.016-2.452-0.722-3.522-0.785c0,0,0.378,0.251,0.566,0.584
		c0,0-1.269-0.467-1.745-0.485c0,0,0.503,0.269,0.71,0.737c0,0-1.296-0.557-1.907-0.548c0,0,0.404,0.224,0.603,0.62
		c0,0-1.366-0.467-2.158-0.441c0,0,0.495,0.288,0.754,0.567c0,0-1.563-0.341-2.14-0.36c0,0,0.693,0.306,0.9,0.639
		c0,0-1.817-0.351-2.834-0.396c0,0,0.639,0.414,0.747,0.702c0,0-1.979-0.612-3.131-0.503c0,0,0.685,0.35,0.791,0.566
		c0,0-1.628-0.351-2.617-0.342c0,0,0.351,0.297,0.513,0.611c0,0-1.988-0.512-3.014-0.539c0,0,0.62,0.378,0.909,0.71
		c0,0-1.636,0.075-3.093-0.104c-1.458-0.179-8.388,0.495-10.698,0.77c-2.31,0.275-5.353,0.104-6.672-1.216
		c0,0-0.782,0.03-1.276,0.581c0,0-1.092-0.536-1.092-0.975c0,0-0.718,0.533-0.603,0.975c0,0-0.904-0.047-1.044-0.627
		c0,0-0.487,0.232-0.789,0.65c-0.302,0.417-1.532,0.394-1.857,0.394c-0.325,0-4.828,0.418-5.779,0.696
		c-0.951,0.279-1.509,0.186-1.509-0.487C29.008,11.805,28.546,12.225,28.569,12.746"/>
</g>
</svg>
