<?xml version="1.0" encoding="utf-8"?>
<!-- Generator: Adobe Illustrator 15.1.0, SVG Export Plug-In . SVG Version: 6.00 Build 0)  -->
<!DOCTYPE svg PUBLIC "-//W3C//DTD SVG 1.1//EN" "http://www.w3.org/Graphics/SVG/1.1/DTD/svg11.dtd">
<svg version="1.1" id="Layer_1" xmlns="http://www.w3.org/2000/svg" xmlns:xlink="http://www.w3.org/1999/xlink" x="0px" y="0px"
	 width="70.87px" height="70.87px" viewBox="0 0 70.87 70.87" enable-background="new 0 0 70.87 70.87" xml:space="preserve">
<g>
	<defs>
		
			<rect id="SVGID_1_" x="18" y="1.902" transform="matrix(-0.7071 -0.7071 0.7071 -0.7071 34.9022 86.359)" width="34.673" height="68.098"/>
	</defs>
	<clipPath id="SVGID_2_">
		<use xlink:href="#SVGID_1_"  overflow="visible"/>
	</clipPath>
	<path clip-path="url(#SVGID_2_)" fill-rule="evenodd" clip-rule="evenodd" fill="#FFFFFF" d="M52.399,4.861l14.027,14.027
		c2.886,2.885,2.886,7.606,0.001,10.491L28.766,67.042c-2.885,2.885-7.606,2.884-10.491-0.001L4.247,53.014
		c-2.397-2.397-2.802-6.062-1.216-8.888l17.21,17.21c0.504,0.504,1.328,0.504,1.833,0l1.29-1.29c0.504-0.504,0.504-1.328,0-1.833
		L6.784,41.634c-0.549-0.53-0.544-1.098-0.048-1.602l0.703-0.702c0.531-0.497,1.091-0.392,1.559,0.09l16.58,16.579
		c0.504,0.505,1.329,0.504,1.833,0l1.29-1.29c0.504-0.504,0.504-1.328,0-1.832L12.117,36.293c-0.47-0.458-0.606-1.025-0.064-1.577
		l0.771-0.771c0.49-0.45,1.003-0.375,1.51,0.136l16.581,16.581c0.504,0.504,1.329,0.504,1.833-0.001l1.289-1.289
		c0.505-0.505,0.505-1.329,0.001-1.833L17.457,30.958c-0.507-0.499-0.594-1.042-0.103-1.543l0.764-0.764
		c0.512-0.502,1.059-0.416,1.559,0.1l16.575,16.575c0.504,0.504,1.328,0.504,1.832,0l1.29-1.29c0.504-0.504,0.504-1.328,0-1.833
		L22.792,25.621c-0.463-0.475-0.545-1.072-0.067-1.577l0.708-0.708c0.553-0.55,1.102-0.41,1.581,0.079l16.574,16.573
		c0.504,0.505,1.329,0.504,1.834,0l1.288-1.289c0.505-0.505,0.506-1.33,0.002-1.834L28.128,20.282
		c-0.543-0.539-0.482-1.121-0.061-1.58l0.733-0.733c0.507-0.491,1.077-0.377,1.544,0.103l16.58,16.58
		c0.505,0.504,1.328,0.505,1.832,0.001l1.291-1.291c0.504-0.504,0.504-1.329,0-1.833L33.464,14.945
		c-0.493-0.504-0.622-0.997-0.055-1.585l0.726-0.725c0.474-0.467,1.017-0.435,1.547,0.101l16.58,16.579
		c0.504,0.504,1.328,0.504,1.833,0l1.29-1.29c0.504-0.504,0.504-1.329,0-1.833L38.795,9.603c-0.503-0.505-0.552-1.073-0.01-1.619
		l0.628-0.628c0.53-0.499,1.087-0.464,1.604,0.042l16.581,16.581c0.504,0.504,1.328,0.504,1.833,0l1.289-1.29
		c0.504-0.504,0.504-1.328,0-1.833l-17.21-17.21C46.337,2.058,50.002,2.463,52.399,4.861"/>
</g>
</svg>
