<?xml version="1.0" encoding="utf-8"?>
<!-- Generator: Adobe Illustrator 15.1.0, SVG Export Plug-In . SVG Version: 6.00 Build 0)  -->
<!DOCTYPE svg PUBLIC "-//W3C//DTD SVG 1.1//EN" "http://www.w3.org/Graphics/SVG/1.1/DTD/svg11.dtd">
<svg version="1.1" id="Layer_1" xmlns="http://www.w3.org/2000/svg" xmlns:xlink="http://www.w3.org/1999/xlink" x="0px" y="0px"
	 width="24.775px" height="34.475px" viewBox="0 0 24.775 34.475" enable-background="new 0 0 24.775 34.475" xml:space="preserve">
<g>
	<defs>
		<rect id="SVGID_1_" y="0" width="24.775" height="34.474"/>
	</defs>
	<clipPath id="SVGID_2_">
		<use xlink:href="#SVGID_1_"  overflow="visible"/>
	</clipPath>
	<path clip-path="url(#SVGID_2_)" fill="#FFFFFF" d="M4.092,17.286c0.841,0,1.523-0.682,1.523-1.523
		c0-0.842-0.682-1.524-1.523-1.524s-1.523,0.682-1.523,1.524C2.569,16.604,3.251,17.286,4.092,17.286"/>
	<path clip-path="url(#SVGID_2_)" fill="#FFFFFF" d="M7.761,4.519L3.5,0.994C2.727,0.353,1.982,0,1.405,0
		C0.103,0,0.001,2.021,0.001,2.64L0,5.748v2.889v0.981c0.203-0.28,0.421-0.553,0.652-0.817C2.372,6.831,4.854,5.312,7.761,4.519"/>
	<path clip-path="url(#SVGID_2_)" fill="#FFFFFF" d="M24.774,9.618v-3.87L24.773,2.64c0-0.619-0.101-2.64-1.403-2.64
		c-0.577,0-1.321,0.353-2.096,0.994l-4.26,3.525C20.31,5.419,23.063,7.251,24.774,9.618"/>
	<path clip-path="url(#SVGID_2_)" fill="#FFFFFF" d="M24.775,15.236c-0.002-0.828-0.145-1.631-0.408-2.396
		c-1.164-3.372-4.714-6.011-9.183-6.801C14.406,5.901,13.603,5.82,12.776,5.8c-0.129-0.003-0.258-0.007-0.39-0.007
		c-0.13,0-0.259,0.004-0.388,0.007c-0.826,0.02-1.631,0.101-2.408,0.239C6.559,6.575,3.953,7.963,2.225,9.854l2.197,1.469
		l1.171-0.466l3.06-1.216c0.644-0.257,1.017,0.08,0.828,0.747L8.243,14.77l0.805,0.97l1.051,1.267l1.052,1.267
		c0.442,0.534,0.238,0.992-0.455,1.019l-1.645,0.064L6.146,19.47l-2.435,3.848c-0.37,0.586-0.87,0.533-1.109-0.118l-1.138-3.09
		l-0.436-1.183L0,18.664v3.949v3.825c0.003,0.314,0.212,7.646,11.443,8.036v-3.942c-2.259-0.185-4.187-1.024-5.281-2.204
		c-2.663-2.755-1.639-4.414-0.967-5.066c0,0,0.942-1.32,6.519-1.669l-0.011,0.02c0.175-0.01,0.353-0.016,0.531-0.018
		c0.099-0.002,0.152-0.002,0.152-0.002s0.056,0,0.154,0.002c0.178,0.002,0.356,0.008,0.531,0.018l-0.011-0.02
		c5.575,0.349,6.518,1.669,6.518,1.669c0.673,0.652,1.697,2.312-0.966,5.066c-1.094,1.18-3.022,2.02-5.281,2.204v3.942
		c4.658-0.166,8.091-1.575,9.962-4.101c1.441-1.943,1.481-3.917,1.481-3.936v-3.825V15.236z M20.778,17.286
		c-0.841,0-1.523-0.682-1.523-1.523c0-0.842,0.683-1.524,1.523-1.524s1.522,0.682,1.522,1.524
		C22.301,16.604,21.619,17.286,20.778,17.286"/>
	<path clip-path="url(#SVGID_2_)" fill="#FFFFFF" d="M17.617,24.848c0.001-0.684-1.169-1.239-2.613-1.24
		c-1.443-0.002-2.615,0.551-2.617,1.234c-0.001,0.683,1.17,1.238,2.613,1.239C16.445,26.083,17.616,25.53,17.617,24.848"/>
</g>
</svg>
