<?xml version="1.0" encoding="utf-8"?>
<!-- Generator: Adobe Illustrator 15.1.0, SVG Export Plug-In . SVG Version: 6.00 Build 0)  -->
<!DOCTYPE svg PUBLIC "-//W3C//DTD SVG 1.1//EN" "http://www.w3.org/Graphics/SVG/1.1/DTD/svg11.dtd">
<svg version="1.1" id="Layer_1" xmlns="http://www.w3.org/2000/svg" xmlns:xlink="http://www.w3.org/1999/xlink" x="0px" y="0px"
	 width="200.17px" height="180.65px" viewBox="0 0 200.17 180.65" enable-background="new 0 0 200.17 180.65" xml:space="preserve">
<g>
	<defs>
		<rect id="SVGID_1_" width="200.17" height="180.65"/>
	</defs>
	<clipPath id="SVGID_2_">
		<use xlink:href="#SVGID_1_"  overflow="visible"/>
	</clipPath>
	<path clip-path="url(#SVGID_2_)" fill="#929296" d="M190.988,130.838c-14.581-8.174-17.926-22.394-19.174-32.378
		c-1.364-10.909-3.601-15.917-8.549-19.133c-4.131-2.685-7.002-7.299-7.503-8.139c0.166-0.458,0.805-2.01,2.438-3.917
		c1.163-1.231,2.547-2.398,3.884-3.526c3.163-2.671,6.151-5.193,4.29-7.428c-2.291-2.751-4.856-1.135-9.969,2.084
		c-2.019,1.273-4.526,2.854-7.602,4.529c-17.76-4.148-46.22-9.938-46.533-10c-8.535-1.068-16.815-4.752-22.259-7.655
		c-6.096-3.251-13.406-8.68-25.52-26.234c-3.04-4.404-6.185-7.833-9.22-10.47c0.312-0.978,0.772-3.962-3.978-6.408
		c-5.34-2.752-10.226-2.541-12.586-1.231c-0.739-0.006-1.176,0.038-1.568,0.025c-0.707-0.025-2.562-0.024-6.548,0.45
		c-5.011,0.596-8.487,4.182-10.955,7.239c-2.44,3.019-2.307,5.31-2.086,9.104l0.005,0.095c-2.941,0.069-4.163,0.935-4.376,1.106
		c-0.295,0.178-2.07,1.423-1.221,5.24c-1.62,2.694-3.561,8.515,0.25,12.088c3.653,3.426,5.883,5.203,11.101,3.972
		c0.43-0.101,1.506,0.358,1.913,0.504c0.824,0.293,1.592,0.698,2.441,0.931c3.014,0.823,6.834,0.111,9.077-2.174
		c0.712-0.726,1.357-1.525,2.003-2.31c0.13-0.158,0.263-0.321,0.4-0.489c0.452,1.248,1.66,4.818,3.856,12.809
		c1.36,4.95,1.178,10.307,0.985,15.977c-0.216,6.356-0.461,13.56,1.461,21.431c2.095,8.579,5.558,12.285,8.908,15.871
		c0.695,0.744,1.375,1.479,2.033,2.244c1.344,13.682,4.07,42.245,3.734,46.73c-0.464,6.177-0.551,9.906-2.022,13.287
		c-3.572,0.815-7.768,1.866-7.883,7.228c0.91,0.849,1.992,1.498,3.166,1.835c0.304,0.087,0.628,0.177,0.965,0.267
		c-1.168,3.472,1.341,5.385,1.372,5.407l0.103,0.052c0.154,0.048,2.613,0.8,5.889,0.8c1.688,0,3.593-0.2,5.51-0.8l0.09-0.028
		l0.062-0.069c4.943-5.355,5.462-8.872,5.688-13.625c0.231-4.828,1.016-5.124,3.62-6.101c2.024-0.757,1.813-2.117,1.462-4.371
		c-0.205-1.325-0.461-2.976-0.419-5.158c0.077-3.934,1.244-15.942,2.18-25.592c0.487-5.008,0.907-9.331,1.113-11.862
		c0.009-0.111,0.017-0.217,0.026-0.324c-0.067-1.099-0.117-2.193-0.218-3.261c0.808-0.07,9.985,0.021,20.84-3.276l0.175-0.054
		c10.744-3.265,20.979-6.386,27.398-5.452c2.753,0.4,7.034,1.228,8.916,3.027c5.003,4.784,6.294,7.405,7.28,8.997
		c2.126,3.435,3.814,7.053,12.238,12.499l2.13,1.371c12.808,8.228,19.267,12.378,18.355,29.891c-3.139,0.924-7.118,2.88-6.92,8.846
		l0.007,0.193l0.167,0.098c2.133,1.239,4.813,2.09,7.38,2.09c2.185,0,4.285-0.618,5.889-2.139l0.094-0.09l0.102-0.981
		c0.163-1.642,0.235-2.391,0.771-4.09c0.071-0.231,0.15-0.416,0.23-0.604c0.521-1.23,1.039-8.134,0.92-21.695
		c0.346,0.288,0.694,0.576,1.039,0.867c6.438,4.029,7.378,5.641,10.464,11.012c3.212,5.587,2.955,8.909,2.527,14.413
		c-0.033,0.457-0.07,0.928-0.106,1.416c-7.271,1.679-8.053,9.529-8.061,9.611l-0.006,0.047l0.01,0.046
		c0.024,0.131,0.668,3.227,7.666,3.666c0.431,0.027,0.84,0.04,1.228,0.04c4.495,0,6.097-1.681,6.166-1.759l0.088-0.095l0.004-0.129
		c0-0.02,0.075-1.896,0.56-3.241c0.117-0.333,0.229-0.637,0.337-0.924c1.165-3.138,1.557-4.196,1.081-17.218
		c-0.154-4.171,0.048-7.356,0.21-9.915C200.473,138.481,200.615,136.235,190.988,130.838"/>
</g>
</svg>
