<?xml version="1.0" encoding="utf-8"?>
<!-- Generator: Adobe Illustrator 15.1.0, SVG Export Plug-In . SVG Version: 6.00 Build 0)  -->
<!DOCTYPE svg PUBLIC "-//W3C//DTD SVG 1.1//EN" "http://www.w3.org/Graphics/SVG/1.1/DTD/svg11.dtd">
<svg version="1.1" id="Layer_1" xmlns="http://www.w3.org/2000/svg" xmlns:xlink="http://www.w3.org/1999/xlink" x="0px" y="0px"
	 width="110.838px" height="102.682px" viewBox="0 0 110.838 102.682" enable-background="new 0 0 110.838 102.682"
	 xml:space="preserve">
<g>
	<defs>
		<rect id="SVGID_1_" width="110.838" height="102.682"/>
	</defs>
	<clipPath id="SVGID_2_">
		<use xlink:href="#SVGID_1_"  overflow="visible"/>
	</clipPath>
	<path clip-path="url(#SVGID_2_)" fill="#929296" d="M0.146,20.096c-0.44,2.473,0.193,4.265,0.905,5.105
		c0,0,0.531,2.502,4.949,6.587l-0.102,0.908l0.299-0.726c0.028,0.026,0.058,0.053,0.087,0.081c0.094,0.082,0.192,0.169,0.294,0.258
		c0.079,0.581,0.157,1.141,0.177,1.708c0.02,0.637-0.021,1.288-0.275,1.911c0.475-0.481,0.799-1.129,1.04-1.782
		c0.095-0.257,0.175-0.517,0.251-0.779c0.053,0.047,0.105,0.093,0.157,0.142c-0.004,0.094-0.007,0.187-0.013,0.282
		c-0.046,0.641-0.156,1.292-0.467,1.879c0.262-0.32,0.45-0.694,0.605-1.085c0.005,0.2,0.014,0.401,0.012,0.604
		c-0.001,0.65-0.041,1.308-0.101,1.966c0.308-0.586,0.598-1.184,0.86-1.808c0.104-0.245,0.199-0.496,0.292-0.747
		c0.044,0.039,0.086,0.077,0.13,0.12c-0.008,0.083-0.014,0.167-0.021,0.251c-0.069,0.641-0.171,1.285-0.291,1.927
		c0.07-0.177,0.138-0.358,0.206-0.537c-0.013,0.076-0.021,0.151-0.034,0.224c-0.213,1.188-0.538,2.368-1.079,3.478
		c0.76-0.974,1.35-2.095,1.823-3.259c0.148-0.367,0.281-0.741,0.407-1.117c0.042,0.039,0.082,0.079,0.122,0.119
		c-0.037,0.192-0.074,0.385-0.118,0.576c-0.278,1.181-0.669,2.347-1.265,3.423c0.704-1.009,1.228-2.146,1.636-3.315
		c0.038-0.108,0.07-0.219,0.107-0.331c0.042,0.042,0.083,0.083,0.124,0.125c-0.125,0.831-0.303,1.661-0.51,2.487
		c0.375-0.625,0.732-1.264,1.064-1.925c0.104,0.108,0.209,0.218,0.315,0.329c-0.126,0.449-0.264,0.895-0.409,1.338
		c0.195-0.388,0.383-0.78,0.563-1.175c0.13,0.138,0.26,0.277,0.391,0.416c-0.118,0.501-0.239,1.003-0.362,1.505
		c-0.296,1.187-0.601,2.383-0.852,3.583c0.498-1.121,1.04-2.216,1.58-3.317c0.144-0.294,0.282-0.59,0.423-0.884
		c0.032,0.035,0.063,0.07,0.094,0.106l-0.096,0.319c-0.355,1.167-0.718,2.336-1.031,3.518c0.436-1.142,0.919-2.262,1.397-3.384
		l0.036-0.09c0.005,0.005,0.009,0.011,0.015,0.015c-0.042,0.173-0.083,0.345-0.127,0.517c-0.234,0.883-0.533,1.777-0.739,2.683
		c0.447-0.813,0.969-1.57,1.451-2.381c0.011-0.015,0.021-0.034,0.029-0.051c0.012,0.011,0.021,0.025,0.031,0.04l-0.543,1.876
		l0.157-0.229c-0.053,0.162-0.108,0.324-0.157,0.487c0.146-0.317,0.307-0.627,0.468-0.936l0.469-0.677
		c0.101,0.138,0.198,0.275,0.294,0.411l-0.261,0.685l0.334-0.578c0.07,0.103,0.141,0.206,0.206,0.307
		c-0.119,0.413-0.24,0.825-0.346,1.242c0.222-0.242,0.452-0.474,0.681-0.708c0.222,0.367,0.421,0.733,0.591,1.09l-0.001,0.001
		c-0.526,1.218-1.155,2.405-1.853,3.556c0.779-0.857,1.516-1.76,2.2-2.714c0.034,0.104,0.064,0.203,0.096,0.305
		c-0.413,0.732-0.856,1.451-1.326,2.152c0.489-0.598,0.96-1.213,1.408-1.846c0.095,0.395,0.146,0.777,0.138,1.143
		c-0.004,0.13-0.007,0.263-0.011,0.395c-0.447,0.484-0.919,0.953-1.407,1.406c0.468-0.272,0.928-0.556,1.381-0.858
		c-0.003,0.086-0.008,0.173-0.014,0.259c-0.133,0.113-0.263,0.229-0.398,0.34c0.134-0.088,0.265-0.179,0.396-0.268
		c-0.195,3.337-0.683,7.036,1.522,12.668c-0.116,0.442-0.256,0.881-0.44,1.31c-0.452,1.053-1.12,2.049-1.993,2.898
		c1.094-0.53,2.113-1.303,2.968-2.264c0.067-0.074,0.128-0.159,0.193-0.237c0.195,0.427,0.403,0.863,0.631,1.313
		c0.034,0.066,0.067,0.132,0.099,0.197c-0.113,0.057-0.228,0.112-0.338,0.166c-1.083,0.515-2.203,0.961-3.424,1.146
		c1.218,0.206,2.503,0.133,3.749-0.029c0.21-0.03,0.416-0.059,0.619-0.087c0.21,0.416,0.413,0.815,0.609,1.205l-0.14,0.185
		c-0.467,0.606-0.947,1.191-1.542,1.7c0.762-0.16,1.517-0.458,2.242-0.776c0.07,0.138,0.14,0.277,0.207,0.411
		c-0.097,0.149-0.192,0.296-0.285,0.45c-0.097,0.164-0.192,0.332-0.283,0.503l-0.242,0.49c-0.63,1.317-1.101,2.647-1.639,3.962
		c0.87-1.119,1.7-2.288,2.61-3.324l0.348-0.385c0.071-0.076,0.149-0.147,0.223-0.221c0.302,0.615,0.581,1.195,0.836,1.744
		c-0.188,0.284-0.378,0.567-0.579,0.847c-0.254,0.343-0.516,0.682-0.787,1.016c0.391-0.181,0.778-0.371,1.165-0.574
		c0.21-0.111,0.418-0.235,0.626-0.354c0.323,0.732,0.602,1.415,0.838,2.063c-0.573,0.943-1.182,1.876-1.789,2.808
		c0.71-0.599,1.422-1.196,2.124-1.814c0.084,0.276,0.163,0.549,0.23,0.817c-0.08,0.16-0.153,0.322-0.22,0.484
		c-0.273,0.675-0.432,1.36-0.514,2.034c-0.162,1.351-0.042,2.642,0.123,3.904c0.218-1.241,0.497-2.48,0.985-3.567l-0.147,0.605
		c-0.07,0.311-0.133,0.621-0.191,0.935c-0.114,0.624-0.199,1.252-0.256,1.876c-0.112,1.252-0.096,2.492-0.003,3.707
		c0.232-0.942,0.517-1.865,0.859-2.752c0.025,0.315,0.056,0.637,0.085,0.961c-0.189,1.021-0.333,2.063-0.375,3.104
		c-0.051,1.312,0.051,2.648,0.464,3.856c-0.019-0.93,0.133-1.827,0.377-2.691c0.333,2.767,0.672,5.12,0.756,5.703
		c-2.208,0.175-3.952,2.825-3.887,5.122c0.051,1.862,6.361,3.888,9.453,2.562c2.549-1.091,3.297-1.708,3.728-4.12
		c0.187,0.111,0.372,0.224,0.56,0.339c-0.086-0.534-0.171-1.07-0.304-1.62c-0.015-0.058-0.034-0.114-0.05-0.172
		c0.016-0.114,0.028-0.223,0.042-0.345c0.037-0.339,0.08-0.721,0.129-1.136c0.761,0.565,1.51,1.167,2.249,1.788
		c-0.479-0.983-0.979-1.959-1.539-2.923c-0.155-0.27-0.318-0.535-0.484-0.803c0.021-0.17,0.04-0.346,0.062-0.521
		c0.429,0.135,0.855,0.288,1.272,0.465c0.91,0.389,1.792,0.881,2.563,1.583c-0.398-0.965-1.035-1.865-1.762-2.677
		c-0.267-0.301-0.554-0.586-0.845-0.866c0.397,0.099,0.8,0.23,1.216,0.376c0.539,0.187,1.092,0.388,1.649,0.518
		c-0.464-0.336-0.877-0.719-1.306-1.103c-0.423-0.38-0.877-0.776-1.396-1.119c-0.319-0.211-0.652-0.399-0.986-0.578
		c0.018-0.156,0.036-0.311,0.056-0.469c0.513-0.063,1.021-0.144,1.519-0.25c1.169-0.25,2.284-0.621,3.341-1.069
		c-1.15,0.007-2.281-0.083-3.367-0.288c-0.429-0.081-0.849-0.185-1.264-0.298c0.006-0.052,0.012-0.104,0.02-0.159
		c0.439-0.212,0.88-0.43,1.313-0.668c0.525-0.289,1.04-0.603,1.521-0.964c0.479-0.36,0.924-0.771,1.262-1.242
		c-0.494,0.305-1.023,0.494-1.562,0.633c-0.536,0.138-1.084,0.221-1.638,0.281c-0.222,0.023-0.444,0.041-0.668,0.059
		c0.039-0.327,0.076-0.646,0.112-0.952c0.193-0.142,0.39-0.286,0.586-0.43c0.827-0.609,1.68-1.243,2.393-1.981
		c-0.909,0.337-1.833,0.524-2.776,0.706c0.065-0.558,0.117-1.016,0.153-1.342c0.145-0.133,0.289-0.266,0.437-0.395
		c0.778-0.671,1.613-1.285,2.575-1.748c-0.867,0.017-1.751,0.17-2.617,0.391c0.698-2.144,2.163-5.381,2.488-6.089
		c0.134,0.188,0.261,0.384,0.377,0.59c0.302,0.529,0.54,1.118,0.719,1.745c0.369,1.254,0.524,2.628,0.716,3.979
		c0.194-1.354,0.434-2.701,0.438-4.135c0.001-0.475-0.032-0.961-0.101-1.447c0.203,0.305,0.389,0.629,0.55,0.981
		c0.358,0.775,0.603,1.642,0.773,2.538c0.346,1.799,0.406,3.706,0.598,5.582c0.193-1.876,0.527-3.728,0.563-5.68
		c0.01-0.656-0.021-1.324-0.107-2.003c0.032,0.067,0.064,0.132,0.095,0.199c0.276,0.625,0.487,1.31,0.663,2.017
		c0.354,1.416,0.571,2.931,0.984,4.37c-0.028-1.499,0.147-2.965,0.171-4.499c0.013-0.766-0.014-1.552-0.139-2.356
		c-0.002-0.022-0.007-0.045-0.011-0.067c0.094,0.025,0.188,0.049,0.284,0.074c0.124,0.163,0.245,0.332,0.362,0.517
		c0.28,0.438,0.53,0.916,0.765,1.415c0.467,1.001,0.864,2.081,1.345,3.106c-0.108-1.127-0.114-2.247-0.221-3.405
		c-0.034-0.374-0.089-0.755-0.152-1.137c0.104,0.021,0.206,0.045,0.313,0.066c0.057,0.075,0.122,0.146,0.179,0.226
		c0.324,0.457,0.598,0.965,0.831,1.514c0.235,0.547,0.42,1.137,0.621,1.736l0.626,1.774l-0.052-1.871
		c-0.01-0.623-0.005-1.258-0.066-1.915c-0.032-0.358-0.083-0.719-0.156-1.082c0.446,0.076,0.896,0.146,1.352,0.21
		c0.308,0.625,0.563,1.289,0.773,1.979c0.429,1.409,0.669,2.913,0.864,4.425c0.191-1.512,0.345-3.038,0.282-4.613
		c-0.02-0.523-0.068-1.051-0.145-1.582c0.181,0.02,0.362,0.033,0.545,0.049l0.076,0.107c0.141,0.211,0.278,0.431,0.41,0.652
		c0.265,0.453,0.508,0.924,0.74,1.411c0.463,0.975,0.876,1.999,1.32,3.006c-0.068-1.097-0.098-2.192-0.198-3.309
		c-0.051-0.56-0.117-1.122-0.218-1.694c-0.006-0.023-0.012-0.048-0.015-0.071c0.246,0.002,0.491,0.001,0.735-0.002
		c0.025,0.033,0.056,0.066,0.081,0.101c0.26,0.345,0.503,0.703,0.731,1.08c0.458,0.752,0.855,1.566,1.21,2.408
		c0.027-0.912,0.005-1.839-0.108-2.779c-0.035-0.302-0.084-0.604-0.14-0.906c0.256-0.025,0.513-0.054,0.765-0.088
		c0.192-0.028,0.377-0.055,0.565-0.082c0.066,0.092,0.135,0.183,0.201,0.276c0.268,0.388,0.523,0.788,0.765,1.198
		c0.486,0.822,0.918,1.689,1.313,2.576c-0.146-0.961-0.336-1.922-0.597-2.876c-0.123-0.455-0.266-0.908-0.423-1.359
		c0.23-0.037,0.462-0.069,0.687-0.107c0.141,0.082,0.278,0.167,0.412,0.262c0.503,0.343,0.962,0.779,1.342,1.303
		c-0.134-0.595-0.383-1.185-0.718-1.734c1.161-0.198,2.225-0.404,3.213-0.616c0.199,0.312,0.388,0.643,0.572,0.98
		c0.331,0.605,0.664,1.197,0.942,1.815c0.276,0.615,0.51,1.258,0.579,1.946c0.063-0.688-0.051-1.394-0.213-2.072
		c-0.162-0.68-0.386-1.342-0.596-1.997c-0.098-0.293-0.196-0.59-0.308-0.887c0.775-0.18,1.502-0.361,2.178-0.545
		c0.003,0.004,0.007,0.007,0.011,0.009c0.55,0.574,1.045,1.219,1.448,1.938c-0.145-0.732-0.393-1.458-0.714-2.157
		c0.535-0.157,1.04-0.315,1.518-0.474c0.361,0.471,0.707,0.979,1.068,1.468c-0.14-0.563-0.253-1.127-0.4-1.699
		c0.84-0.3,1.593-0.605,2.277-0.912c0.021,0.029,0.041,0.061,0.063,0.091c-0.006-0.038-0.011-0.075-0.015-0.112
		c1.134-0.51,2.094-1.026,2.977-1.539c0.192,1.104,0.822,6.239,0.711,6.801c-2.209-0.354-6.354,2.035-5.538,5.111
		c1.108,4.173,9.63,5.212,14.577,2.208c0.444-2.146-0.194-7.021-0.08-8.197c0.149,0.12,0.3,0.24,0.452,0.355
		c0.613,0.469,1.199,0.97,1.762,1.489c0.133,0.271,0.246,0.554,0.347,0.854c0.19,0.571,0.315,1.183,0.389,1.81
		c0.145,1.257,0.092,2.576-0.007,3.885c0.081-0.248,0.161-0.497,0.238-0.747c0.544-0.737,1.073-1.486,1.567-2.269
		c0.092-0.147,0.177-0.302,0.266-0.45c0.135,0.176,0.261,0.354,0.387,0.534c-0.157,0.682-0.402,1.362-0.702,2.032
		c-0.602,1.348-1.417,2.642-2.21,3.937c1.047-1.1,2.117-2.185,3.046-3.446c0.264-0.358,0.511-0.734,0.744-1.125
		c0.243,0.435,0.463,0.868,0.646,1.302c-0.021,0.063-0.043,0.128-0.064,0.191c-0.223,0.587-0.499,1.165-0.946,1.658
		c0.496-0.176,0.961-0.473,1.394-0.813c0.051,0.163,0.1,0.325,0.142,0.488c-0.414,0.471-0.841,0.929-1.31,1.357
		c0.482-0.208,0.952-0.45,1.417-0.707c-0.478,0.768-1.012,1.509-1.707,2.13c0.648-0.268,1.26-0.646,1.84-1.069
		c0.001,0.089,0.01,0.181,0.009,0.268c-0.008,0.289-0.015,0.58-0.022,0.872c-0.199,0.229-0.403,0.456-0.613,0.68
		c-0.772,0.811-1.616,1.572-2.506,2.286c1.05-0.436,2.084-0.934,3.087-1.517c-0.003,0.101-0.004,0.199-0.006,0.298
		c-0.511,0.423-1.052,0.823-1.594,1.219c0.528-0.199,1.055-0.404,1.581-0.629c-0.005,0.225-0.01,0.443-0.014,0.66
		c-0.067,0.048-0.131,0.101-0.2,0.146c-0.765,0.533-1.56,1.04-2.338,1.565c0.838-0.343,1.681-0.663,2.523-1.018
		c-0.016,0.788-0.029,1.478-0.04,1.999c-0.326,0.269-0.674,0.523-1.029,0.765c0.343-0.121,0.685-0.248,1.023-0.396
		c-0.009,0.417-0.012,0.659-0.012,0.659S90.74,95.644,91,98.93c0.218,2.761,4.419,4.869,12.987,3.104
		c2.887-4.586,2.731-10.865,2.958-18.891c0.436,0.455,0.835,0.954,1.177,1.507c-0.159-0.742-0.424-1.479-0.766-2.185
		c-0.116-0.238-0.241-0.474-0.37-0.707c0.037-1.212,0.061-2.357,0.077-3.447c0.381,0.442,0.738,0.918,1.075,1.419
		c0.749,1.109,1.416,2.311,2.183,3.434c-0.541-1.249-0.959-2.532-1.501-3.804c-0.272-0.634-0.574-1.267-0.938-1.88
		c-0.234-0.396-0.506-0.788-0.803-1.158c0.006-1.755-0.017-3.358-0.058-4.851c0.435,0.554,0.881,1.102,1.359,1.611
		c-0.448-0.852-0.81-1.731-1.177-2.621c-0.077-0.19-0.156-0.379-0.237-0.569c-0.01-0.308-0.022-0.609-0.038-0.909
		c0.429,0.555,0.858,1.119,1.324,1.646c-0.309-0.736-0.555-1.485-0.818-2.244c-0.133-0.379-0.272-0.759-0.426-1.141
		c-0.063-0.152-0.127-0.304-0.194-0.456c-0.026-0.444-0.053-0.883-0.082-1.316c0.532,0.668,1.011,1.404,1.489,2.154
		c0.959,1.51,1.883,3.04,2.615,4.684c-0.488-1.731-1.194-3.409-1.934-5.054c-0.37-0.817-0.75-1.649-1.225-2.458
		c-0.272-0.464-0.591-0.924-0.942-1.359c0.71-2.644,1.25-4.879,1.467-7.075c0.097,0.059,0.196,0.114,0.288,0.175
		c0.354,0.238,0.677,0.527,0.925,0.907c-0.063-0.447-0.249-0.896-0.497-1.302c-0.195-0.323-0.416-0.622-0.634-0.911
		c0.035-0.73,0.03-1.465-0.021-2.215c0.41,0.379,0.766,0.876,1.151,1.327c-0.265-0.606-0.452-1.23-0.844-1.833
		c-0.108-0.166-0.24-0.325-0.394-0.474c-0.047-0.406-0.11-0.82-0.187-1.242c0.152,0.07,0.301,0.143,0.446,0.226
		c0.504,0.282,0.953,0.68,1.299,1.191c-0.167-0.59-0.489-1.162-0.932-1.642c-0.322-0.355-0.688-0.665-1.049-0.955
		c-0.091-0.392-0.195-0.795-0.311-1.205c0.018,0.012,0.034,0.022,0.052,0.035c0.491,0.338,0.953,0.751,1.401,1.181
		c-0.293-0.547-0.606-1.089-0.997-1.601c-0.194-0.254-0.409-0.501-0.634-0.736c-0.072-0.077-0.154-0.154-0.234-0.23
		c-0.223-0.684-0.476-1.391-0.768-2.135c0.547,0.293,1.053,0.706,1.47,1.214c-0.292-0.656-0.724-1.276-1.293-1.781
		c-0.181-0.16-0.38-0.304-0.584-0.44c-0.179-0.429-0.371-0.869-0.571-1.321c0.05,0.013,0.116,0.034,0.133,0.034
		c0.048,0.014,0.095,0.03,0.144,0.05c0.388,0.16,0.767,0.459,1.137,0.744c-0.227-0.411-0.438-0.832-0.797-1.215
		c-0.047-0.049-0.094-0.097-0.146-0.141l-0.154-0.123c-0.129-0.084-0.247-0.153-0.363-0.213c-0.142-0.074-0.287-0.136-0.433-0.197
		c0.443,0.036,0.884,0.113,1.313,0.274c-0.446-0.372-0.988-0.649-1.544-0.863c-0.02-0.008-0.039-0.013-0.058-0.021
		c-0.177-0.373-0.361-0.754-0.553-1.144c0.109-0.118,0.22-0.238,0.332-0.357c0.418-0.448,0.838-0.901,1.24-1.363
		c-0.526,0.314-1.061,0.609-1.597,0.904c-0.099,0.052-0.199,0.109-0.297,0.164c-0.075-0.149-0.156-0.304-0.232-0.455
		c0.046-0.066,0.095-0.128,0.14-0.195c0.222-0.333,0.401-0.697,0.5-1.065c-0.27,0.273-0.572,0.474-0.895,0.636
		c-0.017,0.008-0.032,0.016-0.049,0.024c-0.707-1.378-1.498-2.853-2.379-4.448c0.308,0.037,0.616,0.106,0.916,0.209
		c0.598,0.206,1.163,0.549,1.634,1.02c0.475,0.47,0.847,1.063,1.096,1.719c-0.095-0.695-0.322-1.391-0.715-2.018
		c-0.386-0.627-0.934-1.18-1.586-1.59c-0.651-0.413-1.404-0.686-2.187-0.809c-0.096-0.015-0.192-0.02-0.288-0.031
		c-0.212-0.254-0.422-0.494-0.633-0.722c0.002-0.001,0.003-0.003,0.004-0.005c0.301-0.322,0.66-0.594,1.073-0.777
		c0.41-0.182,0.878-0.268,1.359-0.224c0.482,0.043,0.973,0.219,1.42,0.491c-0.344-0.393-0.774-0.739-1.294-0.958
		c-0.518-0.223-1.118-0.312-1.713-0.251c-0.325,0.031-0.646,0.109-0.955,0.216c0.139-0.251,0.308-0.5,0.501-0.742
		c0.566-0.701,1.303-1.34,1.975-2.015c-0.859,0.416-1.741,0.753-2.606,1.283c-0.062,0.037-0.121,0.077-0.181,0.116
		c0.127-0.221,0.26-0.438,0.404-0.647c0.377-0.533,0.826-1.014,1.38-1.37c0.55-0.358,1.212-0.575,1.908-0.608
		c-0.683-0.129-1.426-0.077-2.118,0.171c-0.696,0.244-1.329,0.664-1.885,1.152c-0.503,0.448-0.945,0.949-1.353,1.472
		c0.268-0.388,0.563-0.765,0.885-1.12c1.126-1.236,2.507-2.306,4.084-3.033c-0.844,0.208-1.67,0.524-2.463,0.913
		c-0.502,0.248-0.991,0.529-1.466,0.839c0.488-0.412,1.031-0.782,1.603-1.106c-1.133,0.281-2.265,0.707-3.288,1.438
		c-0.028,0.023-0.058,0.048-0.089,0.07c0.312-0.387,0.655-0.755,1.031-1.096c1.382-1.247,3.114-2.178,4.995-2.673
		c-1.578,0.145-3.151,0.598-4.608,1.348c0.424-0.48,0.863-0.951,1.313-1.413c-1.265,0.842-2.513,1.73-3.649,2.806
		c-0.199,0.187-0.388,0.39-0.58,0.59c0.126-0.25,0.255-0.5,0.385-0.746c0.09-0.108,0.179-0.214,0.271-0.32
		c1.055-1.182,2.368-2.182,3.767-3.041c-0.953,0.354-1.896,0.769-2.8,1.276c0.587-0.873,1.253-1.697,2.024-2.44
		c-1.469,0.966-2.752,2.243-3.878,3.627c-0.033,0.041-0.063,0.082-0.096,0.123c-0.221,0.176-0.438,0.358-0.647,0.553
		c0.048-0.107,0.092-0.211,0.141-0.316c0.646-1.35,1.585-2.608,2.8-3.598c-1.071,0.553-2.054,1.318-2.9,2.231
		c0.183-0.274,0.374-0.545,0.574-0.81c-0.995,0.782-1.921,1.696-2.659,2.807c-0.367,0.557-0.685,1.16-0.927,1.809
		c-0.046,0.116-0.082,0.239-0.123,0.361c-0.348,0.013-0.691,0.038-1.036,0.071c0.27-0.295,0.562-0.579,0.869-0.846
		c-0.584,0.258-1.155,0.559-1.697,0.938c-0.791,0.101-1.574,0.224-2.354,0.326c0.066-0.121,0.132-0.243,0.2-0.363
		c0.407-0.691,0.877-1.355,1.524-1.872c-0.752,0.35-1.405,0.915-1.988,1.521c-0.258,0.27-0.502,0.55-0.741,0.835
		c-0.294,0.037-0.582,0.074-0.862,0.115c0.155-0.267,0.316-0.531,0.489-0.79c-0.411,0.281-0.812,0.585-1.204,0.899
		c-0.712,0.117-1.385,0.25-2.053,0.397c0.086-0.147,0.173-0.293,0.268-0.44c0.435-0.674,0.931-1.335,1.374-2.02
		c-0.593,0.562-1.22,1.076-1.821,1.651c-0.3,0.287-0.596,0.59-0.87,0.92c-0.043,0.054-0.082,0.109-0.124,0.164
		c-0.409,0.101-0.821,0.206-1.247,0.315c0.209-0.533,0.468-1.055,0.766-1.564c-0.451,0.394-0.882,0.823-1.277,1.297
		c-0.135,0.161-0.259,0.334-0.383,0.502c-0.252,0.066-0.507,0.134-0.767,0.203l0.013-0.093c0.06-0.32,0.133-0.636,0.283-0.939
		c-0.296,0.17-0.559,0.418-0.799,0.673l-0.35,0.381c-0.065,0.074-0.126,0.14-0.188,0.203c0.062-0.155,0.128-0.307,0.199-0.458
		c0.284-0.596,0.65-1.167,1.074-1.705c-0.557,0.398-1.084,0.852-1.557,1.38c-0.234,0.264-0.457,0.547-0.659,0.849
		c-0.056,0.085-0.106,0.173-0.158,0.261c-0.678,0.169-1.401,0.345-2.189,0.528l0.109-0.193c0.225-0.397,0.446-0.799,0.64-1.208
		c-0.348,0.29-0.709,0.556-1.075,0.82l-1.104,0.798l0.096,0.085c-0.173,0.037-0.348,0.075-0.526,0.113
		c-0.058,0.013-0.114,0.024-0.172,0.035c0.005-0.037,0.008-0.072,0.014-0.109c0.035-0.238,0.088-0.474,0.185-0.708
		c-0.233,0.096-0.463,0.238-0.676,0.396c-0.155,0.112-0.531,0.43-0.802,0.658c-0.04,0.006-0.08,0.013-0.12,0.02
		c0.072-0.213,0.146-0.426,0.23-0.638c0.192-0.495,0.414-0.986,0.657-1.47c-0.397,0.368-0.785,0.754-1.151,1.164
		c-0.184,0.204-0.364,0.416-0.539,0.631c-0.127,0.154-0.252,0.318-0.375,0.479c-0.494,0.061-0.991,0.111-1.491,0.151l0.172-0.307
		c0.275-0.497,0.54-1.009,0.735-1.537c-0.364,0.43-0.771,0.805-1.189,1.173l-0.636,0.55c-0.071,0.064-0.149,0.131-0.224,0.197
		c-0.551,0.028-1.104,0.045-1.651,0.049l0.008-0.046l0.138-0.631c-0.395,0.172-0.782,0.348-1.179,0.562l0.152,0.111
		c-0.191,0-0.385-0.005-0.576-0.009c0.108-0.269,0.229-0.534,0.374-0.794c-0.305,0.162-0.601,0.353-0.888,0.562
		c-0.086,0.066-0.171,0.133-0.256,0.199c-0.251-0.01-0.498-0.026-0.745-0.042c0.03-0.044,0.058-0.087,0.087-0.13
		c0.396-0.575,0.842-1.132,1.284-1.686c-0.576,0.414-1.155,0.829-1.712,1.292c-0.175,0.145-0.347,0.297-0.515,0.454
		c-0.547-0.052-1.08-0.115-1.595-0.19c0.009-0.034,0.016-0.07,0.026-0.105c0.091-0.293,0.221-0.584,0.371-0.87
		c-0.288,0.149-0.572,0.322-0.842,0.531c-0.129,0.099-0.253,0.205-0.375,0.313c-0.688-0.122-1.343-0.264-1.948-0.429
		c0.091-0.166,0.195-0.329,0.322-0.478c-0.245,0.09-0.479,0.225-0.701,0.37c-0.386-0.113-0.75-0.235-1.089-0.367
		c0.162-0.28,0.328-0.56,0.498-0.845c-0.351,0.2-0.706,0.402-1.061,0.607c-0.639-0.288-1.169-0.611-1.565-0.967l-0.353-1.326
		c0,0,1.59-1.502,2.474-4.86c0.883-3.355,4.063-7.242,5.3-8.48c-1.233-1.762-2.901-3.288-7.794-3.308l0.899-0.891l-1.537,0.46
		c-0.506,0.155-1.034,0.332-1.531,0.506c-0.389,0.027-0.799,0.064-1.22,0.105c0.11-0.076,0.219-0.16,0.33-0.235
		c1.258-0.828,2.631-1.514,4.055-2.095c-1.501,0.334-2.988,0.783-4.426,1.415c-0.718,0.318-1.422,0.682-2.1,1.121
		c-0.037,0.022-0.072,0.048-0.108,0.073c-0.18,0.025-0.368,0.057-0.552,0.085c0.236-0.259,0.477-0.514,0.725-0.762
		c0.524-0.525,1.075-1.023,1.674-1.468c0.596-0.443,1.236-0.836,1.942-1.11c-0.742,0.15-1.463,0.434-2.146,0.779
		c-0.686,0.35-1.34,0.762-1.969,1.204c-0.74,0.525-1.445,1.095-2.134,1.678c-0.68,0.122-1.387,0.257-2.131,0.41
		c0,0-1.542-1.95-4.286-3.927c0.85-0.92,2.201-2.669,2.079-4.376c-0.179-2.474-1.835-2.488-4.662-2.488
		c-0.785,0-1.519,0.145-2.219,0.39c0.222-0.417,0.416-0.848,0.538-1.295c-0.354,0.562-0.813,1.025-1.291,1.47
		c-0.104,0.096-0.21,0.19-0.318,0.285c-0.181,0.093-0.36,0.19-0.535,0.295c0.133-0.572,0.253-1.151,0.336-1.726
		c-0.448,0.875-0.979,1.683-1.512,2.509c-0.044,0.032-0.087,0.063-0.13,0.096c-0.021-0.293-0.029-0.59-0.037-0.889
		c-0.014-0.611-0.021-1.232-0.066-1.845c-0.147,0.596-0.333,1.176-0.51,1.767c-0.089,0.296-0.176,0.595-0.254,0.9l-0.024,0.098
		c-0.083-0.463-0.144-0.936-0.18-1.411C28.901,1.901,28.913,0.945,29.096,0c-0.368,0.891-0.581,1.852-0.709,2.823
		c-0.096,0.758-0.138,1.532-0.102,2.316c-1.24-0.167-2.546-0.215-3.914-0.101c-2.149,0.179-4.046,0.475-5.718,0.871
		c0.261-0.552,0.529-1.1,0.813-1.643c-0.608,0.608-1.195,1.244-1.774,1.889c-0.158,0.045-0.313,0.09-0.47,0.137
		c0.066-0.279,0.138-0.555,0.218-0.832c0.271-0.927,0.612-1.844,0.993-2.746c-0.552,0.809-1.073,1.647-1.532,2.529
		c-0.229,0.441-0.444,0.892-0.64,1.356V6.6c-0.062,0.02-0.127,0.041-0.188,0.062c0.008-0.058,0.011-0.115,0.021-0.175
		c0.03-0.237,0.073-0.472,0.117-0.712c0.084-0.474,0.172-0.961,0.153-1.446c-0.049,0.484-0.195,0.942-0.342,1.4
		c-0.074,0.23-0.149,0.461-0.215,0.699c-0.032,0.117-0.063,0.241-0.089,0.367c-0.094,0.035-0.191,0.068-0.28,0.104
		c-0.008-0.162-0.02-0.324-0.023-0.488c-0.02-0.554-0.021-1.107-0.01-1.662c0.022-1.108,0.096-2.22,0.185-3.328
		C15.438,2.521,15.3,3.626,15.212,4.74c-0.044,0.556-0.073,1.114-0.088,1.672c-0.006,0.205-0.006,0.413-0.006,0.621
		c-0.027,0.01-0.057,0.022-0.085,0.034c-0.364-1.07-0.669-2.199-1.123-3.254c0.198,1.195,0.209,2.386,0.324,3.612
		c-0.121,0.057-0.235,0.117-0.353,0.177c-0.124-0.535-0.244-1.074-0.425-1.592c0.084,0.581,0.1,1.164,0.121,1.751
		c-0.034,0.017-0.065,0.036-0.098,0.055c-0.146-0.182-0.288-0.365-0.418-0.549c-0.426-0.609-0.728-1.402-1.22-2.034
		c0.162,0.367,0.264,0.746,0.363,1.13c0.101,0.387,0.188,0.775,0.344,1.179c0.09,0.222,0.184,0.438,0.281,0.652
		c-0.216,0.135-0.425,0.269-0.625,0.41c-0.039-0.023-0.079-0.046-0.118-0.07c-0.55-0.327-1.094-0.647-1.604-1.038
		c0.366,0.522,0.802,1.005,1.228,1.479c-0.062,0.049-0.122,0.1-0.184,0.15L11.29,8.852c-0.194-0.223-0.396-0.444-0.61-0.646
		c0.167,0.244,0.31,0.498,0.451,0.756l0.187,0.341c-0.156,0.133-0.302,0.269-0.441,0.407l-0.009-0.003
		c-0.276-0.076-0.551-0.155-0.818-0.241C9.508,9.292,8.981,9.083,8.481,8.788C8.856,9.23,9.306,9.625,9.776,9.98
		c0.166,0.124,0.334,0.244,0.504,0.362c-0.033,0.038-0.063,0.079-0.096,0.119c-0.243-0.169-0.479-0.341-0.713-0.528
		C9.133,9.659,8.804,9.369,8.49,9.063c-0.625-0.612-1.199-1.284-1.688-2.02c0.433,0.77,0.96,1.488,1.548,2.154
		c0.295,0.332,0.606,0.653,0.933,0.957c0.216,0.2,0.448,0.397,0.681,0.586c-0.044,0.058-0.087,0.118-0.129,0.177
		c-0.142-0.01-0.283-0.019-0.428-0.021c-0.479-0.005-0.974,0.071-1.378,0.284c0.457-0.023,0.873,0.103,1.255,0.286
		c0.048,0.022,0.095,0.052,0.14,0.075c-0.29,0.492-0.522,1.001-0.702,1.525c-0.166,0.072-0.331,0.141-0.49,0.222
		c-0.477,0.236-0.916,0.528-1.299,0.863c0.482-0.168,0.972-0.267,1.458-0.304c0.036-0.004,0.071-0.001,0.107-0.005
		c-0.044,0.186-0.085,0.371-0.116,0.559c0,0-0.354,2.74-2.563,3.093C3.609,17.849,0.588,17.624,0.146,20.096 M17.582,80.211
		c-0.107-0.273-0.205-0.547-0.299-0.822c0.172-0.211,0.349-0.424,0.531-0.632c0.016,0.288,0.042,0.574,0.077,0.855
		c0.127,0.966,0.363,1.885,0.632,2.785C18.188,81.675,17.864,80.948,17.582,80.211"/>
</g>
</svg>
