<?xml version="1.0" encoding="utf-8"?>
<!-- Generator: Adobe Illustrator 15.1.0, SVG Export Plug-In . SVG Version: 6.00 Build 0)  -->
<!DOCTYPE svg PUBLIC "-//W3C//DTD SVG 1.1//EN" "http://www.w3.org/Graphics/SVG/1.1/DTD/svg11.dtd">
<svg version="1.1" id="Layer_1" xmlns="http://www.w3.org/2000/svg" xmlns:xlink="http://www.w3.org/1999/xlink" x="0px" y="0px"
	 width="85.21px" height="58.002px" viewBox="0 0 85.21 58.002" enable-background="new 0 0 85.21 58.002" xml:space="preserve">
<g>
	<defs>
		<rect id="SVGID_1_" y="0" width="85.21" height="58.002"/>
	</defs>
	<clipPath id="SVGID_2_">
		<use xlink:href="#SVGID_1_"  overflow="visible"/>
	</clipPath>
	<path clip-path="url(#SVGID_2_)" fill="#929296" d="M79.76,14.598c-0.314-0.624-1.633-2.563-3.247-4.016
		c-1.271-1.144-1.805-1.618-2.013-2.211c0,0-0.267,0.148-0.207,0.445c0,0-1.037-0.83-1.719-1.423c0,0,0.118,0.237,0.089,0.475
		c0,0-2.045-0.741-2.4-1.245c0,0-0.178,0.207-0.059,0.326c0,0-0.919-0.326-1.067-0.741c0,0-0.029,0.326,0,0.474
		c0,0-1.719-0.681-3.349-0.948c-1.629-0.267-4.325-0.296-5.481,0c0,0-0.237-0.237,0.03-0.563c0,0-0.681,0.554-1.351,0.785
		c0,0-0.25-0.429-0.131-0.637c0,0-0.668,0.883-1.571,0.948c0,0-2.969,0.262-4.303,0.024c0,0,1.044,0.452,0.889,0.787
		c-0.278,0.604-0.111,0.315-2.156,0.612C49.67,7.985,48.1,8.252,46.41,8.844c-1.688,0.593-1.57-0.355-2.903-0.148
		c-1.334,0.208-1.126,0.474-2.667-0.059c-1.541-0.533-1.393-1.067-3.289-1.689c-1.897-0.622-5.097-1.867-7.349-2.755
		c-2.252-0.889-5.05-1.95-5.695-2.353c-0.606-0.379-0.576-0.846-0.576-0.846s-0.288,0.018-0.397,0.342c0,0-0.431-0.108-0.666-0.45
		c0,0-0.233,0.108-0.324,0.27c0,0-1.079,0.072-1.332-0.144c0,0-0.161,0.18-0.035,0.288c0,0-1.494,0.144-2.215-0.018
		c-0.72-0.162-1.277-0.378-2.25-0.738c-0.971-0.36-2.123-0.738-3.996-0.432c-1.871,0.306-2.303,0.612-2.969,0.612
		s-1.62-0.018-3.023,1.152C5.32,3.046,4.617,3.623,4.329,4.738c-0.288,1.116,0.018,1.08,0.036,1.44
		c0.018,0.36,0.288,0.72-0.305,0.954C3.465,7.366,2.187,7.654,1.503,7.834C0.82,8.015,0.302,8.163,0.405,9.022
		c0.054,0.45,0.054,0.648,0.018,0.935c-0.036,0.288-0.324,0.469-0.197,1.297C0.331,11.953-0.172,12.512,0.064,13
		c0.233,0.487,2.412,4.483,3.887,4.104c0,0-0.414,0.181-0.324,1.026c0.09,0.846,0.235,0.846,0.235,0.846s-0.415,2.268-0.415,2.844
		c0,0.577,0.756,0.972,1.098,1.026c0.342,0.054,1.855,0.198,1.926-0.395c0.072-0.595,0.234-1.369,0.828-1.927
		c0.594-0.558,0.433-0.684,0.63-0.684c0.198,0,0.81,0.396,1.368,0.45c0.558,0.054,1.189-0.215,1.656,0.126
		c0.468,0.342,0.666,0.451,0.666,0.018c0-0.432-0.018-0.251,0.216-0.233c0.235,0.018,0.054-0.126,0.235-0.163
		c0.179-0.036,0.505-0.014,0.621,0.032c0,0,0.068,0.825,0.687,1.398c0,0-0.115-0.321,0.183-0.894c0,0,0.665,1.054,1.146,1.054
		c0.482,0,1.513-0.665,2.017-0.802c0.504-0.137,1.305-0.229,1.719-0.619c0,0,0.664,0.688,0.572,1.192
		c-0.092,0.504-0.756,2.223-0.229,3.437c0.528,1.215,2.567,4.561,3.782,5.34c1.214,0.779,4.125,2.796,5.82,3.645
		c1.695,0.848,2.452,1.855,2.979,3.3c0.528,1.443,1.032,3.093,1.284,4.675c0.252,1.581,0.481,3.002,0.801,4.01
		c0.322,1.009,0.871,1.972,0.596,3.393c-0.274,1.421-0.274,2.177-0.435,2.338c-0.161,0.16-1.98,0.057-3.139,1.375
		c-0.504,0.571-0.153,1.254,0.228,1.581c0.322,0.274,0.895,0.389,1.169,0.137c0.275-0.252,0.539,0.372,1.375,0
		c0.413-0.183,1.101-0.023,1.215-0.023c0,0-1.1,0.437-1.191,0.895c-0.093,0.458,0.16,0.71,0,1.077
		c-0.161,0.367,0.046,0.732,0.412,0.756c0.366,0.022,0.802,0.322,1.054,0.161s0.779,0.137,1.238-0.069
		c0.458-0.206,0.274-0.046,0.55,0.206c0.274,0.252,0.755,0.206,1.145-0.023c0.39-0.229,0.642,0.78,1.307,0.229
		c0.664-0.549,0.664-0.504,1.123-0.618c0.458-0.115,1.099-1.008,1.099-1.375s0.436-0.963,0.368-1.901
		c-0.07-0.94-0.092-2.292,0.022-2.797c0.114-0.504,0.933-0.967,0.619-3.438c-0.183-1.443-0.183-1.924-0.183-1.924
		s0.825-0.298,1.031-1.009c0,0-0.527,0.138-0.917-0.253c-0.39-0.39-0.092-0.802-0.092-0.802s0.505,0.504,0.895,0.391
		c0,0-0.734-0.665-0.757-1.926c-0.023-1.261-0.046-2.2,0.161-2.934c0.206-0.733,0.16-1.26-0.047-1.466c0,0-0.103-0.488,0.263-0.686
		c0,0-0.029-0.28-0.423-0.28c0,0-0.255-0.42,0.663-0.71c0.452-0.144,0.81-0.119,1.071-0.049c0,0-0.31-0.714-0.81-1.022
		c-0.5-0.311,0.429-0.977,1.333-1c0.904-0.024,2.412,0.269,2.674,0.53c0,0,0.119,0.048,0.262-0.357
		c0.144-0.405,0.262-0.857,0.262-0.857s0.144,0.191,0.167,0.786c0,0,0.31-0.381,0.452-1c0,0,0.262,0.214,0.167,0.548
		c0,0,0.285-0.237,0.429-0.667c0,0,0.237,0,0.237,0.286c0,0,1.071-0.523,2.118-0.903c0,0-0.047,0.903-0.404,1.402
		c0,0,0.5-0.261,0.904-1.522c0,0,0.31,0.19,0.19,0.81c0,0,0.479-0.464,0.622-1.178c0,0,0.238,0.099,0.188,0.844
		c0,0,0.214-0.225,0.476-0.975c0.248-0.709,0.314-0.931,0.388-0.443c0.07,0.463,0.21,0.869,0.229,1.297c0,0,0.39-0.473,0.418-1.782
		c0,0,0.473,0.334,0.473,0.863c0,0,0.474-0.473,0.502-1.003c0,0,0.891,0.447,2.339-0.138c1.449-0.585,2.535-1.032,2.869-1.032
		c0,0-0.416,1.975,0.335,2.758c0.641,0.669,1.447,0.475,1.447,0.475s2.849,3.586,4.292,5.028c1.444,1.444,2.497,2.659,2.979,3.942
		c0.48,1.284,0.939,2.727,0.504,4.147c-0.436,1.422-1.674,1.902-2.131,2.2c-0.459,0.298-3.139,0.661-3.689,1.948
		c-0.207,0.481,0.16,0.573,0.16,0.573s0.436,1.146,1.306,0.848c0.871-0.298,1.192,0.16,1.765-0.069
		c0.572-0.229,0.619-0.067,1.834-0.159c1.214-0.093,1.604,0.159,2.154-0.367c0.55-0.527,1.191-0.573,1.191-1.284
		c0-0.71,1.206-2.07,1.497-2.609c0.292-0.539,0.626-1.456,0.626-1.718c0,0,0.002,1.113-0.118,1.768c0,0,0.292-0.431,0.292-0.774
		c0,0,0.154,0.516,0.052,1.255c0,0,0.172-0.034,0.224-0.344c0,0,0.154,0.361,0.086,0.962c0,0,0.188-0.137,0.206-0.36
		c0,0,0.103,0.431,0.052,1.015c0,0,0.172-0.069,0.24-0.311c0,0,0.292,0.895,0.206,1.375c0,0,0.205-0.154,0.327-0.601
		c0,0,0.213,0.37,0.264,0.679c0,0,0.287-0.047,0.305-0.355c0,0,0.275,0.464,0.258,0.738c0,0,0.258-0.446,0.258-0.636
		c0,0,0.377,0.292,0.377,0.619c0,0,0.139-0.275,0.139-0.533c0,0,0.292,0.086,0.36,0.498c0,0,0.198-0.66,0.268-0.797
		c0,0,0.333,0.268,0.367,0.525c0,0,0.157-0.356,0.158-0.602c0-0.024-0.001-0.047-0.003-0.068c-0.035-0.24,0.274,0.481,0.292,0.637
		c0,0,0.224-0.723,0.224-1.015c0,0,0.445,0.929,0.464,1.271c0.017,0.344,0.172,1.427-0.189,2.115
		c-0.36,0.687-0.825,1.305-1.186,1.614c-0.361,0.311-1.341,1.323-1.307,2.27c0.034,0.945,0.275,0.911,0.499,1.083
		c0.223,0.171,1.048,0.309,1.392,0.223s0.722,0.258,1.719,0.069c0.997-0.189,1.409-0.275,2.303-0.258
		c0.895,0.017,1.341,0.274,1.65-0.412c0.309-0.688,0.275-0.517,0.189-1.187c-0.086-0.671,0.344-1.135-0.069-1.96
		c-0.412-0.825-1.134-1.976-0.79-3.608c0.344-1.634,0.739-2.166,0.326-3.061c-0.412-0.893-0.567-1.477-0.412-2.646
		c0.154-1.169,0.498-1.771,0.224-2.87c0,0,0.796-0.48,0.939-1.077c0,0-0.478-0.011-1.063-0.584c-0.584-0.573-0.87-1.42-0.931-1.623
		c-0.06-0.203-0.023-0.048-0.023-0.048s0.561,0.513,1.026,0.561c0,0-0.896-1.062-1.038-1.813c0,0,0.274,0.189,0.62,0.286
		c0,0-0.62-0.955-0.787-1.838c0,0,0.227,0.417,0.608,0.596c0,0-0.681-1.349-0.74-2.219c0,0,0.011-0.922-0.199-1.653
		c0,0,0.549,0.34,1.045-0.131c0,0-1.175-0.602-1.28-1.698c0,0-0.234-0.862-0.183-1.515c0.053-0.654,0.784-0.993,0.888-1.829
		c0.105-0.836-0.052-0.993-0.313-1.254c0,0-0.34,0.914-0.758,0.914s-0.574-1.306-0.313-1.672c0.261-0.365,0.549,0.104,0.549,0.104
		s0.234-0.888-0.079-2.038c-0.313-1.149-0.13-0.888,0.079-1.828c0.208-0.941,0.418-1.725,0.313-3.006c0,0-0.262,0.367-0.471,0.575
		c0,0,0.34-1.28,0.157-1.88c0,0-0.026,0.443-0.498,0.705c0,0,0.079-0.888-0.13-1.594c0,0-0.052,0.235-0.339,0.471
		c0,0,0.025-0.602-0.366-1.647c0,0,0.053,0.287-0.313,0.653c0,0-0.522-1.28-0.758-1.671L79.76,14.598z"/>
</g>
</svg>
