<?xml version="1.0" encoding="utf-8"?>
<!-- Generator: Adobe Illustrator 15.1.0, SVG Export Plug-In . SVG Version: 6.00 Build 0)  -->
<!DOCTYPE svg PUBLIC "-//W3C//DTD SVG 1.1//EN" "http://www.w3.org/Graphics/SVG/1.1/DTD/svg11.dtd">
<svg version="1.1" id="Layer_1" xmlns="http://www.w3.org/2000/svg" xmlns:xlink="http://www.w3.org/1999/xlink" x="0px" y="0px"
	 width="118.994px" height="83.665px" viewBox="0 0 118.994 83.665" enable-background="new 0 0 118.994 83.665"
	 xml:space="preserve">
<g>
	<defs>
		<rect id="SVGID_1_" width="118.994" height="83.665"/>
	</defs>
	<clipPath id="SVGID_2_">
		<use xlink:href="#SVGID_1_"  overflow="visible"/>
	</clipPath>
	<path clip-path="url(#SVGID_2_)" fill="#929296" d="M110.072,26.829c0,0-0.448-1.252-2.913-2.652
		c-1.145-0.651-7.465-4.136-9.285-5.229c-1.821-1.092-5.047-2.913-8.688-3.771c-3.641-0.859-4.783-1.048-6.373-1.145
		c-5.54-0.338-17.735,0.104-23.955,1.196c-1.926,0.339-3.98,0.235-5.463,0.651c-1.482,0.416-3.615,0.261-4.787,0.234
		c-1.17-0.026-3.043,0.182-4.316,0.338c-1.276,0.156-3.929-0.078-5.411-0.39s-1.442-0.539-3.173-0.884
		c-1.692-0.338-2.679-1.067-3.954-1.405s-3.124-0.787-4.266-1.56c-0.807-0.547-0.936-1.067-0.997-1.398
		c-0.346-1.877-0.145-2.47-0.299-3.495C26.019,6.18,25.59,4.993,25.465,4.35c-0.207-1.07-0.138-3.453-1.588-3.935
		c-1.274-0.426-2.869,1.95-3.236,2.531c-0.051,0.08-0.096,0.072-0.133-0.024C20.282,2.309,19.375,0.029,18.388,0
		c-1.14-0.035-3.072,3.555-3.211,6.835c-0.137,3.279-0.931,3.487-1.552,3.866c-0.623,0.38-3.074,2.521-4.144,3.901
		c-1.069,1.381-1.036,1.622-1.001,2.21c0.035,0.586-0.414,1.588-0.828,2.071c-0.414,0.484-1.83,1.553-3.143,2.383
		c-1.31,0.828-2.346,2.105-3.037,2.726c-0.691,0.622-2.003,1.796-1.243,2.59c0.741,0.774,3.287,3.387,8.502,2.267
		c0.373-0.08,0.355,0,0.226,0.262c-0.276,0.557-0.778,1.636-0.891,2.304c-0.138,0.807,0.104,2.485,0,3.177
		c-0.104,0.689-0.621,1.863-0.31,2.139c0.31,0.277,1.416-0.517,1.759-1.104c0.286-0.486,0.407-1.043,0.42-1.397
		c0.007-0.178,0.106-0.308,0.336-0.357c0.662-0.141,2.25-0.523,3.215-1.111c1.088-0.664,2.782-2.282,3.86-2.907
		c0.281-0.162,0.414-0.222,0.705,0.123c0.271,0.321,0.682,0.845,1.006,1.411c0.529,0.923,1.532,3.904,3.3,5.148
		c0.733,0.516,1.363,1.653,0.862,2.344c0,0,0.595-0.095,0.858-0.477c0,0,0.333,0.811-0.071,1.359c0,0,0.762-0.358,0.881-0.644
		c0,0,0.167,0.953-0.119,1.43c0,0,0.858-0.073,1.144-0.644c0,0,0.404,1.144-0.025,1.597c0,0,0.882-0.143,1.167-0.572
		c0,0,0.24,0.714-0.142,1.334c0,0,0.905,0.024,1.143-0.405c0,0,1.811,4.049,4.503,5.788c2.692,1.74,4.168,3.027,6.145,4.742
		c1.978,1.714,3.384,3.049,3.883,5.383c0.502,2.335,0.215,3.955,0.12,5.242c-0.095,1.287-0.333,4.646-0.381,6.933
		c-0.048,2.287,0.18,3.428-0.5,5.528c-0.286,0.881-1.12,2.263-1.406,2.811c-0.286,0.549-0.643,1.119-1.358,1.311
		c-0.715,0.19-1.739,0.19-2.168,0.738c-0.428,0.549-1.953,1.19-1.906,2.168c0.049,0.977,0.382,0.905,1.311,0.977
		c0.928,0.072,2.287,0.333,2.93,0.072c0.643-0.263,1.715,0.188,2.573-0.215c0.857-0.404,1.38-0.071,2.144-0.619
		c0.762-0.548,1.023-1.024,1.477-0.93c0.451,0.096,2.024,0.215,2.524-0.523c0.5-0.739,0.381-1.478,0.857-1.882
		c0.477-0.406,0.358-0.645,0.215-1.406c-0.142-0.762,0.238-1.834,0.453-2.454c0.214-0.619,0.095-0.714,0.691-0.762
		c0.596-0.047,1.238-0.62,1.023-1.668c-0.214-1.048,0.129-12.647,0.328-14.825c0.198-2.177,0.296-3.316,0.446-4.503
		c0,0,0.297,1.087,0.395,1.286c0,0,0.05-1.733,0.247-2.229c0,0,0.595,0.742,0.645,1.337c0,0,0.247-1.386,0.148-1.931
		c0,0,0.594,0.743,0.594,1.386c0,0,0.248-1.484,0.049-1.979c0,0,0.891,0.643,0.941,1.187c0,0,0.446-0.692,0.099-1.534
		c0,0,0.989,0.396,1.089,0.742c0,0,0.396-0.939,0.148-1.386c0,0,0.941,0.446,2.178-0.049c0,0-0.57-0.244-0.967-0.689
		c1.922-0.754,7.897-2.182,12.551-4.954c2.206-1.313,7.145-2.496,10.871-1.134c0.334,0.122,0.43,0.303,0.243,0.584
		c-0.397,0.602-0.963,1.666-0.423,2.233c0.935,0.98,4.249,2.094,7.2,0.343c0.344-0.205,0.642-0.076,0.837,0.311
		c0.813,1.616,3.129,5.797,6.169,7.612c3.813,2.278,4.869,3.388,5.744,4.505c0.889,1.14,2.098,3.307,2.325,5.099
		c0.163,1.292,0.605,3.111-0.591,5.765c-1.196,2.654-1.743,2.42-2.212,2.706c-0.468,0.286-2.105,0.026-2.418,0.703
		c-0.313,0.675-1.274,1.118-1.302,1.612c-0.025,0.493-0.208,1.015,0.078,1.223s-0.39,0.545,0.832,1.248
		c1.224,0.702,1.77,0.572,2.862,0.39c1.092-0.182,2.471-0.313,3.069-0.156s1.77-0.13,2.341-1.301
		c0.572-1.17,1.248-3.276,1.691-4.214c0.441-0.935,1.17-2.548,1.482-4.084c0.312-1.534,0.755-2.497,1.066-3.043
		c0,0-0.053,2.914,0,3.46c0,0,0.39-1.3,0.39-1.951c0,0,0.416,2.419,0.416,3.121c0,0,0.26-1.118,0.286-1.638
		c0,0,0.546,1.352,0.599,2.132c0,0,0.233-0.597,0.26-1.04c0,0,0.572,1.431,0.599,2.133c0,0,0.233-0.624,0.286-1.065
		c0,0,0.286,1.481,0.417,2.313c0,0,0.104-0.962,0.182-1.272c0,0,0.26,1.794,0.468,2.418c0,0,0.026-1.224,0.104-1.742
		c0.078-0.521,0.078-0.105,0.078-0.105s0.598,3.237,0.598,2.783c0-0.259,0.104-1.56,0.131-1.638c0,0,0.417,1.898,0.884,2.471
		c0,0-0.364-1.638-0.364-2.159c0-0.52,0.13-0.052,0.13-0.052s0.893,1.933,0.808,1.508c-0.027-0.13-0.392-1.534-0.365-2.184
		c0,0,0.729,0.676,0.729,1.118c0,0,0-1.534-0.131-2.367c0,0,0.442,0.495,0.547,1.092c0,0,0.156-2.236-0.104-2.991
		c0,0,0.729,1.848,0.676,2.315c0,0,0.13-1.378,0.053-2.159c0,0,0.573,0.729,0.624,1.327c0,0,0.156-2.029-0.156-3.043
		c0,0,0.703,1.04,0.729,1.43c0,0-0.26-4.941-0.963-6.347c0,0,0.677,0.91,1.145,1.689c0,0-1.517-4.455-2.028-5.825
		c-0.729-1.951-1.006-5.69-1.586-7.103c-0.963-2.342-2.289-7.778-2.654-9.052c-0.364-1.276,0.052-3.319-0.078-5.124
		c-0.155-2.186-0.784-6.579-1.56-8.247c-0.521-1.118-0.963-2.054-2.186-3.172C108.902,26.388,109.318,26.334,110.072,26.829"/>
</g>
</svg>
