<?xml version="1.0" encoding="utf-8"?>
<!-- Generator: Adobe Illustrator 18.1.0, SVG Export Plug-In . SVG Version: 6.00 Build 0)  -->
<svg version="1.1" id="Layer_1" xmlns="http://www.w3.org/2000/svg" xmlns:xlink="http://www.w3.org/1999/xlink" x="0px" y="0px"
	 viewBox="0 0 71.6 70.8" enable-background="new 0 0 71.6 70.8" xml:space="preserve">
<g>
	<path fill="none" d="M51.1,33.1c0.7,0,1.2-0.7,1.2-1.7c0-0.9-0.5-1.6-1.2-1.6H37.6v3.3H51.1z"/>
	<path fill="none" d="M38.8,9.7c0-1.5-1.3-2.8-2.8-2.8c-1.5,0-2.8,1.3-2.8,2.8s1.3,2.8,2.8,2.8C37.5,12.5,38.8,11.3,38.8,9.7z"/>
	<circle fill="none" cx="6.9" cy="51" r="1.4"/>
	<rect x="37.6" y="19.3" fill="none" width="0" height="8.5"/>
	<path fill="none" d="M20.8,29.8c-0.6,0-1.2,0.7-1.2,1.6c0,0.9,0.5,1.7,1.2,1.7h13.5v-3.3H20.8z"/>
	<path fill="none" d="M37.6,15.9v1.4c0,0,0,0,0,0c0.7-0.1,1.4-0.4,2-0.7c2.4-1.3,4.1-3.9,4.1-6.8C43.7,5.5,40.2,2,36,2
		s-7.7,3.5-7.7,7.7c0,2.9,1.6,5.5,4,6.8c0.6,0.3,1.3,0.6,2,0.7v-1.4H37.6z M31.2,9.7c0-2.7,2.2-4.8,4.8-4.8c2.6,0,4.8,2.2,4.8,4.8
		c0,1.7-0.9,3.2-2.3,4.1c-0.7,0.5-1.6,0.7-2.5,0.7c-0.9,0-1.8-0.3-2.5-0.7C32.1,13,31.2,11.4,31.2,9.7z"/>
	<path fill="none" d="M64.5,45.9c-2.8,0-5,2.2-5.1,5c0,0,0,0.1,0,0.1c0,0.8,0.2,1.5,0.5,2.1c-0.5,0.4-1,0.9-1.6,1.3
		c-7.7,6-16.8,9.2-20.7,10.4V35.1h0v4.7h-3.3v25.1c-4-1.2-13.2-4.5-20.9-10.6c-0.5-0.4-1.1-0.8-1.6-1.3c0.2-0.6,0.4-1.3,0.4-2
		c0-0.1,0-0.3,0-0.4C12,48,9.8,45.9,7.1,45.9C4.3,45.9,2,48.2,2,51s2.3,5.1,5.1,5.1c0.1,0,0.1,0,0.2,0c0.8,0,1.6-0.3,2.3-0.6
		c0.5,0.5,1.1,0.9,1.6,1.3c10.7,8.6,23.7,11.8,24.4,11.9c0,0,0,0,0,0c0.1,0,0.2,0,0.3,0c0,0,0,0,0,0c0.1,0,0.2,0,0.3,0c0,0,0,0,0,0
		c0.6-0.2,13.6-3.3,24.2-11.8c0.5-0.4,1.1-0.9,1.6-1.4c0.7,0.4,1.5,0.6,2.3,0.6h0.1c2.8,0,5-2.3,5-5.1
		C69.6,48.2,67.3,45.9,64.5,45.9z M6.9,54.4c-1.9,0-3.4-1.5-3.4-3.4c0-1.9,1.5-3.4,3.4-3.4c1.9,0,3.4,1.5,3.4,3.4
		C10.3,52.9,8.8,54.4,6.9,54.4z M64.6,54.4c-1.9,0-3.4-1.5-3.4-3.4c0-1.9,1.5-3.4,3.4-3.4S68,49.1,68,51
		C68,52.9,66.5,54.4,64.6,54.4z"/>
	<circle fill="none" cx="64.6" cy="51" r="1.4"/>
	<path d="M38.5,13.8c1.4-0.8,2.3-2.4,2.3-4.1c0-2.7-2.2-4.8-4.8-4.8c-2.7,0-4.8,2.2-4.8,4.8c0,1.7,0.9,3.2,2.3,4.1
		c0.7,0.5,1.6,0.7,2.5,0.7C36.9,14.5,37.8,14.3,38.5,13.8z M33.2,9.7c0-1.5,1.3-2.8,2.8-2.8c1.5,0,2.8,1.3,2.8,2.8s-1.3,2.8-2.8,2.8
		C34.4,12.5,33.2,11.3,33.2,9.7z"/>
	<path d="M64.5,43.9c-3.9,0-7.1,3.2-7.1,7.1c0,0.5,0,1,0.1,1.5c-6.2,5-13.4,8-18,9.7V35.1h11.5c1.8,0,3.2-1.6,3.2-3.7
		c0-2-1.4-3.6-3.2-3.6H39.6v-9.1c3.5-1.5,6.1-4.9,6.1-9C45.7,4.4,41.3,0,36,0c-5.4,0-9.7,4.4-9.7,9.7c0,4.1,2.5,7.5,6,9v9.1H20.8
		c-1.8,0-3.2,1.6-3.2,3.6c0,2,1.4,3.7,3.2,3.7h11.5v27.1c-4.7-1.6-12-4.8-18.2-9.9c0.1-0.4,0.1-0.8,0.1-1.3c0-3.9-3.2-7.1-7.1-7.1
		C3.2,43.9,0,47.1,0,51c0,3.9,3.2,7.1,7.1,7.1c0.8,0,1.5-0.1,2.1-0.3C20.4,67,34.4,70.5,35.1,70.7c0.1,0,0.1,0,0.2,0
		c0.2,0,0.5,0.1,0.7,0.1c0,0,0,0,0,0c0.2,0,0.4,0,0.7-0.1c0.1,0,0.1,0,0.2,0c0.7-0.2,14.6-3.6,25.8-12.8c0.6,0.2,1.3,0.3,1.9,0.3
		c3.9,0,7.1-3.2,7.1-7.1C71.6,47.1,68.5,43.9,64.5,43.9z M64.6,56.1L64.6,56.1c-0.9,0-1.7-0.2-2.4-0.6c-0.5,0.5-1.1,0.9-1.6,1.4
		C49.9,65.4,37,68.5,36.3,68.7c0,0,0,0,0,0c-0.1,0-0.2,0-0.3,0c0,0,0,0,0,0c-0.1,0-0.2,0-0.3,0c0,0,0,0,0,0
		c-0.6-0.2-13.7-3.3-24.4-11.9c-0.5-0.4-1.1-0.9-1.6-1.3c-0.7,0.4-1.5,0.6-2.3,0.6c-0.1,0-0.2,0-0.2,0C4.3,56.1,2,53.8,2,51
		s2.3-5.1,5.1-5.1c2.7,0,4.9,2.1,5.1,4.7c0,0.1,0,0.3,0,0.4c0,0.7-0.1,1.4-0.4,2c0.5,0.5,1,0.9,1.6,1.3c7.8,6.1,16.9,9.4,20.9,10.6
		V39.8h0v-6.7H20.8c-0.6,0-1.2-0.7-1.2-1.7c0-0.9,0.5-1.6,1.2-1.6h13.5V17.2c-0.7-0.2-1.4-0.4-2-0.7c-2.4-1.3-4-3.9-4-6.8
		C28.3,5.5,31.7,2,36,2s7.7,3.5,7.7,7.7c0,2.9-1.6,5.5-4.1,6.8c-0.6,0.3-1.3,0.6-2,0.7c0,0,0,0,0,0v2c0,0,0,0,0,0v8.5h0v2h13.5
		c0.7,0,1.2,0.7,1.2,1.6c0,0.9-0.5,1.7-1.2,1.7H37.6v2h0v29.8c4-1.2,13-4.4,20.7-10.4c0.5-0.4,1.1-0.9,1.6-1.3
		c-0.3-0.7-0.5-1.4-0.5-2.1c0,0,0-0.1,0-0.1c0-2.8,2.3-5,5.1-5c2.8,0,5.1,2.3,5.1,5.1C69.6,53.8,67.4,56.1,64.6,56.1z"/>
	<path d="M6.9,47.6c-1.9,0-3.4,1.5-3.4,3.4c0,1.9,1.5,3.4,3.4,3.4c1.9,0,3.4-1.5,3.4-3.4C10.3,49.1,8.8,47.6,6.9,47.6z M6.9,52.4
		c-0.8,0-1.4-0.6-1.4-1.4c0-0.8,0.6-1.4,1.4-1.4c0.8,0,1.4,0.6,1.4,1.4C8.3,51.8,7.7,52.4,6.9,52.4z"/>
	<path d="M64.6,47.6c-1.9,0-3.4,1.5-3.4,3.4c0,1.9,1.5,3.4,3.4,3.4S68,52.9,68,51C68,49.1,66.5,47.6,64.6,47.6z M64.6,52.4
		c-0.8,0-1.4-0.6-1.4-1.4c0-0.8,0.6-1.4,1.4-1.4S66,50.2,66,51C66,51.8,65.4,52.4,64.6,52.4z"/>
</g>
</svg>
