<?xml version="1.0" encoding="utf-8"?>
<!-- Generator: Adobe Illustrator 18.1.0, SVG Export Plug-In . SVG Version: 6.00 Build 0)  -->
<svg version="1.1" id="Layer_1" xmlns="http://www.w3.org/2000/svg" xmlns:xlink="http://www.w3.org/1999/xlink" x="0px" y="0px"
	 viewBox="0 0 87.9 67" enable-background="new 0 0 87.9 67" xml:space="preserve">
<g>
	<path d="M28.4,27.6l14.7,25.1c0.2,0.3,0.5,0.5,0.9,0.5s0.7-0.2,0.9-0.5l14.7-25.1c0-0.1,0.1-0.1,0.1-0.2c1.7-2.8,2.5-6,2.5-9.2
		C62.1,8.2,54,0,44,0S25.8,8.2,25.8,18.2c0,3.2,0.9,6.4,2.5,9.2C28.3,27.5,28.4,27.6,28.4,27.6z M44,2c8.9,0,16.2,7.3,16.2,16.2
		c0,2.9-0.8,5.8-2.4,8.4c0,0.1-0.1,0.1-0.1,0.2L44,50.2L30.2,26.8c0-0.1-0.1-0.1-0.1-0.2c-1.5-2.5-2.4-5.4-2.4-8.4
		C27.8,9.3,35,2,44,2z"/>
	<path d="M33.1,21.9l7.3,2.8l2.4,7.4c0.1,0.4,0.5,0.7,0.9,0.7c0,0,0,0,0,0c0.4,0,0.8-0.2,0.9-0.6l7-16.9c0.2-0.4,0.1-0.8-0.2-1.1
		c-0.3-0.3-0.7-0.4-1.1-0.3l-17.3,6c-0.4,0.1-0.7,0.5-0.7,0.9C32.5,21.3,32.7,21.7,33.1,21.9z M48.9,16.6l-5.1,12.3l-1.7-5.3
		c-0.1-0.3-0.3-0.5-0.6-0.6l-5.2-2L48.9,16.6z"/>
	<path d="M87.8,65.1L75.6,38.8c-0.1-0.2-0.3-0.4-0.5-0.5l-13.6-6.1c-0.5-0.2-1.1,0-1.3,0.5c-0.2,0.5,0,1.1,0.5,1.3l13.2,6l11,23.7
		L64.3,55l-3.6-11.5c-0.2-0.5-0.7-0.8-1.2-0.7c-0.5,0.2-0.8,0.7-0.7,1.3l3.5,11.2L45,65v-6.8c0-0.6-0.4-1-1-1s-1,0.4-1,1V65
		l-17.4-9.7l3.5-11.2c0.2-0.5-0.1-1.1-0.7-1.3c-0.5-0.2-1.1,0.1-1.2,0.7L23.6,55L3,63.6L14,40l13.2-6c0.5-0.2,0.7-0.8,0.5-1.3
		c-0.2-0.5-0.8-0.7-1.3-0.5l-13.6,6.1c-0.2,0.1-0.4,0.3-0.5,0.5L0.1,65.1c-0.2,0.4-0.1,0.8,0.2,1.1c0.3,0.3,0.7,0.4,1.1,0.2l23-9.6
		l19.1,10.7l0,0l0,0l0,0c0,0,0.1,0,0.1,0.1c0,0,0.1,0,0.1,0c0.1,0,0.2,0,0.3,0s0.2,0,0.3,0c0,0,0.1,0,0.1,0c0,0,0.1,0,0.1-0.1l0,0
		l0,0l0,0l19.1-10.7l23,9.6c0.4,0.2,0.8,0.1,1.1-0.2C87.9,65.9,88,65.5,87.8,65.1z"/>
</g>
</svg>
