<?xml version="1.0" encoding="utf-8"?>
<!-- Generator: Adobe Illustrator 18.1.0, SVG Export Plug-In . SVG Version: 6.00 Build 0)  -->
<svg version="1.1" id="Layer_1" xmlns="http://www.w3.org/2000/svg" xmlns:xlink="http://www.w3.org/1999/xlink" x="0px" y="0px"
	 viewBox="0 0 100 69.1" enable-background="new 0 0 100 69.1" xml:space="preserve">
<text transform="matrix(1 0 0 1 -21.5181 150.6309)" font-family="'MuseoSans-100'" font-size="14.2012">Brand Identity</text>
<g>
	<path fill="none" d="M9,49.8c0-0.1,0.1-0.1,0.1-0.2c0.1-0.3,0.3-0.5,0.4-0.8c0-0.1,0.1-0.1,0.1-0.2c0.2-0.3,0.3-0.5,0.5-0.8
		c0-0.1,0.1-0.1,0.1-0.2c0.2-0.3,0.4-0.5,0.6-0.8c0,0,0.1-0.1,0.1-0.1c0.2-0.3,0.4-0.5,0.7-0.8c0,0,0.1-0.1,0.1-0.1
		c0.2-0.3,0.5-0.5,0.8-0.8c0,0,0.1-0.1,0.1-0.1c0.3-0.3,0.6-0.6,0.9-0.8c0,0,0,0,0,0c2.2-2,5-3.8,8.2-5.4c0,0,0,0,0.1,0
		c0.4-0.2,0.9-0.4,1.3-0.6c0.1,0,0.1-0.1,0.2-0.1c0.4-0.2,0.8-0.4,1.2-0.5c0.1,0,0.2-0.1,0.3-0.1c0.4-0.2,0.8-0.3,1.2-0.5
		c0.1,0,0.2-0.1,0.4-0.1c0.4-0.1,0.7-0.3,1.1-0.4c0.1-0.1,0.3-0.1,0.4-0.1c0.4-0.1,0.7-0.3,1.1-0.4c0.2-0.1,0.3-0.1,0.5-0.2
		c0.4-0.1,0.7-0.2,1.1-0.3c0.2-0.1,0.3-0.1,0.5-0.2c0.4-0.1,0.7-0.2,1.1-0.3c0.2,0,0.4-0.1,0.5-0.1c0.4-0.1,0.7-0.2,1.1-0.3
		c0.2,0,0.4-0.1,0.6-0.1c0.4-0.1,0.7-0.2,1.1-0.2c0.2,0,0.4-0.1,0.6-0.1c0.4-0.1,0.7-0.1,1.1-0.2c0.2,0,0.4-0.1,0.6-0.1
		c0.4-0.1,0.7-0.1,1.1-0.2c0.2,0,0.4-0.1,0.6-0.1c0.4-0.1,0.7-0.1,1.1-0.2c0.2,0,0.4-0.1,0.6-0.1c0.4,0,0.8-0.1,1.1-0.1
		c0.2,0,0.4,0,0.6-0.1c0.4,0,0.8-0.1,1.2-0.1c0.2,0,0.4,0,0.6-0.1c0.4,0,0.8-0.1,1.2-0.1c0.2,0,0.4,0,0.6,0c0.4,0,0.9,0,1.3-0.1
		c0.2,0,0.3,0,0.5,0c0.6,0,1.2,0,1.8,0c0,0,0,0,0,0c0,0,0,0,0,0c0,0,0.1,0,0.1,0c0.6,0,1.1,0,1.7,0c0.2,0,0.5,0,0.7,0
		c0.4,0,0.7,0,1.1,0c0.3,0,0.5,0,0.8,0.1c0.3,0,0.6,0,1,0.1c0.3,0,0.6,0.1,0.9,0.1c0.3,0,0.6,0.1,0.9,0.1c0.3,0,0.6,0.1,0.9,0.1
		c0.3,0,0.6,0.1,0.9,0.1c0.3,0,0.6,0.1,0.9,0.1c0.3,0,0.6,0.1,0.9,0.1c0.3,0,0.6,0.1,0.9,0.1c0.3,0,0.6,0.1,0.9,0.1
		c0.3,0.1,0.6,0.1,0.9,0.2c0.3,0.1,0.6,0.1,0.8,0.2c0.3,0.1,0.6,0.1,0.8,0.2c0.3,0.1,0.5,0.1,0.8,0.2c0.3,0.1,0.6,0.1,0.8,0.2
		c0.3,0.1,0.5,0.1,0.8,0.2c0.3,0.1,0.5,0.1,0.8,0.2c0.3,0.1,0.5,0.1,0.8,0.2c0.3,0.1,0.5,0.2,0.8,0.2c0.3,0.1,0.5,0.2,0.8,0.2
		c0.3,0.1,0.5,0.2,0.8,0.3c0.3,0.1,0.5,0.2,0.8,0.3c0.3,0.1,0.5,0.2,0.8,0.3c0.2,0.1,0.5,0.2,0.7,0.3c0.3,0.1,0.5,0.2,0.8,0.3
		c0.2,0.1,0.5,0.2,0.7,0.3c0.3,0.1,0.5,0.2,0.8,0.3c0.2,0.1,0.4,0.2,0.7,0.3c0.2,0.1,0.5,0.2,0.7,0.3c0.2,0.1,0.4,0.2,0.6,0.3
		c0.2,0.1,0.5,0.2,0.7,0.4c0.2,0.1,0.4,0.2,0.6,0.3c0.3,0.1,0.5,0.3,0.8,0.4c0.2,0.1,0.3,0.2,0.5,0.3c0.3,0.2,0.5,0.3,0.8,0.5
		c0.1,0,0.1,0.1,0.2,0.1c1.1,0.7,2.1,1.3,3.1,2.1c0,0,0.1,0.1,0.1,0.1c0.3,0.2,0.5,0.4,0.8,0.6c0.1,0.1,0.2,0.1,0.2,0.2
		c0.2,0.2,0.5,0.4,0.7,0.6c0.1,0.1,0.2,0.2,0.3,0.2c0.2,0.2,0.4,0.4,0.6,0.6c0.1,0.1,0.2,0.2,0.3,0.3c0.2,0.2,0.4,0.4,0.6,0.6
		c0.1,0.1,0.2,0.2,0.3,0.3c0.2,0.2,0.4,0.4,0.5,0.6c0.1,0.1,0.2,0.2,0.2,0.3c0.2,0.2,0.3,0.4,0.5,0.6c0.1,0.1,0.1,0.2,0.2,0.3
		c0.1,0.2,0.3,0.4,0.4,0.6c0.1,0.1,0.1,0.2,0.2,0.3c0.1,0.2,0.3,0.4,0.4,0.6c0.1,0.1,0.1,0.2,0.2,0.3c0.1,0.2,0.2,0.4,0.3,0.6
		c0,0,0.1,0.1,0.1,0.1c5.7-4.6,6.4-12.1,6.4-18.2c0-16.7-25.5-29.6-47.5-29.6S2.4,15.3,2.4,32c0,6.2,0.8,13.7,6.4,18.2
		C8.9,50.1,8.9,49.9,9,49.8z M40.3,20.8c1.3,0,2.4,1.1,2.4,2.4c0,0.1,0,0.3,0,0.4c2.1,1.7,4.5,2.8,6.1,3.3v-9.1h-3.9
		c-0.6,0-1.1-0.5-1.1-1.2c0-0.7,0.5-1.2,1.1-1.2h3.9v-3c-1.2-0.5-2-1.7-2-3c0-1.8,1.5-3.2,3.2-3.2c1.8,0,3.3,1.5,3.3,3.2
		c0,1.4-0.8,2.5-2,3v3H55c0.6,0,1.1,0.5,1.1,1.2c0,0.7-0.5,1.2-1.1,1.2h-3.8v9.1c1.5-0.5,4-1.6,6-3.2c0-0.2-0.1-0.3-0.1-0.5
		c0-1.3,1.1-2.4,2.4-2.4c1.3,0,2.4,1.1,2.4,2.4c0,1.3-1.1,2.4-2.4,2.4c-0.2,0-0.4,0-0.6-0.1c-3.7,3.1-8.4,4.2-8.6,4.3c0,0,0,0-0.1,0
		c-0.1,0-0.1,0-0.2,0c0,0,0,0,0,0c-0.1,0-0.1,0-0.2,0c0,0,0,0-0.1,0c-0.2,0-4.9-1.2-8.7-4.3c-0.2,0.1-0.5,0.1-0.7,0.1
		c-1.3,0-2.4-1.1-2.4-2.4C37.9,21.8,38.9,20.8,40.3,20.8z"/>
	<path fill="none" d="M11.7,64.4c4.4,1.1,18,2.3,38.2,2.3c20.2,0,33.8-1.2,38.2-2.3c-4.4-1.1-18-2.3-38.2-2.3
		C29.7,62.1,16.1,63.3,11.7,64.4z"/>
	<path fill="none" d="M49.1,10.7c0.2,0.2,0.5,0.2,0.8,0.2c0.3,0,0.6-0.1,0.8-0.2c0.5-0.3,0.8-0.8,0.8-1.4c0-0.9-0.7-1.6-1.6-1.6
		s-1.6,0.7-1.6,1.6C48.3,9.9,48.6,10.4,49.1,10.7z"/>
	<path fill="none" d="M49.9,34.8c-18.2,0-36.2,8-39.4,17.4v4.4c6.3-6.9,24.2-12.1,39.4-12.1c15.2,0,33,5,39.3,12v-4.3
		C86.1,42.8,68.1,34.8,49.9,34.8z"/>
	<path fill="none" d="M49.9,47c-18.8,0-39.4,7.8-39.4,14.9h0v0.5c1.8-0.5,5-1.1,10.6-1.6c7.7-0.7,17.9-1,28.8-1
		c10.9,0,21.1,0.4,28.8,1c5.6,0.5,8.7,1,10.5,1.6v-0.5C89.2,54.6,69,47,49.9,47z"/>
	<path d="M40.3,25.5c0.2,0,0.5,0,0.7-0.1c3.7,3.1,8.4,4.2,8.7,4.3c0,0,0,0,0.1,0c0.1,0,0.2,0,0.2,0c0,0,0,0,0,0c0.1,0,0.1,0,0.2,0
		c0,0,0,0,0.1,0c0.2,0,4.9-1.2,8.6-4.3c0.2,0.1,0.4,0.1,0.6,0.1c1.3,0,2.4-1.1,2.4-2.4c0-1.3-1.1-2.4-2.4-2.4
		c-1.3,0-2.4,1.1-2.4,2.4c0,0.2,0,0.3,0.1,0.5c-2.1,1.7-4.5,2.7-6,3.2v-9.1H55c0.6,0,1.1-0.5,1.1-1.2c0-0.7-0.5-1.2-1.1-1.2h-3.8v-3
		c1.2-0.5,2-1.7,2-3c0-1.8-1.5-3.2-3.3-3.2c-1.8,0-3.2,1.5-3.2,3.2c0,1.4,0.8,2.5,2,3v3h-3.9c-0.6,0-1.1,0.5-1.1,1.2
		c0,0.7,0.5,1.2,1.1,1.2h3.9v9.1c-1.6-0.6-4-1.6-6.1-3.3c0-0.1,0-0.3,0-0.4c0-1.3-1.1-2.4-2.4-2.4c-1.3,0-2.4,1.1-2.4,2.4
		C37.9,24.5,38.9,25.5,40.3,25.5z M49.9,7.7c0.9,0,1.6,0.7,1.6,1.6c0,0.6-0.3,1.1-0.8,1.4c-0.2,0.2-0.5,0.2-0.8,0.2
		c-0.3,0-0.6-0.1-0.8-0.2c-0.5-0.3-0.8-0.8-0.8-1.4C48.3,8.4,49,7.7,49.9,7.7z"/>
	<path d="M91.6,52.7c7.2-5.1,8.2-13.7,8.2-20.7c0-15.1-21.3-32-49.9-32S0,16.9,0,32c0,7,1,15.6,8.2,20.7v11.8c0,1.1,0,2.5,13,3.7
		c7.7,0.7,17.9,1,28.8,1c10.9,0,21.1-0.4,28.8-1c13-1.1,13-2.5,13-3.7c0-0.2,0-0.4,0-0.5V52.7z M2.4,32c0-16.7,25.5-29.6,47.5-29.6
		S97.4,15.3,97.4,32c0,6.2-0.8,13.7-6.4,18.2c0,0,0-0.1-0.1-0.1c-0.1-0.2-0.2-0.4-0.3-0.6c-0.1-0.1-0.1-0.2-0.2-0.3
		c-0.1-0.2-0.2-0.4-0.4-0.6c-0.1-0.1-0.1-0.2-0.2-0.3c-0.1-0.2-0.3-0.4-0.4-0.6c-0.1-0.1-0.1-0.2-0.2-0.3c-0.2-0.2-0.3-0.4-0.5-0.6
		c-0.1-0.1-0.2-0.2-0.2-0.3c-0.2-0.2-0.3-0.4-0.5-0.6c-0.1-0.1-0.2-0.2-0.3-0.3c-0.2-0.2-0.4-0.4-0.6-0.6c-0.1-0.1-0.2-0.2-0.3-0.3
		c-0.2-0.2-0.4-0.4-0.6-0.6c-0.1-0.1-0.2-0.2-0.3-0.2c-0.2-0.2-0.5-0.4-0.7-0.6c-0.1-0.1-0.2-0.1-0.2-0.2c-0.3-0.2-0.5-0.4-0.8-0.6
		c0,0-0.1-0.1-0.1-0.1c-1-0.7-2-1.4-3.1-2.1c-0.1,0-0.1-0.1-0.2-0.1c-0.3-0.2-0.5-0.3-0.8-0.5c-0.2-0.1-0.3-0.2-0.5-0.3
		c-0.2-0.1-0.5-0.3-0.8-0.4c-0.2-0.1-0.4-0.2-0.6-0.3c-0.2-0.1-0.5-0.2-0.7-0.4c-0.2-0.1-0.4-0.2-0.6-0.3c-0.2-0.1-0.5-0.2-0.7-0.3
		c-0.2-0.1-0.4-0.2-0.7-0.3c-0.2-0.1-0.5-0.2-0.8-0.3c-0.2-0.1-0.5-0.2-0.7-0.3c-0.3-0.1-0.5-0.2-0.8-0.3c-0.2-0.1-0.5-0.2-0.7-0.3
		c-0.3-0.1-0.5-0.2-0.8-0.3c-0.2-0.1-0.5-0.2-0.8-0.3c-0.3-0.1-0.5-0.2-0.8-0.3c-0.3-0.1-0.5-0.2-0.8-0.2c-0.3-0.1-0.5-0.2-0.8-0.2
		c-0.3-0.1-0.5-0.1-0.8-0.2c-0.3-0.1-0.5-0.1-0.8-0.2c-0.3-0.1-0.5-0.1-0.8-0.2c-0.3-0.1-0.6-0.1-0.8-0.2c-0.3-0.1-0.5-0.1-0.8-0.2
		c-0.3-0.1-0.6-0.1-0.8-0.2c-0.3-0.1-0.6-0.1-0.8-0.2c-0.3-0.1-0.6-0.1-0.9-0.2c-0.3-0.1-0.6-0.1-0.9-0.1c-0.3,0-0.6-0.1-0.9-0.1
		c-0.3,0-0.6-0.1-0.9-0.1c-0.3,0-0.6-0.1-0.9-0.1c-0.3,0-0.6-0.1-0.9-0.1c-0.3,0-0.6-0.1-0.9-0.1c-0.3,0-0.6-0.1-0.9-0.1
		c-0.3,0-0.6-0.1-0.9-0.1c-0.3,0-0.6,0-1-0.1c-0.3,0-0.5,0-0.8-0.1c-0.4,0-0.7,0-1.1,0c-0.2,0-0.5,0-0.7,0c-0.6,0-1.1,0-1.7,0
		c0,0-0.1,0-0.1,0c0,0,0,0,0,0c0,0,0,0,0,0c-0.6,0-1.2,0-1.8,0c-0.2,0-0.3,0-0.5,0c-0.4,0-0.9,0-1.3,0.1c-0.2,0-0.4,0-0.6,0
		c-0.4,0-0.8,0-1.2,0.1c-0.2,0-0.4,0-0.6,0.1c-0.4,0-0.8,0.1-1.2,0.1c-0.2,0-0.4,0-0.6,0.1C41.7,33,41.4,33,41,33
		c-0.2,0-0.4,0.1-0.6,0.1c-0.4,0.1-0.7,0.1-1.1,0.2c-0.2,0-0.4,0.1-0.6,0.1c-0.4,0.1-0.7,0.1-1.1,0.2c-0.2,0-0.4,0.1-0.6,0.1
		c-0.4,0.1-0.7,0.1-1.1,0.2c-0.2,0-0.4,0.1-0.6,0.1c-0.4,0.1-0.7,0.2-1.1,0.2c-0.2,0-0.4,0.1-0.6,0.1c-0.4,0.1-0.7,0.2-1.1,0.3
		c-0.2,0-0.4,0.1-0.5,0.1c-0.4,0.1-0.7,0.2-1.1,0.3c-0.2,0-0.3,0.1-0.5,0.2c-0.4,0.1-0.7,0.2-1.1,0.3c-0.2,0.1-0.3,0.1-0.5,0.2
		c-0.4,0.1-0.7,0.3-1.1,0.4c-0.1,0-0.3,0.1-0.4,0.1c-0.4,0.1-0.8,0.3-1.1,0.4c-0.1,0-0.2,0.1-0.4,0.1c-0.4,0.2-0.8,0.3-1.2,0.5
		c-0.1,0-0.2,0.1-0.3,0.1c-0.4,0.2-0.8,0.4-1.2,0.5c-0.1,0-0.1,0.1-0.2,0.1c-0.4,0.2-0.9,0.4-1.3,0.6c0,0,0,0-0.1,0
		c-3.2,1.6-5.9,3.4-8.2,5.4c0,0,0,0,0,0c-0.3,0.3-0.6,0.5-0.9,0.8c0,0-0.1,0.1-0.1,0.1c-0.3,0.3-0.5,0.5-0.8,0.8
		c0,0-0.1,0.1-0.1,0.1c-0.2,0.3-0.4,0.5-0.7,0.8c0,0-0.1,0.1-0.1,0.1c-0.2,0.3-0.4,0.5-0.6,0.8c0,0.1-0.1,0.1-0.1,0.2
		c-0.2,0.3-0.3,0.5-0.5,0.8c0,0.1-0.1,0.1-0.1,0.2c-0.2,0.3-0.3,0.5-0.4,0.8C9,49.7,9,49.8,9,49.8c-0.1,0.1-0.1,0.3-0.2,0.4
		C3.1,45.7,2.4,38.1,2.4,32z M49.9,66.8c-20.2,0-33.8-1.2-38.2-2.3c4.4-1.1,18-2.3,38.2-2.3c20.2,0,33.8,1.2,38.2,2.3
		C83.7,65.5,70.1,66.8,49.9,66.8z M89.2,62.3c-1.8-0.5-5-1.1-10.5-1.6c-7.7-0.7-17.9-1-28.8-1c-10.9,0-21.1,0.4-28.8,1
		c-5.6,0.5-8.8,1-10.6,1.6v-0.5h0c0-7.1,20.6-14.9,39.4-14.9c19.1,0,39.3,7.6,39.3,14.9V62.3z M49.9,44.6c-15.2,0-33,5.2-39.4,12.1
		v-4.4c3.2-9.5,21.1-17.4,39.4-17.4c18.2,0,36.2,8,39.3,17.4v4.3C82.9,49.6,65.1,44.6,49.9,44.6z"/>
</g>
</svg>
