<?xml version="1.0" encoding="utf-8"?>
<!-- Generator: Adobe Illustrator 15.1.0, SVG Export Plug-In . SVG Version: 6.00 Build 0)  -->
<!DOCTYPE svg PUBLIC "-//W3C//DTD SVG 1.1//EN" "http://www.w3.org/Graphics/SVG/1.1/DTD/svg11.dtd">
<svg version="1.1" id="Layer_1" xmlns="http://www.w3.org/2000/svg" xmlns:xlink="http://www.w3.org/1999/xlink" x="0px" y="0px"
	 width="31.18px" height="25.51px" viewBox="0 0 31.18 25.51" enable-background="new 0 0 31.18 25.51" xml:space="preserve">
<text transform="matrix(1 0 0 1 39.6924 36.0244)" font-family="'MuseoSans-100'" font-size="3.7423">Discovery</text>
<path fill="#01AEF0" d="M29.296,7.048l-2.62-6.861C26.645,0.125,26.582,0.063,26.521,0c-0.063-0.031-0.156-0.031-0.249,0
	l-3.805,1.466c-0.156,0.062-0.25,0.25-0.188,0.405l0.094,0.218L11.614,6.206c-0.156,0.062-0.25,0.25-0.187,0.405l0.312,0.842
	L6.343,9.512c-0.156,0.062-0.25,0.25-0.187,0.405l0.125,0.343l-3.648,1.372l-0.156-0.405c-0.063-0.156-0.25-0.25-0.406-0.188
	c-0.156,0.063-0.25,0.25-0.187,0.406l0.717,1.871l0.437,1.153l0,0l0.281,0.718c0.063,0.124,0.156,0.187,0.281,0.187
	c0.031,0,0.062,0,0.125-0.031c0.156-0.063,0.25-0.249,0.187-0.404l-0.156-0.375l3.68-1.403l0.125,0.343
	c0.031,0.063,0.094,0.125,0.156,0.188c0.031,0.031,0.094,0.031,0.125,0.031s0.062,0,0.125-0.031l5.395-2.058l0.312,0.842
	c0.031,0.063,0.094,0.125,0.156,0.187c0.031,0.031,0.094,0.031,0.125,0.031s0.063,0,0.125-0.031l3.118-1.185l-3.96,13.628
	c-0.063,0.156,0.063,0.343,0.218,0.374c0.031,0,0.063,0,0.094,0c0.125,0,0.25-0.093,0.312-0.218L17.664,12.1l3.773,13.161
	c0.031,0.125,0.156,0.218,0.312,0.218c0.031,0,0.063,0,0.094,0c0.155-0.063,0.249-0.218,0.218-0.374l-4.054-14.002l6.829-2.62
	l0.094,0.218c0.063,0.125,0.156,0.187,0.281,0.187c0.031,0,0.063,0,0.125-0.031l3.805-1.435c0.062-0.031,0.124-0.094,0.187-0.156
	S29.327,7.142,29.296,7.048z M14.14,11.913l-0.312-0.842l0,0l-1.372-3.555l0,0l-0.312-0.842l10.447-3.992l1.996,5.239L14.14,11.913z
	 M13.11,11.008l-5.083,1.934L7.902,12.63l0,0l-0.873-2.339l0,0L6.905,9.979l5.083-1.934l0,0L13.11,11.008L13.11,11.008z
	 M7.216,12.568l-3.68,1.404l-0.655-1.747l3.68-1.403l0,0L7.216,12.568L7.216,12.568z M25.397,8.233l-2.401-6.299l3.213-1.216
	l2.4,6.268L25.397,8.233z"/>
</svg>
