<?xml version="1.0" encoding="utf-8"?>
<!-- Generator: Adobe Illustrator 18.1.0, SVG Export Plug-In . SVG Version: 6.00 Build 0)  -->
<svg version="1.1" id="Layer_1" xmlns="http://www.w3.org/2000/svg" xmlns:xlink="http://www.w3.org/1999/xlink" x="0px" y="0px"
	 viewBox="0 0 100 100" enable-background="new 0 0 100 100" xml:space="preserve">
<g>
	<path fill="none" d="M40.8,72.2c2.8,1.2,5.9,1.8,9.1,1.8h0c3.1,0,6.1-0.6,8.9-1.7c0.2-0.1,0.5-0.2,0.7-0.3l-0.1-0.1
		c-0.3-0.7,0.1-1.4,0.7-1.7c4.6-1.9,8.3-5.4,10.3-10c0.3-0.6,0.9-0.9,1.6-0.7c2.4-5.7,2.7-12.3,0.2-18.4c-0.1-0.2-0.2-0.4-0.2-0.6
		l-0.2,0.1c-0.2,0.1-0.3,0.1-0.5,0.1c-0.5,0-1-0.3-1.2-0.8c-1.9-4.7-5.4-8.3-10-10.3c-0.7-0.3-1-1-0.7-1.7c-2.9-1.2-6.1-1.9-9.5-1.9
		c-3.1,0-6.1,0.6-8.9,1.7c-0.1,0.1-0.2,0.1-0.4,0.2l0.1,0.4c0.3,0.7-0.1,1.4-0.7,1.7c-4.8,1.9-8.5,5.5-10.5,10.3
		c-0.1,0.3-0.4,0.6-0.7,0.7c-0.2,0.1-0.3,0.1-0.5,0.1c-0.2,0-0.4,0-0.5-0.1l-0.1,0c-2.3,5.6-2.6,12.1-0.1,18.2
		c0,0.1,0.1,0.2,0.1,0.3l0.4-0.2c0.7-0.3,1.4,0.1,1.7,0.7c1.9,4.8,5.6,8.6,10.4,10.6c0.3,0.1,0.6,0.4,0.7,0.7c0.1,0.3,0.1,0.7,0,1
		L40.8,72.2z"/>
	<path fill="none" d="M6.2,28.6l1.2,0.5l18.9,8.1l1.3,0.5c2.2-4.4,5.8-7.9,10.2-10l-0.6-1.5L29.6,7.2l-0.4-1
		C19,10.6,10.9,18.5,6.2,28.6z"/>
	<path fill="none" d="M72,37.6l1.3-0.5l19.1-7.6l0.9-0.3c-4.3-10-12.1-18-22-22.6l-0.4,1l-8.1,18.9l-0.5,1.1
		C66.6,29.7,70,33.2,72,37.6z"/>
	<path fill="none" d="M37.9,72.2c-4.4-2.2-8-5.8-10.1-10.3l-1.5,0.6L7.2,70.1l-1.1,0.4C10.6,80.8,18.5,89,28.7,93.7l0.5-1.2
		l8.1-18.9L37.9,72.2z"/>
	<path fill="none" d="M70.8,93.1c9.9-4.3,17.8-12,22.4-21.8l-1-0.4l-18.9-8.1l-1-0.4c-2.1,4.3-5.6,7.6-9.9,9.7l0.5,1.2l7.7,19.2
		L70.8,93.1z"/>
	<path fill="none" d="M59.8,74.7c-3.2,1.3-6.5,1.9-9.9,1.9h0c-3.6,0-7-0.7-10.2-2l-8.1,18.9c5.7,2.4,11.8,3.7,18.3,3.7c0,0,0,0,0,0
		c6,0,11.9-1.1,17.5-3.4c0.2-0.1,0.5-0.2,0.7-0.3l-7.6-19.1C60.3,74.5,60.1,74.6,59.8,74.7z"/>
	<path fill="none" d="M93.5,31.8l-19.1,7.6c0.1,0.2,0.2,0.4,0.2,0.6c2.7,6.8,2.4,14.1-0.3,20.4l18.9,8.1c5-11.6,5.1-24.4,0.4-36.1
		C93.7,32.2,93.6,32,93.5,31.8z"/>
	<path fill="none" d="M6.2,67.7l19.1-7.6c0-0.1-0.1-0.2-0.1-0.3c-2.6-6.5-2.5-13.7,0.2-20.2L6.4,31.5C1.5,43.1,1.4,55.8,6,67.4
		C6.1,67.5,6.1,67.6,6.2,67.7z"/>
	<path fill="none" d="M40,25.1c3.2-1.3,6.5-1.9,9.9-1.9c3.7,0,7.2,0.8,10.5,2.1l8.1-18.9c-5.8-2.4-12-3.8-18.6-3.8
		c-6,0-11.9,1.1-17.5,3.4c-0.1,0.1-0.2,0.1-0.4,0.2l7.6,19.1C39.7,25.2,39.9,25.1,40,25.1z"/>
	<path d="M95.7,69.6C95.7,69.6,95.7,69.6,95.7,69.6c5.3-12.3,5.4-25.8,0.5-38.2c-0.1-0.2-0.2-0.4-0.3-0.6c0.1-0.1,0.2-0.3,0.3-0.4
		c0.1-0.3,0.1-0.7,0-1C91.6,17.6,82.7,8.5,71.2,3.5c-0.3-0.1-0.7-0.1-1,0c-0.3,0.1-0.5,0.3-0.6,0.5c-6.1-2.6-12.7-4-19.7-4
		c-6.3,0-12.6,1.2-18.5,3.6c-0.1,0.1-0.3,0.1-0.4,0.2c-0.1-0.2-0.3-0.4-0.5-0.5c-0.3-0.1-0.7-0.1-1,0C17.6,8,8.3,17.1,3.3,28.8
		c-0.3,0.7,0,1.4,0.7,1.7c-5.1,12.2-5.3,25.6-0.4,37.9c0,0.1,0.1,0.2,0.2,0.3c-0.5,0.3-0.8,1-0.5,1.6C8,82.2,17.1,91.6,28.9,96.6
		c0.2,0.1,0.3,0.1,0.5,0.1c0.5,0,1-0.3,1.2-0.8l0,0c6,2.5,12.5,3.9,19.3,3.9c0,0,0,0,0,0c6.3,0,12.6-1.2,18.5-3.6
		c0.3-0.1,0.6-0.2,0.9-0.4c0.1,0.1,0.2,0.2,0.3,0.2c0.2,0.1,0.3,0.1,0.5,0.1c0.2,0,0.3,0,0.5-0.1c11.6-4.6,20.7-13.5,25.6-24.9
		c0.1-0.3,0.1-0.7,0-1C96.1,69.9,95.9,69.7,95.7,69.6z M28.7,93.7C18.5,89,10.6,80.8,6.1,70.6l1.1-0.4l19.1-7.6l1.5-0.6
		c2.1,4.5,5.6,8.1,10.1,10.3l-0.6,1.3l-8.1,18.9L28.7,93.7z M40.9,71c-0.1-0.3-0.4-0.6-0.7-0.7c-4.8-2-8.5-5.8-10.4-10.6
		c-0.3-0.7-1-1-1.7-0.7l-0.4,0.2c0-0.1-0.1-0.2-0.1-0.3c-2.4-6.1-2.2-12.5,0.1-18.2l0.1,0c0.2,0.1,0.3,0.1,0.5,0.1
		c0.2,0,0.3,0,0.5-0.1c0.3-0.1,0.6-0.4,0.7-0.7c2-4.7,5.7-8.4,10.5-10.3c0.7-0.3,1-1,0.7-1.7l-0.1-0.4c0.1-0.1,0.2-0.1,0.4-0.2
		c2.9-1.1,5.9-1.7,8.9-1.7c3.3,0,6.5,0.7,9.5,1.9c-0.3,0.7,0,1.4,0.7,1.7c4.6,2,8.2,5.7,10,10.3c0.2,0.5,0.7,0.8,1.2,0.8
		c0.2,0,0.3,0,0.5-0.1l0.2-0.1c0.1,0.2,0.2,0.4,0.2,0.6c2.5,6.2,2.2,12.8-0.2,18.4c-0.6-0.2-1.3,0.1-1.6,0.7c-2,4.6-5.6,8.1-10.3,10
		c-0.7,0.3-1,1-0.7,1.7l0.1,0.1c-0.2,0.1-0.5,0.2-0.7,0.3C56,73.4,53,74,49.9,74h0c-3.2,0-6.3-0.6-9.1-1.8l0.1-0.2
		C41,71.7,41,71.3,40.9,71z M29.6,7.2l7.6,19.1l0.6,1.5c-4.4,2.1-8,5.6-10.2,10l-1.3-0.5L7.5,29.1l-1.2-0.5
		c4.7-10.1,12.7-18,22.9-22.4L29.6,7.2z M62.8,26.4l8.1-18.9l0.4-1C81.2,11.1,89,19,93.3,29l-0.9,0.3L73.3,37L72,37.6
		c-2-4.3-5.4-7.8-9.7-10L62.8,26.4z M62.4,72c4.3-2,7.8-5.4,9.9-9.7l1,0.4l18.9,8.1l1,0.4c-4.6,9.8-12.4,17.5-22.4,21.8l-0.3-0.7
		l-7.7-19.2L62.4,72z M93.3,68.5l-18.9-8.1c2.7-6.3,3-13.6,0.3-20.4c-0.1-0.2-0.2-0.4-0.2-0.6l19.1-7.6c0.1,0.2,0.2,0.4,0.2,0.6
		C98.4,44.1,98.3,56.9,93.3,68.5z M32.4,6C38,3.8,43.9,2.6,49.9,2.6c6.6,0,12.8,1.4,18.6,3.8l-8.1,18.9c-3.2-1.4-6.8-2.1-10.5-2.1
		c-3.4,0-6.7,0.6-9.9,1.9c-0.1,0.1-0.2,0.1-0.4,0.2L32,6.2C32.1,6.1,32.2,6.1,32.4,6z M6.4,31.5l18.9,8.1
		c-2.7,6.5-2.8,13.6-0.2,20.2c0,0.1,0.1,0.2,0.1,0.3L6.2,67.7c0-0.1-0.1-0.2-0.1-0.3C1.4,55.8,1.5,43.1,6.4,31.5z M67.4,93.8
		c-5.6,2.2-11.5,3.4-17.5,3.4c0,0,0,0,0,0c-6.4,0-12.6-1.3-18.3-3.7l8.1-18.9c3.2,1.3,6.6,2,10.2,2h0c3.4,0,6.7-0.6,9.9-1.9
		c0.2-0.1,0.5-0.2,0.7-0.3l7.6,19.1C67.9,93.6,67.7,93.7,67.4,93.8z"/>
</g>
</svg>
