<?xml version="1.0" encoding="utf-8"?>
<!-- Generator: Adobe Illustrator 18.1.0, SVG Export Plug-In . SVG Version: 6.00 Build 0)  -->
<svg version="1.1" id="Layer_1" xmlns="http://www.w3.org/2000/svg" xmlns:xlink="http://www.w3.org/1999/xlink" x="0px" y="0px"
	 viewBox="0 0 75.7 75.7" enable-background="new 0 0 75.7 75.7" xml:space="preserve">
<text transform="matrix(1 0 0 1 77.0337 122.0676)" font-family="'MuseoSans-100'" font-size="12">Media Services</text>
<g>
	<path d="M37.9,0C17,0,0,17,0,37.9c0,20.9,17,37.9,37.9,37.9s37.9-17,37.9-37.9C75.7,17,58.7,0,37.9,0z M37.9,73.7
		C18.1,73.7,2,57.6,2,37.9C2,18.1,18.1,2,37.9,2s35.9,16.1,35.9,35.9C73.7,57.6,57.6,73.7,37.9,73.7z"/>
	<path d="M37.9,6.4C20.5,6.4,6.4,20.5,6.4,37.9c0,17.3,14.1,31.4,31.4,31.4s31.4-14.1,31.4-31.4C69.3,20.5,55.2,6.4,37.9,6.4z
		 M37.9,8.4c16.2,0,29.4,13.2,29.4,29.4c0,4-0.8,7.8-2.2,11.2c-0.3,0-0.6,0-0.9,0c-4.5,0-8.7-1.8-11.7-4.7c-0.5-0.5-1-0.9-1.4-1.5
		c-0.4,0.5-0.9,1-1.4,1.5c-2.4,2.3-5.5,3.9-8.9,4.4l0.1-4c0.3-0.2,0.7-0.4,1.1-0.5c0.1-0.1,14.3-5.2,16.3-11.1c0,0,1.6-3.9,1-8.8
		c-0.1-0.4-0.3-0.7-0.7-0.8c-0.4-0.1-0.8,0-1.1,0.4c-0.3,0.4-3.2,4-8.7,4c-0.7,0-1.5-0.1-2.2-0.2c-0.2,0-5-0.6-8.7,0.9
		c-3.6-1.5-8.2-1-8.7-0.9C28.3,28,27.6,28,26.9,28c-5.5,0-8.4-3.6-8.7-4c-0.2-0.3-0.7-0.5-1.1-0.4c-0.4,0.1-0.7,0.4-0.7,0.8
		c-0.6,4.9,1,8.7,1,8.8c2.1,5.9,16.2,11.1,16.3,11.1c0.5,0.2,1,0.4,1.4,0.7l0.1,3.8c-3.5-0.6-6.6-2.2-9-4.5c-0.5-0.5-1-0.9-1.4-1.5
		c-0.4,0.5-0.9,1-1.4,1.5c-3.1,2.9-7.2,4.7-11.7,4.7c-0.3,0-0.6,0-1,0c-1.4-3.5-2.2-7.2-2.2-11.2C8.4,21.6,21.6,8.4,37.9,8.4z
		 M34.8,34c0,0.2,0,0.4,0,0.7l0.1,8c-0.2-0.1-0.4-0.2-0.6-0.2c-5.1-1.9-13.8-6.2-15.1-9.9c0,0,0-0.1,0-0.1c0,0-1-2.4-1-5.6
		c1.7,1.4,4.5,3.1,8.6,3.1c0.8,0,1.7-0.1,2.5-0.2c0.3,0,3.8-0.4,6.7,0.5c-0.1,0.1-0.1,0.2-0.1,0.2c-0.7,0.9-1.1,2-1.1,3.2L34.8,34z
		 M39.7,30.2c3-0.8,6.4-0.4,6.5-0.4c0.9,0.1,1.7,0.2,2.5,0.2c4.1,0,7-1.7,8.6-3.1c0,3.2-1,5.5-1,5.6c0,0,0,0.1,0,0.1
		c-1.3,3.7-10,8-15.2,9.9c-0.1,0-0.2,0.1-0.3,0.1l0.2-9C41,32.3,40.6,31.2,39.7,30.2z M36.9,49.1l-0.1-4.1c0.1-0.1,0.1-0.3,0.1-0.5
		c0-0.1,0-0.1,0-0.2l-0.2-9.5c0-1.3,0.3-2.4,1-3.4c0.6,1,1,2.1,1,3.4l-0.2,9.8c0,0.3,0.2,0.6,0.4,0.8l-0.1,3.8
		c-0.4,0-0.7,0.1-1.1,0.1C37.6,49.1,37.2,49.1,36.9,49.1z M20.4,61.5c1.4,0.4,3,0.6,4.5,0.6c5.1,0,9.7-2,13.1-5.3
		c3.4,3.2,8,5.3,13.1,5.3c1.3,0,2.7-0.2,3.9-0.4c-4.8,3.5-10.8,5.6-17.2,5.6C31.3,67.3,25.3,65.1,20.4,61.5z M59.2,58.1
		c-2.4,1.3-5.1,2-8,2c-4.5,0-8.7-1.8-11.7-4.7c-0.5-0.5-1-0.9-1.4-1.5c-0.4,0.5-0.9,1-1.4,1.5c-3.1,2.9-7.2,4.7-11.7,4.7
		c-3.3,0-6.3-0.9-8.9-2.5c-1.8-1.9-3.3-4.1-4.5-6.5c0,0,0,0,0,0c5.1,0,9.7-2,13.1-5.3c3.4,3.2,8,5.3,13.1,5.3s9.7-2,13.1-5.3
		c3.4,3.2,8,5.3,13.1,5.3C62.8,53.7,61.2,56,59.2,58.1z"/>
</g>
</svg>
