<?xml version="1.0" encoding="utf-8"?>
<!-- Generator: Adobe Illustrator 18.1.0, SVG Export Plug-In . SVG Version: 6.00 Build 0)  -->
<svg version="1.1" id="Layer_1" xmlns="http://www.w3.org/2000/svg" xmlns:xlink="http://www.w3.org/1999/xlink" x="0px" y="0px"
	 viewBox="0 0 100 100" enable-background="new 0 0 100 100" xml:space="preserve">
<g>
	<path fill="none" d="M27.5,58.8c0,0.1,0,0.2,0.1,0.3C27.5,59,27.5,58.9,27.5,58.8z"/>
	<path fill="none" d="M28.6,52.3c0-0.1,0.1-0.1,0.1-0.2C28.7,52.2,28.7,52.3,28.6,52.3z"/>
	<path fill="none" d="M29.5,51.3c0,0,0.1-0.1,0.1-0.1c1.2-1.2,2.6-1.9,4.2-2.2c-0.3-3.1-1.4-6.5-2.7-10.2c-0.3-0.8-0.5-1.6-0.8-2.4
		c0.1,0.2,0.1,0.4,0.2,0.6c-0.3,0.5-0.5,1.1-0.6,1.7c-0.3,4.6-0.2,8.6,0.2,11.9c-0.2,0.2-0.4,0.3-0.6,0.5
		C29.6,51.2,29.5,51.3,29.5,51.3z"/>
	<path fill="none" d="M10.8,67.2c-0.2-3-0.3-6.4-0.1-9.3c0.1-1.8-1.3-3.3-3-3.4c-1.8-0.1-3.3,1.3-3.4,3C3.6,69.1,5.1,76.8,8.5,79.8
		c-0.5-1.8-1-3.8-1.5-5.9C6.3,71,8,68.1,10.8,67.2z"/>
	<path fill="none" d="M13.3,67c2.3,0.3,4.4,2,4.9,4.4c1.4-0.5,3-1.1,4.6-1.8c-0.6-0.1-1.2-0.2-1.8-0.4c-4.2-1.2-6.8-5.4-7.9-12.6
		c0.1,0.5,0.1,0.9,0.1,1.4C13,61.2,13.1,64.3,13.3,67z"/>
	<path fill="none" d="M71.2,51.8c0.2,0.3,0.4,0.6,0.6,0.9C71.6,52.4,71.4,52.1,71.2,51.8z"/>
	<path fill="none" d="M66.4,49c1.3,0.2,2.6,0.8,3.6,1.6c0,0-0.1-0.1-0.1-0.1c0.4-3.3,0.5-7.3,0.2-11.8c0-0.5-0.2-1-0.4-1.4
		c-0.2,0.7-0.5,1.4-0.7,2.1C67.8,42.9,66.6,46.3,66.4,49z"/>
	<path fill="none" d="M71,51.6c-0.2-0.2-0.4-0.5-0.7-0.7C70.5,51.1,70.8,51.3,71,51.6z"/>
	<path fill="none" d="M22.9,84.5c0.1,0.2,0.2,0.3,0.3,0.5c2.6-1,5.9-3.4,9.5-7.1c0.4-0.4,0.7-0.8,1.1-1.2c-2.3,1.4-6.9,3.9-11.9,5.6
		C22.2,83.2,22.5,83.9,22.9,84.5C22.8,84.5,22.9,84.5,22.9,84.5z"/>
	<path fill="none" d="M76.9,85c0-0.1,0.1-0.1,0.1-0.2c0.1-0.1,0.1-0.2,0.2-0.3c0,0,0,0,0,0c0.3-0.6,0.7-1.3,1-2.1
		c-5-1.7-9.6-4.2-11.9-5.6c0.3,0.4,0.7,0.8,1.1,1.2C70.9,81.6,74.3,83.9,76.9,85z"/>
	<path fill="none" d="M72.7,59.1c0-0.1,0-0.1,0.1-0.2C72.7,59,72.7,59.1,72.7,59.1z"/>
	<path fill="none" d="M92.3,54.5c-1.7,0.1-3.1,1.6-3,3.4c0.2,2.9,0.1,6.3-0.1,9.3c2.8,0.9,4.5,3.9,3.8,6.8c-0.5,2.1-1,4-1.5,5.8
		c3.4-3,4.9-10.8,4.2-22.3C95.7,55.7,94.2,54.4,92.3,54.5z"/>
	<path fill="none" d="M88.9,69.9c-0.2-0.1-0.5-0.2-0.8-0.3c-0.6-0.1-1.2-0.1-1.7,0.1c-1,0.3-1.8,1.2-2.1,2.3c0,0.1,0,0.1,0,0.1
		c-0.2,0.8-0.4,1.6-0.6,2.5v0c-0.6,2-1.2,4.1-2,6.1c-0.3,0.8-0.6,1.6-1,2.4c-0.4,1-0.9,1.9-1.3,2.6c0,0,0,0,0,0
		c-0.4,0.7-1.9,3.2-3.5,3.8c-0.1,0-0.3,0.1-0.4,0.1c-0.5,0-1-0.3-1.2-0.9c-0.2-0.7,0.1-1.4,0.8-1.6c0,0,0.1,0,0.1-0.1
		c-3.7-1.8-8-5.2-11.4-9.1c-2-2.3-4.2-3.9-6.8-4.8c-0.7-0.2-1-1-0.8-1.6c0.2-0.7,1-1,1.6-0.8c1.3,0.4,2.5,1,3.6,1.8
		c1.2,0.3,2.5,0.8,3.4,1.2c1.6,0.8,7.6,4.1,14.3,6.3c0.7-1.8,1.4-3.9,1.9-6.1c-3.7-1.2-8.1-3.3-11.2-5.3c-0.5-0.3-0.7-1-0.5-1.6
		c0.2-0.6,0.9-0.9,1.5-0.7c0.3,0.1,0.6,0.2,1,0.2c1.2,0.3,2.5,0.6,3.6,0.6c1,0,2-0.1,2.8-0.4c4.9-1.4,7.2-9.8,6.4-23.5
		c-0.1-0.9-0.4-1.7-1.1-2.2c-0.6-0.6-1.5-0.8-2.3-0.8c-0.9,0.1-1.7,0.4-2.2,1.1c-0.6,0.6-0.8,1.5-0.8,2.3c0.3,5.8-0.2,13.8-1.5,16.4
		c-0.2,0.4-0.6,0.7-1.1,0.7c-0.9,0.1-2-0.1-3.4-0.5c0,0,0,0,0,0c-1.3,2.7-4,4.6-7.2,4.6c-1.4,0-2.7-0.3-3.9-1
		c-0.6-0.3-0.8-1.1-0.5-1.8c0.3-0.6,1.1-0.8,1.8-0.5c0.8,0.4,1.7,0.7,2.6,0.7c3,0,5.4-2.4,5.4-5.4c0-3-2.4-5.4-5.4-5.4
		c-0.7,0-1.3-0.6-1.3-1.3c0-3.3,1.3-7.3,2.8-11.6c1.5-4.6,3.1-9.3,3.1-13.3c0-10.8-8.7-19.5-19.5-19.5s-19.5,8.7-19.5,19.5
		c0,3.9,1.5,8.4,3,12.7c1.5,4.4,2.9,8.5,2.9,12.2c0,0.3-0.1,0.7-0.4,0.9c-0.2,0.2-0.6,0.4-0.9,0.4c0,0,0,0,0,0
		c-1.4,0-2.7,0.6-3.7,1.6c-1,1-1.6,2.4-1.6,3.9c0,3,2.4,5.4,5.4,5.4c0.9,0,1.8-0.2,2.6-0.7c0.6-0.3,1.4-0.1,1.8,0.5
		c0.3,0.6,0.1,1.4-0.5,1.8c-1.2,0.7-2.5,1-3.9,1c-3.2,0-6-1.9-7.3-4.7c-1.4,0.4-2.7,0.6-3.6,0.5c-0.5,0-0.8-0.3-1.1-0.7
		c-1.4-2.7-1.9-10.6-1.5-16.4c0.1-0.9-0.2-1.7-0.8-2.3c-0.6-0.6-1.4-1-2.2-1.1c-0.8-0.1-1.7,0.2-2.3,0.8c-0.7,0.6-1,1.4-1.1,2.2
		c-0.8,13.8,1.5,22.1,6.4,23.5c0.8,0.2,1.8,0.4,2.8,0.4c1,0,2.3-0.3,3.6-0.6c0.3-0.1,0.7-0.2,1-0.2c0.6-0.1,1.2,0.2,1.5,0.7
		c0.2,0.6,0.1,1.2-0.5,1.6c-3.1,2-7.5,4.1-11.2,5.3c0.6,2.2,1.2,4.3,1.9,6.1c6.6-2.2,12.3-5.5,14.2-6.3c0.9-0.4,2.1-0.8,3.3-1.1
		c1.2-0.8,2.5-1.4,3.8-1.9c0.7-0.2,1.4,0.1,1.6,0.8c0.2,0.7-0.1,1.4-0.8,1.6c-2.6,0.9-4.8,2.5-6.8,4.8c-3.4,3.9-7.6,7.3-11.3,9.1
		c0,0,0.1,0.1,0.1,0.1c0.7,0.2,1,1,0.8,1.6c-0.2,0.5-0.7,0.9-1.2,0.9c-0.1,0-0.3,0-0.4-0.1c-1.6-0.5-3.1-3-3.5-3.8c0,0,0,0,0,0
		c-0.4-0.7-0.9-1.6-1.3-2.6c-0.3-0.7-0.6-1.5-1-2.4c-0.7-1.9-1.4-4-2-6.1c-0.2-0.8-0.4-1.7-0.6-2.5c0-0.1,0-0.1,0-0.1
		c-0.3-1.1-1.1-2-2.1-2.3c-0.5-0.2-1.1-0.2-1.7-0.1c-0.3,0.1-0.6,0.2-0.8,0.3c-1.2,0.7-1.9,2.1-1.6,3.5c0.7,2.9,1.4,5.5,2.2,7.8
		c0.3,0.9,0.6,1.8,1,2.7c2.7,6.7,5.9,10.3,9.5,10.3c7,0,17-9.7,20.2-13.5c2.1-2.4,4.3-3.5,7.5-3.5c0.1,0,0.2,0,0.3,0
		c3.2,0,5.4,1,7.5,3.5c3.2,3.7,13.2,13.5,20.2,13.5c3.6,0,6.8-3.6,9.5-10.3c0.3-0.8,0.7-1.8,1-2.7c0.8-2.3,1.5-4.9,2.2-7.8
		C90.9,72,90.2,70.5,88.9,69.9z M65,54.1c1.5,0,2.7,1.2,2.7,2.7s-1.2,2.7-2.7,2.7c-1.5,0-2.7-1.2-2.7-2.7S63.5,54.1,65,54.1z
		 M35.3,59.5c-1.5,0-2.7-1.2-2.7-2.7s1.2-2.7,2.7-2.7c1.5,0,2.7,1.2,2.7,2.7S36.8,59.5,35.3,59.5z M48.7,69.2
		c-1.5,0-2.6-0.2-2.7-0.3c-0.7-0.1-1.1-0.8-1-1.5c0.1-0.7,0.8-1.1,1.5-1c0.1,0,5.7,1.2,8.7-2.4c0.5-0.5,1.3-0.6,1.8-0.2
		c0.5,0.5,0.6,1.3,0.2,1.8C54.8,68.6,51.2,69.2,48.7,69.2z"/>
	<path d="M98.3,57.4c-0.2-3.2-2.9-5.6-6.1-5.4c-3.2,0.2-5.6,2.9-5.5,6.1c0.2,3.2,0.1,6.3-0.1,8.9c-2.3,0.3-4.4,2-4.9,4.4
		c-1.4-0.5-3-1.1-4.6-1.8c0.6-0.1,1.2-0.2,1.8-0.4c6.4-1.8,9.1-10.6,8.3-26.1c-0.1-1.6-0.8-3-1.9-4c-1.2-1-2.6-1.5-4.2-1.4
		c-1.5,0.1-3,0.8-4,1.9c-1,1.1-1.5,2.6-1.5,4.2c0.3,6-0.2,11.9-1,14.4c-0.5-0.1-1.1-0.2-1.7-0.3c0,0.1,0,0.1,0,0.2
		c0.1-0.4,0.1-0.7,0.1-1.1c0-1.4-0.4-2.8-1-3.9c0,0.1,0.1,0.1,0.1,0.2c0.7-3.9,0.9-8.8,0.5-14.6c-0.1-1.5-0.8-3-1.9-4
		c-0.1-0.1-0.1-0.1-0.2-0.2c0.9-3.2,1.6-6.3,1.6-9.2c0-12.2-9.9-22.1-22.1-22.1S28,13.1,28,25.2c0,2.9,0.7,6,1.7,9.1
		c-0.1,0.1-0.2,0.2-0.3,0.3c-1.2,1-1.8,2.4-1.9,4c-0.3,6-0.1,11,0.6,14.9c0,0,0,0,0,0c-0.5,1.1-0.8,2.2-0.8,3.4c0,0.4,0,0.8,0.1,1.1
		c0-0.1,0-0.2-0.1-0.3c-0.7,0.2-1.4,0.3-2,0.4c-0.8-2.4-1.3-8.4-1-14.4c0.1-1.5-0.4-3-1.5-4.2c-1-1.2-2.4-1.8-4-1.9
		c-1.5-0.1-3,0.4-4.2,1.4c-1.2,1-1.9,2.5-2,4c-0.3,5.3-0.2,9.8,0.4,13.5c-0.5-2.5-2.7-4.5-5.4-4.7c-3.2-0.1-5.9,2.3-6.1,5.4
		c-0.9,15.3,1.8,24.1,8,26.1c3.2,8.9,7.4,13.4,12.4,13.4c9.7,0,21.7-13.8,22.2-14.4c1.6-1.9,3.1-2.6,5.7-2.6h0.1
		c2.5,0,4,0.7,5.7,2.6c0.5,0.6,12.5,14.4,22.2,14.4c5.1,0,9.2-4.5,12.5-13.4C96.5,81.4,99.2,72.7,98.3,57.4z M71.8,52.7
		c-0.2-0.3-0.4-0.6-0.6-0.9C71.4,52.1,71.6,52.4,71.8,52.7z M71,51.6c-0.2-0.2-0.4-0.5-0.7-0.7C70.5,51.1,70.8,51.3,71,51.6z
		 M70.1,38.7c0.3,4.5,0.2,8.5-0.2,11.8c0,0,0.1,0.1,0.1,0.1c-1-0.8-2.2-1.4-3.6-1.6c0.3-2.7,1.4-6.1,2.6-9.6
		c0.2-0.7,0.5-1.4,0.7-2.1C69.9,37.7,70,38.2,70.1,38.7z M29.9,38.7c0-0.6,0.2-1.2,0.6-1.7c-0.1-0.2-0.1-0.4-0.2-0.6
		c0.3,0.8,0.5,1.6,0.8,2.4c1.3,3.7,2.4,7.2,2.7,10.2c-1.6,0.3-3,1-4.2,2.2c0,0-0.1,0.1-0.1,0.1c0,0,0.1-0.1,0.1-0.1
		c0.2-0.2,0.4-0.4,0.6-0.5C29.8,47.3,29.7,43.3,29.9,38.7z M28.8,52.2c0,0.1-0.1,0.1-0.1,0.2C28.7,52.3,28.7,52.2,28.8,52.2z
		 M27.6,59.1c0-0.1,0-0.2-0.1-0.3C27.5,58.9,27.5,59,27.6,59.1z M13.1,56.6c1.1,7.2,3.7,11.4,7.9,12.6c0.6,0.2,1.2,0.3,1.8,0.4
		c-1.6,0.7-3.2,1.4-4.6,1.8c-0.6-2.4-2.6-4.1-4.9-4.4c-0.2-2.6-0.3-5.8-0.1-8.9C13.3,57.5,13.2,57,13.1,56.6z M4.2,57.5
		c0.1-1.8,1.6-3.1,3.4-3c1.8,0.1,3.1,1.6,3,3.4c-0.2,2.9-0.1,6.3,0.1,9.3C8,68.1,6.3,71,6.9,74c0.5,2.1,1,4,1.5,5.9
		C5.1,76.8,3.6,69.1,4.2,57.5z M88.4,81.2c-0.3,0.9-0.6,1.8-1,2.7c-2.7,6.7-5.9,10.3-9.5,10.3c-7,0-17-9.7-20.2-13.5
		c-2.1-2.4-4.3-3.5-7.5-3.5c-0.1,0-0.2,0-0.3,0c-3.2,0-5.4,1-7.5,3.5c-3.2,3.7-13.2,13.5-20.2,13.5c-3.6,0-6.8-3.6-9.5-10.3
		c-0.3-0.8-0.7-1.8-1-2.7c-0.8-2.3-1.5-4.9-2.2-7.8c-0.3-1.4,0.4-2.9,1.6-3.5c0.2-0.1,0.5-0.2,0.8-0.3c0.6-0.1,1.2-0.1,1.7,0.1
		c1,0.3,1.8,1.2,2.1,2.3c0,0.1,0,0.1,0,0.1c0.2,0.8,0.4,1.6,0.6,2.5c0.6,2,1.2,4.1,2,6.1c0.3,0.8,0.6,1.6,1,2.4
		c0.4,1,0.9,1.9,1.3,2.6c0,0,0,0,0,0c0.4,0.7,1.9,3.2,3.5,3.8c0.1,0,0.3,0.1,0.4,0.1c0.5,0,1-0.3,1.2-0.9c0.2-0.7-0.1-1.4-0.8-1.6
		c0,0-0.1,0-0.1-0.1c3.7-1.8,8-5.2,11.3-9.1c2-2.3,4.2-3.9,6.8-4.8c0.7-0.2,1-1,0.8-1.6c-0.2-0.7-1-1-1.6-0.8
		c-1.3,0.5-2.6,1.1-3.8,1.9c-1.2,0.3-2.4,0.8-3.3,1.1c-2,0.8-7.6,4.1-14.2,6.3c-0.7-1.8-1.4-3.9-1.9-6.1c3.7-1.2,8.1-3.3,11.2-5.3
		c0.5-0.3,0.7-1,0.5-1.6c-0.2-0.6-0.9-0.9-1.5-0.7c-0.3,0.1-0.6,0.2-1,0.2c-1.2,0.3-2.5,0.6-3.6,0.6c-1,0-2-0.1-2.8-0.4
		c-4.9-1.4-7.2-9.8-6.4-23.5c0.1-0.9,0.4-1.7,1.1-2.2c0.6-0.6,1.5-0.8,2.3-0.8c0.9,0.1,1.6,0.4,2.2,1.1c0.6,0.6,0.9,1.5,0.8,2.3
		c-0.3,5.8,0.2,13.8,1.5,16.4c0.2,0.4,0.6,0.7,1.1,0.7c0.9,0.1,2.2-0.1,3.6-0.5c1.3,2.8,4,4.7,7.3,4.7c1.4,0,2.7-0.3,3.9-1
		c0.6-0.3,0.8-1.1,0.5-1.8c-0.3-0.6-1.1-0.8-1.8-0.5c-0.8,0.4-1.7,0.7-2.6,0.7c-3,0-5.4-2.4-5.4-5.4c0-1.5,0.6-2.8,1.6-3.9
		c1-1,2.3-1.6,3.7-1.6c0,0,0,0,0,0c0.3,0,0.7-0.1,0.9-0.4c0.2-0.2,0.4-0.6,0.4-0.9c0-3.7-1.4-7.9-2.9-12.2c-1.5-4.3-3-8.8-3-12.7
		c0-10.8,8.7-19.5,19.5-19.5s19.5,8.7,19.5,19.5c0,4-1.6,8.7-3.1,13.3c-1.4,4.3-2.8,8.3-2.8,11.6c0,0.7,0.6,1.3,1.3,1.3
		c3,0,5.4,2.4,5.4,5.4c0,3-2.4,5.4-5.4,5.4c-0.9,0-1.8-0.2-2.6-0.7c-0.6-0.3-1.4-0.1-1.8,0.5c-0.3,0.6-0.1,1.4,0.5,1.8
		c1.2,0.7,2.5,1,3.9,1c3.2,0,6-1.9,7.2-4.6c0,0,0,0,0,0c1.3,0.3,2.5,0.5,3.4,0.5c0.5,0,0.8-0.3,1.1-0.7c1.4-2.7,1.9-10.6,1.5-16.4
		c0-0.9,0.2-1.7,0.8-2.3c0.6-0.6,1.4-1,2.2-1.1c0.8-0.1,1.7,0.2,2.3,0.8c0.7,0.6,1,1.4,1.1,2.2c0.8,13.8-1.5,22.1-6.4,23.5
		c-0.8,0.2-1.8,0.4-2.8,0.4c-1,0-2.3-0.3-3.6-0.6c-0.3-0.1-0.7-0.2-1-0.2c-0.6-0.1-1.2,0.2-1.5,0.7c-0.2,0.6,0,1.2,0.5,1.6
		c3.1,2,7.5,4.1,11.2,5.3c-0.6,2.2-1.3,4.3-1.9,6.1c-6.6-2.2-12.7-5.5-14.3-6.3c-0.9-0.5-2.2-0.9-3.4-1.2c-1.2-0.8-2.4-1.3-3.6-1.8
		c-0.7-0.2-1.4,0.1-1.6,0.8c-0.2,0.7,0.1,1.4,0.8,1.6c2.6,0.9,4.8,2.5,6.8,4.8c3.4,3.9,7.6,7.3,11.4,9.1c0,0-0.1,0.1-0.1,0.1
		c-0.7,0.2-1,1-0.8,1.6c0.2,0.5,0.7,0.9,1.2,0.9c0.1,0,0.3,0,0.4-0.1c1.6-0.5,3.1-3,3.5-3.8c0,0,0,0,0,0c0.4-0.7,0.9-1.6,1.3-2.6
		c0.3-0.7,0.6-1.5,1-2.4c0.7-1.9,1.4-4,2-6.1v0c0.2-0.8,0.4-1.7,0.6-2.5c0-0.1,0-0.1,0-0.1c0.3-1.1,1.1-2,2.1-2.3
		c0.5-0.2,1.1-0.2,1.7-0.1c0.3,0.1,0.6,0.2,0.8,0.3c1.2,0.7,1.9,2.1,1.6,3.5C89.9,76.3,89.2,78.9,88.4,81.2z M21.8,82.4
		c5-1.7,9.6-4.3,11.9-5.6c-0.3,0.4-0.7,0.8-1.1,1.2c-3.6,3.7-6.9,6-9.5,7.1c-0.1-0.2-0.2-0.3-0.3-0.5c0,0,0,0,0-0.1
		C22.5,83.9,22.2,83.2,21.8,82.4z M72.7,58.9c0,0.1,0,0.1-0.1,0.2C72.7,59.1,72.7,59,72.7,58.9z M78.2,82.3c-0.4,0.8-0.7,1.5-1,2.1
		c0,0,0,0,0,0c-0.1,0.1-0.1,0.2-0.2,0.3c0,0.1-0.1,0.1-0.1,0.2c-2.6-1-5.9-3.4-9.5-7.1c-0.4-0.4-0.7-0.8-1.1-1.2
		C68.6,78.1,73.2,80.7,78.2,82.3z M91.5,79.8c0.5-1.8,1-3.7,1.5-5.8c0.7-2.9-1-5.9-3.8-6.8c0.2-3,0.3-6.4,0.1-9.3
		c-0.1-1.8,1.3-3.3,3-3.4c1.8-0.1,3.3,1.3,3.4,3C96.4,69,94.9,76.8,91.5,79.8z"/>
	<circle cx="35.3" cy="56.8" r="2.7"/>
	<circle cx="65" cy="56.8" r="2.7"/>
	<path d="M57.2,65.7c0.5-0.5,0.4-1.4-0.2-1.8c-0.5-0.5-1.4-0.4-1.8,0.2c-3,3.5-8.7,2.4-8.7,2.4c-0.7-0.1-1.4,0.3-1.5,1
		c-0.1,0.7,0.3,1.4,1,1.5c0.1,0,1.2,0.3,2.7,0.3C51.2,69.2,54.8,68.6,57.2,65.7z"/>
</g>
</svg>
