<?xml version="1.0" encoding="utf-8"?>
<!-- Generator: Adobe Illustrator 18.1.0, SVG Export Plug-In . SVG Version: 6.00 Build 0)  -->
<svg version="1.1" id="Layer_1" xmlns="http://www.w3.org/2000/svg" xmlns:xlink="http://www.w3.org/1999/xlink" x="0px" y="0px"
	 viewBox="0 0 82 64.4" enable-background="new 0 0 82 64.4" xml:space="preserve">
<text transform="matrix(1 0 0 1 123.6138 97.3333)" font-family="'MuseoSans-100'" font-size="12">Print Collateralt</text>
<path d="M81.6,8.9L70.4,0.2C70-0.1,69.4,0,69,0.4l-1.1,1.4c-0.4-0.1-0.7,0.1-1,0.4l-2.4,3.1c-0.2,0.2-0.2,0.5-0.2,0.7
	c0,0.2,0.1,0.3,0.2,0.5c-1.4,1.8-14.9,18.5-16.9,20.8c-1.7,2.1-2.3,2.8-9,3.8c-9.5,1.5-13.4,6.5-16.3,10.1c-0.3,0.4-0.6,0.8-1,1.2
	c-0.6,0.7-6.1,8.2-13.2,17.6c-0.3,0.4-0.7,0.9-1,1.3c-2.2-0.8-4.2-2.1-5.9-3.6c-0.5-0.5-1-0.9-1.4-1.5c0,0,0,0,0,0v2.9c0,0,0,0,0,0
	c1.7,1.6,3.8,3,6,3.9c0.6,0.3,1.3,0.5,2,0.7c1.6,0.5,3.3,0.7,5.1,0.7c5.1,0,9.7-2,13.1-5.3c1.1,1,2.3,1.9,3.6,2.7
	c1.4,0.8,2.8,1.4,4.4,1.9c1.6,0.5,3.4,0.7,5.2,0.7c5.1,0,9.7-2,13.1-5.3c0.7,0.6,1.4,1.2,2.2,1.7c0.5,0.4,1.1,0.7,1.7,1.1
	c2.8,1.5,5.9,2.4,9.3,2.4c5.1,0,9.7-2,13.1-5.3c0.5-0.5,0.9-0.9,1.4-1.4c-0.5-0.5-1-0.9-1.4-1.5c-0.4,0.5-0.9,1-1.4,1.5
	c-3.1,2.9-7.2,4.7-11.7,4.7c-3,0-5.8-0.8-8.3-2.2c1.6-3.1,2.8-7.2,2.2-13c-0.7-6.8-0.1-7.5,1.4-9.6c1.8-2.5,14.6-19.7,16-21.5
	c0,0,0,0,0,0c0.1,0.1,0.3,0.1,0.5,0.1c0.3,0,0.5-0.2,0.7-0.4l2.4-3.1c0.2-0.3,0.3-0.7,0.1-1l1.1-1.4C82.1,9.8,82,9.2,81.6,8.9z
	 M28.4,58.4c3.1-4.7,7.8-14,9.8-18.1c1.4,1.8,3.8,3.7,4.8,4.5c1.7,1.2,3.8,2.5,5.5,3.2c-0.2,0.2-0.4,0.3-0.5,0.5c0,0,0,0,0,0
	c-4.9,4.2-12,11.2-14,13.2C33,61.2,32,60.7,31,60.2C30.1,59.6,29.2,59,28.4,58.4z M38.3,62.4c-0.1,0-0.3,0-0.4,0
	c-0.5,0-1-0.1-1.5-0.2c2.5-2.5,8-7.8,12.2-11.5l1.2,1.5C47.5,54.1,40.4,60.4,38.3,62.4z M39.5,38.6c1.2,0.3,3.3,1.4,5.7,3.2
	c2.6,1.9,4.2,3.6,4.7,4.5c-1.2-0.3-3.3-1.4-5.7-3.2C41.6,41.2,40.1,39.5,39.5,38.6z M59.4,36.5c-2.1,2.8-2.5,4.2-1.8,11
	c0.5,5.2-0.5,8.8-1.9,11.7c-0.6-0.4-1.2-0.9-1.8-1.4c-0.5-0.5-1-0.9-1.4-1.5c-0.4,0.5-0.9,1-1.4,1.5c-2.2,2-4.8,3.5-7.8,4.2
	c-0.6,0.2-1.3,0.3-2,0.3C45,59,51.8,53,51.9,53c0.4-0.4,0.5-1,0.1-1.4l-1.9-2.3c0.5-0.5,1-0.9,1.5-1.2c0.1,0,0.1-0.1,0.2-0.2
	c0.1-0.1,0.2-0.2,0.2-0.3c0,0,0-0.1,0.1-0.1c0.6-1.1-0.4-2.5-1.2-3.5c-1.1-1.2-2.6-2.6-4.4-3.9c-2.2-1.6-5.1-3.3-6.9-3.6
	c0.1-0.1,0.1-0.2,0.2-0.2c-0.1,0.1-0.1,0.1-0.1,0.2c0,0,0,0.1,0,0.1c-0.2,0-0.3-0.1-0.5-0.1c-0.7,0-1.1,0.2-1.3,0.5c0,0,0,0,0,0
	c-0.1,0.1-0.1,0.2-0.2,0.3c0,0,0,0,0,0.1C37.4,37.5,30.9,50.9,27,57c-0.2-0.2-0.5-0.5-0.7-0.7c-0.4,0.5-0.9,1-1.4,1.5
	c-3.1,2.9-7.2,4.7-11.7,4.7c-1.3,0-2.6-0.2-3.8-0.5c0.2-0.3,0.4-0.5,0.6-0.8c6.7-9.1,12.6-16.9,13.1-17.5c0.3-0.4,0.7-0.8,1-1.3
	c2.8-3.6,6.2-8,15-9.4c6.8-1,8-1.8,10.2-4.5C50.6,26.9,63.9,10.5,66,7.8l9.3,7.2C73.3,17.7,60.7,34.7,59.4,36.5z M77.2,13.8
	L66.7,5.7l1.2-1.5l10.4,8.1L77.2,13.8z M79.2,10.3l-9.6-7.4L70,2.4l9.6,7.4L79.2,10.3z"/>
</svg>
