<?xml version="1.0" encoding="utf-8"?>
<!-- Generator: Adobe Illustrator 18.1.0, SVG Export Plug-In . SVG Version: 6.00 Build 0)  -->
<svg version="1.1" id="Layer_1" xmlns="http://www.w3.org/2000/svg" xmlns:xlink="http://www.w3.org/1999/xlink" x="0px" y="0px"
	 viewBox="0 0 100 100" enable-background="new 0 0 100 100" xml:space="preserve">
<g>
	<path fill="none" d="M57.9,77.1c-2.5,1-5.1,1.6-7.9,1.6c-5.6,0-10.7-2.2-14.5-5.8c-1.9,1.8-4.1,3.2-6.6,4.2
		c-1.7,0.7-3.4,1.1-5.3,1.4c6.9,6.4,16.2,10.4,26.4,10.4c10.2,0,19.5-3.9,26.4-10.4c-4.6-0.6-8.7-2.6-12-5.6
		C62.6,74.7,60.3,76.1,57.9,77.1z"/>
	<path fill="none" d="M55.3,41c0.4-0.2,1-0.2,1.4,0.1c1.2,0.9,2.6,1.3,4.1,1.3c3.9,0,7-3.1,7-7c0-3.3-2.4-6.2-5.6-6.9
		c-0.5-0.1-0.9-0.5-1-1c-0.7-3.2-3.5-5.6-6.9-5.6c-1.5,0-2.9,0.4-4,1.3c-0.5,0.3-1.1,0.3-1.5,0c-1.2-0.8-2.6-1.3-4-1.3
		c-3.3,0-6.2,2.4-6.9,5.6c-0.1,0.5-0.5,0.9-1,1c-3.3,0.7-5.6,3.5-5.6,6.9c0,3.9,3.1,7,7,7c1.5,0,2.9-0.5,4.1-1.3
		c0.4-0.3,1-0.3,1.4-0.1c3.6,2,4.7,8.8,4.9,14.3h1.8C50.7,49.8,51.7,43,55.3,41z"/>
	<path fill="none" d="M74.2,60.1c-2.8-2.4-5.7-2.5-5.7-2.5H41c-1.7,0.3-4.8,2.4-5.9,3.2l-1.4,1.2l-2.2,1.8l-12.3,10
		c0.7,1,1.5,1.9,2.3,2.8c4.8-0.2,9.1-2.1,12.4-5.2c0.5-0.5,1-1,1.5-1.6c0.5,0.6,1,1.1,1.5,1.6c3.4,3.2,8,5.2,13,5.2s9.6-2,13-5.2
		c0.5-0.5,1-1,1.5-1.6c0.5,0.6,1,1.1,1.5,1.6c3.3,3.1,7.7,5,12.5,5.2c0.4-0.5,0.9-0.9,1.3-1.4c-0.2-6.6-1.9-10.8-3.9-13.3
		C75.3,61.1,74.7,60.5,74.2,60.1z M46.3,72c-0.9,0-1.6-0.7-1.6-1.6c0-0.9,0.7-1.6,1.6-1.6s1.6,0.7,1.6,1.6
		C47.9,71.2,47.2,72,46.3,72z"/>
	<path fill="none" d="M22,58.6c-0.4,0.4-0.9,0.8-1.4,1.2c-0.1,0.1-0.2,0.2-0.3,0.3c-0.4,0.3-0.8,0.6-1.1,0.8
		c-0.1,0.1-0.2,0.2-0.4,0.3c-0.5,0.3-1,0.6-1.5,0.9c-0.1,0-0.1,0.1-0.2,0.1c-0.5,0.2-0.9,0.5-1.4,0.7c-0.2,0.1-0.4,0.2-0.6,0.2
		c-0.4,0.1-0.8,0.3-1.1,0.4c-0.2,0.1-0.3,0.1-0.5,0.2c1.1,3,2.6,5.8,4.4,8.4l11-9C26.4,61.9,24,60.5,22,58.6z"/>
	<path fill="none" d="M50,11.1c-21.4,0-38.9,17.4-38.9,38.9c0,4,0.6,7.8,1.7,11.4c0.8-0.2,1.6-0.5,2.4-0.9c0.2-0.1,0.3-0.1,0.5-0.2
		c0.3-0.1,0.5-0.3,0.8-0.4c0.4-0.2,0.8-0.4,1.2-0.7c0.1-0.1,0.3-0.2,0.4-0.3c0.3-0.2,0.7-0.4,1-0.7c0.1-0.1,0.2-0.2,0.3-0.3
		c0.4-0.3,0.8-0.7,1.2-1c0.5-0.5,1-1,1.5-1.6c0,0,0,0,0,0c0.5,0.6,1,1.1,1.5,1.6c2.1,2,4.6,3.4,7.4,4.3l2.8-2.3
		c0.5-0.4,4.4-3.3,7-3.7c0.1,0,0.1,0,0.2,0H46c-0.3-4.9-1.1-9.8-3-11.5c-1.5,0.8-3.1,1.3-4.8,1.3c-5.3,0-9.7-4.3-9.7-9.6
		c0-4.3,2.9-8,6.9-9.2c1.2-4,5-6.9,9.2-6.9c1.7,0,3.3,0.4,4.8,1.3c1.4-0.8,3.1-1.3,4.8-1.3c4.3,0,8,2.8,9.2,6.9c4,1.2,6.9,5,6.9,9.2
		c0,5.3-4.3,9.6-9.6,9.6c-1.7,0-3.3-0.4-4.8-1.3c-1.9,1.8-2.7,6.7-3,11.5h15.5c0.1,0,4.1,0.1,7.7,3.6c0.8-0.6,1.6-1.2,2.4-1.9
		c0.5-0.5,1-1,1.5-1.6c0.5,0.6,1,1.1,1.5,1.6c1.7,1.6,3.6,2.8,5.8,3.7c1-3.4,1.5-7,1.5-10.7C88.9,28.6,71.4,11.1,50,11.1z"/>
	<path fill="none" d="M50,2.6C23.9,2.6,2.6,23.9,2.6,50S23.9,97.4,50,97.4S97.4,76.1,97.4,50S76.1,2.6,50,2.6z M50,91.5
		C27.1,91.5,8.5,72.9,8.5,50S27.1,8.5,50,8.5S91.5,27.1,91.5,50S72.9,91.5,50,91.5z"/>
	<path fill="none" d="M77.7,60.5c2,2.5,3.6,6.3,4.1,11.9c2.1-2.9,3.7-6.1,4.9-9.5c-2.5-1-4.7-2.4-6.6-4.2
		C79.3,59.3,78.5,59.9,77.7,60.5z"/>
	<path d="M46.3,68.7c-0.9,0-1.6,0.7-1.6,1.6c0,0.9,0.7,1.6,1.6,1.6s1.6-0.7,1.6-1.6C47.9,69.4,47.2,68.7,46.3,68.7z"/>
	<path d="M50,0C22.4,0,0,22.4,0,50c0,27.6,22.4,50,50,50c27.6,0,50-22.4,50-50C100,22.4,77.6,0,50,0z M50,97.4
		C23.9,97.4,2.6,76.1,2.6,50S23.9,2.6,50,2.6S97.4,23.9,97.4,50S76.1,97.4,50,97.4z"/>
	<path d="M50,8.5C27.1,8.5,8.5,27.1,8.5,50S27.1,91.5,50,91.5S91.5,72.9,91.5,50S72.9,8.5,50,8.5z M13.5,63.5c0.2,0,0.3-0.1,0.5-0.2
		c0.4-0.1,0.8-0.3,1.1-0.4c0.2-0.1,0.4-0.1,0.6-0.2c0.5-0.2,1-0.4,1.4-0.7c0.1,0,0.1,0,0.2-0.1c0.5-0.3,1-0.6,1.5-0.9
		c0.1-0.1,0.3-0.2,0.4-0.3c0.4-0.3,0.8-0.5,1.1-0.8c0.1-0.1,0.2-0.2,0.3-0.3c0.5-0.4,0.9-0.8,1.4-1.2c2,1.9,4.3,3.3,6.9,4.4l-11,9
		C16.1,69.3,14.7,66.5,13.5,63.5z M50,88.9c-10.2,0-19.5-3.9-26.4-10.4c1.8-0.2,3.6-0.7,5.3-1.4c2.4-1,4.7-2.5,6.6-4.2
		c3.8,3.6,8.9,5.8,14.5,5.8c2.8,0,5.5-0.6,7.9-1.6c2.4-1,4.7-2.5,6.6-4.2c3.2,3,7.3,5.1,12,5.6C69.5,84.9,60.2,88.9,50,88.9z
		 M78.5,76.5c-4.8-0.1-9.2-2.1-12.5-5.2c-0.5-0.5-1-1-1.5-1.6c-0.5,0.6-1,1.1-1.5,1.6c-3.4,3.2-8,5.2-13,5.2s-9.6-2-13-5.2
		c-0.5-0.5-1-1-1.5-1.6c-0.5,0.6-1,1.1-1.5,1.6c-3.3,3.1-7.6,5-12.4,5.2c-0.8-0.9-1.6-1.8-2.3-2.8l12.3-10l2.2-1.8l1.4-1.2
		c1.1-0.8,4.1-2.9,5.9-3.2h27.5c0.1,0,2.9,0.1,5.7,2.5c0.5,0.5,1.1,1,1.6,1.6c2,2.6,3.7,6.7,3.9,13.3C79.3,75.5,78.9,76,78.5,76.5z
		 M48.6,55.3C48.4,49.8,47.3,43,43.7,41c-0.4-0.2-1-0.2-1.4,0.1c-1.2,0.9-2.6,1.3-4.1,1.3c-3.9,0-7-3.1-7-7c0-3.3,2.4-6.2,5.6-6.9
		c0.5-0.1,0.9-0.5,1-1c0.7-3.2,3.5-5.6,6.9-5.6c1.4,0,2.8,0.4,4,1.3c0.5,0.3,1.1,0.3,1.5,0c1.2-0.8,2.6-1.3,4-1.3
		c3.3,0,6.2,2.4,6.9,5.6c0.1,0.5,0.5,0.9,1,1c3.2,0.7,5.6,3.5,5.6,6.9c0,3.9-3.1,7-7,7c-1.5,0-2.9-0.5-4.1-1.3
		c-0.4-0.3-1-0.3-1.4-0.1c-3.6,2-4.7,8.8-4.9,14.3H48.6z M81.8,72.4c-0.5-5.6-2.2-9.3-4.1-11.9c0.8-0.6,1.7-1.2,2.4-1.9
		c1.9,1.8,4.2,3.2,6.6,4.2C85.5,66.3,83.8,69.5,81.8,72.4z M81.6,57c-0.5-0.5-1-1-1.5-1.6c-0.5,0.6-1,1.1-1.5,1.6
		c-0.7,0.7-1.5,1.3-2.4,1.9c-3.6-3.4-7.6-3.6-7.7-3.6H53c0.3-4.9,1.1-9.8,3-11.5c1.5,0.8,3.1,1.3,4.8,1.3c5.3,0,9.6-4.3,9.6-9.6
		c0-4.3-2.8-8-6.9-9.2c-1.2-4-5-6.9-9.2-6.9c-1.7,0-3.3,0.4-4.8,1.3c-1.5-0.8-3.1-1.3-4.8-1.3c-4.3,0-8,2.8-9.2,6.9
		c-4,1.2-6.9,5-6.9,9.2c0,5.3,4.3,9.6,9.7,9.6c1.7,0,3.3-0.4,4.8-1.3c1.9,1.8,2.7,6.7,3,11.5h-5.1c-0.1,0-0.1,0-0.2,0
		c-2.6,0.4-6.5,3.3-7,3.7l-2.8,2.3c-2.8-0.9-5.3-2.4-7.4-4.3c-0.5-0.5-1.1-1-1.5-1.6c0,0,0,0,0,0c-0.5,0.6-1,1.1-1.5,1.6
		c-0.4,0.4-0.8,0.7-1.2,1c-0.1,0.1-0.2,0.2-0.3,0.3c-0.3,0.2-0.6,0.5-1,0.7c-0.1,0.1-0.3,0.2-0.4,0.3c-0.4,0.2-0.8,0.5-1.2,0.7
		c-0.3,0.1-0.5,0.3-0.8,0.4c-0.2,0.1-0.3,0.1-0.5,0.2c-0.8,0.3-1.6,0.6-2.4,0.9c-1.1-3.6-1.7-7.4-1.7-11.4
		c0-21.4,17.4-38.9,38.9-38.9c21.4,0,38.9,17.4,38.9,38.9c0,3.7-0.5,7.3-1.5,10.7C85.2,59.8,83.3,58.6,81.6,57z"/>
</g>
</svg>
