<?xml version="1.0" encoding="utf-8"?>
<!-- Generator: Adobe Illustrator 15.1.0, SVG Export Plug-In . SVG Version: 6.00 Build 0)  -->
<!DOCTYPE svg PUBLIC "-//W3C//DTD SVG 1.1//EN" "http://www.w3.org/Graphics/SVG/1.1/DTD/svg11.dtd">
<svg version="1.1" id="Layer_1" xmlns="http://www.w3.org/2000/svg" xmlns:xlink="http://www.w3.org/1999/xlink" x="0px" y="0px"
	 width="31.18px" height="25.51px" viewBox="0 0 31.18 25.51" enable-background="new 0 0 31.18 25.51" xml:space="preserve">
<g>
	<path fill="none" d="M17.322,4.584c0.104,0.035,0.244,0.035,0.35,0.035c0.699,0,1.33-0.49,1.505-1.19
		c0.21-0.84-0.315-1.645-1.155-1.854c-0.104-0.035-0.244-0.035-0.35-0.035c-0.699,0-1.33,0.49-1.505,1.19
		c-0.105,0.385-0.034,0.805,0.175,1.155C16.587,4.234,16.938,4.479,17.322,4.584z"/>
	<path fill="none" d="M10.323,14.837l-0.175,0.314l-0.525,0.945c-0.105,0.175-0.035,0.385,0.14,0.49c0.035,0,0.07,0.035,0.07,0.035
		c0.14,0.035,0.28-0.035,0.35-0.141l0.035-0.035l6.229-11.477c-0.21-0.14-0.385-0.28-0.525-0.49l-5.424,10.008L10.323,14.837z"/>
	<path fill="none" d="M18.547,1.015C18.547,1.015,18.512,1.015,18.547,1.015L18.512,0.91l-0.105-0.14c0,0-0.035,0-0.035-0.035
		h-0.034h-0.035h-0.035c-0.034,0-0.069,0-0.069,0L18.162,0.7c-0.035,0-0.035,0-0.035,0c-0.035,0-0.035,0-0.07,0l-0.105,0.035
		l-0.069,0.07c0,0,0,0,0,0.035c0.104,0,0.21,0.035,0.315,0.035C18.337,0.945,18.441,0.98,18.547,1.015z"/>
	<path fill="none" d="M16.518,9.448l0.84,0.21l-0.105-4.375c-0.035,0-0.035,0-0.07,0c-0.035-0.035-0.07-0.035-0.07-0.035
		l-2.099,3.849l0.839,0.21l0.315-1.26c0.035-0.175,0.245-0.315,0.42-0.245c0.175,0.035,0.315,0.245,0.245,0.42L16.518,9.448z"/>
	<path fill="none" d="M18.652,19.071v-0.35c0.104,0,0.174-0.035,0.244-0.105s0.105-0.141,0.105-0.245l-0.35-13.227
		c-0.211,0.105-0.455,0.175-0.701,0.21l0.351,13.052c0,0.175,0.104,0.28,0.28,0.315c0.035,0,0.07,0,0.07,0V19.071L18.652,19.071z"/>
	<path fill="none" d="M28.555,11.163H25.23c-0.875,0-1.609-0.735-1.609-1.609v-3.64c0-0.49-0.42-0.91-0.91-0.91h-0.49h-1.33h-1.539
		l0.141,5.179l0.84,0.21c0.174,0.035,0.314,0.245,0.244,0.42c-0.035,0.175-0.175,0.28-0.35,0.28c-0.035,0-0.07,0-0.07,0
		l-0.664-0.175l0.209,7.453c0,0.455-0.279,0.84-0.664,1.015l0.035,0.945c0,0.209-0.141,0.35-0.351,0.35l0,0
		c-0.175,0-0.351-0.141-0.351-0.35l-0.034-0.945c-0.42-0.14-0.735-0.524-0.735-0.979l-0.209-8.013l-1.016-0.245l-0.315,1.26
		c-0.035,0.175-0.175,0.28-0.35,0.28c-0.035,0-0.07,0-0.07,0c-0.175-0.035-0.315-0.245-0.245-0.42l0.315-1.26l-1.05-0.28
		l-3.534,6.579c0,0.035,0.035,0.035,0.035,0.069c0.105,0.315,0.245,0.631,0.385,0.945c0.07,0.176,0,0.385-0.175,0.455
		c-0.035,0.035-0.105,0.035-0.14,0.035c-0.14,0-0.28-0.07-0.315-0.21c-0.07-0.175-0.14-0.351-0.21-0.56
		c-0.245,0.209-0.56,0.314-0.91,0.279l-0.455,0.84c-0.07,0.105-0.175,0.176-0.315,0.176c-0.07,0-0.105,0-0.175-0.035
		c-0.175-0.105-0.245-0.315-0.14-0.49l0.455-0.84c-0.28-0.314-0.35-0.805-0.14-1.189l0.735-1.33c-0.07-0.141-0.14-0.314-0.21-0.455
		c-0.07-0.175,0-0.385,0.175-0.455s0.35,0,0.455,0.141l2.379-4.444l-0.665-0.175c-0.175-0.035-0.315-0.245-0.245-0.42
		c0.035-0.175,0.245-0.315,0.42-0.245l0.84,0.21l1.959-3.604H3.395c-0.49,0-0.91,0.42-0.91,0.91v17.986c0,0.49,0.42,0.91,0.91,0.91
		h25.16c0.49,0,0.91-0.42,0.91-0.91V12.842v-0.77c0-0.07,0-0.14-0.035-0.175C29.359,11.478,28.975,11.163,28.555,11.163z
		 M4.305,10.498c-0.315,0.07-0.63,0.175-0.91,0.315c-0.07,0.035-0.105,0.035-0.175,0.035c-0.14,0-0.245-0.07-0.315-0.21
		c-0.07-0.175,0-0.385,0.175-0.455c0.35-0.175,0.7-0.28,1.05-0.35c0.175-0.035,0.385,0.07,0.42,0.28
		C4.584,10.288,4.479,10.463,4.305,10.498z M7.244,10.638c-0.07,0.14-0.175,0.21-0.315,0.21c-0.035,0-0.105,0-0.14-0.035
		c-0.14-0.07-0.28-0.105-0.385-0.175c-0.175-0.07-0.35-0.105-0.525-0.14c-0.175-0.035-0.315-0.21-0.28-0.42
		c0.035-0.175,0.21-0.315,0.42-0.28c0.21,0.035,0.42,0.105,0.595,0.175c0.14,0.07,0.315,0.14,0.455,0.21
		C7.244,10.253,7.349,10.463,7.244,10.638z M8.084,11.268c0.14-0.14,0.35-0.14,0.49,0c0.245,0.245,0.49,0.525,0.7,0.84
		c0.105,0.175,0.07,0.385-0.07,0.49c-0.07,0.035-0.14,0.07-0.21,0.07c-0.105,0-0.21-0.035-0.28-0.14
		c-0.21-0.28-0.42-0.525-0.63-0.77C7.944,11.618,7.944,11.408,8.084,11.268z M12.773,20.155c-0.07,0.035-0.14,0.07-0.21,0.07
		c-0.105,0-0.21-0.035-0.28-0.14c-0.21-0.28-0.42-0.595-0.595-0.909c-0.105-0.176-0.035-0.386,0.105-0.49
		c0.175-0.105,0.385-0.035,0.49,0.104c0.175,0.315,0.35,0.595,0.56,0.84C12.983,19.841,12.948,20.051,12.773,20.155z M14.837,22.011
		c-0.07,0.104-0.175,0.14-0.28,0.14c-0.07,0-0.14-0.034-0.21-0.069c-0.28-0.211-0.595-0.42-0.875-0.666
		c-0.14-0.139-0.14-0.35-0.035-0.489c0.14-0.14,0.35-0.14,0.49-0.035c0.245,0.245,0.525,0.455,0.77,0.63
		C14.907,21.661,14.942,21.87,14.837,22.011z M17.146,23.095C17.146,23.095,17.146,23.06,17.146,23.095
		c-0.385-0.035-0.77-0.069-1.119-0.174c-0.175-0.035-0.28-0.246-0.245-0.42c0.035-0.176,0.245-0.281,0.42-0.246
		c0.315,0.07,0.63,0.141,0.944,0.141c0.211,0,0.351,0.175,0.315,0.385C17.497,22.921,17.322,23.095,17.146,23.095z M19.981,22.605
		c-0.315,0.104-0.7,0.21-1.05,0.28c-0.035,0-0.035,0-0.07,0c-0.175,0-0.314-0.105-0.35-0.28s0.07-0.386,0.279-0.42
		c0.351-0.07,0.666-0.175,0.98-0.28c0.175-0.07,0.385,0.035,0.455,0.21C20.262,22.36,20.191,22.57,19.981,22.605z M22.501,21.136
		c-0.245,0.244-0.56,0.49-0.875,0.699c-0.069,0.035-0.14,0.07-0.175,0.07c-0.105,0-0.21-0.07-0.279-0.175
		c-0.105-0.175-0.07-0.385,0.104-0.489c0.28-0.176,0.524-0.385,0.77-0.596c0.14-0.14,0.351-0.14,0.49,0
		C22.641,20.786,22.641,20.995,22.501,21.136z M23.971,18.581c-0.07,0.35-0.21,0.734-0.385,1.05c-0.07,0.14-0.176,0.21-0.315,0.21
		c-0.034,0-0.104,0-0.14-0.035c-0.175-0.07-0.245-0.279-0.175-0.455c0.14-0.279,0.245-0.594,0.314-0.909
		c0.035-0.175,0.245-0.315,0.42-0.28C23.9,18.196,24.041,18.406,23.971,18.581z M23.761,17.111c-0.035,0-0.035,0-0.07,0
		c-0.175,0-0.314-0.104-0.35-0.28c-0.035-0.174-0.07-0.314-0.104-0.455c-0.07-0.174,0.034-0.385,0.244-0.42
		c0.176-0.069,0.385,0.035,0.42,0.246c0.07,0.174,0.105,0.35,0.141,0.56C24.076,16.901,23.936,17.077,23.761,17.111z M25.09,15.012
		c0.141,0.14,0.141,0.351,0,0.49c-0.14,0.14-0.35,0.14-0.489,0l-1.05-1.05l-1.05,1.05c-0.14,0.14-0.351,0.14-0.489,0
		c-0.141-0.14-0.141-0.351,0-0.49l1.049-1.05l-1.049-1.049c-0.141-0.14-0.141-0.35,0-0.49c0.139-0.14,0.35-0.14,0.489,0l1.05,1.049
		l1.05-1.049c0.14-0.14,0.35-0.14,0.489,0c0.141,0.14,0.141,0.35,0,0.49l-1.049,1.049L25.09,15.012z"/>
	<path fill="none" d="M24.32,9.553c0,0.49,0.42,0.91,0.91,0.91h3.324c0.141,0,0.314,0.035,0.455,0.07
		c-0.105-0.14-0.21-0.28-0.314-0.385l-4.095-4.339c-0.07-0.105-0.175-0.175-0.315-0.245c0.035,0.105,0.035,0.245,0.035,0.35V9.553z"
		/>
	<path fill="#FFFFFF" d="M30.164,11.792c0-0.63-0.42-1.54-0.944-2.1l-4.13-4.374c-0.56-0.56-1.574-1.015-2.379-1.015h-0.49h-2.659
		c0.14-0.21,0.245-0.455,0.315-0.7c0.174-0.805-0.07-1.609-0.631-2.134V1.015V0.98c0-0.035,0-0.07,0-0.105
		c0-0.035,0-0.07-0.035-0.105c0-0.035-0.034-0.07-0.034-0.105c0-0.035-0.035-0.07-0.035-0.07c0-0.035-0.035-0.035-0.035-0.07
		c-0.034-0.035-0.034-0.07-0.069-0.07c0-0.035-0.035-0.035-0.07-0.07c-0.035-0.035-0.035-0.035-0.07-0.07s-0.035-0.035-0.07-0.035
		c-0.035-0.035-0.069-0.035-0.069-0.07l-0.035-0.035c-0.035,0-0.035-0.035-0.069-0.035c-0.035,0-0.07-0.035-0.105-0.035
		s-0.07-0.035-0.105-0.035s-0.07,0-0.104,0c-0.035,0-0.07,0-0.104,0c-0.035,0-0.035,0-0.07,0h-0.035c-0.035,0-0.105,0-0.141,0.035
		c-0.035,0-0.035,0-0.069,0c-0.035,0-0.07,0.035-0.14,0.035c-0.035,0-0.035,0.035-0.07,0.035s-0.07,0.035-0.105,0.07
		c-0.035,0-0.035,0.035-0.07,0.035c-0.034,0.035-0.034,0.035-0.104,0.07c0.035-0.035,0-0.035-0.034,0
		c-0.035,0.035-0.035,0.035-0.07,0.07c0,0.035-0.035,0.035-0.035,0.07l-0.245,0.455c-0.735,0.21-1.33,0.84-1.54,1.61
		c-0.105,0.385-0.07,0.77,0.035,1.155l-0.314,0.595H3.395c-0.875,0-1.61,0.735-1.61,1.609v5.179c-0.07,0-0.175,0.035-0.245,0.07
		c-0.28,0.21-0.42,0.385-0.42,0.385c-0.14,0.14-0.14,0.35,0,0.49c0.07,0.07,0.14,0.105,0.245,0.105s0.175-0.035,0.245-0.105
		c0,0,0.07-0.07,0.175-0.14v12.037c0,0.875,0.735,1.61,1.61,1.61h25.16c0.875,0,1.609-0.735,1.609-1.61V12.073
		c0-0.07,0-0.105,0-0.175C30.164,11.863,30.164,11.828,30.164,11.792z M24.601,5.809l4.095,4.339
		c0.104,0.105,0.209,0.245,0.314,0.385c-0.141-0.035-0.28-0.07-0.455-0.07H25.23c-0.49,0-0.91-0.42-0.91-0.91v-3.64
		c0-0.14,0-0.245-0.035-0.35C24.391,5.634,24.496,5.704,24.601,5.809z M17.917,0.84l0.069-0.07l0.105-0.035c0,0,0.035,0,0.07,0
		h0.035h0.035c0,0,0.034,0,0.069,0h0.035h0.034h0.035c0,0,0.035,0,0.035,0.035l0.07,0.14v0.07c0,0,0,0,0,0.035
		c-0.105-0.035-0.21-0.07-0.314-0.105C18.127,0.875,17.986,0.875,17.917,0.84C17.882,0.84,17.917,0.84,17.917,0.84z M16.202,2.729
		c0.175-0.7,0.771-1.19,1.505-1.19c0.105,0,0.244,0,0.35,0.035c0.84,0.21,1.33,1.015,1.154,1.854c-0.174,0.7-0.77,1.19-1.504,1.19
		c-0.105,0-0.245,0-0.35-0.035c-0.385-0.105-0.735-0.35-0.945-0.7C16.167,3.534,16.098,3.149,16.202,2.729z M18.582,18.722
		c-0.141-0.035-0.28-0.176-0.28-0.315L17.951,5.354c0.246-0.035,0.49-0.105,0.701-0.21l0.35,13.227c0,0.104-0.035,0.175-0.105,0.245
		s-0.14,0.105-0.244,0.105v0.35l0,0v-0.35C18.617,18.722,18.582,18.722,18.582,18.722z M16.587,7.769
		c-0.175-0.035-0.385,0.07-0.42,0.245l-0.315,1.26l-0.839-0.175l2.099-3.849c0.035,0,0.035,0,0.07,0.035c0.035,0,0.035,0,0.07,0
		l0.105,4.375l-0.84-0.21l0.314-1.26C16.867,8.013,16.762,7.803,16.587,7.769z M15.922,4.479c0.14,0.21,0.315,0.35,0.525,0.49
		l-6.194,11.477l-0.035,0.035c-0.07,0.105-0.245,0.176-0.35,0.141c-0.035,0-0.07-0.035-0.07-0.035
		c-0.175-0.105-0.245-0.315-0.14-0.49l0.525-0.945l0.175-0.314l0.21-0.35L15.922,4.479z M29.465,12.842v11.057
		c0,0.49-0.42,0.91-0.91,0.91H3.395c-0.49,0-0.91-0.42-0.91-0.91V5.914c0-0.49,0.42-0.91,0.91-0.91h11.478l-1.959,3.604l-0.84-0.21
		c-0.175-0.035-0.385,0.07-0.42,0.245c-0.035,0.175,0.07,0.385,0.245,0.42l0.665,0.175l-2.415,4.444
		c-0.105-0.141-0.28-0.211-0.455-0.141c-0.175,0.07-0.245,0.28-0.175,0.455c0.07,0.141,0.14,0.279,0.21,0.455l-0.735,1.33
		c-0.21,0.385-0.14,0.875,0.14,1.189l-0.42,0.84c-0.105,0.175-0.035,0.385,0.14,0.49c0.07,0.035,0.105,0.035,0.175,0.035
		c0.14,0,0.245-0.07,0.315-0.176l0.455-0.84c0.315,0.035,0.665-0.07,0.91-0.279c0.07,0.174,0.14,0.35,0.21,0.56
		c0.07,0.14,0.175,0.21,0.315,0.21c0.035,0,0.105,0,0.14-0.035c0.175-0.07,0.245-0.279,0.175-0.455
		c-0.14-0.314-0.28-0.664-0.385-0.945c0-0.034-0.035-0.034-0.035-0.069l3.534-6.579l1.015,0.245l-0.315,1.26
		c-0.035,0.175,0.07,0.385,0.245,0.42c0.035,0,0.07,0,0.07,0c0.175,0,0.315-0.105,0.35-0.28l0.314-1.26l1.016,0.245l0.209,8.013
		c0,0.455,0.315,0.84,0.735,0.979l0.035,0.945c0,0.175,0.175,0.35,0.35,0.35l0,0c0.21,0,0.351-0.175,0.351-0.35l-0.035-0.945
		c0.385-0.14,0.664-0.56,0.664-1.014l-0.209-7.454l0.664,0.175c0.035,0,0.07,0,0.07,0c0.175,0,0.314-0.105,0.35-0.28
		s-0.07-0.385-0.244-0.42l-0.84-0.21l-0.141-5.179h1.54h1.329h0.525c0.49,0,0.91,0.419,0.91,0.91v3.639
		c0,0.875,0.734,1.61,1.609,1.61h3.324c0.455,0,0.805,0.315,0.875,0.735c0,0.07,0.035,0.104,0.035,0.175V12.842z"/>
	<path fill="#FFFFFF" d="M25.09,12.422c-0.14-0.14-0.35-0.14-0.489,0l-1.05,1.049l-1.05-1.049c-0.14-0.14-0.351-0.14-0.489,0
		c-0.141,0.14-0.141,0.35,0,0.49l1.049,1.049l-1.049,1.05c-0.141,0.14-0.141,0.351,0,0.49c0.139,0.14,0.35,0.14,0.489,0l1.05-1.05
		l1.05,1.05c0.14,0.14,0.35,0.14,0.489,0c0.141-0.14,0.141-0.351,0-0.49l-1.049-1.05l1.049-1.049
		C25.23,12.807,25.23,12.563,25.09,12.422z"/>
	<path fill="#FFFFFF" d="M19.771,21.94c-0.314,0.105-0.63,0.21-0.98,0.279c-0.174,0.035-0.314,0.246-0.279,0.42
		c0.035,0.176,0.175,0.281,0.35,0.281c0.035,0,0.035,0,0.07,0c0.35-0.07,0.699-0.176,1.05-0.281c0.175-0.069,0.28-0.244,0.21-0.454
		C20.156,21.976,19.946,21.905,19.771,21.94z"/>
	<path fill="#FFFFFF" d="M4.13,9.833c-0.35,0.07-0.7,0.21-1.05,0.35c-0.175,0.07-0.245,0.28-0.175,0.455
		c0.07,0.14,0.175,0.21,0.315,0.21c0.035,0,0.105,0,0.14-0.035c0.315-0.14,0.63-0.245,0.91-0.315c0.175-0.035,0.315-0.245,0.28-0.42
		C4.515,9.903,4.34,9.798,4.13,9.833z"/>
	<path fill="#FFFFFF" d="M22.046,20.646c-0.245,0.211-0.489,0.42-0.77,0.596c-0.175,0.104-0.21,0.314-0.104,0.489
		c0.069,0.104,0.174,0.175,0.279,0.175c0.07,0,0.141-0.035,0.175-0.07c0.315-0.209,0.595-0.455,0.875-0.699
		c0.14-0.141,0.14-0.35,0-0.49C22.396,20.506,22.15,20.506,22.046,20.646z"/>
	<path fill="#FFFFFF" d="M23.726,18.161c-0.175-0.035-0.385,0.07-0.42,0.28c-0.069,0.315-0.175,0.63-0.315,0.909
		c-0.069,0.176,0,0.385,0.176,0.455c0.035,0.035,0.104,0.035,0.14,0.035c0.14,0,0.245-0.07,0.315-0.21
		c0.175-0.35,0.279-0.7,0.385-1.05C24.041,18.406,23.9,18.196,23.726,18.161z"/>
	<path fill="#FFFFFF" d="M13.963,20.926c-0.14-0.14-0.35-0.104-0.49,0.034c-0.14,0.141-0.105,0.351,0.035,0.49
		c0.28,0.246,0.56,0.49,0.875,0.665c0.07,0.035,0.14,0.07,0.21,0.07c0.104,0,0.21-0.07,0.28-0.14c0.105-0.176,0.07-0.385-0.105-0.49
		C14.453,21.38,14.208,21.171,13.963,20.926z"/>
	<path fill="#FFFFFF" d="M17.182,22.396c-0.314-0.035-0.629-0.07-0.944-0.141c-0.175-0.035-0.385,0.07-0.42,0.246
		c-0.035,0.174,0.07,0.385,0.245,0.42c0.35,0.104,0.735,0.174,1.084,0.174c0,0,0,0,0.035,0c0.176,0,0.35-0.14,0.35-0.314
		C17.497,22.57,17.357,22.396,17.182,22.396z"/>
	<path fill="#FFFFFF" d="M8.994,12.667c0.07,0,0.14-0.035,0.21-0.07c0.175-0.104,0.21-0.314,0.07-0.49
		c-0.21-0.315-0.455-0.595-0.7-0.84c-0.14-0.14-0.35-0.14-0.49,0c-0.14,0.14-0.14,0.35,0,0.49c0.21,0.209,0.42,0.49,0.63,0.77
		C8.784,12.632,8.889,12.667,8.994,12.667z"/>
	<path fill="#FFFFFF" d="M12.283,18.826c-0.105-0.175-0.315-0.21-0.49-0.104c-0.175,0.104-0.21,0.314-0.105,0.489
		c0.175,0.315,0.385,0.63,0.595,0.91c0.07,0.104,0.175,0.14,0.28,0.14c0.07,0,0.14-0.035,0.21-0.07
		c0.14-0.104,0.175-0.35,0.07-0.489C12.668,19.421,12.458,19.106,12.283,18.826z"/>
	<path fill="#FFFFFF" d="M7.104,10.183c-0.14-0.07-0.315-0.14-0.455-0.21c-0.21-0.07-0.385-0.14-0.595-0.175
		c-0.175-0.035-0.385,0.07-0.42,0.28c-0.035,0.175,0.07,0.385,0.28,0.42c0.175,0.035,0.35,0.07,0.525,0.14
		c0.14,0.035,0.28,0.105,0.385,0.175c0.035,0.035,0.105,0.035,0.14,0.035c0.14,0,0.245-0.07,0.315-0.21
		C7.349,10.463,7.244,10.253,7.104,10.183z"/>
	<path fill="#FFFFFF" d="M23.48,15.922c-0.175,0.069-0.279,0.245-0.244,0.42c0.034,0.14,0.069,0.315,0.104,0.454
		c0.035,0.176,0.175,0.281,0.35,0.281c0.035,0,0.035,0,0.07,0c0.175-0.035,0.315-0.211,0.28-0.386s-0.07-0.385-0.141-0.56
		C23.865,15.956,23.656,15.852,23.48,15.922z"/>
</g>
</svg>
