<?xml version="1.0" encoding="utf-8"?>
<!-- Generator: Adobe Illustrator 15.1.0, SVG Export Plug-In . SVG Version: 6.00 Build 0)  -->
<!DOCTYPE svg PUBLIC "-//W3C//DTD SVG 1.1//EN" "http://www.w3.org/Graphics/SVG/1.1/DTD/svg11.dtd">
<svg version="1.1" id="Layer_1" xmlns="http://www.w3.org/2000/svg" xmlns:xlink="http://www.w3.org/1999/xlink" x="0px" y="0px"
	 width="31.18px" height="25.51px" viewBox="0 0 31.18 25.51" enable-background="new 0 0 31.18 25.51" xml:space="preserve">
<text transform="matrix(1 0 0 1 46.6084 17.6943)" font-family="'MuseoSans-100'" font-size="3.9196">Prototype</text>
<g>
	<path fill="#FFFFFF" d="M14.675,7.545c-1.895,0.49-2.319,2.254-2.319,2.352c-0.033,0.163,0.065,0.359,0.261,0.392
		c0.033,0,0.065,0,0.065,0c0.164,0,0.294-0.098,0.327-0.261c0-0.065,0.359-1.47,1.862-1.862c0.164-0.032,0.294-0.229,0.229-0.392
		C15.035,7.578,14.839,7.48,14.675,7.545z"/>
	<path fill="#FFFFFF" d="M19.574,7.349c-0.13-0.163-0.293-0.294-0.424-0.457c-0.065-0.065-0.131-0.131-0.196-0.196
		c-0.915-0.751-2.091-1.208-3.364-1.208c-1.307,0-2.515,0.49-3.43,1.274c-0.033,0.033-0.098,0.065-0.13,0.131
		c-0.164,0.13-0.294,0.294-0.425,0.457c-0.065,0.065-0.098,0.131-0.131,0.164c-0.718,0.915-1.143,2.058-1.143,3.299
		c0,1.339,0.49,2.548,1.307,3.494c0.196,0.229,0.425,0.426,0.653,0.621c0.915,0.752,2.058,1.176,3.332,1.176
		c1.176,0,2.254-0.392,3.135-1.045c0.229-0.163,0.457-0.359,0.654-0.555c0.914-0.947,1.502-2.254,1.502-3.691
		c0-1.241-0.425-2.384-1.144-3.299C19.673,7.447,19.641,7.415,19.574,7.349z M19.379,13.489c-0.196,0.262-0.425,0.523-0.653,0.752
		c-0.816,0.751-1.927,1.241-3.136,1.241c-1.307,0-2.482-0.556-3.332-1.405c-0.261-0.261-0.458-0.555-0.653-0.849
		c-0.425-0.686-0.653-1.502-0.653-2.384s0.261-1.699,0.653-2.385c0.196-0.294,0.392-0.588,0.653-0.849V7.578l0,0
		c0.229-0.261,0.522-0.457,0.816-0.653c0.719-0.457,1.568-0.751,2.515-0.751c0.914,0,1.764,0.261,2.516,0.751
		c0.229,0.131,0.424,0.327,0.652,0.49c0.065,0.065,0.131,0.098,0.164,0.163c0.163,0.196,0.326,0.359,0.49,0.588
		c0.521,0.751,0.849,1.666,0.849,2.679C20.261,11.856,19.901,12.739,19.379,13.489z"/>
	<path fill="#FFFFFF" d="M26.107,6.696h-2.352c-0.85-1.666-2.188-3.038-3.822-3.919v-2.45C19.934,0.131,19.803,0,19.607,0h-0.326
		h-7.382h-0.327c-0.196,0-0.327,0.131-0.327,0.327v2.417C9.612,3.625,8.273,4.998,7.424,6.663H5.072
		c-0.196,0-0.327,0.131-0.327,0.327v0.327v7.382v0.326c0,0.197,0.131,0.327,0.327,0.327h2.581c0.588,1.046,1.404,1.96,2.352,2.711
		l-4.736,3.626c-0.065,0.064-0.131,0.163-0.131,0.229c0,0.098,0.033,0.195,0.098,0.262c0.163,0.13,3.658,3.331,10.354,3.331
		c6.695,0,10.191-3.201,10.321-3.364c0.065-0.065,0.099-0.164,0.099-0.262s-0.066-0.195-0.131-0.229l-4.703-3.593
		c0.947-0.751,1.764-1.665,2.352-2.711h2.58c0.195,0,0.326-0.13,0.326-0.327v-0.326V7.349V7.022
		C26.434,6.827,26.271,6.696,26.107,6.696z M11.899,0.653h7.349V2.45c-1.11-0.49-2.352-0.784-3.658-0.784S13.042,1.96,11.899,2.45
		V0.653z M5.399,14.698V7.349H7.13c-0.425,1.078-0.686,2.254-0.686,3.462c0,1.404,0.327,2.711,0.882,3.887H5.399z M25.16,21.95
		c-0.98,0.75-4.246,2.939-9.603,2.939c-5.324,0-8.623-2.189-9.603-2.939l4.573-3.496c1.437,0.947,3.168,1.503,5.03,1.503
		s3.56-0.556,5.031-1.503L25.16,21.95z M23.135,14.698c-0.131,0.229-0.229,0.457-0.359,0.653c-0.588,0.915-1.339,1.731-2.254,2.384
		c-0.326,0.229-0.686,0.458-1.077,0.654c-1.144,0.588-2.45,0.914-3.854,0.914s-2.678-0.326-3.854-0.914
		c-0.359-0.196-0.719-0.425-1.078-0.654c-0.882-0.652-1.666-1.437-2.254-2.384c-0.13-0.196-0.261-0.425-0.359-0.653
		c-0.588-1.176-0.947-2.482-0.947-3.887c0-1.241,0.261-2.417,0.751-3.462c0.098-0.229,0.196-0.457,0.327-0.653
		c0.719-1.307,1.796-2.417,3.103-3.168c0.196-0.131,0.425-0.262,0.653-0.359c1.11-0.523,2.352-0.85,3.691-0.85
		s2.515,0.294,3.625,0.85c0.229,0.098,0.457,0.229,0.653,0.359c1.307,0.784,2.352,1.861,3.103,3.168
		c0.131,0.196,0.229,0.425,0.327,0.653c0.489,1.045,0.751,2.221,0.751,3.462C24.082,12.216,23.723,13.522,23.135,14.698z
		 M25.781,14.698h-1.895c0.555-1.176,0.881-2.482,0.881-3.887c0-1.241-0.229-2.384-0.686-3.462h1.731v7.349H25.781z"/>
	<path fill="#FFFFFF" d="M10.56,19.957c-0.751,0-1.339,0.588-1.339,1.339c0,0.752,0.588,1.34,1.339,1.34
		c0.751,0,1.339-0.588,1.339-1.34C11.899,20.545,11.311,19.957,10.56,19.957z M10.56,21.981c-0.392,0-0.686-0.293-0.686-0.686
		c0-0.392,0.327-0.686,0.686-0.686c0.359,0,0.686,0.294,0.686,0.686C11.246,21.688,10.952,21.981,10.56,21.981z"/>
</g>
</svg>
