<?xml version="1.0" encoding="utf-8"?>
<!-- Generator: Adobe Illustrator 15.1.0, SVG Export Plug-In . SVG Version: 6.00 Build 0)  -->
<!DOCTYPE svg PUBLIC "-//W3C//DTD SVG 1.1//EN" "http://www.w3.org/Graphics/SVG/1.1/DTD/svg11.dtd">
<svg version="1.1" id="Layer_1" xmlns="http://www.w3.org/2000/svg" xmlns:xlink="http://www.w3.org/1999/xlink" x="0px" y="0px"
	 width="31.18px" height="25.51px" viewBox="0 0 31.18 25.51" enable-background="new 0 0 31.18 25.51" xml:space="preserve">
<path fill="#FFFFFF" d="M27.629,23.114c-0.124,0.156-0.279,0.28-0.436,0.436c-0.964,0.871-2.24,1.4-3.64,1.4
	c-0.062,0-0.124,0-0.187,0c0.746-3.391,2.645-6.16,2.676-6.191c0.063-0.094,0.063-0.217,0-0.311s-0.156-0.156-0.28-0.156
	c-0.063,0-6.657-0.186-9.893-1.523v-1.121c2.084,0.063,7.778,0.747,7.839,0.747h0.031l0,0c0.188,0,0.312-0.124,0.312-0.312
	c0-0.062,0-0.093-0.031-0.154c-1.214-3.765-0.778-7.374-0.778-7.405l0,0h2.521c0.187,0,0.312-0.125,0.312-0.311
	s-0.125-0.311-0.312-0.311h-9.862V6.595c1.556,0.062,5.445,0.529,5.475,0.529h0.031l0,0c0.187,0,0.312-0.125,0.312-0.311
	c0-0.062,0-0.093-0.031-0.156c-0.84-2.644-0.529-5.195-0.529-5.226V1.4h1.773c0.187,0,0.311-0.125,0.311-0.311
	s-0.124-0.311-0.311-0.311h-7.031V0.311C15.901,0.156,15.746,0,15.59,0c-0.187,0-0.311,0.125-0.311,0.311v0.467H8.248
	c-0.187,0-0.311,0.125-0.311,0.311S8.062,1.4,8.248,1.4h1.773v0.031c0,0.031,0.311,2.613-0.56,5.289C9.43,6.813,9.461,6.938,9.523,7
	c0.063,0.063,0.187,0.125,0.28,0.125c0.031,0,3.919-0.467,5.475-0.529v1.307H5.386c-0.187,0-0.311,0.125-0.311,0.311
	s0.125,0.311,0.311,0.311h2.52l0,0c0,0.031,0.404,3.671-0.809,7.466c-0.031,0.093,0,0.218,0.062,0.28s0.156,0.124,0.249,0.124h0.031
	c0.063,0,5.693-0.685,7.84-0.747v1.121c-3.235,1.338-9.831,1.523-9.893,1.523c-0.124,0-0.218,0.063-0.28,0.156
	c-0.062,0.093-0.031,0.217,0.031,0.311c0.031,0.031,1.897,2.801,2.675,6.16C7.626,24.95,7.408,24.95,7.221,24.95
	c-0.404,0-0.809-0.063-1.182-0.125c-0.218-0.063-0.436-0.125-0.622-0.187C4.732,24.39,4.11,24.017,3.582,23.55
	c-0.155-0.125-0.311-0.279-0.436-0.436l0,0v0.84l0,0c0.529,0.498,1.182,0.871,1.867,1.151c0.187,0.062,0.404,0.155,0.622,0.187
	c0.498,0.125,1.027,0.218,1.586,0.218c0.249,0,0.467,0,0.716-0.031c0.218-0.03,0.404-0.062,0.622-0.093
	c1.058-0.219,1.991-0.716,2.769-1.4c0.342,0.311,0.716,0.561,1.12,0.809c0.404,0.249,0.871,0.404,1.338,0.561
	c0.498,0.124,1.058,0.217,1.618,0.217c1.587,0,3.018-0.59,4.075-1.555c0.218,0.187,0.436,0.342,0.653,0.529
	c0.155,0.124,0.343,0.217,0.528,0.311c0.592,0.311,1.275,0.561,1.961,0.653c0.217,0.031,0.404,0.062,0.621,0.062
	c0.094,0,0.188,0,0.312,0c1.587,0,3.018-0.59,4.075-1.555c0.156-0.125,0.312-0.28,0.436-0.436
	C27.909,23.395,27.754,23.239,27.629,23.114z M22.217,8.524c-0.592,0.28-1.649,0.622-2.925,0.622c-0.995,0-1.96-0.218-2.925-0.622
	H22.217z M20.256,1.4c-0.404,0.218-1.119,0.529-2.021,0.529c-0.685,0-1.369-0.187-2.022-0.529H20.256z M14.968,1.4
	c-0.685,0.342-1.369,0.529-2.053,0.529c-0.902,0-1.587-0.311-1.991-0.529H14.968z M15.279,5.973
	c-1.275,0.062-3.982,0.342-5.071,0.498c0.529-1.867,0.529-3.578,0.498-4.449c0.467,0.249,1.245,0.56,2.209,0.56
	c0.84,0,1.711-0.249,2.52-0.685c0.063-0.031,0.094-0.062,0.156-0.093c0.062,0.031,0.093,0.063,0.156,0.093
	c0.809,0.467,1.649,0.685,2.52,0.685c0.964,0,1.742-0.311,2.24-0.56c-0.031,0.902-0.031,2.613,0.497,4.449
	c-1.089-0.125-3.796-0.436-5.071-0.498c-0.125,0-0.218,0-0.311,0S15.372,5.942,15.279,5.973z M14.812,8.524
	c-0.964,0.404-1.96,0.622-2.955,0.622c-1.276,0-2.302-0.342-2.894-0.622H14.812z M7.844,15.71c0.84-2.862,0.809-5.537,0.747-6.688
	c0.622,0.311,1.773,0.715,3.267,0.715c1.213,0,2.395-0.28,3.577-0.84l0.063-0.031c0.031-0.031,0.093-0.031,0.125-0.062
	c0.062,0.031,0.125,0.062,0.187,0.093c1.151,0.56,2.333,0.84,3.516,0.84c1.493,0,2.675-0.436,3.298-0.715
	c-0.063,1.151-0.094,3.795,0.746,6.688c-1.432-0.155-5.631-0.652-7.435-0.715c-0.125,0-0.218,0-0.311,0s-0.187,0-0.311,0
	C13.475,15.058,9.274,15.555,7.844,15.71z M13.786,24.7c-0.342-0.123-0.716-0.279-1.027-0.436c-0.311-0.154-0.622-0.373-0.871-0.59
	c-0.062-0.031-0.093-0.063-0.155-0.125c-0.156-0.125-0.311-0.279-0.436-0.436c-0.125,0.156-0.28,0.28-0.436,0.436
	c-0.685,0.592-1.524,1.058-2.458,1.244c-0.591-2.706-1.897-5.008-2.488-5.941c1.618-0.063,6.471-0.373,9.333-1.463v7.529
	c-0.125,0-0.249,0-0.373-0.031C14.532,24.856,14.159,24.794,13.786,24.7z M20.972,24.265c-0.187-0.093-0.373-0.217-0.528-0.311
	c-0.188-0.124-0.373-0.279-0.561-0.436c-0.155-0.124-0.311-0.279-0.436-0.436c-0.124,0.156-0.279,0.28-0.436,0.436
	c-0.684,0.592-1.493,1.027-2.426,1.244c-0.219,0.063-0.467,0.094-0.716,0.094V17.39c2.863,1.09,7.715,1.4,9.333,1.463
	c-0.592,0.934-1.898,3.266-2.489,6.004C22.092,24.763,21.5,24.577,20.972,24.265z"/>
</svg>
