<?xml version="1.0" encoding="utf-8"?>
<!-- Generator: Adobe Illustrator 15.1.0, SVG Export Plug-In . SVG Version: 6.00 Build 0)  -->
<!DOCTYPE svg PUBLIC "-//W3C//DTD SVG 1.1//EN" "http://www.w3.org/Graphics/SVG/1.1/DTD/svg11.dtd">
<svg version="1.1" id="Layer_1" xmlns="http://www.w3.org/2000/svg" xmlns:xlink="http://www.w3.org/1999/xlink" x="0px" y="0px"
	 width="30.22px" height="24.792px" viewBox="0 0 30.22 24.792" enable-background="new 0 0 30.22 24.792" xml:space="preserve">
<g>
	<defs>
		<rect id="SVGID_1_" y="0" width="30.22" height="24.792"/>
	</defs>
	<clipPath id="SVGID_2_">
		<use xlink:href="#SVGID_1_"  overflow="visible"/>
	</clipPath>
	<path clip-path="url(#SVGID_2_)" fill="none" stroke="#26A7E0" stroke-miterlimit="10" d="M29.595,3.412
		c-1.063,0.473-2.21,0.792-3.413,0.935c1.229-0.734,2.168-1.9,2.614-3.288c-1.15,0.682-2.423,1.176-3.775,1.442
		c-1.084-1.154-2.63-1.876-4.338-1.876c-3.283,0-5.944,2.66-5.944,5.943c0,0.466,0.053,0.92,0.154,1.355
		c-4.939-0.248-9.32-2.614-12.25-6.21C2.132,2.591,1.838,3.612,1.838,4.701c0,2.062,1.049,3.881,2.644,4.946
		C3.507,9.617,2.591,9.35,1.789,8.904v0.075c0,2.88,2.051,5.282,4.767,5.828c-0.497,0.136-1.022,0.208-1.565,0.208
		c-0.384,0-0.755-0.037-1.118-0.106c0.755,2.361,2.951,4.08,5.551,4.127C7.39,20.629,4.83,21.58,2.043,21.58
		c-0.479,0-0.951-0.026-1.418-0.082c2.631,1.687,5.754,2.67,9.112,2.67c10.932,0,16.91-9.057,16.91-16.91
		c0-0.258-0.005-0.515-0.017-0.769C27.791,5.65,28.799,4.604,29.595,3.412z"/>
</g>
</svg>
