<?xml version="1.0" encoding="utf-8"?>
<!-- Generator: Adobe Illustrator 15.1.0, SVG Export Plug-In . SVG Version: 6.00 Build 0)  -->
<!DOCTYPE svg PUBLIC "-//W3C//DTD SVG 1.1//EN" "http://www.w3.org/Graphics/SVG/1.1/DTD/svg11.dtd">
<svg version="1.1" id="Layer_1" xmlns="http://www.w3.org/2000/svg" xmlns:xlink="http://www.w3.org/1999/xlink" x="0px" y="0px"
	 width="31.18px" height="25.51px" viewBox="0 0 31.18 25.51" enable-background="new 0 0 31.18 25.51" xml:space="preserve">
<text transform="matrix(1 0 0 1 27.8887 39.0693)" font-family="'MuseoSans-100'" font-size="3.5972">Iterate</text>
<g>
	<path fill="none" d="M15.615,9.464c-1.709,0-3.086,1.377-3.086,3.086s1.377,3.087,3.086,3.087s3.087-1.378,3.087-3.087
		S17.324,9.464,15.615,9.464z M15.615,14.617c-1.148,0-2.066-0.919-2.066-2.066c0-1.148,0.918-2.066,2.066-2.066
		c1.148,0,2.066,0.918,2.066,2.066C17.682,13.698,16.764,14.617,15.615,14.617z"/>
	<path fill="none" d="M18.166,9.898c1.021-0.587,2.041-1.174,3.036-1.735c-1.147-1.454-2.831-2.449-4.745-2.653
		c0,1.122,0.025,2.27,0.025,3.469C17.121,9.132,17.707,9.464,18.166,9.898z"/>
	<path fill="none" d="M15.615,11.097c-0.816,0-1.479,0.664-1.479,1.479c0,0.816,0.663,1.479,1.479,1.479s1.479-0.663,1.479-1.479
		C17.095,11.76,16.432,11.097,15.615,11.097z"/>
	<path fill="none" d="M14.365,9.107C14.34,7.882,14.34,6.734,14.34,5.586c-1.811,0.332-3.367,1.352-4.413,2.755
		c1.046,0.586,2.041,1.173,3.01,1.709C13.319,9.617,13.804,9.311,14.365,9.107z"/>
	<path fill="none" d="M19.033,11.173c1.021-0.587,2.016-1.148,2.985-1.709c-0.153-0.281-0.306-0.536-0.46-0.816
		c-0.969,0.561-1.964,1.122-2.984,1.709C18.753,10.612,18.906,10.867,19.033,11.173z"/>
	<path fill="none" d="M15.615,8.877c0.077,0,0.179,0,0.255,0.025c-0.026-1.173-0.026-2.296-0.026-3.418c-0.076,0-0.153,0-0.229,0
		c-0.229,0-0.459,0-0.688,0.026c0,1.122,0.025,2.27,0.025,3.444C15.182,8.903,15.386,8.877,15.615,8.877z"/>
	<path fill="none" d="M15.615,22.091c-0.153,0-0.332,0-0.484,0c0,0.74,0,1.48,0,2.221c0,0.254,0.204,0.459,0.459,0.459
		s0.459-0.205,0.459-0.459c0-0.74,0-1.48,0-2.221C15.921,22.091,15.769,22.091,15.615,22.091z"/>
	<path fill="none" d="M15.615,3.036c0.077,0,0.153,0,0.229,0c0-0.587,0-1.173,0-1.786V1.123c0-0.255-0.204-0.459-0.459-0.459
		s-0.459,0.204-0.459,0.459V1.25c0,0.612,0,1.199,0,1.811C15.156,3.036,15.386,3.036,15.615,3.036z"/>
	<path fill="none" d="M12.554,10.51c-0.969-0.536-1.939-1.097-2.985-1.684C9.417,9.082,9.264,9.362,9.136,9.643
		c1.021,0.587,2.041,1.148,2.985,1.709C12.248,11.046,12.375,10.765,12.554,10.51z"/>
	<path fill="none" d="M24.595,8.01l1.173-0.664c0.103-0.051,0.18-0.153,0.23-0.28c0.025-0.128,0.025-0.255-0.051-0.357
		c-0.077-0.153-0.23-0.229-0.408-0.229c-0.077,0-0.153,0.025-0.23,0.051l-1.147,0.638c-0.179,0.102-0.331,0.178-0.511,0.28
		c0.18,0.255,0.332,0.536,0.46,0.816C24.289,8.188,24.441,8.112,24.595,8.01z"/>
	<path fill="none" d="M5.233,18.087c-0.229,0.127-0.306,0.408-0.179,0.637c0.127,0.205,0.408,0.307,0.638,0.18
		c0.664-0.383,1.327-0.74,1.964-1.123c-0.179-0.255-0.332-0.535-0.459-0.791C6.534,17.347,5.871,17.704,5.233,18.087z"/>
	<path fill="none" d="M7.478,7.627C6.891,7.296,6.279,6.938,5.667,6.582C5.59,6.53,5.514,6.53,5.437,6.53
		c-0.153,0-0.332,0.077-0.408,0.23C4.978,6.862,4.952,6.99,4.978,7.117C5.003,7.245,5.08,7.347,5.182,7.398
		c0.612,0.357,1.225,0.714,1.837,1.071C7.172,8.163,7.325,7.882,7.478,7.627z"/>
	<path fill="none" d="M22.248,10.025c-0.995,0.561-2.016,1.148-3.035,1.735c0.051,0.255,0.102,0.536,0.102,0.816
		c0,0.357-0.051,0.688-0.153,0.995c0.944,0.535,1.964,1.123,3.011,1.709c0.356-0.842,0.561-1.76,0.561-2.729
		C22.732,11.658,22.555,10.816,22.248,10.025z"/>
	<path fill="none" d="M15.615,3.623c-4.923,0-8.928,4.005-8.928,8.928c0,4.923,4.005,8.929,8.928,8.929
		c4.924,0,8.929-4.006,8.929-8.929C24.544,7.627,20.539,3.623,15.615,3.623z M15.615,20.255c-4.234,0-7.678-3.443-7.678-7.704
		c0-4.26,3.444-7.704,7.704-7.704c4.234,0,7.704,3.444,7.704,7.704C23.345,16.812,19.875,20.255,15.615,20.255z"/>
	<path fill="none" d="M25.794,18.062c-0.587-0.332-1.174-0.689-1.761-1.021c-0.152,0.281-0.306,0.536-0.484,0.791
		c0.587,0.332,1.174,0.689,1.785,1.021c0.205,0.128,0.511,0.052,0.639-0.179c0.051-0.102,0.076-0.229,0.051-0.357
		C25.973,18.214,25.896,18.112,25.794,18.062z"/>
	<path fill="none" d="M18.447,14.923c0.943,0.536,1.938,1.098,2.984,1.709c0.179-0.254,0.332-0.51,0.484-0.791
		c-1.046-0.586-2.041-1.146-2.984-1.684C18.83,14.413,18.65,14.668,18.447,14.923z"/>
	<path fill="none" d="M16.61,16.122c0.025,1.098,0.025,2.271,0.051,3.469c1.786-0.254,3.342-1.173,4.438-2.5
		c-1.071-0.611-2.092-1.198-3.061-1.734C17.631,15.714,17.146,15.97,16.61,16.122z"/>
	<path fill="none" d="M12.044,13.47c-0.077-0.281-0.127-0.587-0.127-0.919c0-0.204,0.025-0.408,0.051-0.612
		c-0.995-0.561-2.015-1.148-3.061-1.734c-0.255,0.74-0.408,1.53-0.408,2.347c0,0.944,0.179,1.837,0.51,2.653
		c0.893-0.51,1.786-1.047,2.729-1.582L12.044,13.47z"/>
	<path fill="none" d="M13.141,15.28l-0.332,0.179c-0.918,0.536-1.811,1.046-2.704,1.556c1.097,1.326,2.653,2.271,4.413,2.551
		c0-1.225-0.025-2.397-0.051-3.52C13.983,15.918,13.523,15.638,13.141,15.28z"/>
	<path fill="none" d="M15.615,16.249c-0.178,0-0.357-0.025-0.536-0.051c0.025,1.098,0.025,2.245,0.051,3.444
		c0.153,0,0.332,0.025,0.51,0.025c0.153,0,0.281,0,0.434-0.025c0-1.199-0.026-2.347-0.051-3.419
		C15.896,16.249,15.743,16.249,15.615,16.249z"/>
	<path fill="none" d="M12.733,14.847c-0.204-0.255-0.357-0.51-0.485-0.791l-0.204,0.102c-0.944,0.537-1.862,1.072-2.78,1.607
		c0.153,0.281,0.306,0.536,0.484,0.791c0.918-0.535,1.837-1.046,2.755-1.607L12.733,14.847z"/>
	<path fill="#FFFFFF" d="M26.584,18.188c-0.076-0.281-0.254-0.51-0.484-0.638c-0.586-0.357-1.199-0.688-1.811-1.046
		c0.535-1.199,0.842-2.525,0.842-3.929c0-1.326-0.281-2.602-0.766-3.75c0.179-0.102,0.332-0.204,0.51-0.28l1.174-0.664
		c0.255-0.127,0.434-0.357,0.51-0.638c0.077-0.28,0.051-0.561-0.102-0.816c-0.179-0.332-0.535-0.536-0.918-0.536
		c-0.18,0-0.357,0.051-0.511,0.128l-1.173,0.663c-0.18,0.102-0.357,0.204-0.536,0.306c-1.581-2.168-4.056-3.648-6.888-3.903
		c0-0.612,0-1.199,0-1.811V1.123c0-0.587-0.485-1.071-1.071-1.071c-0.587,0-1.071,0.484-1.071,1.071V1.25c0,0.638,0,1.25,0,1.862
		c-2.704,0.357-5.025,1.862-6.531,4.005C7.146,6.76,6.534,6.403,5.922,6.046C5.769,5.944,5.564,5.893,5.386,5.893
		c-0.382,0-0.714,0.204-0.918,0.536C4.314,6.684,4.289,6.964,4.366,7.219C4.442,7.5,4.621,7.729,4.85,7.857
		c0.638,0.383,1.276,0.74,1.888,1.097c-0.459,1.097-0.688,2.321-0.688,3.571c0,1.378,0.306,2.679,0.816,3.878
		c-0.664,0.383-1.327,0.765-1.99,1.122c-0.51,0.28-0.689,0.944-0.408,1.454c0.178,0.332,0.536,0.535,0.918,0.535
		c0.179,0,0.357-0.051,0.51-0.127c0.689-0.383,1.352-0.766,2.016-1.148c1.53,2.041,3.877,3.47,6.556,3.775c0,0.766,0,1.531,0,2.271
		c0,0.587,0.485,1.071,1.072,1.071c0.586,0,1.071-0.484,1.071-1.071c0-0.765,0-1.505,0-2.271c2.679-0.28,5-1.684,6.556-3.725
		c0.612,0.357,1.225,0.715,1.812,1.047c0.153,0.102,0.356,0.152,0.536,0.152c0.383,0,0.714-0.204,0.918-0.535
		C26.636,18.749,26.661,18.443,26.584,18.188z M24.187,7.194l1.147-0.638c0.077-0.051,0.154-0.051,0.23-0.051
		c0.178,0,0.332,0.102,0.408,0.229c0.051,0.102,0.076,0.23,0.051,0.357s-0.102,0.229-0.229,0.281L24.62,8.036
		c-0.153,0.077-0.306,0.179-0.484,0.255c-0.153-0.28-0.306-0.536-0.46-0.816C23.83,7.373,24.008,7.271,24.187,7.194z M14.927,1.123
		c0-0.255,0.204-0.459,0.459-0.459s0.459,0.204,0.459,0.459V1.25c0,0.612,0,1.199,0,1.786c-0.076,0-0.153,0-0.229,0
		c-0.229,0-0.459,0-0.688,0.025c0-0.586,0-1.199,0-1.811V1.123L14.927,1.123z M5.208,7.373C5.105,7.321,5.029,7.219,5.003,7.092
		C4.978,6.964,4.978,6.836,5.054,6.734c0.077-0.153,0.229-0.229,0.408-0.229c0.077,0,0.153,0.025,0.229,0.051
		c0.612,0.357,1.225,0.714,1.812,1.046C7.35,7.857,7.197,8.138,7.069,8.418C6.432,8.086,5.82,7.729,5.208,7.373z M5.667,18.878
		c-0.229,0.127-0.51,0.051-0.638-0.18c-0.127-0.229-0.051-0.51,0.179-0.637c0.663-0.357,1.301-0.74,1.964-1.098
		c0.153,0.281,0.306,0.535,0.459,0.791C6.993,18.138,6.33,18.521,5.667,18.878z M15.615,24.771c-0.255,0-0.459-0.205-0.459-0.459
		c0-0.74,0-1.48,0-2.221c0.153,0,0.332,0,0.484,0c0.153,0,0.306,0,0.459,0c0,0.74,0,1.48,0,2.221
		C16.075,24.565,15.871,24.771,15.615,24.771z M15.615,21.505c-4.923,0-8.928-4.006-8.928-8.929c0-4.923,4.005-8.928,8.928-8.928
		c4.924,0,8.929,4.005,8.929,8.928C24.544,17.499,20.539,21.505,15.615,21.505z M25.973,18.673
		c-0.128,0.205-0.434,0.307-0.639,0.179c-0.586-0.331-1.173-0.688-1.785-1.021c0.179-0.255,0.332-0.535,0.484-0.791
		c0.587,0.332,1.174,0.689,1.761,1.021c0.103,0.051,0.179,0.152,0.204,0.279C26.049,18.443,26.023,18.571,25.973,18.673z"/>
	<path fill="#FFFFFF" d="M15.615,10.51c-1.148,0-2.066,0.918-2.066,2.066c0,1.147,0.918,2.066,2.066,2.066
		c1.148,0,2.066-0.919,2.066-2.066C17.682,11.428,16.764,10.51,15.615,10.51z M15.615,14.03c-0.816,0-1.479-0.663-1.479-1.479
		s0.663-1.479,1.479-1.479s1.479,0.663,1.479,1.479S16.432,14.03,15.615,14.03z"/>
	<path fill="#FFFFFF" d="M15.615,4.873c-4.234,0-7.678,3.444-7.678,7.678c0,4.235,3.444,7.704,7.704,7.704
		c4.234,0,7.704-3.443,7.704-7.704C23.345,8.291,19.875,4.873,15.615,4.873z M22.019,9.464c-0.97,0.561-1.964,1.122-2.985,1.709
		c-0.127-0.281-0.28-0.562-0.459-0.816c1.021-0.587,1.99-1.148,2.984-1.709C21.713,8.928,21.865,9.184,22.019,9.464z M18.728,12.551
		c0,1.709-1.378,3.087-3.087,3.087s-3.086-1.378-3.086-3.087s1.377-3.086,3.086-3.086C17.324,9.464,18.728,10.867,18.728,12.551z
		 M21.202,8.163c-0.995,0.561-1.989,1.123-3.036,1.735c-0.459-0.434-1.045-0.766-1.684-0.918c-0.025-1.199-0.025-2.347-0.025-3.469
		C18.371,5.74,20.055,6.734,21.202,8.163z M15.615,5.459c0.077,0,0.153,0,0.229,0c0,1.123,0.026,2.245,0.026,3.418
		c-0.077,0-0.179-0.025-0.255-0.025c-0.229,0-0.459,0.025-0.663,0.051c-0.025-1.173-0.025-2.321-0.025-3.444
		C15.156,5.459,15.386,5.459,15.615,5.459z M14.34,5.586c0,1.148,0.025,2.296,0.025,3.521c-0.561,0.204-1.046,0.536-1.428,0.944
		c-0.97-0.561-1.99-1.123-3.01-1.709C10.973,6.913,12.529,5.918,14.34,5.586z M9.569,8.826c1.021,0.587,2.016,1.148,2.985,1.684
		c-0.179,0.255-0.306,0.536-0.408,0.842c-0.969-0.536-1.964-1.123-2.985-1.709C9.264,9.362,9.417,9.107,9.569,8.826z M8.523,12.551
		c0-0.816,0.153-1.607,0.408-2.347c1.046,0.612,2.092,1.173,3.062,1.734c-0.026,0.204-0.051,0.408-0.051,0.612
		c0,0.306,0.051,0.612,0.127,0.919l-0.306,0.178c-0.918,0.536-1.836,1.047-2.729,1.582C8.702,14.388,8.523,13.495,8.523,12.551z
		 M9.289,15.765c0.918-0.535,1.836-1.045,2.78-1.607l0.204-0.102c0.128,0.281,0.281,0.562,0.485,0.791l-0.229,0.127
		c-0.944,0.536-1.862,1.072-2.755,1.607C9.595,16.301,9.417,16.046,9.289,15.765z M10.105,17.04c0.893-0.51,1.786-1.02,2.704-1.556
		l0.332-0.179c0.382,0.357,0.842,0.612,1.326,0.791c0.026,1.097,0.026,2.296,0.051,3.521C12.758,19.312,11.202,18.367,10.105,17.04z
		 M15.615,19.668c-0.178,0-0.332,0-0.51-0.025c0-1.199-0.025-2.347-0.051-3.444c0.179,0.025,0.357,0.051,0.536,0.051
		c0.127,0,0.255,0,0.383-0.025c0.025,1.072,0.025,2.246,0.051,3.419C15.921,19.668,15.769,19.668,15.615,19.668z M16.636,19.591
		c0-1.198-0.025-2.371-0.051-3.469c0.536-0.152,1.021-0.408,1.429-0.766c0.969,0.536,1.989,1.123,3.061,1.734
		C20.003,18.418,18.422,19.337,16.636,19.591z M21.457,16.606c-1.046-0.586-2.041-1.173-2.984-1.709
		c0.204-0.229,0.357-0.51,0.51-0.791c0.944,0.536,1.939,1.098,2.984,1.684C21.789,16.097,21.636,16.352,21.457,16.606z
		 M19.161,13.571c0.103-0.332,0.153-0.664,0.153-0.995c0-0.28-0.025-0.561-0.102-0.816c1.02-0.587,2.04-1.174,3.035-1.735
		c0.307,0.791,0.484,1.658,0.484,2.551c0,0.97-0.204,1.888-0.535,2.729C21.125,14.694,20.131,14.106,19.161,13.571z"/>
</g>
</svg>
