<?xml version="1.0" encoding="utf-8"?>
<!-- Generator: Adobe Illustrator 15.1.0, SVG Export Plug-In . SVG Version: 6.00 Build 0)  -->
<!DOCTYPE svg PUBLIC "-//W3C//DTD SVG 1.1//EN" "http://www.w3.org/Graphics/SVG/1.1/DTD/svg11.dtd">
<svg version="1.1" id="Layer_1" xmlns="http://www.w3.org/2000/svg" xmlns:xlink="http://www.w3.org/1999/xlink" x="0px" y="0px"
	 width="31.18px" height="25.51px" viewBox="0 0 31.18 25.51" enable-background="new 0 0 31.18 25.51" xml:space="preserve">
<g>
	<path fill="#FFFFFF" d="M16.992,12.704l0.18,0.077c0.102,0.051,0.229,0.179,0.28,0.281l0.077,0.179
		c0.051,0.102,0.127,0.127,0.178,0.025l0.995-1.658c0.051-0.102,0.025-0.127-0.077-0.077l-1.658,0.995
		C16.891,12.576,16.891,12.678,16.992,12.704z"/>
	<path fill="#FFFFFF" d="M13.217,13.265c0.051,0.103,0.153,0.103,0.179-0.025l0.077-0.179c0.051-0.102,0.178-0.229,0.28-0.281
		l0.179-0.077c0.102-0.051,0.127-0.127,0.025-0.178l-1.658-0.995c-0.102-0.051-0.127-0.025-0.076,0.077L13.217,13.265z"/>
	<path fill="#FFFFFF" d="M17.732,16.352c-0.051-0.103-0.152-0.103-0.178,0.026l-0.103,0.178c-0.052,0.102-0.179,0.23-0.28,0.281
		l-0.18,0.076c-0.102,0.051-0.127,0.127-0.025,0.178l1.658,0.996c0.103,0.051,0.128,0.025,0.077-0.077L17.732,16.352z"/>
	<path fill="#FFFFFF" d="M13.932,16.913l-0.179-0.076c-0.102-0.051-0.229-0.18-0.28-0.281l-0.077-0.178
		c-0.051-0.103-0.127-0.129-0.179-0.026l-0.995,1.658c-0.051,0.103-0.025,0.128,0.076,0.077l1.658-0.996
		C14.059,17.04,14.034,16.938,13.932,16.913z"/>
	<path fill="#FFFFFF" d="M7.35,14.821c0,4.541,3.699,8.24,8.24,8.24c4.541,0,8.24-3.699,8.24-8.24s-3.674-8.24-8.24-8.24
		S7.35,10.28,7.35,14.821z M23.242,14.821c0,4.209-3.443,7.627-7.652,7.627s-7.627-3.418-7.627-7.627
		c0-4.209,3.418-7.627,7.627-7.627S23.242,10.612,23.242,14.821z"/>
	<path fill="#FFFFFF" d="M18.319,4.541c0.229-0.434,0.357-0.918,0.357-1.454C18.677,1.377,17.299,0,15.59,0
		s-3.087,1.377-3.087,3.086c0,0.51,0.128,1.021,0.357,1.454C8.319,5.74,4.952,9.898,4.952,14.821
		c0,5.867,4.771,10.637,10.638,10.637s10.638-4.77,10.638-10.637C26.228,9.898,22.886,5.74,18.319,4.541z M15.59,0.612
		c1.377,0,2.475,1.123,2.475,2.474c0,0.485-0.128,0.918-0.357,1.301c-0.28-0.051-0.561-0.102-0.842-0.127
		c0.281-0.306,0.459-0.714,0.459-1.174c0-0.943-0.766-1.709-1.709-1.709c-0.944,0-1.709,0.766-1.709,1.709
		c0,0.459,0.179,0.868,0.459,1.174c-0.28,0.025-0.561,0.076-0.842,0.127c-0.28-0.383-0.408-0.816-0.408-1.301
		C13.115,1.735,14.238,0.612,15.59,0.612z M16.713,3.086c0,0.536-0.408,0.995-0.919,1.097c-0.051,0-0.127,0-0.179,0
		c-0.051,0-0.127,0-0.178,0c-0.51-0.102-0.918-0.536-0.918-1.097c0-0.612,0.484-1.097,1.097-1.097S16.713,2.475,16.713,3.086z
		 M15.59,24.847c-5.536,0-10.025-4.49-10.025-10.025c0-4.719,3.265-8.673,7.653-9.745c0.102-0.026,0.23-0.051,0.332-0.077
		c0.128-0.025,0.255-0.051,0.357-0.077c0.459-0.077,0.944-0.127,1.429-0.127c0.076,0,0.153,0,0.229,0c0.076,0,0.153,0,0.229,0
		c0.485,0,0.97,0.051,1.429,0.127C17.35,4.949,17.478,4.975,17.58,5c0.102,0.025,0.229,0.051,0.331,0.077
		c4.388,1.071,7.653,5.025,7.653,9.745C25.641,20.356,21.125,24.847,15.59,24.847z"/>
	<path fill="#FFFFFF" d="M15.156,8.546l-0.816,5.152l-5.153,0.816c-0.153,0.025-0.255,0.153-0.255,0.307
		c0,0.152,0.102,0.28,0.255,0.307l5.153,0.816l0.816,5.152c0.025,0.152,0.153,0.255,0.306,0.255c0.153,0,0.28-0.103,0.306-0.255
		l0.816-5.152l5.153-0.816c0.152-0.026,0.254-0.154,0.254-0.307c0-0.153-0.102-0.281-0.254-0.307l-5.153-0.816l-0.816-5.152
		c-0.026-0.153-0.153-0.255-0.306-0.255C15.309,8.291,15.182,8.393,15.156,8.546z M16.023,14.005
		c0.025,0.127,0.127,0.229,0.256,0.255l3.469,0.562l-3.469,0.561c-0.129,0.025-0.23,0.128-0.256,0.256l-0.561,3.469l-0.562-3.469
		c-0.025-0.128-0.127-0.23-0.255-0.256l-3.469-0.561l3.469-0.562c0.127-0.025,0.229-0.128,0.255-0.255l0.562-3.469L16.023,14.005z"
		/>
</g>
<text transform="matrix(1 0 0 1 37.043 12.6348)" font-family="'MuseoSans-100'" font-size="3.0612">Strategy</text>
</svg>
