<?xml version="1.0" standalone="no"?>
<!DOCTYPE svg PUBLIC "-//W3C//DTD SVG 1.1//EN" "http://www.w3.org/Graphics/SVG/1.1/DTD/svg11.dtd" >
<svg>
<metadata>
Created by FontForge 20120731 at Wed Oct 29 05:45:02 2014
 By Orthosie Webhosting
Copyright (c) 2011 by Wolfgang Homola, distributed by TypeTogether. All rights reserved.
</metadata>
<defs>
<font id="Soleil-Regular" horiz-adv-x="550" >
  <font-face 
    font-family="Soleil"
    font-weight="400"
    font-stretch="normal"
    units-per-em="1000"
    panose-1="2 0 5 3 3 0 0 2 0 4"
    ascent="750"
    descent="-250"
    x-height="500"
    cap-height="700"
    bbox="-210 -328 1258 1081"
    underline-thickness="50"
    underline-position="-50"
    stemh="86"
    stemv="93"
    unicode-range="U+000D-FB06"
  />
<missing-glyph 
d="M298 126h-59v65h59v-65zM60 664h430v-664h-430v664zM116 611v-558h318v558h-318zM213 416v-5h-51v2c0 66 51 111 110 111c65 0 110 -53 110 -101c0 -72 -46 -98 -86 -116v-64h-54v93c44 15 89 34 89 85c0 30 -23 57 -59 57s-59 -24 -59 -62z" />
    <glyph glyph-name="ff" unicode="ff" horiz-adv-x="674" 
d="M366 740l-26 -76c-19 9 -38 14 -62 14c-27 0 -45 -6 -58 -16c-23 -19 -26 -54 -26 -99v-63h115v-80h-115v-420h-91v420h-57v80h57v72c0 52 9 98 31 131c25 37 66 59 133 59c33 0 70 -10 99 -22zM703 740l-26 -76c-19 9 -38 14 -62 14c-27 0 -45 -6 -58 -16
c-23 -19 -26 -54 -26 -99v-63h135v-80h-135v-420h-91v420h-57v80h57v72c0 52 9 98 31 131c25 37 66 59 133 59c33 0 70 -10 99 -22z" />
    <glyph glyph-name="fi" unicode="fi" horiz-adv-x="596" 
d="M329 420h-135v-420h-91v420h-57v80h57v72c0 52 9 98 31 131c25 37 66 59 133 59c24 0 50 -5 74 -13l-14 -79c-15 5 -31 8 -49 8c-27 0 -45 -6 -58 -16c-23 -19 -26 -54 -26 -99v-63h135v-80zM512 0h-91v500h91v-500zM512 598h-91v102h91v-102z" />
    <glyph glyph-name="fl" unicode="fl" horiz-adv-x="596" 
d="M329 420h-135v-420h-91v420h-57v80h57v72c0 52 9 98 31 131c25 37 66 59 133 59c24 0 50 -5 74 -13l-14 -79c-15 5 -31 8 -49 8c-27 0 -45 -6 -58 -16c-23 -19 -26 -54 -26 -99v-63h135v-80zM512 750v-750h-91v750h91z" />
    <glyph glyph-name="f_k" unicode="fk" horiz-adv-x="851" 
d="M329 420h-135v-420h-91v420h-57v80h57v72c0 52 9 98 31 131c25 37 66 59 133 59c24 0 50 -5 74 -13l-14 -79c-15 5 -31 8 -49 8c-27 0 -45 -6 -58 -16c-23 -19 -26 -54 -26 -99v-63h135v-80zM845 0h-111l-143 224l-79 -92v-132h-91v750h91v-500l2 -1l202 251h112
l-175 -204z" />
    <glyph glyph-name="f_b" unicode="fb" horiz-adv-x="963" 
d="M329 420h-135v-420h-91v420h-57v80h57v72c0 52 9 98 31 131c25 37 66 59 133 59c24 0 50 -5 74 -13l-14 -79c-15 5 -31 8 -49 8c-27 0 -45 -6 -58 -16c-23 -19 -26 -54 -26 -99v-63h135v-80zM421 750h91v-317c36 52 99 79 159 79c144 0 250 -116 250 -263
c0 -132 -99 -261 -252 -261c-59 0 -117 25 -157 66v-54h-91v750zM512 333v-185c34 -49 93 -76 145 -76c116 0 171 93 171 179c0 93 -65 177 -169 177c-54 0 -122 -33 -147 -95z" />
    <glyph glyph-name="f_h" unicode="fh" horiz-adv-x="943" 
d="M329 420h-135v-420h-91v420h-57v80h57v72c0 52 9 98 31 131c25 37 66 59 133 59c24 0 50 -5 74 -13l-14 -79c-15 5 -31 8 -49 8c-27 0 -45 -6 -58 -16c-23 -19 -26 -54 -26 -99v-63h135v-80zM512 750v-332c37 59 96 94 163 94c70 0 116 -24 145 -63
c34 -46 45 -113 45 -189v-260h-91v250c0 49 -2 102 -26 138c-16 24 -43 40 -87 40c-58 0 -113 -40 -149 -96v-332h-91v750h91z" />
    <glyph glyph-name="f_t" unicode="ft" horiz-adv-x="683" 
d="M366 740l-26 -76c-19 9 -38 14 -62 14c-27 0 -45 -6 -58 -16c-23 -19 -26 -54 -26 -99v-63h125v-80h-125v-420h-91v420h-57v80h57v72c0 52 9 98 31 131c25 37 66 59 133 59c33 0 70 -10 99 -22zM657 420h-140v-226c0 -13 0 -24 1 -39c3 -53 20 -84 70 -84
c20 0 40 6 56 14l25 -73c-25 -13 -60 -22 -93 -22c-70 0 -113 31 -134 78c-12 28 -16 65 -16 104v248h-57v80h57v120h91v-120h140v-80z" />
    <glyph glyph-name="f_j" unicode="fj" horiz-adv-x="604" 
d="M329 420h-135v-420h-91v420h-57v80h57v72c0 52 9 98 31 131c25 37 66 59 133 59c24 0 50 -5 74 -13l-14 -79c-15 5 -31 8 -49 8c-27 0 -45 -6 -58 -16c-23 -19 -26 -54 -26 -99v-63h135v-80zM520 598h-91v102h91v-102zM520 500v-544c0 -36 -3 -67 -14 -95
c-19 -49 -61 -83 -133 -83c-36 0 -69 7 -96 22l26 74c15 -8 35 -14 56 -14c65 0 70 50 70 114v526h91z" />
    <glyph glyph-name="f_f_j" unicode="ffj" horiz-adv-x="941" 
d="M366 740l-26 -76c-19 9 -38 14 -62 14c-27 0 -45 -6 -58 -16c-23 -19 -26 -54 -26 -99v-63h115v-80h-115v-420h-91v420h-57v80h57v72c0 52 9 98 31 131c25 37 66 59 133 59c33 0 70 -10 99 -22zM666 420h-135v-420h-91v420h-57v80h57v72c0 52 9 98 31 131
c25 37 66 59 133 59c24 0 50 -5 74 -13l-14 -79c-15 5 -31 8 -49 8c-27 0 -45 -6 -58 -16c-23 -19 -26 -54 -26 -99v-63h135v-80zM857 598h-91v102h91v-102zM857 500v-544c0 -36 -3 -67 -14 -95c-19 -49 -61 -83 -133 -83c-36 0 -69 7 -96 22l26 74c15 -8 35 -14 56 -14
c65 0 70 50 70 114v526h91z" />
    <glyph glyph-name="ffi" unicode="ffi" horiz-adv-x="933" 
d="M366 740l-26 -76c-19 9 -38 14 -62 14c-27 0 -45 -6 -58 -16c-23 -19 -26 -54 -26 -99v-63h115v-80h-115v-420h-91v420h-57v80h57v72c0 52 9 98 31 131c25 37 66 59 133 59c33 0 70 -10 99 -22zM666 420h-135v-420h-91v420h-57v80h57v72c0 52 9 98 31 131
c25 37 66 59 133 59c24 0 50 -5 74 -13l-14 -79c-15 5 -31 8 -49 8c-27 0 -45 -6 -58 -16c-23 -19 -26 -54 -26 -99v-63h135v-80zM849 0h-91v500h91v-500zM849 598h-91v102h91v-102z" />
    <glyph glyph-name="ffl" unicode="ffl" horiz-adv-x="933" 
d="M366 740l-26 -76c-19 9 -38 14 -62 14c-27 0 -45 -6 -58 -16c-23 -19 -26 -54 -26 -99v-63h115v-80h-115v-420h-91v420h-57v80h57v72c0 52 9 98 31 131c25 37 66 59 133 59c33 0 70 -10 99 -22zM666 420h-135v-420h-91v420h-57v80h57v72c0 52 9 98 31 131
c25 37 66 59 133 59c24 0 50 -5 74 -13l-14 -79c-15 5 -31 8 -49 8c-27 0 -45 -6 -58 -16c-23 -19 -26 -54 -26 -99v-63h135v-80zM849 750v-750h-91v750h91z" />
    <glyph glyph-name="f_f_k" unicode="ffk" horiz-adv-x="1188" 
d="M366 740l-26 -76c-19 9 -38 14 -62 14c-27 0 -45 -6 -58 -16c-23 -19 -26 -54 -26 -99v-63h115v-80h-115v-420h-91v420h-57v80h57v72c0 52 9 98 31 131c25 37 66 59 133 59c33 0 70 -10 99 -22zM666 420h-135v-420h-91v420h-57v80h57v72c0 52 9 98 31 131
c25 37 66 59 133 59c24 0 50 -5 74 -13l-14 -79c-15 5 -31 8 -49 8c-27 0 -45 -6 -58 -16c-23 -19 -26 -54 -26 -99v-63h135v-80zM1182 0h-111l-143 224l-79 -92v-132h-91v750h91v-500l2 -1l202 251h112l-175 -204z" />
    <glyph glyph-name="f_f_b" unicode="ffb" horiz-adv-x="1300" 
d="M366 740l-26 -76c-19 9 -38 14 -62 14c-27 0 -45 -6 -58 -16c-23 -19 -26 -54 -26 -99v-63h115v-80h-115v-420h-91v420h-57v80h57v72c0 52 9 98 31 131c25 37 66 59 133 59c33 0 70 -10 99 -22zM666 420h-135v-420h-91v420h-57v80h57v72c0 52 9 98 31 131
c25 37 66 59 133 59c24 0 50 -5 74 -13l-14 -79c-15 5 -31 8 -49 8c-27 0 -45 -6 -58 -16c-23 -19 -26 -54 -26 -99v-63h135v-80zM758 750h91v-317c36 52 99 79 159 79c144 0 250 -116 250 -263c0 -132 -99 -261 -252 -261c-59 0 -117 25 -157 66v-54h-91v750zM849 333v-185
c34 -49 93 -76 145 -76c116 0 171 93 171 179c0 93 -65 177 -169 177c-54 0 -122 -33 -147 -95z" />
    <glyph glyph-name="f_f_h" unicode="ffh" horiz-adv-x="1280" 
d="M366 740l-26 -76c-19 9 -38 14 -62 14c-27 0 -45 -6 -58 -16c-23 -19 -26 -54 -26 -99v-63h115v-80h-115v-420h-=1v420h-57v80h57v72c0 52 9 98 31 131c25 37 66 59 133 59c33 0 70 -10 99 -22zM666 420h-135v-420h-91v420h-57v80h57v72c0 52 9 98 31 131
c25 37 66 59 133 59c24 0 50 -5 74 -13l-14 -79c-15 5 -31 8 -49 8c-27 0 -45 -6 -58 -16c-23 -19 -26 -54 -26 -99v-63h135v-80zM849 750v-332c37 59 96 94 163 94c70 0 116 -24 145 -63c34 -46 45 -113 45 -189v-260h-91v250c0 49 -2 102 -26 138c-16 24 -43 40 -87 40
c-58 0 -113 -40 -149 -96v-332h-91v750h91z" />
    <glyph glyph-name="f_f_t" unicode="fft" horiz-adv-x="1020" 
d="M366 740l-26 -76c-19 9 -38 14 -62 14c-27 0 -45 -6 -58 -16c-23 -19 -26 -54 -26 -99v-63h115v-80h-115v-420h-91v420h-57v80h57v72c0 52 9 98 31 131c25 37 66 59 133 59c33 0 70 -10 99 -22zM703 740l-26 -76c-19 9 -38 14 -62 14c-27 0 -45 -6 -58 -16
c-23 -19 -26 -54 -26 -99v-63h125v-80h-125v-420h-91v420h-57v80h57v72c0 52 9 98 31 131c25 37 66 59 133 59c33 0 70 -10 99 -22zM994 420h-140v-226c0 -13 0 -24 1 -39c3 -53 20 -84 70 -84c20 0 40 6 56 14l25 -73c-25 -13 -60 -22 -93 -22c-70 0 -113 31 -134 78
c-12 28 -16 65 -16 104v248h-57v80h57v120h91v-120h140v-80z" />
    <glyph glyph-name="f_iacute" unicode="f&#xed;" horiz-adv-x="596" 
d="M329 420h-135v-420h-91v420h-57v80h57v72c0 52 9 98 31 131c25 37 66 59 133 59c24 0 50 -5 74 -13l-14 -79c-15 5 -31 8 -49 8c-27 0 -45 -6 -58 -16c-23 -19 -26 -54 -26 -99v-63h135v-80zM611 732l-138 -169l-62 48l133 171zM512 0h-91v500h91v-500z" />
    <glyph glyph-name="t_t" unicode="tt" horiz-adv-x="692" 
d="M666 420h-140v-226c0 -13 0 -24 1 -39c3 -53 20 -84 70 -84c20 0 40 6 56 14l25 -73c-25 -13 -60 -22 -93 -22c-70 0 -113 31 -134 78c-12 28 -16 65 -16 104v248h-67v80h67v120h91v-120h140v-80zM320 420h-140v-226c0 -13 0 -24 1 -39c3 -53 20 -84 70 -84
c20 0 40 6 56 14l25 -73c-25 -13 -60 -22 -93 -22c-70 0 -113 31 -134 78c-12 28 -16 65 -16 104v248h-67v80h67v120h91v-120h140v-80z" />
    <glyph glyph-name=".notdef" 
d="M298 126h-59v65h59v-65zM60 664h430v-664h-430v664zM116 611v-558h318v558h-318zM213 416v-5h-51v2c0 66 51 111 110 111c65 0 110 -53 110 -101c0 -72 -46 -98 -86 -116v-64h-54v93c44 15 89 34 89 85c0 30 -23 57 -59 57s-59 -24 -59 -62z" />
    <glyph glyph-name="CR" unicode="&#xd;" horiz-adv-x="500" 
 />
    <glyph glyph-name="space" unicode=" " horiz-adv-x="250" 
 />
    <glyph glyph-name="uni00A0" unicode="&#xa0;" horiz-adv-x="250" 
 />
    <glyph glyph-name="quotesingle" unicode="'" horiz-adv-x="259" 
d="M170 435h-81l-9 265h99z" />
    <glyph glyph-name="quotedbl" unicode="&#x22;" horiz-adv-x="477" 
d="M170 435h-81l-9 265h99zM388 435h-81l-9 265h99z" />
    <glyph glyph-name="numbersign" unicode="#" horiz-adv-x="720" 
d="M65 263h134l24 138h-90v74h102l33 189h81l-33 -189h130l33 189h81l-33 -189h128v-74h-140l-24 -138h96v-74h-108l-32 -189h-81l32 189h-130l-32 -189h-81l32 189h-122v74zM304 401l-24 -138h130l24 138h-130z" />
    <glyph glyph-name="ampersand" unicode="&#x26;" horiz-adv-x="680" 
d="M695 45l-56 -63l-124 110c-53 -72 -132 -104 -220 -104c-123 0 -231 102 -231 217c0 85 49 153 118 190c-37 40 -67 87 -67 146c0 102 101 171 198 171c84 0 158 -47 180 -126l-84 -24c-12 45 -51 66 -100 66c-58 0 -103 -37 -103 -92c0 -54 43 -94 107 -151l-54 -64
l-18 16c-51 -24 -86 -71 -86 -131c0 -75 69 -134 151 -134c64 0 114 26 148 74l-81 73l55 63z" />
    <glyph glyph-name="asterisk" unicode="*" horiz-adv-x="490" 
d="M420 553l-119 -29l84 -97l-70 -50l-70 113l-70 -113l-70 50l83 97l-118 29l26 82l116 -48l-10 125h86l-9 -125l115 48z" />
    <glyph glyph-name="comma" unicode="," horiz-adv-x="250" 
d="M190 116l-66 -250h-87l51 250h102z" />
    <glyph glyph-name="hyphen" unicode="-" horiz-adv-x="460" 
d="M360 238h-260v82h260v-82z" />
    <glyph glyph-name="period" unicode="." horiz-adv-x="250" 
d="M177 0h-105v116h105v-116z" />
    <glyph glyph-name="colon" unicode=":" horiz-adv-x="250" 
d="M177 384h-105v116h105v-116zM177 0h-105v116h105v-116z" />
    <glyph glyph-name="semicolon" unicode=";" horiz-adv-x="250" 
d="M190 116l-66 -250h-87l51 250h102zM192 384h-105v116h105v-116z" />
    <glyph glyph-name="question" unicode="?" horiz-adv-x="541" 
d="M314 210h-97v166c79 27 160 60 160 152c0 55 -44 102 -105 102c-65 0 -107 -43 -107 -112v-8h-91v4c0 117 92 198 198 198c115 0 196 -94 196 -181c0 -125 -78 -172 -154 -207v-114zM318 0h-105v116h105v-116z" />
    <glyph glyph-name="exclam" unicode="!" horiz-adv-x="317" 
d="M212 700v-111l-9 -379h-89l-9 379v111h107zM211 0h-105v116h105v-116z" />
    <glyph glyph-name="exclamdown" unicode="&#xa1;" horiz-adv-x="317" 
d="M104 -200v111l10 379h89l10 -379v-111h-109zM106 500h105v-116h-105v116z" />
    <glyph glyph-name="questiondown" unicode="&#xbf;" horiz-adv-x="541" 
d="M227 291h97v-166c-79 -27 -160 -60 -160 -152c0 -55 44 -102 105 -102c65 0 107 43 107 112v8h91v-4c0 -117 -92 -19< -198 -198c-115 0 -196 94 -196 181c0 125 78 172 154 207v114zM223 501h105v-116h-105v116z" />
    <glyph glyph-name="at" unicode="@" horiz-adv-x="800" 
d="M546 -103c-47 -24 -99 -36 -151 -36c-190 0 -340 155 -340 344c0 191 150 345 340 345c210 0 351 -136 351 -325c0 -109 -46 -212 -153 -212c-29 0 -76 13 -97 81c-23 -44 -70 -66 -116 -66c-96 0 -163 75 -163 172c0 88 60 173 165 173c37 0 75 -17 103 -43v32h71v-154
c0 -109 21 -126 45 -126c47 0 67 71 67 144c0 150 -107 248 -272 248c-148 0 -263 -117 -263 -268s115 -269 263 -269c45 0 86 11 125 30zM485 175v72c-26 37 -64 59 -95 59c-72 0 -100 -55 -100 -107c0 -55 36 -105 98 -105c33 0 77 29 97 81z" />
    <glyph glyph-name="A" unicode="A" horiz-adv-x="653" 
d="M638 0h-111l-55 149h-298l-54 -149h-105l271 700h84zM323 554l-117 -319h235l-117 319h-1z" />
    <glyph glyph-name="B" unicode="B" horiz-adv-x="611" 
d="M95 0v700h167c66 0 135 -11 186 -44c49 -32 74 -84 74 -145c0 -66 -30 -115 -107 -145c90 -27 136 -84 136 -167c0 -79 -44 -141 -114 -171c-53 -22 -121 -28 -184 -28h-158zM449 198c0 70 -51 118 -146 118h-112v-232h53c58 0 109 3 148 21c34 16 57 45 57 93zM426 506
c0 43 -15 68 -40 84c-36 23 -87 26 -147 26h-48v-216h67c105 0 168 33 168 106z" />
    <glyph glyph-name="C" unicode="C" horiz-adv-x="674" 
d="M642 52c-60 -41 -131 -64 -206 -64c-209 0 -376 141 -376 362c0 207 169 362 376 362c69 0 133 -20 188 -54l-45 -74c-42 26 -91 42 -143 42c-158 0 -274 -116 -274 -276c0 -170 114 -276 274 -276c55 0 106 16 155 49z" />
    <glyph glyph-name="D" unicode="D" horiz-adv-x="720" 
d="M95 0v700h189c178 0 376 -94 376 -347c0 -259 -196 -353 -386 -353h-179zM558 344c0 177 -108 270 -292 270h-75v-528h33c200 0 334 63 334 258z" />
    <glyph glyph-name="E" unicode="E" horiz-adv-x="580" 
d="M515 0h-420v700h420v-86h-324v-210h324v-86h-324v-232h324v-86z" />
    <glyph glyph-name="F" unicode="F" horiz-adv-x="495" 
d="M450 299h-259v-299h-96v700h355v-86h-259v-229h259v-86z" />
    <glyph glyph-name="G" unicode="G" horiz-adv-x="803" 
d="M627 302h-178v86h274v-266c-67 -85 -172 -134 -287 -134c-214 0 -376 145 -376 362c0 207 169 362 376 362c108 0 204 -48 271 -124l-68 -56c-49 55 -123 94 -203 94c-158 0 -274 -116 -274 -276c0 -170 114 -276 274 -276c74 0 142 26 191 73v155z" />
    <glyph glyph-name="H" unicode="H" horiz-adv-x="752" 
d="M657 0h-96v318h-370v-318h-96v700h96v-296h370v296h96v-700z" />
    <glyph glyph-name="I" unicode="I" horiz-adv-x="286" 
d="M191 0h-96v700h96v-700z" />
    <glyph glyph-name="J" unicode="J" horiz-adv-x="341" 
d="M251 700v-523c0 -56 -10 -101 -32 -133c-26 -37 -69 -56 -134 -56c-34 0 -72 10 -101 22l26 78c19 -9 38 -14 61 -14c33 0 55 7 67 24c14 18 17 48 17 92v510h96z" />
    <glyph glyph-name="K" unicode="K" horiz-adv-x="621" 
d="M602 700l-233 -276l247 -424h-112l-200 346l-113 -135v-211h-96v700h96v-357l294 357h117z" />
    <glyph glyph-name="L" unicode="L" horiz-adv-x="500" 
d="M495 0h-400v700h96v-614h304v-86z" />
    <glyph glyph-name="M" unicode="M" horiz-adv-x="923" 
d="M732 591l-239 -591h-67l-235 591v-591h-96v700h152l213 -547l216 547h152v-700h-96v591z" />
    <glyph glyph-name="M.salt" horiz-adv-x="835" 
d="M448 159h-62l-197 401v-560h-94v700h126l196 -405h1l197 405h125v-700h-94v560z" />
    <glyph glyph-name="N" unicode="N" horiz-adv-x="755" 
d="M660 0h-85l-384 522v-522h-96v700h84l385 -522v522h96v-700z" />
    <glyph glyph-name="O" unicode="O" horiz-adv-x="840" 
d="M678 350c0 155 -109 276 -258 276s-258 -121 -258 -276s109 -276 258 -276s258 121 258 276zM780 350c0 -200 -156 -362 -360 -362s-360 162 -360 362s156 362 360 362s360 -162 360 -362z" />
    <glyph glyph-name="P" unicode="P" horiz-adv-x="581" 
d="M551 491c0 -155 -133 -211 -247 -211h-113v-280h-96v700h209c113 0 247 -56 247 -209zM449 488c0 79 -61 126 -150 126h-108v-248h88c97 0 170 32 170 122z" />
    <glyph glyph-name="Q" unicode="Q" horiz-adv-x="840" 
d="M780 350c0 -102 -40 -194 -107 -259l95 -=4l-61 -61l-103 101c-53 -31 -116 -49 -184 -49c-204 0 -360 162 -360 362s156 362 360 362s360 -162 360 -362zM678 350c0 155 -109 276 -258 276s-258 -121 -258 -276s109 -276 258 -276c43 0 84 10 119 29l-98 98l61 61
l105 -105c45 49 71 117 71 193z" />
    <glyph glyph-name="R" unicode="R" horiz-adv-x="613" 
d="M593 0h-120l-210 296h-72v-296h-96v700h208c107 0 239 -56 239 -201c0 -119 -85 -179 -171 -197zM440 496c0 71 -57 118 -142 118h-107v-232h87c93 0 162 34 162 114z" />
    <glyph glyph-name="S" unicode="S" horiz-adv-x="609" 
d="M458 570c-33 31 -92 56 -147 56c-74 0 -125 -35 -125 -97c0 -61 69 -84 146 -111c99 -35 212 -81 212 -212c0 -157 -139 -218 -246 -218c-102 0 -179 32 -253 105l68 64c66 -65 116 -83 186 -83c72 0 143 35 143 121c0 77 -75 104 -156 132c-95 33 -197 80 -197 192
c0 132 97 193 211 193c84 0 154 -24 217 -72z" />
    <glyph glyph-name="T" unicode="T" horiz-adv-x="488" 
d="M468 614h-176v-614h-96v614h-176v86h448v-86z" />
    <glyph glyph-name="U" unicode="U" horiz-adv-x="722" 
d="M632 700v-371c0 -220 -81 -341 -273 -341c-188 0 -269 121 -269 341v371h96v-396c0 -155 67 -230 175 -230s175 75 175 230v396h96z" />
    <glyph glyph-name="V" unicode="V" horiz-adv-x="633" 
d="M628 700l-271 -700h-84l-268 700h111l203 -554h1l203 554h105z" />
    <glyph glyph-name="W" unicode="W" horiz-adv-x="886" 
d="M490 700l140 -528h2l147 528h102l-200 -700h-96l-140 533h-2l-152 -533h-94l-192 700h106l140 -528h2l147 528h90z" />
    <glyph glyph-name="X" unicode="X" horiz-adv-x="651" 
d="M642 700l-254 -346l258 -354h-121l-203 277l-196 -277h-121l257 356l-249 344h123l194 -269l193 269h119z" />
    <glyph glyph-name="Y" unicode="Y" horiz-adv-x="555" 
d="M324 0h-96v304l-223 396h119l156 -294h3l155 294h112l-226 -401v-299z" />
    <glyph glyph-name="Z" unicode="Z" horiz-adv-x="547" 
d="M502 648l-329 -562h354v-86h-487v51l331 563h-323v86h454v-52z" />
    <glyph glyph-name="a" unicode="a" horiz-adv-x="546" 
d="M468 0h-87v53c-41 -46 -86 -65 -150 -65c-92 0 -177 45 -177 152c0 127 113 166 223 166c25 0 57 -2 100 -11v18c0 76 -36 120 -118 120c-58 0 -119 -22 -159 -44l-27 76c52 25 128 47 197 47c145 0 198 -79 198 -208v-304zM377 124v103c-37 8 -65 10 -90 10
c-62 0 -144 -15 -144 -90c0 -61 46 -83 99 -83c51 0 95 26 135 60z" />
    <glyph glyph-name="b" unicode="b" horiz-adv-x="626" 
d="M84 750h91v-317c36 52 99 79 159 79c144 0 250 -116 250 -263c0 -132 -99 -261 -252 -261c-59 0 -117 25 -157 66v-54h-91v750zM175 333v-185c34 -49 93 -76 145 -76c116 0 171 93 171 179c0 93 -65 177 -169 177c-54 0 -122 -33 -147 -95z" />
    <glyph glyph-name="c" unicode="c" horiz-adv-x="475" 
d="M406 107l45 -70c-37 -30 -93 -49 -153 -49c-143 0 -256 104 -256 262c0 146 115 262 261 262c53 0 101 -16 141 -43l-43 -75c-28 21 -66 34 -102 34c-90 0 -164 -79 -164 -178c0 -108 78 -178 165 -178c33 0 79 15 106 35z" />
    <glyph glyph-name="d" unicode="d" horiz-adv-x="626" 
d="M292 -12c-144 0 -250 116 -250 262c0 133 99 262 252 262c58 0 117 -26 157 -67v305h91v-750h-91v67c-36 -53 -99 -79 -159 -79zM304 72c54 0 121 33 147 94v186c-35 49 -94 76 -145 76c-116 0 -171 -93 -171 -180c0 -92 65 -176 169 -176z" />
    <glyph glyph-name="e" unicode="e" horiz-adv-x="560" 
d="M514 227h-381c6 -86$65 -161 161 -161c66 0 119 24 149 81l66 -42c-50 -80 -118 -117 -219 -117c-159 0 -248 116 -248 262c0 149 109 262 248 262c132 0 228 -99 228 -233c0 -17 -2 -39 -4 -52zM291 434c-81 0 -133 -59 -151 -134h284c-4 71 -58 134 -133 134z" />
    <glyph glyph-name="f" unicode="f" horiz-adv-x="337" 
d="M366 740l-26 -76c-19 9 -38 14 -62 14c-27 0 -45 -6 -58 -16c-23 -19 -26 -54 -26 -99v-63h135v-80h-135v-420h-91v420h-57v80h57v72c0 52 9 98 31 131c25 37 66 59 133 59c33 0 70 -10 99 -22z" />
    <glyph glyph-name="g" unicode="g" horiz-adv-x="620" 
d="M542 500v-472c0 -52 -8 -96 -26 -131c-45 -87 -132 -119 -226 -119c-77 0 -161 22 -221 66l35 78c46 -33 121 -60 184 -60c86 0 163 41 163 148v69c-36 -53 -100 -79 -160 -79c-142 0 -249 112 -249 256c0 131 99 256 252 256c58 0 117 -26 157 -67v55h91zM451 177v175
c-35 49 -94 76 -145 76c-116 0 -171 -89 -171 -174c0 -90 66 -170 168 -170c54 0 122 33 148 93z" />
    <glyph glyph-name="h" unicode="h" horiz-adv-x="606" 
d="M175 750v-332c37 59 96 94 163 94c70 0 116 -24 145 -63c34 -46 45 -113 45 -189v-260h-91v250c0 49 -2 102 -26 138c-16 24 -43 40 -87 40c-58 0 -113 -40 -149 -96v-332h-91v750h91z" />
    <glyph glyph-name="i" unicode="i" horiz-adv-x="259" 
d="M175 0h-91v500h91v-500zM175 598h-91v102h91v-102z" />
    <glyph glyph-name="j" unicode="j" horiz-adv-x="267" 
d="M183 598h-91v102h91v-102zM183 500v-544c0 -36 -3 -67 -14 -95c-19 -49 -61 -83 -133 -83c-36 0 -69 7 -96 22l26 74c15 -8 35 -14 56 -14c65 0 70 50 70 114v526h91z" />
    <glyph glyph-name="k" unicode="k" horiz-adv-x="514" 
d="M508 0h-111l-143 224l-79 -92v-132h-91v750h91v-500l2 -1l202 251h112l-175 -204z" />
    <glyph glyph-name="l" unicode="l" horiz-adv-x="259" 
d="M175 750v-750h-91v750h91z" />
    <glyph glyph-name="m" unicode="m" horiz-adv-x="919" 
d="M841 0h-91v250c0 48 -1 102 -24 138c-16 24 -43 40 -86 40c-48 0 -101 -34 -138 -83c4 -25 6 -55 6 -85v-260h-91v250c0 48 -1 106 -27 143c-15 21 -39 35 -77 35c-51 0 -105 -46 -138 -92v-336h-91v500h91v-76c37 53 99 88 157 88s108 -21 139 -69c5 -7 9 -16 12 -23
c43 61 106 92 174 92c67 0 110 -22 138 -59c35 -46 46 -116 46 -193v-260z" />
    <glyph glyph-name="n" unicode="n" horiz-adv-x="606" 
d="M84 500h91v-82c37 59 96 94 163 94c70 0 116 -24 145 -63c34 -46 45 -113 45 -189v-260h-91v250c0 49 -2 102 -26 138c-16 24 -43 40 -87 40c-58 0 -113 -40 -149 -96v-332h-91v500z" />
    <glyph glyph-name="o" unicode="o" horiz-adv-x="594" 
d="M297 512c146 0 255 -116 255 -262s-109 -262 -255 -262s-255 116 -255 262s109 262 255 262zM459 250c0 97 -68 178 -162 178s-162 -81 -162 -178s68 -178 162 -178s162 81 162 178z" />
    <glyph glyph-name="p" unicode="p" horiz-adv-x="626" 
d="M84 500h91v-67c36 52 99 79 159 79c144 0 250 -116 250 -263c0 -132 -99 -261 -252 -261c-59 0 -117 25 -157 66v-304h-91v750zM175 333v-185c34 -49 93 -76 145 -76c116 0 171 93 171 179c0 93 -65 177 -169 177c-54 0 -122 -33 -147 -95z" />
    <glyph glyph-name="q" unicode="q" horiz-adv-x="626" 
d="M542 500v-750h-91v317c-36 -53 -99 -79 -159 -79c-144 0 -250 116 -250 262c0 133 99 262 252 262c58 0 117 -26 157 -67v55h91zM451 166v186c-35 49 -94 76 -145 76c-116 0 -171 -93 -171 -180c0 -92 65 -176 169 -176c54 0 121 33 147 94z" />
    <glyph glyph-name="r" unicode="r" horiz-adv-x="357" 
d="M175 500v-83c30 54 75 95 129 95c21 0 35 -2 54 -6l-17 -97c-15 7 -28 10 -47 10c-51 0 -88 -30 -119 -84v-335h-91v500h91z" />
    <glyph glyph-name="s" unicode="s" horiz-adv-x="451" 
d="M382 457l-54 -58c-23 20 -65 37 -99 37c-46 0 -75 -27 -75 -66c0 -38 48 -57 96 -76c65 -25 146 -62 146 -149c0 -112 -87 -157 -181 -157c-68 0 -133 27 -172 78l64 51c33 -35 69 -53 109 -53c49 0 90 25 90 77c0 39 -46 57 -96 77c-66 26 -143 55 -143 145
c0 101 78 149 161 149c57 0 114 -19 154 -55z" />
    <glyph glyph-name="t" unicode="t" horiz-adv-x="346" 
d="M320 420h-140v-226c0 -13 0 -24 1 -39c3 -53 20 -84 70 -84c20 0 40 6 56 14l25 -73c-25 -13 -60 -22 -93 -22c-70 0 -113 31 -134 78c-12 28 -16 65 -16 104v248h-67v80h67v120h91v-120h140v-80z" />
    <glyph glyph-name="u" unicode="u" horiz-adv-x="606" 
d="M431 0v82c-37 -59 -96 -94 -163 -94c-70 0 -116 24 -145 63c-34 46 -45 113 -45 189v260h91v-250c0 -49 2 -102 26 -138c16 -24 43 -40 87 -40c58 0 113 40 149 96v332h91v-500h-91z" />
    <glyph glyph-name="v" unicode="v" horiz-adv-x="479" 
d="M376 500h97l-194 -500h-82l-189 500h101l133 -387h2z" />
    <glyph glyph-name="w" unicode="w" horiz-adv-x="733" 
d="M419 500l101 -385h3l102 385h92l-144 -500h-98l-107 389h-2l-110 -389h-102l-138 500h98l94 -385h2l111 385h98z" />
    <glyph glyph-name="x" unicode="x" horiz-adv-x="490" 
d="M480 500l-177 -243l181 -257h-116l-125 186l-125 -186h-112l184 249l-174 251h115l120 -178l119 178h110z" />
    <glyph glyph-name="y" unicode="y" horiz-adv-x="477" 
d="M6 500h101l130 -379h2l133 379h99l-281 -725l-80 31l79 209z" />
    <glyph glyph-name="z" unicode="z" horiz-adv-x="454" 
d="M59 41l221 379h-232v80h353v-40l-221 -380h238v-80h-359v41z" />
    <glyph glyph-name="bracketleft" unicode="[" horiz-adv-x="311" 
d="M301 -170h-211v920h211v-77h-129v-766h129v-77z" />
    <glyph glyph-name="bracketright" unicode="]" horiz-adv-x="311" 
d="M221 -170h-211v77h129v766h-129v77h211v-920z" />
    <glyph glyph-name="parenleft" unicode="(" horiz-adv-x="345" 
d="M315 781l38 -65c-110 -72 -209 -198 -209 -412s99 -340 209 -412l-38 -65c-149 93 -265 235 -265 477s116 384 265 477z" />
    <glyph glyph-name="parenright" unicode=")" horiz-adv-x="345" 
d="M-8 716l38 65c149 -93 265 -235 265 -477s-116 -384 -265 -477l-38 65c110 72 209 198 209 412s-99 340 -209 412z" />
    <glyph glyph-name="braceleft" unicode="{" horiz-adv-x="311" 
d="M9 260l2 82c57 13 79 74 79 146v75c0 116 72 199 181 199c10 0 19 0 29 -1v-79c-9 1 -16 2 -25 2c-76 0 -103 -67 -103 -148v-75c0 -68 -25 -125 -67 -160c42 -36 67 -92 67 -160v-97c0 -81 27 -148 103 -148c9 0 17 1 25 2v-79c-10 -1 -19 -1 -29 -1
c-109 0 -181 83 -181 199v109c0 67 -25 123 -81 134z" />
    <glyph glyph-name="braceright" unicode="}" horiz-adv-x="311" 
d="M299 342l2 -82c-56 -11 -81 -67 -81 -134v-109c0 -116 -72 -199 -181 -199c-10 0 -19 0 -29 1v79c8 -1 16 -2 25 -2c76 0 103 67 103 148v97c0 68 25 124 67 160c-42 35 -67 92 -67 160v75c0 81 -27 148 -103 148c-9 0 -16 -1 -25 -2v79c10 1 19 1 29 1
c109 0 181 -83 181 -199v-75c0 -72 22 -133 79 -146z" />
    <glyph glyph-name="backslash" unicode="\" horiz-adv-x="363" 
d="M363 -26l-71 -27l-292 788l71 27z" />
    <glyph glyph-name="slash" unicode="/" horiz-adv-x="363" 
d="M363 735l-292 -788l-71 27l292 788z" />
    <glyph glyph-name="brokenbar" unicode="&#xa6;" horiz-adv-x="318" 
d="M198 -200h-78v375h78v-375zM198 375h-78v375h78v-375z" />
    <glyph glyph-name="bar" unicode="|" horiz-adv-x="318" 
d="M198 -170h-78v1028h78v-1028z" />
    <glyph glyph-name="asciicircum" unicode="^" 
d="M474 350h-78l-121 254l-121 -254h-78l151 331h96z" />
    <glyph glyph-name="underscore" unicode="_" 
d="M550 -235h-550v63h550v-63z" />
    <glyph glyph-name="asciitilde" unicode="~" 
d="M441 389l76 8c1 -8 2 -20 2 -32c0 -76 -57 -122 -136 -122c-102 0 -154 90 -220 90c-27 0 -55 -19 -55 -46c0 -5 0 -11 2 -17l-76 -8c-1 8 -2 20 -2 32c0 76 57 122 136 122c102 0 154 -90 220 -90c26 0 55 20 55 46c0 5 0 11 -2 17z" />
    <glyph glyph-name="zero" unicode="0" 
d="M275 676c150 0 235 -131 235 -344s-85 -344 -235 -344s-235 131 -235 344s85 344 235 344zM275 590c-88 0 -139 -85 -139 -258s51 -258 139 -258s139 85 139 258s-51 258 -139 258z" />
    <glyph glyph-name="one" unicode="1" horiz-adv-x="344" 
d="M249 0h-94v550c-31 -16 -72 -32 -100 -44v88c40 20 89 45 133 70h61v-664z" />
    <glyph glyph-name="two" unicode="2" horiz-adv-x="509" 
d="M480 0h-422v85c77 81 171 182 234 274c27 39 61 94 61 141c0 59 -55 92 -109 92c-55 0 -104 -42 -105 -103l-93 19c8 101 108 168 202 168c104 0 202 -70 202 -176c0 -61 -33 -129 -71 -183c-57 -81 -126 -160 -195 -233h296v-84z" />
    <glyph glyph-name="three" unicode="3" horiz-adv-x="519" 
d="M154 292v96c42 1 69 3 95 10c52 14 89 51 89 99c0 55 -46 95 -111 95c-49 0 -93 -25 -109 -72l-80 33c26 72 97 123 191 123c122 0 205 -70 205 -178c0 -60 -33 -115 -83 -141c68 -23 117 -87 117 -164c0 -129 -101 -205 -222 -205c-83 0 -171 36 -211 111l74 41
c28 -48 78 -68 130 -68c69 0 133 36 133 113c0 67 -63 114 -141 114c-23 0 -46 0 -77 -7z" />
    <glyph glyph-name="four" unicode="4" horiz-adv-x="538" 
d="M418 0h-92v167h-300v101c84 109 205 273 295 396h97v-413h99v-84h-99v-167zM126 251h200v281c-62 -90 -152 -215 -200 -281z" />
    <glyph glyph-name="five" unicode="5" horiz-adv-x="499" 
d="M433 664v-84h-253c-3 -59 -6 -131 -12 -186c30 14 65 19 98 19c110 0 203 -88 203 -204c0 -126 -92 -221 -221 -221c-82 0 -174 43 -211 111l75 42c25 -45 72 -69 124 -69c86 0 137 60 137 134s-57 123 -134 123c-39 0 -75 -13 -103 -42l-68 37c10 98 18 244 23 340h342z
" />
    <glyph glyph-name="six" unicode="6" horiz-adv-x="534" 
d="M367 701l38 -84c-122 -55 -221 -129 -256 -258c40 40 90 61 150 61c117 0 195 -96 195 -214c0 -123 -89 -218 -211 -218c-153 0 -243 126 -243 265c0 212 147 375 327 448zM279 336c-59 0 -116 -32 -144 -84c0 -92 39 -180 140 -180c76 0 123 60 123 136
c0 74 -45 128 -119 128z" />
    <glyph glyph-name="seven" unicode="7" horiz-adv-x="452" 
d="M432 664v-69c-82 -171 -204 -444 -276 -617l-87 39c89 210 205 446 259 561h-318v86h422z" />
    <glyph glyph-name="eight" unicode="8" horiz-adv-x="562" 
d="M281 -12c-134 0 -225 86 -225 195c0 79 40 133 103 167c-51 30 -83 73 -83 144c0 101 82 182 205 182s205 -81 205 -182c0 -71 -32 -114 -83 -144c63 -34 103 -88 103 -167c0 -109 -91 -195 -225 -195zM281 303c-71 0 -129 -52 -129 -116c0 -67 58 -115 129 -115
s129 48 129 115c0 64 -58 116 -129 116zM281 592c-61 0 -111 -42 -111 -102c0 -57 50 -103 111 -103s111 46 111 103c0 60 -50 102 -111 102z" />
    <glyph glyph-name="nine" unicode="9" horiz-adv-x="534" 
d="M167 -37l-38 84c122 55 221 129 256 258c-40 -40 -90 -61 -150 -61c-117 0 -195 96 -195 214c0 123 89 218 211 218c153 0 243 -126 243 -265c0 -212 -147 -375 -327 -448zM255 328c59 0 116 32 144 84c0 92 -39 180 -140 180c-76 0 -123 -60 -123 -136
c0 -74 45 -128 119 -128z" />
    <glyph glyph-name="dollar" unicode="$" 
d="M30 88l65 61c46 -47 101 -80 171 -80c69 0 143 33 143 116c0 76 -74 101 -152 129c-89 32 -185 68 -185 188c0 98 76 165 179 173v95h64v-97c58 -6 112 -28 164 -65l-57 -67c-38 34 -88 53 -144 53c-54 0 -116 -27 -116 -92c0 -60 66 -83 140 -109
c94 -33 201 -71 201 -198c0 -119 -86 -189 -193 -204v-97h-64v94c-82 3 -151 38 -216 100z" />
    <glyph glyph-name="Euro" unicode="&#x20ac;" horiz-adv-x="650" 
d="M10 374v74h90c42 137 160 228 323 228c65 0 136 -19 188 -51l-43 -74c-39 25 -96 39 -145 39c-109 0 -188 -52 -224 -142h272v-74h-291c-1 -14 -2 -28 -2 -42s0 -27 2 -40h291v-74h-273c35 -89 113 -144 225 -144c52 0 111 15 156 46l50 -70c-57 -39 -133 -62 -206 -62
c-162 0 -282 89 -324 230h-89v74h75c-1 13 -2 26 -2 40s1 28 2 42h-75z" />
    <glyph glyph-name="cent" unicode="&#xa2;" 
d="M440 173l45 -70c-33 -26 -79 -44 -130 -48v-87h-64v89c-123 18 -215 116 -215 259c0 130 91 236 215 258v90h64v-87c46 -3 87 -18 123 -42l-43 -75c-28 21 -66 34 -102 34c-90 0 -164 -79 -164 -178c0 -108 78 -178 165 -178c33 0 79 15 106 35z" />
    <glyph glyph-name="sterling" unicode="&#xa3;" 
d="M486 0h-406v86h57v230h-57v84h57v54c0 129 84 222 202 222c53 0 108 -13 147 -37l-39 -78c-25 22 -66 31 -104 31c-85 0 -115 -72 -115 -165v-27h135v-84h-135v-230h258v-86z" />
    <glyph glyph-name="yen" unicode="&#xa5;" 
d="M55 256v74h149l-187 334h108l152 -279h2l147 279h106l-190 -334h148v-74h-170v-64h170v-74h-172v-118h-91v118h-172v74h170v64h-170z" />
    <glyph glyph-name="florin" unicode="&#x192;" 
d="M393 316h-131l-41 -363c-12 -108 -69 -165 -146 -165c-28 0 -55 5 -81 12l20 79c15 -4 32 -7 50 -7c50 0 60 35 67 100l39 344h-80v84h89l13 111c12 106 72 165 163 165c45 0 88 -13 128 -32l-36 -76c-23 16 -52 24 -83 24c-60 0 -75 -37 -82 -100l-11 -92h122v-84z" />
    <glyph glyph-name="afii61352" unicode="&#x2116;" horiz-adv-x="1129" 
d="M660 0h-85l-384 522v-522h-96v700h84l385 -522v522h96v-700zM924 712c101 0 175 -78 175 -178c0 -99 -74 -178 -175 -178s-175 79 -175 178c0 100 74 178 175 178zM1025 534c0 63 -42 113 -101 113s-101 -50 -101 -113s42 -113 101 -113s101 50 101 113z" />
    <glyph glyph-name="currency" unicode="&#xa4;" 
d="M59 325c0 46 15 89 40 125l-52 52l51 51l52 -52c35 25 78 40 125 40c46 0 89 -15 125 -40l52 52l51 -51l-52 -52c25 -36 40 -79 40 -125c0 -47 -15 -90 -40 -125l52 -52l-51 -51l-52 52c-36 -25 -79 -40 -125 -40c-47 0 -90 15 -125 40l-52 -52l-51 51l52 52
c-25 35 -40 78 -40 125zM137 325c0 -76 62 -138 138 -138s138 62 138 138s-62 138 -138 138s-138 -62 -138 -138z" />
    <glyph glyph-name="section" unicode="&#xa7;" 
d="M446 662l-49 -63c-38 23 -85 37 -132 37c-46 0 -103 -20 -103 -73c0 -58 85 -77 169 -105s168 -66 168 -165c0 -58 -41 -111 -97 -138c45 -24 78 -60 78 -121c0 -122 -96 -174 -215 -174c-83 0 -160 25 -214 75l54 64c48 -43 97 -63 160 -63c64 0 122 30 122 88
c0 44 -47 65 -106 83c-98 30 -229 54 -229 174c0 69 39 122 99 147c-44 26 -76 62 -76 123c0 110 95 161 194 161c65 0 123 -14 177 -50zM326 186c41 16 80 52 80 96c0 67 -90 85 -176 113c-51 -16 -85 -55 -85 -95c0 -71 93 -87 181 -114z" />
    <glyph glyph-name="copyright" unicode="&#xa9;" horiz-adv-x="799" 
d="M55 333c0 191 154 345 345 345s345 -154 345 -345s-154 -345 -345 -345s-345 154 -345 345zM131 333c0 -149 120 -271 269 -271s269 122 269 271s-120 271 -269 271s-269 -122 -269 -271zM293 333c0 -77 48 -119 114 -119c23 0 50 8 73 25l38 -58
c-32 -21 -69 -35 -108 -35c-107 0 -195 73 -195 187c0 106 87 186 195 186c36 0 71 -11 101 -30l-35 -58c-21 11 -47 20 -69 20c-66 0 -114 -49 -114 -118z" />
    <glyph glyph-name="registered" unicode="&#xae;" horiz-adv-x="575" 
d="M55 484c0 129 104 233 232 233c129 0 233 -104 233 -233c0 -128 -104 -232 -233 -232c-128 0 -232 104 -232 232zM115 484c0 -95 77 -174 172 -174c96 0 173 79 173 174c0 97 -77 175 -173 175c-95 0 -172 -78 -172 -175zM399 363h-66l-65 91h-13v-91h-54v241h59
c80 0 114 -22 114 -73c0 -31 -18 -58 -48 -69zM318 529c0 25 -13 31 -63 31v-62c39 0 63 3 63 31z" />
    <glyph glyph-name="trademark" unicode="&#x2122;" horiz-adv-x="979" 
d="M350 634h-98v-340h-74v340h-98v66h270v-66zM825 616l-131 -322h-70l-129 321v-321h-74v406h117l121 -312l123 312h117v-406h-74v322z" />
    <glyph glyph-name="trademark.salt" horiz-adv-x="881" 
d="M421 700h89l101 -214l103 214h87v-406h-74v271l-94 -189h-44l-94 189v-271h-74v406zM350 634h-98v-340h-74v340h-98v66h270v-66z" />
    <glyph glyph-name="ordfeminine" unicode="&#xaa;" horiz-adv-x="381" 
d="M254 587v10c0 49 -22 76 -75 76c-39 0 -78 -14 -106 -29l-21 57c39 18 90 33 138 33c98 0 136 -55 136 -143v-205h-65l-4 34c-25 -30 -57 -42 -97 -42c-63 0 -122 34 -122 105c0 85 77 112 151 112c17 0 38 -2 65 -8zM254 538c-22 5 -39 7 -55 7c-39 0 -90 -11 -90 -58
c0 -37 29 -52 63 -52c31 0 57 15 82 36v67z" />
    <glyph glyph-name="ordmasculine" unicode="&#xba;" horiz-adv-x="410" 
d="M205 734c101 0 175 -78 175 -178c0 -99 -74 -178 -175 -178s-175 79 -175 178c0 100 74 178 175 178zM306 556c0 63 -42 113 -101 113s-101 -50 -101 -113s42 -113 101 -113s101 50 101 113z" />
    <glyph glyph-name="guillemotleft" unicode="&#xab;" horiz-adv-x="530" 
d="M281 332l145 150l44 -88l-127 -122l127 -121l-44 -88l-145 150v119zM60 332l145 150l44 -88l-127 -122l127 -121l-44 -88l-145 150v119z" />
    <glyph glyph-name="guillemotright" unicode="&#xbb;" horiz-adv-x="530" 
d="M104 471l145 -140v-119l-145 -140l-44 78l127 121l-127 122zM325 471l145 -140v-119l-145 -140l-44 78l127 121l-127 122z" />
    <glyph glyph-name="guilsinglleft" unicode="&#x2039;" horiz-adv-x="309" 
d="M60 332l145 150l44 -88l-127 -122l127 -121l-44 -88l-145 150v119z" />
    <glyph glyph-name="guilsinglright" unicode="&#x203a;" horiz-adv-x="309" 
d="M104 481l145 -150v-119l-145 -150l-44 88l127 121l-127 122z" />
    <glyph glyph-name="quoteleft" unicode="&#x2018;" horiz-adv-x="273" 
d="M213 700l-51 -250h-102l66 250h87z" />
    <glyph glyph-name="quoteright" unicode="&#x2019;" horiz-adv-x="273" 
d="M213 700l-66 -250h-87l51 250h102z" />
    <glyph glyph-name="quotesinglbase" unicode="&#x201a;" horiz-adv-x="273" 
d="M213 116l-66 -250h-87l51 250h102z" />
    <glyph glyph-name="quotedblleft" unicode="&#x201c;" horiz-adv-x="523" 
d="M443 700l-51 -250h-102l66 250h87zM233 700l-51 -250h-102l66 250h87z" />
    <glyph glyph-name="quotedblright" unicode="&#x201d;" horiz-adv-x="523" 
d="M233 700l-66 -250h-87l51 250h102zM443 700l-66 -250h-87l51 250h102z" />
    <glyph glyph-name="quotedblbase" unicode="&#x201e;" horiz-adv-x="523" 
d="M233 116l-66 -250h-87l51 250h102zM443 116l-66 -250h-87l51 250h102z" />
    <glyph glyph-name="dagger" unicode="&#x2020;" horiz-adv-x="412" 
d="M70 529h36l70 -3l-4 126v48h68v-48l-4 -126l70 3h76v-66h-36l-70 3l4 -167v-161h-68v161l4 167l-70 -3h-36v66z" />
    <glyph glyph-name="daggerdbl" unicode="&#x2021;" horiz-adv-x="412" 
d="M70 422h36l69 -3l-1 23v51l1 44l-69 -2h-36v66h36l69 -3l-3 66v36h68v-36l-3 -66l69 3h36v-66h-36l-69 2l1 -44v-51l-1 -23l69 3h36v-66h-36l-69 2l3 -77v-143h-68v143l3 77l-69 -2h-36v66z" />
    <glyph glyph-name="bullet" unicode="&#x2022;" horiz-adv-x="318" 
d="M35 289c0 69 55 124 124 124s124 -55 124 -124s-55 -124 -124 -124s-124 55 -124 124z" />
    <glyph glyph-name="periodcentered" unicode="&#xb7;" horiz-adv-x="250" 
d="M177 259h-105v116h105v-116z" />
    <glyph glyph-name="ellipsis" unicode="&#x2026;" horiz-adv-x="750" 
d="M177 0h-105v116h105v-116zM677 0h-105v116h105v-116zM427 0h-105v116h105v-116z" />
    <glyph glyph-name="paragraph" unicode="&#xb6;" 
d="M498 -175h-96v875h96v-875zM345 -175h-96v457c-103 12 -207 72 -207 209c0 153 134 209 247 209h56v-875zM138 491c0 -76 53 -114 111 -120v241c-58 -7 -111 -45 -111 -121z" />
    <glyph glyph-name="uni00AD" unicode="&#xad;" horiz-adv-x="460" 
d="M360 238h-260v82h260v-82z" />
    <glyph glyph-name="endash" unicode="&#x2013;" horiz-adv-x="600" 
d="M550 267h-500v83h500v-83z" />
    <glyph glyph-name="emdash" unicode="&#x2014;" horiz-adv-x="900" 
d="M850 267h-800v83h800v-83z" />
    <glyph glyph-name="hyphen.case" horiz-adv-x="460" 
d="M360 293h-260v82h260v-82z" />
    <glyph glyph-name="Agrave" unicode="&#xc0;" horiz-adv-x="653" 
d="M638 0h-111l-55 149h-298l-54 -149h-105l271 700h84zM323 554l-117 -319h235l-117 319h-1zM351 740l-175 126l52 66l165 -138z" />
    <glyph glyph-name="Aacute" unicode="&#xc1;" horiz-adv-x="653" 
d="M638 0h-111l-55 149h-298l-54 -149h-105l271 700h84zM323 554l-117 -319h235l-117 319h-1zM480 866l-175 -126l-42 54l165 138z" />
    <glyph glyph-name="Acircumflex" unicode="&#xc2;" horiz-adv-x="653" 
d="M638 0h-111l-55 149h-298l-54 -149h-105l271 700h84zM323 554l-117 -319h235l-117 319h-1zM280 922h95l107 -134l-54 -42l-102 116l-101 -116l-55 42z" />
    <glyph glyph-name="Atilde" unicode="&#xc3;" horiz-adv-x="653" 
d="M638 0h-111l-55 149h-298l-54 -149h-105l271 700h84zM323 554l-117 -319h235l-117 319h-1zM448 866l65 7c1 -6 2 -17 2 -27c0 -58 -41 -95 -98 -95c-70 0 -103 64 -148 64c-18 0 -32 -11 -33 -30c0 -4 0 -7 1 -10l-65 -7c-1 6 -2 17 -2 27c0 58 41 95 98 95
c68 0 104 -64 148 -64c18 0 32 11 33 30c0 3 0 7 -1 10z" />
    <glyph glyph-name="Adieresis" unicode="&#xc4;" horiz-adv-x="653" 
d="M638 0h-111l-55 149h-298l-54 -149h-105l271 700h84zM323 554l-117 -319h235l-117 319h-1zM243 764h-102v111h102v-111zM513 764h-102v111h102v-111z" />
    <glyph glyph-name="Aring" unicode="&#xc5;" horiz-adv-x="653" 
d="M638 0h-111l-55 149h-298l-54 -149h-105l271 700h84zM323 554l-117 -319h235l-117 319h-1zM236 819c0 51 42 93 93 93s93 -42 93 -93s-42 -93 -93 -93s-93 42 -93 93zM285 819c0 -24 20 -44 44 -44s44 20 44 44s-20 44 -44 44s-44 -20 -44 -44z" />
    <glyph glyph-name="Aringacute" unicode="&#x1fa;" horiz-adv-x="653" 
d="M638 0h-111l-55 149h-298l-54 -149h-105l271 700h84zM323 554l-117 -319h235l-117 319h-1zM462 1012l-188 -105l-34 56l180 118zM236 810c0 51 42 93 93 93s93 -42 93 -93s-42 -93 -93 -93s-93 42 -93 93zM285 810c0 -24 20 -44 44 -44s44 20 44 44s-20 44 -44 44
s-44 -20 -44 -44z" />
    <glyph glyph-name="AE" unicode="&#xc6;" horiz-adv-x="986" 
d="M921 0h-420v149h-286l-105 -149h-120l512 700h419v-86h-324v-210h324v-86h-324v-232h324v-86zM275 235h226v321z" />
    <glyph glyph-name="AEacute" unicode="&#x1fc;" horiz-adv-x="986" 
d="M921 0h-420v149h-286l-105 -149h-120l512 700h419v-86h-324v-210h324v-86h-324v-232h324v-86zM275 235h226v321zM729 866l-175 -126l-42 54l165 138z" />
    <glyph glyph-name="Ccedilla" unicode="&#xc7;" horiz-adv-x="674" 
d="M624 658l-45 -74c-42 26 -91 42 -143 42c-158 0 -274 -116 -274 -276c0 -170 114 -276 274 -276c55 0 106 16 155 49l51 -71c-60 -41 -131 -64 -206 -64c-20 0 -39 1 -58 4l-24 -57l2 -1c9 8 25 16 48 16c53 0 87 -42 87 -93c0 -53 -47 -102 -109 -102
c-45 0 -81 20 -103 59l57 28c9 -25 28 -32 46 -32c26 0 43 21 43 44c0 24 -15 47 -43 47c-16 0 -31 -6 -41 -24l-62 33l43 93c-153 41 -262 168 -262 347c0 207 169 362 376 362c69 0 133 -20 188 -54z" />
    <glyph glyph-name="Egrave" unicode="&#xc8;" horiz-adv-x="580" 
d="M515 0h-420v700h420v-86h-324v-210h324v-86h-324v-232h324v-86zM344 740l-175 126l52 66l165 -138z" />
    <glyph glyph-name="Eacute" unicode="&#xc9;" horiz-adv-x="580" 
d="M515 0h-420v700h420v-86h-324v-210h324v-86h-324v-232h324v-86zM447 866l-175 -126l-42 54l165 138z" />
    <glyph glyph-name="Ecircumflex" unicode="&#xca;" horiz-adv-x="580" 
d="M515 0h-420v700h420v-86h-324v-210h324v-86h-324v-232h324v-86zM264 922h95l107 -134l-54 -42l-102 116l-101 -116l-55 42z" />
    <glyph glyph-name="Edieresis" unicode="&#xcb;" horiz-adv-x="580" 
d="M248 764h-100v111h100v-111zM478 764h-100v111h100v-111zM515 0h-420v700h420v-86h-324v-210h324v-86h-324v-232h324v-86z" />
    <glyph glyph-name="Igrave" unicode="&#xcc;" horiz-adv-x="286" 
d="M191 0h-96v700h96v-700zM168 740l-175 126l52 66l165 -138z" />
    <glyph glyph-name="Iacute" unicode="&#xcd;" horiz-adv-x="286" 
d="M191 0h-96v700h96v-700zM297 866l-175 -126l-42 54l165 138z" />
    <glyph glyph-name="Icircumflex" unicode="&#xce;" horiz-adv-x="286" 
d="M191 0h-96v700h96v-700zM97 922h95l107 -134l-54 -42l-102 116l-101 -116l-55 42z" />
    <glyph glyph-name="Idieresis" unicode="&#xcf;" horiz-adv-x="286" 
d="M80 764h-102v111h102v-111zM308 764h-102v111h102v-111zM191 0h-96v700h96v-700z" />
    <glyph glyph-name="Eth" unicode="&#xd0;" horiz-adv-x="720" 
d="M660 353c0 -259 -196 -353 -386 -353h-179v321h-70v79h70v300h189c178 0 376 -94 376 -347zM558 344c0 177 -108 270 -292 270h-75v-214h120v-79h-120v-235h33c200 0 334 63 334 258z" />
    <glyph glyph-name="Ntilde" unicode="&#xd1;" horiz-adv-x="755" 
d="M660 0h-85l-384 522v-522h-96v700h84l385 -522v522h96v-700zM491 866l65 7c1 -6 2 -17 2 -27c0 -58 -41 -95 -98 -95c-70 0 -103 64 -148 64c-18 0 -32 -11 -33 -30c0 -4 0 -7 1 -10l-65 -7c-1 6 -2 17 -2 27c0 58 41 95 98 95c68 0 104 -64 148 -64c18 0 32 11 33 30
g0 3 0 7 -1 10z" />
    <glyph glyph-name="Ograve" unicode="&#xd2;" horiz-adv-x="840" 
d="M678 350c0 155 -109 276 -258 276s-258 -121 -258 -276s109 -276 258 -276s258 121 258 276zM780 350c0 -200 -156 -362 -360 -362s-360 162 -360 362s156 362 360 362s360 -162 360 -362zM445 740l-175 126l52 66l165 -138z" />
    <glyph glyph-name="Oacute" unicode="&#xd3;" horiz-adv-x="840" 
d="M678 350c0 155 -109 276 -258 276s-258 -121 -258 -276s109 -276 258 -276s258 121 258 276zM780 350c0 -200 -156 -362 -360 -362s-360 162 -360 362s156 362 360 362s360 -162 360 -362zM574 866l-175 -126l-42 54l165 138z" />
    <glyph glyph-name="Ocircumflex" unicode="&#xd4;" horiz-adv-x="840" 
d="M678 350c0 155 -109 276 -258 276s-258 -121 -258 -276s109 -276 258 -276s258 121 258 276zM780 350c0 -200 -156 -362 -360 -362s-360 162 -360 362s156 362 360 362s360 -162 360 -362zM372 922h95l107 -134l-54 -42l-102 116l-101 -116l-55 42z" />
    <glyph glyph-name="Otilde" unicode="&#xd5;" horiz-adv-x="840" 
d="M678 350c0 155 -109 276 -258 276s-258 -121 -258 -276s109 -276 258 -276s258 121 258 276zM780 350c0 -200 -156 -362 -360 -362s-360 162 -360 362s156 362 360 362s360 -162 360 -362zM546 866l65 7c1 -6 2 -17 2 -27c0 -58 -41 -95 -98 -95c-70 0 -103 64 -148 64
c-18 0 -32 -11 -33 -30c0 -4 0 -7 1 -10l-65 -7c-1 6 -2 17 -2 27c0 58 41 95 98 95c68 0 104 -64 148 -64c18 0 32 11 33 30c0 3 0 7 -1 10z" />
    <glyph glyph-name="Odieresis" unicode="&#xd6;" horiz-adv-x="840" 
d="M678 350c0 155 -109 276 -258 276s-258 -121 -258 -276s109 -276 258 -276s258 121 258 276zM780 350c0 -200 -156 -362 -360 -362s-360 162 -360 362s156 362 360 362s360 -162 360 -362zM336 764h-102v111h102v-111zM606 764h-102v111h102v-111z" />
    <glyph glyph-name="Oslash" unicode="&#xd8;" horiz-adv-x="840" 
d="M680 672l-29 -43c79 -66 129 -167 129 -279c0 -200 -156 -362 -360 -362c-64 0 -122 15 -173 43l-33 -49l-67 42l35 52c-76 66 -122 164 -122 274c0 200 156 362 360 362c60 0 116 -15 165 -40l28 42zM678 350c0 81 -30 152 -79 202l-302 -447c36 -20 77 -31 123 -31
c149 0 258 121 258 276zM162 350c0 -78 27 -147 73 -196l300 445c-34 17 -73 27 -115 27c-149 0 -258 -121 -258 -276z" />
    <glyph glyph-name="Oslashacute" unicode="&#x1fe;" horiz-adv-x="840" 
d="M680 672l-29 -43c79 -66 129 -167 129 -279c0 -200 -156 -362 -360 -362c-64 0 -122 15 -173 43l-33 -49l-67 42l35 52c-76 66 -122 164 -122 274c0 200 156 362 360 362c60 0 116 -15 165 -40l28 42zM678 350c0 81 -30 152 -79 202l-302 -447c36 -20 77 -31 123 -31
c149 0 258 121 258 276zM162 350c0 -78 27 -147 73 -196l300 445c-34 17 -73 27 -115 27c-149 0 -258 -121 -258 -276zM574 866l-175 -126l-42 54l165 138z" />
    <glyph glyph-name="Ugrave" unicode="&#xd9;" horiz-adv-x="722" 
d="M632 700v-371c0 -220 -81 -341 -273 -341c-188 0 -269 121 -269 341v371h96v-396c0 -155 67 -230 175 -230s175 75 175 230v396h96zM386 740l-175 126l52 66l165 -138z" />
    <glyph glyph-name="Uacute" unicode="&#xda;" horiz-adv-x="722" 
d="M632 700v-371c0 -220 -81 -341 -273 -341c-188 0 -269 121 -269 341v371h96v-396c0 -155 67 -230 175 -230s175 75 175 230v396h96zM515 866l-175 -126l-42 54l165 138z" />
    <glyph glyph-name="Ucircumflex" unicode="&#xdb;" horiz-adv-x="722" 
d="M632 700v-371c0 -220 -81 -341 -273 -341c-188 0 -269 121 -269 341v371h96v-396c0 -155 67 -230 175 -230s175 75 175 230v396h96zM323 922h95l107 -134l-54 -42l-102 116l-101 -116l-55 42z" />
    <glyph glyph-name="Udieresis" unicode="&#xdc;" horiz-adv-x="722" 
d="M632 700v-371c0 -220 -81 -341 -273 -341c-188 0 -269 121 -269 341v371h96v-396c0 -155 67 -230 175 -230s175 75 175 230v396h96zM277 764h-102v111h102v-111zM547 764h-102v111h102v-111z" />
    <glyph glyph-name="Yacute" unicode="&#xdd;" horiz-adv-x="555" 
d="M324 0h-96v304l-223 396h119l156 -294h3l155 294h112l-226 -401v-299zM422 866l-175 -126l-42 54l165 138z" />
    <glyph glyph-name="Thorn" unicode="&#xde;" horiz-adv-x="601" 
d="M95 701h96v-137h113c113 0 247 -56 247 -209c0 -155 -133 -211 -247 -211h-113v-144h-96v701zM449 352c0 79 -61 126 -150 126h-108v-248h88c97 0 170 32 170 122z" />
    <glyph glyph-name="germandbls.cap" horiz-adv-x="1218" 
d="M1067 570c-33 31 -92 56 -147 56c-74 0 -125 -35 -125 -97c0 -61 69 -84 146 -111c99 -35 212 -81 212 -212c0 -157 -139 -218 -246 -218c-102 0 -179 32 -253 105l68 64c66 -65 116 -83 186 -83c72 0 143 35 143 121c0 77 -75 104 -156 132c-95 33 -197 80 -197 192
c0 132 97 193 211 193c84 0 154 -24 217 -72zM458 570c-33 31 -92 56 -147 56c-74 0 -125 -35 -125 -97c0 -61 69 -84 146 -111c99 -35 212 -81 212 -212c0 -157 -139 -218 -246 -218c-102 0 -179 32 -253 105l68 64c66 -65 116 -83 186 -83c72 0 143 35 143 121
c0 77 -75 104 -156 132c-95 33 -197 80 -197 192c0 132 97 193 211 193c84 0 154 -24 217 -72z" />
    <glyph glyph-name="germandbls" unicode="&#xdf;" horiz-adv-x="625" 
d="M171 0h-91v541c0 135 98 221 221 221s216 -79 216 -203c0 -57 -33 -107 -76 -136c84 -27 139 -95 139 -204c0 -143 -106 -231 -238 -231c-37 0 -73 8 -106 26l34 78c23 -14 48 -20 75 -20c99 0 142 61 142 147c0 107 -76 154 -170 154c-8 0 -30 0 -44 -2v72h20
c62 0 133 43 133 114c0 73 -49 121 -123 121c-88 0 -132 -60 -132 -157v-521z" />
    <glyph glyph-name="agrave" unicode="&#xe0;" horiz-adv-x="546" 
d="M468 0h-87v53c-41 -46 -86 -65 -150 -65c-92 0 -177 45 -177 152c0 127 113 166 223 166c25 0 57 -2 100 -11v18c0 76 -36 120 -118 120c-58 0 -119 -22 -159 -44l-27 76c52 25 128 47 197 47c145 0 198 -79 198 -208v-304zM377 124v103c-37 8 -65 10 -90 10
c-62 0 -144 -15 -144 -90c0 -61 46 -83 99 -83c51 0 95 26 135 60zM270 566l-134 160l66 51l123 -169z" />
    <glyph glyph-name="aacute" unicode="&#xe1;" horiz-adv-x="546" 
d="M468 0h-87v53c-41 -46 -86 -65 -150 -65c-92 0 -177 45 -177 152c0 127 113 166 223 166c25 0 57 -2 100 -11v18c0 76 -36 120 -118 120c-58 0 -119 -22 -159 -44l-27 76c52 25 128 47 197 47c145 0 198 -79 198 -208v-304zM377 124v103c-37 8 -65 10 -90 10
c-62 0 -144 -15 -144 -90c0 -61 46 -83 99 -83c51 0 95 26 135 60zM395 726l-134 -160l-55 42l123 169z" />
    <glyph glyph-name="acircumflex" unicode="&#xe2;" horiz-adv-x="546" 
d="M468 0h-87v53c-41 -46 -86 -65 -150 -65c-92 0 -177 45 -177 152c0 127 113 166 223 166c25 0 57 -2 100 -11v18c0 76 -36 120 -118 120c-58 0 -119 -22 -159 -44l-27 76c52 25 128 47 197 47c145 0 198 -79 198 -208v-304zM377 124v103c-37 8 -65 10 -90 10
c-62 0 -144 -15 -144 -90c0 -61 46 -83 99 -83c51 0 95 26 135 60zM407 602l-53 -36l-93 129l-93 -129l-55 36l104 157h88z" />
    <glyph glyph-name="atilde" unicode="&#xe3;" horiz-adv-x="546" 
d="M468 0h-87v53c-41 -46 -86 -65 -150 -65c-92 0 -177 45 -177 152c0 127 113 166 223 166c25 0 57 -2 100 -11v18c0 76 -36 120 -118 120c-58 0 -119 -22 -159 -44l-27 76c52 25 128 47 197 47c145 0 198 -79 198 -208v-304zM377 124v103c-37 8 -65 10 -90 10
c-62 0 -144 -15 -144 -90c0 -61 46 -83 99 -83c51 0 95 26 135 60zM434 700c1 -6 2 -13 2 -23c0 -58 -41 -95 -98 -95c-72 0 -104 64 -148 64c-18 0 -32 -11 -33 -30c0 -4 0 -7 1 -10l-65 -7c-1 6 -2 13 -2 23c0 58 41 95 98 95c69 0 104 -64 148 -64c18 0 32 11 33 30
c0 3 0 7 -1 10z" />
    <glyph glyph-name="adieresis" unicode="&#xe4;" horiz-adv-x="546" 
d="M468 0h-87v53c-41 -46 -86 -65 -150 -65c-92 0 -177 45 -177 152c0 127 113 166 223 166c25 0 57 -2 100 -11v18c0 76 -36 120 -118 120c-58 0 -119 -22 -159 -44l-27 76c52 25 128 47 197 47c145 0 198 -79 198 -208v-304zM377 124v103c-37 8 -65 10 -90 10
c-62 0 -144 -15 -144 -90c0 -61 46 -83 99 -83c51 0 95 26 135 60zM207 598h-93v102h93v-102zM410 598h-93v102h93v-102z" />
    <glyph glyph-name="aring" unicode="&#xe5;" horiz-adv-x="546" 
d="M468 0h-87v53c-41 -46 -86 -65 -150 -65c-92 0 -177 45 -177 152c0 127 113 166 223 166c25 0 57 -2 100 -11v18c0 76 -36 120 -118 120c-58 0 -119 -22 -15= -44l-27 76c52 25 128 47 197 47c145 0 198 -79 198 -208v-304zM377 124v103c-37 8 -65 10 -90 10
c-62 0 -144 -15 -144 -90c0 -61 46 -83 99 -83c51 0 95 26 135 60zM172 658c0 51 42 93 93 93s93 -42 93 -93s-42 -93 -93 -93s-93 42 -93 93zM221 658c0 -24 20 -44 44 -44s44 20 44 44s-20 44 -44 44s-44 -20 -44 -44z" />
    <glyph glyph-name="aringacute" unicode="&#x1fb;" horiz-adv-x="546" 
d="M413 858l-179 -106l-32 50l175 114zM468 0h-87v53c-41 -46 -86 -65 -150 -65c-92 0 -177 45 -177 152c0 127 113 166 223 166c25 0 57 -2 100 -11v18c0 76 -36 120 -118 120c-58 0 -119 -22 -159 -44l-27 76c52 25 128 47 197 47c145 0 198 -79 198 -208v-304zM377 124
v103c-37 8 -65 10 -90 10c-62 0 -144 -15 -144 -90c0 -61 46 -83 99 -83c51 0 95 26 135 60zM172 639c0 51 42 93 93 93s93 -42 93 -93s-42 -93 -93 -93s-93 42 -93 93zM221 639c0 -24 20 -44 44 -44s44 20 44 44s-20 44 -44 44s-44 -20 -44 -44z" />
    <glyph glyph-name="ae" unicode="&#xe6;" horiz-adv-x="891" 
d="M755 300c-4 71 -58 134 -133 134c-81 0 -133 -59 -151 -134h284zM392 140c-10 27 -17 57 -19 88c-35 7 -62 9 -86 9c-62 0 -144 -15 -144 -90c0 -61 46 -83 99 -83c58 0 109 31 150 76zM774 147l66 -42c-50 -80 -118 -117 -219 -117c-85 0 -151 33 -193 86
c-46 -54 -111 -86 -197 -86c-92 0 -177 45 -177 152c0 127 113 166 223 166c25 0 57 -2 100 -11v18c0 76 -36 120 -118 120c-58 0 -119 -22 -159 -44l-27 76c52 25 128 47 197 47c86 0 142 -27 171 -84c44 52 106 84 180 84c132 0 228 -99 228 -233c0 -17 -2 -39 -4 -52
h-381c6 -86 65 -161 161 -161c66 0 119 24 149 81z" />
    <glyph glyph-name="aeacute" unicode="&#x1fd;" horiz-adv-x="891" 
d="M755 300c-4 71 -58 134 -133 134c-81 0 -133 -59 -151 -134h284zM392 140c-10 27 -17 57 -19 88c-35 7 -62 9 -86 9c-62 0 -144 -15 -144 -90c0 -61 46 -83 99 -83c58 0 109 31 150 76zM774 147l66 -42c-50 -80 -118 -117 -219 -117c-85 0 -151 33 -193 86
c-46 -54 -111 -86 -197 -86c-92 0 -177 45 -177 152c0 127 113 166 223 166c25 0 57 -2 100 -11v18c0 76 -36 120 -118 120c-58 0 -119 -22 -159 -44l-27 76c52 25 128 47 197 47c86 0 142 -27 171 -84c44 52 106 84 180 84c132 0 228 -99 228 -233c0 -17 -2 -39 -4 -52
h-381c6 -86 65 -161 161 -161c66 0 119 24 149 81zM586 726l-134 -160l-55 42l123 169z" />
    <glyph glyph-name="ccedilla" unicode="&#xe7;" horiz-adv-x="475" 
d="M406 107l45 -70c-37 -30 -93 -49 -153 -49c-6 0 -11 0 -16 1l-20 -54l1 -1c15 11 32 16 48 16c45 0 87 -39 87 -93c0 -53 -47 -102 -109 -102c-45 0 -81 20 -103 59l57 28c9 -25 28 -32 46 -32c26 0 43 21 43 44c0 26 -18 47 -45 47c-16 0 -32 -< -39 -24l-61 32l37 89
c-106 29 -182 122 -182 252c0 146 115 262 261 262c53 0 101 -16 141 -43l-43 -75c-28 21 -66 34 -102 34c-90 0 -164 -79 -164 -178c0 -108 78 -178 165 -178c33 0 79 15 106 35z" />
    <glyph glyph-name="egrave" unicode="&#xe8;" horiz-adv-x="560" 
d="M514 227h-381c6 -86 65 -161 161 -161c66 0 119 24 149 81l66 -42c-50 -80 -118 -117 -219 -117c-159 0 -248 116 -248 262c0 149 109 262 248 262c132 0 228 -99 228 -233c0 -17 -2 -39 -4 -52zM291 434c-81 0 -133 -59 -151 -134h284c-4 71 -58 134 -133 134zM287 566
l-134 160l66 51l123 -169z" />
    <glyph glyph-name="eacute" unicode="&#xe9;" horiz-adv-x="560" 
d="M514 227h-381c6 -86 65 -161 161 -161c66 0 119 24 149 81l66 -42c-50 -80 -118 -117 -219 -117c-159 0 -248 116 -248 262c0 149 109 262 248 262c132 0 228 -99 228 -233c0 -17 -2 -39 -4 -52zM291 434c-81 0 -133 -59 -151 -134h284c-4 71 -58 134 -133 134zM427 726
l-134 -160l-55 42l123 169z" />
    <glyph glyph-name="ecircumflex" unicode="&#xea;" horiz-adv-x="560" 
d="M514 227h-381c6 -86 65 -161 161 -161c66 0 119 24 149 81l66 -42c-50 -80 -118 -117 -219 -117c-159 0 -248 116 -248 262c0 149 109 262 248 262c132 0 228 -99 228 -233c0 -17 -2 -39 -4 -52zM291 434c-81 0 -133 -59 -151 -134h284c-4 71 -58 134 -133 134zM436 602
l-53 -36l-93 129l-93 -129l-55 36l104 157h88z" />
    <glyph glyph-name="edieresis" unicode="&#xeb;" horiz-adv-x="560" 
d="M514 227h-381c6 -86 65 -161 161 -161c66 0 119 24 149 81l66 -42c-50 -80 -118 -117 -219 -117c-159 0 -248 116 -248 262c0 149 109 262 248 262c132 0 228 -99 228 -233c0 -17 -2 -39 -4 -52zM291 434c-81 0 -133 -59 -151 -134h284c-4 71 -58 134 -133 134zM235 598
h-93v102h93v-102zM438 598h-93v102h93v-102z" />
    <glyph glyph-name="igrave" unicode="&#xec;" horiz-adv-x="259" 
d="M175 0h-91v500h91v-500zM124 566l-134 160l66 51l123 -169z" />
    <glyph glyph-name="iacute" unicode="&#xed;" horiz-adv-x="259" 
d="M175 0h-91v500h91v-500zM267 726l-134 -160l-55 42l123 169z" />
    <glyph glyph-name="icircumflex" unicode="&#xee;" horiz-adv-x="259" 
d="M175 0h-91v500h91v-500zM276 602l-53 -36l-93 129l-93 -129l-55 36l104 157h88z" />
    <glyph glyph-name="idieresis" unicode="&#xef;" horiz-adv-x="259" 
d="M75 598h-93v102h93v-102zM278 598h-93v102h93v-102zM175 0h-91v500h91v-500z" />
    <glyph glyph-name="eth" unicode="&#xf0;" horiz-adv-x="574" 
d="M328 767l-55 -95c170 -110 259 -251 259 -440c0 -129 -92 -244 -253 -244c-146 0 -237 119 -237 248c0 125 98 231 219 231c56 0 88 -11 127 -34c-38 66 -94 120 -159 164l-57 -98l-63 38l57 98c-32 18 -66 33 -99 47l34 79c38 -17 74 -34 108 -52l55 95zM423 352
c-37 20 -78 32 -131 32c-86 0 -157 -51 -157 -150c0 -88 61 -162 152 -162c110 0 151 81 151 173c0 38 -6 74 -15 107z" />
    <glyph glyph-name="ntilde" unicode="&#xf1;" horiz-adv-x="606" 
d="M84 500h91v-82c37 59 96 94 163 94c70 0 116 -24 145 -63c34 -46 45 -113 45 -189v-260h-91v250c0 49 -2 102 -26 138c-16 24 -43 40 -87 40c-58 0 -113 -40 -149 -96v-332h-91v500zM492 700c1 -6 2 -13 2 -23c0 -58 -41 -95 -98 -95c-72 0 -104 64 -148 64
c-18 0 -32 -11 -33 -30c0 -4 0 -7 1 -10l-65 -7c-1 6 -2 13 -2 23c0 58 41 95 98 95c69 0 104 -64 148 -64c18 0 32 11 33 30c0 3 0 7 -1 10z" />
    <glyph glyph-name="ograve" unicode="&#xf2;" horiz-adv-x="594" 
d="M297 512c146 0 255 -116 255 -262s-109 -262 -255 -262s-255 116 -255 262s109 262 255 262zM459 250c0 97 -68 178 -162 178s-162 -81 -162 -178s68 -178 162 -178s162 81 162 178zM287 566l-134 160l66 51l123 -169z" />
    <glyph glyph-name="oacute" unicode="&#xf3;" horiz-adv-x="594" 
d="M297 512c146 0 255 -116 255 -262s-109 -262 -255 -262s-255 116 -255 262s109 262 255 262zM459 250c0 97 -68 178 -162 178s-162 -81 -162 -178s68 -178 162 -178s162 81 162 178zM438 726l-134 -160l-55 42l123 169z" />
    <glyph glyph-name="ocircumflex" unicode="&#xf4;" horiz-adv-x="594" 
d="M297 512c146 0 255 -116 255 -262s-109 -262 -255 -262s-255 116 -255 262s109 262 255 262zM459 250c0 97 -68 178 -162 178s-162 -81 -162 -178s68 -178 162 -178s162 81 162 178zM443 602l-53 -36l-93 129l-93 -129l-55 36l104 157h88z" />
    <glyph glyph-name="otilde" unicode="&#xf5;" horiz-adv-x="594" 
d="M297 512c146 0 255 -116 255 -262s-109 -262 -255 -262s-255 116 -255 262s109 262 255 262zM459 250c0 97$-68 178 -162 178s-162 -81 -162 -178s68 -178 162 -178s162 81 162 178zM474 700c1 -6 2 -13 2 -23c0 -58 -41 -95 -98 -95c-72 0 -104 64 -148 64
c-18 0 -32 -11 -33 -30c0 -4 0 -7 1 -10l-65 -7c-1 6 -2 13 -2 23c0 58 41 95 98 95c69 0 104 -64 148 -64c18 0 32 11 33 30c0 3 0 7 -1 10z" />
    <glyph glyph-name="odieresis" unicode="&#xf6;" horiz-adv-x="594" 
d="M297 512c146 0 255 -116 255 -262s-109 -262 -255 -262s-255 116 -255 262s109 262 255 262zM459 250c0 97 -68 178 -162 178s-162 -81 -162 -178s68 -178 162 -178s162 81 162 178zM242 598h-93v102h93v-102zM445 598h-93v102h93v-102z" />
    <glyph glyph-name="oslash" unicode="&#xf8;" horiz-adv-x="594" 
d="M492 486l-26 -38c53 -48 86 -119 86 -198c0 -146 -109 -262 -255 -262c-45 0 -86 11 -122 30l-26 -39l-54 35l28 42c-50 47 -81 116 -81 194c0 146 109 262 255 262c42 0 82 -10 116 -28l25 37zM459 250c0 47 -16 91 -44 123l-191 -283c21 -12 46 -18 73 -18
c94 0 162 81 162 178zM135 250c0 -45 14 -87 39 -119l190 281c-20 10 -43 16 -67 16c-94 0 -162 -81 -162 -178z" />
    <glyph glyph-name="oslashacute" unicode="&#x1ff;" horiz-adv-x="594" 
d="M492 486l-26 -38c53 -48 86 -119 86 -198c0 -146 -109 -262 -255 -262c-45 0 -86 11 -122 30l-26 -39l-54 35l28 42c-50 47 -81 116 -81 194c0 146 109 262 255 262c42 0 82 -10 116 -28l25 37zM459 250c0 47 -16 91 -44 123l-191 -283c21 -12 46 -18 73 -18
c94 0 162 81 162 178zM135 250c0 -45 14 -87 39 -119l190 281c-20 10 -43 16 -67 16c-94 0 -162 -81 -162 -178zM438 726l-134 -160l-55 42l123 169z" />
    <glyph glyph-name="ugrave" unicode="&#xf9;" horiz-adv-x="606" 
d="M431 0v82c-37 -59 -96 -94 -163 -94c-70 0 -116 24 -145 63c-34 46 -45 113 -45 189v260h91v-250c0 -49 2 -102 26 -138c16 -24 43 -40 87 -40c58 0 113 40 149 96v332h91v-500h-91zM308 566l-134 160l66 51l123 -169z" />
    <glyph glyph-name="uacute" unicode="&#xfa;" horiz-adv-x="606" 
d="M431 0v82c-37 -59 -96 -94 -163 -94c-70 0 -116 24 -145 63c-34 46 -45 113 -45 189v260h91v-250c0 -49 2 -102 26 -138c16 -24 43 -40 87 -40c58 0 113 40 149 96v332h91v-500h-91zM441 726l-134 -160l-55 42l123 169z" />
    <glyph glyph-name="ucircumflex" unicode="&#xfb;" horiz-adv-x="606" 
d="M431 0v82c-37 -59 -96 -94 -163 -94c-70 0 -116 24 -145 63c-34 46 -45 113 -45 189v260h91v-250c0 -49 2 -102 26 -138c16 -24 43 -40 87 -40c58 0 113 40 149 96v332h91v-500h-91zM454 602l-53 -36l-93 129l-93 -129l-55 36l104 157h88z" />
    <glyph glyph-name="udieresis" unicode="&#xfc;" horiz-adv-x="606" 
d="M431 0v82c-37 -59 -96 -94 -163 -94c-70 0 -116 24 -145 63c-34 46 -45 113 -45 189v260h91v-250c0 -49 2 -102 26 -138c16 -24 43 -40 87 -40c58 0 113 40 149 96v332h91v-500h-91zM246 598h-93v102h93v-102zM449 598h-93v102h93v-102z" />
    <glyph glyph-name="yacute" unicode="&#xfd;" horiz-adv-x="477" 
d="M6 500h101l130 -379h2l133 379h99l-281 -725l-80 31l79 209zM365 726l-134 -160l-55 42l123 169z" />
    <glyph glyph-name="thorn" unicode="&#xfe;" horiz-adv-x="626" 
d="M84 750h91v-317c36 52 99 79 159 79c144 0 250 -116 250 -263c0 -132 -99 -261 -252 -261c-59 0 -117 25 -157 66v-304h-91v1000zM175 333v-185c34 -49 93 -76 145 -76c116 0 171 93 171 179c0 93 -65 177 -169 177c-54 0 -122 -33 -147 -95z" />
    <glyph glyph-name="ydieresis" unicode="&#xff;" horiz-adv-x="477" 
d="M6 500h101l130 -379h2l133 379h99l-281 -725l-80 31l79 209zM186 598h-93v102h93v-102zM389 598h-93v102h93v-102z" />
    <glyph glyph-name="Amacron" unicode="&#x100;" horiz-adv-x="653" 
d="M638 0h-111l-55 149h-298l-54 -149h-105l271 700h84zM323 554l-117 -319h235l-117 319h-1zM491 774h-334v71h330v-71z" />
    <glyph glyph-name="amacron" unicode="&#x101;" horiz-adv-x="546" 
d="M468 0h-87v53c-41 -46 -86 -65 -150 -65c-92 0 -177 45 -177 152c0 127 113 166 223 166c25 0 57 -2 100 -11v18c0 76 -36 120 -118 120c-58 0 -119 -22 -159 -44l-27 76c52 25 128 47 197 47c145 0 198 -79 198 -208v-304zM377 124v103c-37 8 -65 10 -90 10
c-62 0 -144 -15 -144 -90c0 -61 46 -83 99 -83c51 0 95 26 135 60zM420 608h-296v70h296v-70z" />
    <glyph glyph-name="Abreve" unicode="&#x102;" horiz-adv-x="653" 
d="M638 0h-111l-55 149h-298l-54 -149h-105l271 700h84zM323 554l-117 -319h235l-117 319h-1zM407 894h64v-6c0 -80 -63 -132 -143 -132c-87 0 -143 52 -143 132v6h67v-6c0 -44 32 -68 76 -68c42 0 79 23 79 68v6z" />
    <glyph glyph-name="abreve" unicode="&#x103;" horiz-adv-x="546" 
d="M468 0h-87v53c-41 -46 -86 -65 -150 -65c-92 0 -177 45 -177 152c0 127 113 166 223 166c25 0 57 -2 100 -11v18c0 76 -36 120 -118 120c-58 0 -119 -22 -159 -44l-27 76c52 25 128 47 197 47c145 0 198 -79 198 -208v-304zM377 124v103c-37 8 -65 10 -90 10
c-62 0 -144 -15 -144 -90c0 -61 46 -83 99 -83c51 0 95 26 135 60zM362 725h64v-14c0 -80 -63 -143 -143 -143s-143 63 -143 143v14h66v-14c0 -44 33 -79 77 -79c42 0 79 34 79 79v14z" />
    <glyph glyph-name="Aogonek" unicode="&#x104;" horiz-adv-x="653" 
d="M323 554l-117 -319h235l-117 319h-1zM638 0c-88 -22 -118 -69 -118 -110c0 -27 15 -44 42 -44c15 0 30 5 44 14l32 -51c-22 -20 -56 -31 -89 -31c-56 0 -111 34 -111 99c0 57 38 97 89 123l-55 149h-298l-54 -149h-105l271 700h84z" />
    <glyph glyph-name="aogonek" unicode="&#x105;" horiz-adv-x="546" 
d="M468 304v-304c-73 -22 -102 -69 -102 -110c0 -27 15 -44 42 -44c15 0 30 5 44 14l32 -51c-22 -20 -56 -31 -89 -31c-56 0 -111 34 -111 99c0 59 36 102 97 129v47c-41 -46 -86 -65 -150 -65c-92 0 -177 45 -177 152c0 127 113 166 223 166c25 0 57 -2 100 -11v18
c0 76 -36 120 -118 120c-58 0 -119 -22 -159 -44l-27 76c52 25 128 47 197 47c145 0 198 -79 198 -208zM377 124v103c-37 8 -65 10 -90 10c-62 0 -144 -15 -144 -90c0 -61 46 -83 99 -83c51 0 95 26 135 60z" />
    <glyph glyph-name="Cacute" unicode="&#x106;" horiz-adv-x="674" 
d="M642 52c-60 -41 -131 -64 -206 -64c-209 0 -376 141 -376 362c0 207 169 362 376 362c69 0 133 -20 188 -54l-45 -74c-42 26 -91 42 -143 42c-158 0 -274 -116 -274 -276c0 -170 114 -276 274 -276c55 0 106 16 155 49zM574 866l-175 -126l-42 54l165 138z" />
    <glyph glyph-name="cacute" unicode="&#x107;" horiz-adv-x="475" 
d="M406 107l45 -70c-37 -30 -93 -49 -153 -49c-143 0 -256 104 -256 262c0 146 115 262 261 262c53 0 101 -16 141 -43l-43 -75c-28 21 -66 34 -102 34c-90 0 -164 -79 -164 -178c0 -108 78 -178 165 -178c33 0 79 15 106 35zM438 726l-134 -160l-55 42l123 169z" />
    <glyph glyph-name="Ccivcumflex" unicode="&#x108;" hori~-adv-x="674" 
d="M642 52c-60 -41 -131 -64 -206 -64c-209 0 -376 141 -376 362c0 207 169 362 376 362c69 0 133 -20 188 -54l-45 -74c-42 26 -91 42 -143 42c-158 0 -274 -116 -274 -276c0 -170 114 -276 274 -276c55 0 106 16 155 49zM377 922h95l107 -134l-54 -42l-102 116l-101 -116
l-55 42z" />
    <glyph glyph-name="ccircumflex" unicode="&#x109;" horiz-adv-x="475" 
d="M406 107l45 -70c-37 -30 -93 -49 -153 -49c-143 0 -256 104 -256 262c0 146 115 262 261 262c53 0 101 -16 141 -43l-43 -75c-28 21 -66 34 -102 34c-90 0 -164 -79 -164 -178c0 -108 78 -178 165 -178c33 0 79 15 106 35zM437 602l-53 -36l-93 129l-93 -129l-55 36
l104 157h88z" />
    <glyph glyph-name="Cdotaccent" unicode="&#x10a;" horiz-adv-x="674" 
d="M642 52c-60 -41 -131 -64 -206 -64c-209 0 -376 141 -376 362c0 207 169 362 376 362c69 0 133 -20 188 -54l-45 -74c-42 26 -91 42 -143 42c-158 0 -274 -116 -274 -276c0 -170 114 -276 274 -276c55 0 106 16 155 49zM471 764h-102v111h102v-111z" />
    <glyph glyph-name="cdotaccent" unicode="&#x10b;" horiz-adv-x="475" 
d="M406 107l45 -70c-37 -30 -93 -49 -153 -49c-143 0 -256 104 -256 262c0 146 115 262 261 262c53 0 101 -16 141 -43l-43 -75c-28 21 -66 34 -102 34c-90 0 -164 -79 -164 -178c0 -108 78 -178 165 -178c33 0 79 15 106 35zM327 598h-91v102h91v-102z" />
    <glyph glyph-name="Ccaron" unicode="&#x10c;" horiz-adv-x="674" 
d="M642 52c-60 -41 -131 -64 -206 -64c-209 0 -376 141 -376 362c0 207 169 362 376 362c69 0 133 -20 188 -54l-45 -74c-42 26 -91 42 -143 42c-158 0 -274 -116 -274 -276c0 -170 114 -276 274 -276c55 0 106 16 155 49zM470 752h-95l-107 134l55 42l102 -116l101 116
l54 -42z" />
    <glyph glyph-name="ccaron" unicode="&#x10d;" horiz-adv-x="475" 
d="M406 107l45 -70c-37 -30 -93 -49 -153 -49c-143 0 -256 104 -256 262c0 146 115 262 261 262c53 0 101 -16 141 -43l-43 -75c-28 21 -66 34 -102 34c-90 0 -164 -79 -164 -178c0 -108 78 -178 165 -178c33 0 79 15 106 35zM144 726l54 36l93 -129l93 129l54 -36
l-104 -157h-88z" />
    <glyph glyph-name="Dcaron" unicode="&#x10e;" horiz-adv-x="720" 
d="M95 0v700h189c178 0 376 -94 376 -347c0 -259 -196 -353 -386 -353h-179zM558 344c0 177 -108 270 -292 270h-75v-528h33c200 0 334 63 334 258zM372 752h-95l-107 134l55 42l102 -116l101 116l54 -42z" />
    <glyph glyph-name="dcaron" unicode="&#x10f;" horiz-adv-x="626" 
d="M292 -12c-144 0 -250 116 -250 262c0 133 99 262 252 262c58 0 117 -26 157 -67v305h91v-750h-91v67c-36 -53 -99 -79 -159 -79zM304 72c54 0 121 33 147 94v186c-35 49 -94 76 -145 76c-116 0 -171 -93 -171 -180c0 -92 65 -176 169 -176zM648 550h-76l40 200h89z" />
    <glyph glyph-name="Dcroat" unicode="&#x110;" horiz-adv-x="720" 
d="M95 0v321h-70v79h70v300h189c178 0 376 -94 376 -347c0 -259 -196 -353 -386 -353h-179zM558 344c0 177 -108 270 -292 270h-75v-214h120v-79h-120v-235h33c200 0 334 63 334 258z" />
    <glyph glyph-name="dcroat" unicode="&#x111;" horiz-adv-x="626" 
d="M292 -12c-144 0 -250 116 -250 262c0 133 99 262 252 262c58 0 117 -26 157 -67v143h-164v72h164v90h91v-90h70v-72h-70v-588h-91v67c-36 -53 -99 -79 -159 -79zM304 72c54 0 121 33 147 94v186c-35 49 -94 76 -145 76c-116 0 -171 -93 -171 -180c0 -92 65 -176 169 -176
z" />
    <glyph glyph-name="Emacron" unicode="&#x112;" horiz-adv-x="580" 
d="M515 0h-420v700h420v-86h-324v-210h324v-86h-324v-232h324v-86zM478 774h-330v71h330v-71z" />
    <glyph glyph-name="emacron" unicode="&#x113;" horiz-adv-x="560" 
d="M514 227h-381c6 -86 65 -161 161 -161c66 0 119 24 149 81l66 -42c-50 -80 -118 -117 -219 -117c-159 0 -248 116 -248 262c0 149 109 262 248 262c132 0 228 -99 228 -233c0 -17 -2 -39$-4 -52zM291 434c-81 0 -133 -59 -151 -134h284c-4 71 -58 134 -133 134zM438 608
h-296v70h296v-70z" />
    <glyph glyph-name="Ebreve" unicode="&#x114;" horiz-adv-x="580" 
d="M515 0h-420v700h420v-86h-324v-210h324v-86h-324v-232h324v-86zM407 894h64v-6c0 -80 -63 -132 -143 -132c-87 0 -143 52 -143 132v6h67v-6c0 -44 32 -68 76 -68c42 0 79 23 79 68v6z" />
    <glyph glyph-name="ebreve" unicode="&#x115;" horiz-adv-x="560" 
d="M514 227h-381c6 -86 65 -161 161 -161c66 0 119 24 149 81l66 -42c-50 -80 -118 -117 -219 -117c-159 0 -248 116 -248 262c0 149 109 262 248 262c132 0 228 -99 228 -233c0 -17 -2 -39 -4 -52zM291 434c-81 0 -133 -59 -151 -134h284c-4 71 -58 134 -133 134zM369 725
h64v-14c0 -80 -63 -143 -143 -143s-143 63 -143 143v14h66v-14c0 -44 33 -79 77 -79c42 0 79 34 79 79v14z" />
    <glyph glyph-name="Edotaccent" unicode="&#x116;" horiz-adv-x="580" 
d="M515 0h-420v700h420v-86h-324v-210h324v-86h-324v-232h324v-86zM366 764h-102v111h102v-111z" />
    <glyph glyph-name="edotaccent" unicode="&#x117;" horiz-adv-x="560" 
d="M514 227h-381c6 -86 65 -161 161 -161c66 0 119 24 149 81l66 -42c-50 -80 -118 -117 -219 -117c-159 0 -248 116 -248 262c0 149 109 262 248 262c132 0 228 -99 228 -233c0 -17 -2 -39 -4 -52zM291 434c-81 0 -133 -59 -151 -134h284c-4 71 -58 134 -133 134zM330 598
h-91v102h91v-102z" />
    <glyph glyph-name="Eogonek" unicode="&#x118;" horiz-adv-x="580" 
d="M515 86v-86c-89 -12 -120 -76 -120 -110c0 -27 15 -44 42 -44c15 0 30 5 44 14l32 -51c-22 -20 -56 -31 -89 -31c-56 0 -111 34 -111 99c0 51 31 96 84 123h-302v700h420v-86h-324v-210h324v-86h-324v-232h324z" />
    <glyph glyph-name="eogonek" unicode="&#x119;" horiz-adv-x="560" 
d="M291 434c-81 0 -133 -59 -151 -134h284c-4 71 -58 134 -133 134zM514 227h-381c6 -86 65 -161 161 -161c66 0 119 24 149 81l66 -42c-33 -54 -75 -88 -129 -105c-75 -24 -103 -70 -103 -110c0 -27 15 -44 42 -44c15 0 30 5 44 14l32 -51c-22 -20 -56 -31 -89 -31
c-56 0 -111 34 -111 99c0 47 28 87 70 114c-141 13 -223 122 -223 259c0 149 109 262 248 262c132 0 228 -99 228 -233c0 -17 -2 -39 -4 -52z" />
    <glyph glyph-name="Ecaron" unicode="&#x11a;" horiz-adv-x="580" 
d="M515 0h-420v700h420v-86h-324v-210h324v-86h-324v-232h324v-86zM356 752h-95l-107 134l55 42l102 -116l101 116l54 -42z" />
    <glyph glyph-name="ecaron" unicode="&#x11b;" horiz-adv-x="560" 
d="M514 227h-381c6 -86 65 -161 161 -161c66 0 119 24 149 81l66 -42c-50 -80 -118 -117 -219 -117c-159 0 -248 116 -248 262c0 149 109 262 248 262c132 0 228 -99 228 -233c0 -17 -2 -39 -4 -52zM291 434c-81 0 -133 -59 -151 -134h284c-4 71 -58 134 -133 134zM143 726
l54 36l93 -129l93 129l54 -36l-104 -157h-88z" />
    <glyph glyph-name="Gcircumflex" unicode="&#x11c;" horiz-adv-x="803" 
d="M627 302h-178v86h274v-266c-67 -85 -172 -134 -287 -134c-214 0 -376 145 -376 362c0 207 169 362 376 362c108 0 204 -48 271 -124l-68 -56c-49 55 -123 94 -203 94c-158 0 -274 -116 -274 -276c0 -170 114 -276 274 -276c74 0 142 26 191 73v155zM387 922h95l107 -134
l-54 -42l-102 116l-101 -116l-55 42z" />
    <glyph glyph-name="gcircumflex" unicode="&#x11d;" horiz-adv-x="620" 
d="M542 500v-472c0 -52 -8 -96 -26 -131c-45 -87 -132 -119 -226 -119c-77 0 -161 22 -221 66l35 78c46 -33 121 -60 184 -60c86 0 163 41 163 148v69c-36 -53 -100 -79 -160 -79c-142 0 -249 112 -249 256c0 131 99 256 252 256c58 0 117 -26 157 -67v55h91zM451 177v175
c-35 49 -94 76 -145 76c-116 0 -171 -89 -171 -174c0 -90 66 -170 168 -170c54 0 122 33 148 93zM439 602l-53 -36l-93 129l-93 -129l-55 36l104 157h88z" />
    <glyph glyph-name="Gbreve" unicode="&#x11e;" horiz-adv-x="803" 
d="M627 302h-178v86h274v-266c-67 -85 -172 -134 -287 -134c-214 0 -376 145 -376 362c0 207 169 362 376 362c108 0 204 -48 271 -124l-68 -56c-49 55 -123 94 -203 94c-158 0 -274 -116 -274 -276c0 -170 114 -276 274 -276c74 0 142 26 191 73v155zM514 894h64v-6
c0 -80 -63 -132 -143 -132c-87 0 -143 52 -143 132v6h67v-6c0 -44 32 -68 76 -68c42 0 79 23 79 68v6z" />
    <glyph glyph-name="gbreve" unicode="&#x11f;" horiz-adv-x="620" 
d="M542 500v-472c0 -52 -8 -96 -26 -131c-45 -87 -132 -119 -226 -119c-77 0 -161 22 -221 66l35 78c46 -33 121 -60 184 -60c86 0 163 41 163 148v69c-36 -53 -100 -79 -160 -79c-142 0 -249 112 -249 256c0 131 99 256 252 256c58 0 117 -26 157 -67v55h91zM451 177v175
c-35 49 -94 76 -145 76c-116 0 -171 -89 -171 -174c0 -90 66 -170 168 -170c54 0 122 33 148 93zM382 725h64v-14c0 -80 -63 -143 -143 -143s-143 63 -143 143v14h66v-14c0 -44 33 -79 77 -79c42 0 79 34 79 79v14z" />
    <glyph glyph-name="Gdotaccent" unicode="&#x120;" horiz-adv-x="803" 
d="M627 302h-178v86h274v-266c-67 -85 -172 -134 -287 -134c-214 0 -376 145 -376 362c0 207 169 362 376 362c108 0 204 -48 271 -124l-68 -56c-49 55 -123 94 -203 94c-158 0 -274 -116 -274 -276c0 -170 114 -276 274 -276c74 0 142 26 191 73v155zM472 764h-102v111h102
v-111z" />
    <glyph glyph-name="gdotaccent" unicode="&#x121;" horiz-adv-x="620" 
d="M542 500v-472c0 -52 -8 -96 -26 -131c-45 -87 -132 -119 -226 -119c-77 0 -161 22 -221 66l35 78c46 -33 121 -60 184 -60c86 0 163 41 163 148v69c-36 -53 -100 -79 -160 -79c-142 0 -249 112 -249 256c0 131 99 256 252 256c58 0 117 -26 157 -67v55h91zM451 177v175
c-35 49 -94 76 -145 76c-116 0 -171 -89 -171 -174c0 -90 66 -170 168 -170c54 0 122 33 148 93zM338 598h-91v102h91v-102z" />
    <glyph glyph-name="Gcommaaccent" unicode="&#x122;" horiz-adv-x="803" 
d="M627 302h-178v86h274v-266c-67 -85 -172 -134 -287 -134c-214 0 -376 145 -376 362c0 207 169 362 376 362c108 0 204 -48 271 -124l-68 -56c-49 55 -123 94 -203 94c-158 0 -274 -116 -274 -276c0 -170 114 -276 274 -276c74 0 142 26 191 73v155zM407 -231h-75l36 175
h85z" />
    <glyph glyph-name="gcommaaccent" unicode="&#x123;" horiz-adv-x="620" 
d="M305 746h79l-37 -179h-89zM542 500v-472c0 -52 -8 -96 -26 -131c-45 -87 -132 -119 -226 -119c-77 0 -161 22 -221 66l35 78c46 -33 121 -60 184 -60c86 0 163 41 163 148v69c-36 -53 -100 -79 -160 -79c-142 0 -249 112 -249 256c0 131 99 256 252 256
c58 0 117 -26 157 -67v55h91zM451 177v175c-35 49 -94 76 -145 76c-116 0 -171 -89 -171 -174c0 -90 66 -170 168 -170c54 0 122 33 148 93z" />
    <glyph glyph-name="Hcircumflex" unicode="&#x124;" horiz-adv-x="752" 
d="M657 0h-96v318h-370v-318h-96v700h96v-296h370v296h96v-700zM330 922h95l107 -134l-54 -42l-102 116l-101 -116l-55 42z" />
    <glyph glyph-name="hcircumflex" unicode="&#x125;" horiz-adv-x="606" 
d="M175 750v-332c37 59 96 94 163 94c70 0 116 -24 145 -63c34 -46 45 -113 45 -189v-260h-91v250c0 49 -2 102 -26 138c-16 24 -43 40 -87 40c-58 0 -113 -40 -149 -96v-332h-91v750h91zM82 922h95l107 -134l-54 -42l-102 116l-101 -116l-55 42z" />
    <glyph glyph-name="Hbar" unicode="&#x126;" horiz-adv-x="752" 
d="M657 0h-96v318h-370v-318h-96v516h-90v75h90v109h96v-109h370v109h96v-109h90v-75h-90v-516zM191 404h370v112h-370v-112z" />
    <glyph glyph-name="hbar" unicode="&#x127;" horiz-adv-x="606" 
d="M175 750v-90h164v-72h-164v-170c37 59 96 94 163 94c70 0 116 -24 145 -63c34 -46 45 -113 45 -189v-260h-91v250c0 49 -2 102 -26 138c-16 24 -43 40 -87 40c-58 0 -113 -40 -149 -96v-332h-91v588h-70v72h70v90h91z" />
    <glyph glyph-name="Itilde" unicode="&#x128;" horiz-adv-x="286" 
d="M191 0h-96v700h96v-700zM249 866l65 7c1 -6 2 -17 2 -27c0 -58 -41 -95 -98 -95c-70 0 -103 64 -148 64c-18 0 -32 -11 -33 -30c0 -4 0 -7 1 -10l-65 -7c-1 6 -2 17 -2 27c0 58 41 95 98 95c68 0 104 -64 148 -64c18 0 32 11 33 30c0 3 0 7 -1 10z" />
    <glyph glyph-name="itilde" unicode="&#x129;" horiz-adv-x="259" 
d="M175 0h-91v500h91v-500zM300 700c1 -6 2 -13 2 -23c0 -58 -41 -95 -98 -95c-72 0 -104 64 -148 64c-18 0 -32 -11 -33 -30c0 -4 0 -7 1 -10l-65 -7c-1 6 -2 13 -2 23c0 58 41 95 98 95c69 0 104 -64 148 -64c18 0 32 11 33 30c0 3 0 7 -1 10z" />
    <glyph glyph-name="Imacron" unicode="&#x12a;" horiz-adv-x="286" 
d="M191 0h-96v700h96v-700zM308 774h-330v71h330v-71z" />
    <glyph glyph-name="imacron" unicode="&#x12b;" horiz-adv-x="259" 
d="M175 0h-91v500h91v-500zM278 608h-296v70h296v-70z" />
    <glyph glyph-name="Ibreve" unicode="&#x12c;" horiz-adv-x="286" 
d="M191 0h-96v700h96v-700zM222 894h64v-6c0 -80 -63 -132 -143 -132c-87 0 -143 52 -143 132v6h67v-6c0 -44 32 -68 76 -68c42 0 79 23 79 68v6z" />
    <glyph glyph-name="ibreve" unicode="&#x12d;" horiz-adv-x="259" 
d="M175 0h-91v500h91v-500zM209 725h64v-14c0 -80 -63 -143 -143 -143s-143 63 -143 143v14h66v-14c0 -44 33 -79 77 -79c42 0 79 34 79 79v14z" />
    <glyph glyph-name="Iogonek" unicode="&#x12e;" horiz-adv-x="286" 
d="M191 700v-700c-78 -22 -98 -75 -98 -110c0 -27 15 -44 42 -44c15 0 30 5 44 14l32 -51c-22 -20 -56 -31 -89 -31c-56 0 -111 34 -111 99c0 52 30 99 84 125v698h96z" />
    <glyph glyph-name="iogonek" unicode="&#x12f;" horiz-adv-x="259" 
d="M175 598h-91v102h91v-102zM175 500v-500c-73 -22 -93 -71 -93 -110c0 -27 15 -44 42 -44c15 0 30 5 44 14l32 -51c-22 -20 -56 -31 -89 -31c-56 0 -111 34 -111 99c0 57 30 99 84 125v498h91z" />
    <glyph glyph-name="Idotaccent" unicode="&#x130;" horiz-adv-x="286" 
d="M194 764h-102v111h102v-111zM191 0h-96v700h96v-700z" />
    <glyph glyph-name="idotaccent" horiz-adv-x="259" 
d="M175 0h-91v500h91v-500zM175 598h-91v102h91v-102z" />
    <glyph glyph-name="dotlessi" unicode="&#x131;" horiz-adv-x="259" 
d="M175 0h-91v500h91v-500z" />
    <glyph glyph-name="IJ" unicode="&#x132;" horiz-adv-x="642" 
d="M191 0h-96v700h96v-700zM552 700v-523c0 -56 -10 -101 -32 -133c-26 -37 -69 -56 -134 -56c-34 0 -72 10 -101 22l26 78c19 -9 38 -14 61 -14c33 0 55 7 67 24c14 18 17 48 17 92v510h96z" />
    <glyph glyph-name="ij" unicode="&#x133;" horiz-adv-x="526" 
d="M175 0h-=1v500h91v-500zM175 598h-91v102h=1v-102zM442 598h-91v102h91v-102zM442 500v-544c0 -36 -3 -67 -14 -95c-19 -49 -61 -83 -133 -83c-36 0 -69 7 -96 22l26 74c15 -8 35 -14 56 -14c65 0 70 50 70 114v526h91z" />
    <glyph glyph-name="Jcircumflex" unicode="&#x134;" horiz-adv-x="336" 
d="M251 700v-523c0 -56 -10 -101 -32 -133c-26 -37 -69 -56 -134 -56c-34 0 -72 10 -101 22l26 78c19 -9 38 -14 61 -14c33 0 55 7 67 24c14 18 17 48 17 92v510h96zM157 922h95l107 -134l-54 -42l-102 116l-101 -116l-55 42z" />
    <glyph glyph-name="jcircumflex" unicode="&#x135;" horiz-adv-x="267" 
d="M183 500v-544c0 -36 -3 -67 -14 -95c-19 -49 -61 -83 -133 -83c-36 0 -69 7 -96 22l26 74c15 -8 35 -14 56 -14c65 0 70 50 70 114v526h91zM284 602l-53 -36l-93 129l-93 -129l-55 36l104 157h88z" />
    <glyph glyph-name="Kcommaaccent" unicode="&#x136;" horiz-adv-x="621" 
d="M602 700l-233 -276l247 -424h-112l-200 346l-113 -135v-211h-96v700h96v-357l294 357h117zM327 -231h-75l36 175h85z" />
    <glyph glyph-name="kcommaaccent" unicode="&#x137;" horiz-adv-x="514" 
d="M508 0h-111l-143 224l-79 -92v-132h-91v750h91v-500l2 -1l202 251h112l-175 -204zM268 -231h-75l36 175h85z" />
    <glyph glyph-name="kgreenlandic" unicode="&#x138;" horiz-adv-x="514" 
d="M84 500h91v-250l2 -1l202 251h112l-175 -204l192 -296h-111l-143 224l-79 -92v-132h-91v500z" />
    <glyph glyph-name="Lacute" unicode="&#x139;" horiz-adv-x="500" 
d="M495 0h-400v700h96v-614h304v-86zM300 866l-175 -126l-42 54l165 138z" />
    <glyph glyph-name="lacute" unicode="&#x13a;" horiz-adv-x="259" 
d="M175 750v-750h-91v750h91zM284 910l-175 -126l-42 54l165 138z" />
    <glyph glyph-name="Lcommaaccent" unicode="&#x13b;" horiz-adv-x="500" 
d="M495 0h-400v700h96v-614h304v-86zM305 -231h-75l36 175h85z" />
    <glyph glyph-name="lcommaaccent" unicode="&#x13c;" horiz-adv-x="259" 
d="M175 750v-750h-91v750h91zM124 -231h-75l36 175h85z" />
    <glyph glyph-name="Lcaron" unicode="&#x13d;" horiz-adv-x="500" 
d="M495 0h-400v700h96v-614h304v-86zM332 500h-76l40 200h89z" />
    <glyph glyph-name="lcaron" unicode="&#x13e;" horiz-adv-x="259" 
d="M175 750v-750h-91v750h91zM281 550h-76l40 200h89z" />
    <glyph glyph-name="Ldot" unicode="&#x13f;" horiz-adv-x="500" 
d="M495 0h-400v700h96v-614h304v-86zM447 314h-102v111h102v-111z" />
    <glyph glyph-name="ldot" unicode="&#x140;" horiz-adv-x="319" 
d="M175 750v-750h-91v750h91zM312 314h-102v111h102v-111z" />
    <glyph glyph-name="Lslash" unicode="&#x141;" horiz-adv-x="500" 
d="M495 0h-400v281l-90 -58v89l90 58v330h96v-287l149 97v-89l-149 -97v-238h304v-86z" />
    <glyph glyph-name="lslash" unicode="&#x142;" horiz-adv-x="259" 
d="M175 750v-303l70 46v-88l-70 -46v-359h-91v321l-66 -43v86l66 43v343h91z" />
    <glyph glyph-name="Nacute" unicode="&#x143;" horiz-adv-x="755" 
d="M660 0h-85l-384 522v-522h-96v700h84l385 -522v522h96v-700zM541 866l-175 -126l-42 54l165 138z" />
    <glyph glyph-name="nacute" unicode="&#x144;" horiz-adv-x="606" 
d="M84 500h91v-82c37 59 96 94 163 94c70 0 116 -24 145 -63c34 -46 45 -113 45 -189v-260h-91v250c0 49 -2 102 -26 138c-16 24 -43 40 -87 40c-58 0 -113 -40 -149 -96v-332h-91v500zM452 726l-134 -160l-55 42l123 169z" />
    <glyph glyph-name="Ncommaaccent" unicode="&#x145;" horiz-adv-x="755" 
d="M660 0h-85l-384 522v-522h-96v700h84l385 -522v522h96v-700zM387 -231h-75l36 175h85z" />
    <glyph glyph-name="ncommaaccent" unicode="&#x146;" horiz-adv-x="606" 
d="M84 500h91v-82c37 59 96 94 163 94c70 0 116 -24 145 -63c34 -46 45 -113 45 -189v-260h-91v250c0 49 -2 102 -26 138c-16 24 -43 40 -87 40c-58 0 -113 -40 -149 -96v-332h-91v500zM303 -231h-75l36 175h85z" />
    <glyph glyph-name="Ncaron" unicode="&#x147;" horiz-adv-x="755" 
d="M660 0h-85l-384 522v-522h-96v700h84l385 -522v522h96v-700zM431 752h-95l-107 134l55 42l102 -116l101 116l54 -42z" />
    <glyph glyph-name="ncaron" unicode="&#x148;" horiz-adv-x="606" 
d="M84 500h91v-82c37 59 96 94 163 94c70 0 116 -24 145 -63c34 -46 45 -113 45 -189v-260h-91v250c0 49 -2 102 -26 138c-16 24 -43 40 -87 40c-58 0 -113 -40 -149 -96v-332h-91v500zM177 726l54 36l93 -129l93 129l54 -36l-104 -157h-88z" />
    <glyph glyph-name="napostrophe" unicode="&#x149;" horiz-adv-x="632" 
d="M71 500h-87l51 250h102zM110 500h91v-82c37 59 96 94 163 94c70 0 116 -24 145 -63c34 -46 45 -113 45 -189v-260h-91v250c0 49 -2 102 -26 138c-16 24 -43 40 -87 40c-58 0 -113 -40 -149 -96v-332h-91v500z" />
    <glyph glyph-name="Eng" unicode="&#x14a;" horiz-adv-x="755" 
d="M660 700v-733c0 -56 -10 -101 -32 -133c-26 -37 -69 -56 -134 -56c-34 0 -72 10 -101 22l26 78c19 -9 38 -14 61 -14c33 0 55 7 67 24c14 18 17 48 17 92v35l-373 507v-522h-96v700h84l385 -522v522h96z" />
    <glyph glyph-name="eng" unicode="&#x14b;" horiz-adv-x="606" 
d="M528 260v-304c0 -36 -3 -67 -14 -95c-19 -49 -61 -83 -133 -83c-36 0 -69 7 -96 22l26 74c15 -8 35 -14 56 -14c65 0 70 50 70 114v276c0 49 -2 102 -26 138c-16 24 -43 40 -87 40c-58 0 -113 -40 -149 -96v-332h-91v500h91v-82c37 59 96 94 163 94c70 0 116 -24 145 -63
c34 -46 45 -113 45 -189z" />
    <glyph glyph-name="Omacron" unicode="&#x14c;" horiz-adv-x="840" 
d="M678 350c0 155 -109 276 -258 276s-258 -121 -258 -276s109 -276 258 -276s258 121 258 276zM780 350c0 -200 -156 -362 -360 -362s-360 162 -360 362s156 362 360 362s360 -162 360 -362zM585 774h-330v71h330v-71z" />
    <glyph glyph-name="omacron" unicode="&#x14d;" horiz-adv-x="594" 
d="M297 512c146 0 255 -116 255 -262s-109 -262 -255 -262s-255 116 -255 262s109 262 255 262zM459 250c0 97 -68 178 -162 178s-162 -81 -162 -178s68 -178 162 -178s162 81 162 178zM445 608h-296v70h296v-70z" />
    <glyph glyph-name="Obreve" unicode="&#x14e;" horiz-adv-x="840" 
d="M678 350c0 155 -109 276 -258 276s-258 -121 -258 -276s109 -276 258 -276s258 121 258 276zM780 350c0 -200 -156 -362 -360 -362s-360 162 -360 362s156 362 360 362s360 -162 360 -362zM499 894h64v-6c0 -80 -63 -132 -143 -132c-87 0 -143 52 -143 132v6h67v-6
c0 -44 32 -68 76 -68c42 0 79 23 79 68v6z" />
    <glyph glyph-name="obreve" unicode="&#x14f;" horiz-adv-x="594" 
d="M297 512c146 0 255 -116 255 -262s-109 -262 -255 -262s-255 116 -255 262s109 262 255 262zM459 250c0 97 -68 178 -162 178s-162 -81 -162 -178s68 -178 162 -178s162 81 162 178zM386 725h64v-14c0 -80 -63 -143 -143 -143s-143 63 -143 143v14h66v-14
c0 -44 33 -79 77 -79c42 0 79 34 79 79v14z" />
    <glyph glyph-name="Ohungarumlaut" unicode="&#x150;" horiz-adv-x="840" 
d="M678 350c0 155 -109 276 -258 276s-258 -121 -258 -276s109 -276 258 -276s258 121 258 276zM780 350c0 -200 -156 -362 -360 -362s-360 162 -360 362s156 362 360 362s360 -162 360 -362zM468 866l-175 -126l-42 54l165 138zM678 861l-168 -121l-42 54l158 133z" />
    <glyph glyph-name="ohungarumlaut" unicode="&#x151;" horiz-adv-x="594" 
d="M297 512c146 0 255 -116 255 -262s-109 -262 -255 -262s-255 116 -255 262s109 262 255 262zM459 250c0 97 -68 178 -162 178s-162 -81 -162 -178s68 -178 162 -178s162 81 162 178zM523 726l-135 -161l-56 43l125 169zM370 741l-140 -166l-55 40l128 178z" />
    <glyph glyph-name="OE" unicode="&#x152;" horiz-adv-x="1063" 
d="M998 0h-420v33c-48 -29 -103 -45 -158 -45c-204 0 -360 162 -360 362s156 362 360 362c60 0 112 -17 158 -45v33h420v-86h-324v-210h324v-86h-324v-232h324v-86zM420 74c60 0 115 20 158 54v444c-43 34 -97 54 -158 54c-149 0 -258 -121 -258 -276s109 -276 258 -276z
" />
    <glyph glyph-name="oe" unicode="&#x153;" horiz-adv-x="973" 
d="M927 227h-381c6 -86 65 -161 161 -161c66 0 119 24$149 81l66 -42c-50 -80 -118 -117 -219 -117c-97 0 -163 43 -203 10<c-44 -65 -115 -108 -203 -108c-146 0 -255 117 -255 262c0 146 109 263 255 263c89 0 162 -44 206 -112c43 68 114 112 200 112
c132 0 228 -99 228 -233c0 -17 -2 -40 -4 -53zM459 251c0 96 -68 178 -161 178c-95 0 -163 -82 -163 -178c0 -97 68 -179 163 -179c93 0 161 82 161 179zM704 435c-81 0 -133 -59 -151 -134h284c-4 71 -58 134 -133 134z" />
    <glyph glyph-name="Racute" unicode="&#x154;" horiz-adv-x="613" 
d="M593 0h-120l-210 296h-72v-296h-96v700h208c107 0 239 -56 239 -201c0 -119 -85 -179 -171 -197zM440 496c0 71 -57 118 -142 118h-107v-232h87c93 0 162 34 162 114zM438 866l-175 -126l-42 54l165 138z" />
    <glyph glyph-name="racute" unicode="&#x155;" horiz-adv-x="357" 
d="M175 500v-83c30 54 75 95 129 95c21 0 35 -2 54 -6l-17 -97c-15 7 -28 10 -47 10c-51 0 -88 -30 -119 -84v-335h-91v500h91zM344 726l-134 -160l-55 42l123 169z" />
    <glyph glyph-name="Rcommaaccent" unicode="&#x156;" horiz-adv-x="613" 
d="M593 0h-120l-210 296h-72v-296h-96v700h208c107 0 239 -56 239 -201c0 -119 -85 -179 -171 -197zM440 496c0 71 -57 118 -142 118h-107v-232h87c93 0 162 34 162 114zM321 -231h-75l36 175h85z" />
    <glyph glyph-name="rcommaaccent" unicode="&#x157;" horiz-adv-x="357" 
d="M175 500v-83c30 54 75 95 129 95c21 0 35 -2 54 -6l-17 -97c-15 7 -28 10 -47 10c-51 0 -88 -30 -119 -84v-335h-91v500h91zM124 -231h-75l36 175h85z" />
    <glyph glyph-name="Rcaron" unicode="&#x158;" horiz-adv-x="613" 
d="M593 0h-120l-210 296h-72v-296h-96v700h208c107 0 239 -56 239 -201c0 -119 -85 -179 -171 -197zM440 496c0 71 -57 118 -142 118h-107v-232h87c93 0 162 34 162 114zM336 752h-95l-107 134l55 42l102 -116l101 116l54 -42z" />
    <glyph glyph-name="rcaron" unicode="&#x159;" horiz-adv-x="357" 
d="M175 500v-83c30 54 75 95 129 95c21 0 35 -2 54 -6l-17 -97c-15 7 -28 10 -47 10c-51 0 -88 -30 -119 -84v-335h-91v500h91zM70 726l54 36l93 -129l93 129l54 -36l-104 -157h-88z" />
    <glyph glyph-name="Sacute" unicode="&#x15a;" horiz-adv-x="609" 
d="M458 570c-33 31 -92 56 -147 56c-74 0 -125 -35 -125 -97c0 -61 69 -84 146 -111c99 -35 212 -81 212 -212c0 -157 -139 -218 -246 -218c-102 0 -179 32 -253 105l68 64c66 -65 116 -83 186 -83c72 0 143 35 143 121c0 77 -75 104 -156 132c-95 33 -197 80 -197 192
c0 132 97 193$211 193c84 0 154 -24 217 -72zM466 866l-175 -126l-42 54l165 138z" />
    <glyph glyph-name="sacute" unicode="&#x15b;" horiz-adv-x="451" 
d="M382 457l-54 -58c-23 20 -65 37 -99 37c-46 0 -75 -27 -75 -66c0 -38 48 -57 96 -76c65 -25 146 -62 146 -149c0 -112 -87 -157 -181 -157c-68 0 -133 27 -172 78l64 51c33 -35 69 -53 109 -53c49 0 90 25 90 77c0 39 -46 57 -96 77c-66 26 -143 55 -143 145
c0 101 78 149 161 149c57 0 114 -19 154 -55zM384 726l-134 -160l-55 42l123 169z" />
    <glyph glyph-name="Scircumflex" unicode="&#x15c;" horiz-adv-x="609" 
d="M458 570c-33 31 -92 56 -147 56c-74 0 -125 -35 -125 -97c0 -61 69 -84 146 -111c99 -35 212 -81 212 -212c0 -157 -139 -218 -246 -218c-102 0 -179 32 -253 105l68 64c66 -65 116 -83 186 -83c72 0 143 35 143 121c0 77 -75 104 -156 132c-95 33 -197 80 -197 192
c0 132 97 193 211 193c84 0 154 -24 217 -72zM265 922h95l107 -134l-54 -42l-102 116l-101 -116l-55 42z" />
    <glyph glyph-name="scircumflex" unicode="&#x15d;" horiz-adv-x="451" 
d="M382 457l-54 -58c-23 20 -65 37 -99 37c-46 0 -75 -27 -75 -66c0 -38 48 -57 96 -76c65 -25 146 -62 146 -149c0 -112 -87 -157 -181 -157c-68 0 -133 27 -172 78l64 51c33 -35 69 -53 109 -53c49 0 90 25 90 77c0 39 -46 57 -96 77c-66 26 -143 55 -143 145
c0 101 78 149 161 149c57 0 114 -19 154 -55zM381 602l-53 -36l-93 129l-93 -129l-55 36l104 157h88z" />
    <glyph glyph-name="Scedilla" unicode="&#x15e;" horiz-adv-x="609" 
d="M458 570c-33 31 -92 56 -147 56c-74 0 -125 -35 -125 -97c0 -61 69 -84 146 -111c99 -35 212 -81 212 -212c0 -152 -134 -214 -235 -218l-23 -53l2 -1c9 < 25 16 48 16c53 0 87 -42 87 -93c0 -53 -47 -102 -109 -102c-45 0 -81 20 -103 59l57 28c9 -25 28 -32 46 -32
c26 0 43 21 43 44c0 24 -15 47 -43 47c-16 0 -31 -6 -41 -24l-62 33l38 81c-79 9 -143 41 -204 102l68 64c66 -65 116 -83 186 -83c72 0 143 35 143 121c0 77 -75 104 -156 132c-95 33 -197 80 -197 192c0 132 97 193 211 193c84 0 154 -24 217 -72z" />
    <glyph glyph-name="scedilla" unicode="&#x15f;" horiz-adv-x="451" 
d="M382 457l-54 -58c-23 20 -65 37 -99 37c-46 0 -75 -27 -75 -66c0 -38 48 -57 96 -76c65 -25 146 -62 146 -149c0 -106 -78 -151 -165 -156l-20 -54l1 -1c15 11 32 16 48 16c45 0 87 -39 87 -93c0 -53 -47 -102 -109 -102c-45 0 -81 20 -103 59l57 28c9 -25 28 -32 46 -32
c26 0 43 21 43 44c0 26 -18 47 -45 47c-16 0 -32 -8 -39 -24l-61 32l34 83c-51 9 -97 34 -127 74l64 51c33 -35 69 -53 109 -53c49 0 90 25 90 77c0 39 -46 57 -96 77c-66 26 -143 55 -143 145c0 101 78 149 161 149c57 0 114 -19 154 -55z" />
    <glyph glyph-name="Scaron" unicode="&#x160;" horiz-adv-x="609" 
d="M458 570c-33 31 -92 56 -147 56c-74 0 -125 -35 -125 -97c0 -61 69 -84 146 -111c99 -35 212 -81 212 -212c0 -157 -139 -218 -246 -218c-102 0 -179 32 -253 105l68 64c66 -65 116 -83 186 -83c72 0 143 35 143 121c0 77 -75 104 -156 132c-95 33 -197 84 -197 192
c0 132 97 193 211 193c84 0 154 -24 217 -72zM357 752h-95l-107 134l55 42l102 -116l101 116l54 -42z" />
    <glyph glyph-name="scaron" unicode="&#x161;" horiz-adv-x="451" 
d="M382 457l-54 -58c-23 20 -65 37 -99 37c-46 0 -75 -27 -75 -66c0 -38 48 -57 96 -76c65 -25 146 -62 146 -149c0 -112 -87 -157 -181 -157c-68 0 -133 27 -172 78l64 51c33 -35 69 -53 109 -53c49 0 90 25 90 77c0 39 -46 57 -96 77c-66 26 -143 55 -143 145
c0 101 78 149 161 149c57 0 114 -19 154 -55zM89 726l54 36l93 -129l93 129l54 -36l-104 -157h-88z" />
    <glyph glyph-name="Scommaaccent" unicode="&#x218;" horiz-adv-x="609" 
d="M458 570c-33 31 -92 56 -147 56c-74 0 -125 -35 -125 -97c0 -61 69 -84 146 -111c99 -35 212 -81 212 -212c0 -157 -139 -218 -246 -218c-102 0 -179 32 -253 105l68 64c66 -65 116 -83 186 -83c72 0 143 35 143 121c0 77 -75 104 -156 132c-95 33 -197 80 -197 192
c0 132 97 193 211 193c84 0 154 -24 217 -72zM262 -231h-75l36 175h85z" />
    <glyph glyph-name="scommaaccent" unicode="&#x219;" horiz-adv-x="451" 
d="M382 457l-54 -58c-23 20 -65 37 -99 37c-46 0 -75 -27 -75 -66c0 -38 48 -57 96 -76c65 -25 146 -62 146 -149c0 -112 -87 -157 -181 -157c-68 0 -133 27 -172 78l64 51c33 -35 69 -53 109 -53c49 0 90 25 90 77c0 39 -46 57 -96 77c-66 26 -143 55 -143 145
c0 101 78 149 161 149c57 0 114 -19 154 -55zM197 -231h-75l36 175h85z" />
    <glyph glyph-name="uni0162" unicode="&#x162;" horiz-adv-x="488" 
d="M468 614h-176v-614h-19l-28 -65l2 -1c9 8 25 16 48 16c53 0 87 -42 87 -93c0 -53 -47 -102 -109 -102c-45 0 -81 20 -103 59l57 28c9 -25 28 -32 46 -32c26 0 43 21 43 44c0 24 -15 47 -43 47c-16 0 -31 -6 -41 -24l-62 33l42 90h-16v614h-176v86h448v-86z" />
    <glyph glyph-name="uni0163" unicode="&#x163;" horiz-adv-x="346" 
d="M320 420h-140v-226c0 -13 0 -24 1 -39c3 -53 20 -84 70 -84c20 0 40 6 56 14l25 -73c-25 -13 -60 -22 -93 -22c-9 0 -18 0 -27 2l-21 -57l1 -1c15 11 32 16 48 16c45 0 87 -39 87 -93c0 -53 -47 -102 -109 -102c-45 0 -81 20 -103 59l57 28c9 -25 28 -32 46 -32
c26 0 43 21 43 44c0 26 -18 47 -45 47c-16 0 -32 -8 -39 -24l-61 32l42 100c-24 13 -42 34 -53 59c-12 28 -16 65 -16 104v248h-67v80h67v120h91v-120h140v-80z" />
    <glyph glyph-name="Tcaron" unicode="&#x164;" horiz-adv-x="488" 
d="M468 614h-176v-614h-96v614h-176v86h448v-86zM290 752h-95l-107 134l55 42l102 -116l101 116l54 -42z" />
    <glyph glyph-name="tcaron" unicode="&#x165;" horiz-adv-x="346" 
d="M320 420h-140v-226c0 -13 0 -24 1 -39c3 -53 20 -84 70 -84c20 0 40 6 56 14l25 -73c-25 -13 -60 -22 -93 -22c-70 0 -113 31 -134 78c-12 28 -16 65 -16 104v248h-67v80h67v120h91v-120h140v-80zM313 550h-76l40 200h89z" />
    <glyph glyph-name="Tbar" unicode="&#x166;" horiz-adv-x="488" 
d="M468 614h-176v-214h110v-79h-110v-321h-96v321h-110v79h110v214h-176v86h448v-86z" />
    <glyph glyph-name="tbar" unicode="&#x167;" horiz-adv-x="346" 
d="M320 228h-140v-34c0 -13 0 -24 1 -39c3 -53 20 -84 70 -84c20 0 40 6 56 14l25 -73c-25 -13 -60 -22 -93 -22c-70 0 -113 31 -134 78c-12 28 -16 65 -16 104v56h-67v72h67v120h-67v80h67v120h91v-120h140v-80h-140v-120h140v-72z" />
    <glyph glyph-name="uni021A" unicode="&#x21a;" horiz-adv-x="488" 
d="M468 614h-176v-614h-96v614h-176v86h448v-86zM236 -231h-75l36 175h85z" />
    <glyph glyph-name="uni021B" unicode="&#x21b;" horiz-adv-x="346" 
d="M320 420h-140v-226c0 -13 0 -24 1 -39c3 -53 20 -84 70 -84c20 0 40 6 56 14l25 -73c-25 -13 -60 -22 -93 -22c-70 0 -113 31 -134 78c-12 28 -16 65 -16 104v248h-67v80h67v120h91v-120h140v-80zM178 -231h-75l36 175h85z" />
    <glyph glyph-name="Utilde" unicode="&#x168;" horiz-adv-x="722" 
d="M632 700v-371c0 -220 -81 -341 -273 -341c-188 0 -269 121 -269 341v371h96v-396c0 -155 67 -230 175 -230s175 75 175 230v396h96zM466 866l65 7c1 -6 2 -17 2 -27c0 -58 -41 -95 -98 -95c-70 0 -103 64 -148 64c-18 0 -32 -11 -33 -30c0 -4 0 -7 1 -10l-65 -7
c-1 6 -2 17 -2 27c0 58 41 95 98 95c68 0 104 -64 148 -64c18 0 32 11 33 30c0 3 0 7 -1 10z" />
    <glyph glyph-name="utilde" unicode="&#x169;" horiz-adv-x="606" 
d="M431 0v82c-37 -59 -96 -94 -163 -94c-70 0 -116 24 -145 63c-34 46 -45 113 -45 189v260h91v-250c0 -49 2 -102 26 -138c16 -24 43 -40 87 -40c58 0 113 40 149 96v332h91v-500h-91zM482 700c1 -6 2 -13 2 -23c0 -58 -41 -95 -98 -95c-72 0 -104 64 -148 64
c-18 0 -32 -11 -33 -30c0 -4 0 -7 1 -10l-65 -7c-1 6 -2 13 -2 23c0 58 41 95 98 95c69 0 104$-64 148 -64c18 0 32 11 33 30c0 7 0 7 -1 10z" />
    <glyph glyph-name="Umacron" unicode="&#x16a;" horiz-adv-x="722" 
d="M632 700v-371c0 -220 -81 -341 -273 -341c-188 0 -269 121 -269 341v371h96v-396c0 -155 67 -230 175 -230s175 75 175 230v396h96zM526 774h-330v71h330v-71z" />
    <glyph glyph-name="umacron" unicode="&#x16b;" horiz-adv-x="606" 
d="M431 0v82c-37 -59 -96 -94 -163 -94c-70 0 -116 24 -145 63c-34 46 -45 113 -45 189v260h91v-250c0 -49 2 -102 26 -138c16 -24 43 -40 87 -40c58 0 113 40 149 96v332h91v-500h-91zM448 608h-296v70h296v-70z" />
    <glyph glyph-name="Ubreve" unicode="&#x16c;" horiz-adv-x="722" 
d="M632 700v-371c0 -220 -81 -341 -273 -341c-188 0 -269 121 -269 341v371h96v-396c0 -155 67 -230 175 -230s175 75 175 230v396h96zM441 894h64v-6c0 -80 -63 -132 -143 -132c-87 0 -143 52 -143 132v6h67v-6c0 -44 32 -68 76 -68c42 0 79 23 79 68v6z" />
    <glyph glyph-name="ubreve" unicode="&#x16d;" horiz-adv-x="606" 
d="M431 0v82c-37 -59 -96 -94 -163 -94c-70 0 -116 24 -145 63c-34 46 -45 113 -45 189v260h91v-250c0 -49 2 -102 26 -138c16 -24 43 -40 87 -40c58 0 113 40 149 96v332h91v-500h-91zM384 725h64v-14c0 -80 -63 -143 -143 -143s-143 63 -143 143v14h66v-14
c0 -44 33 -79 77 -79c42 0 79 34 79 79v14z" />
    <glyph glyph-name="Uring" unicode="&#x16e;" horiz-adv-x="722" 
d="M632 700v-371c0 -220 -81 -341 -273 -341c-188 0 -269 121 -269 341v371h96v-396c0 -155 67 -230 175 -230s175 75 175 230v396h96zM268 819c0 51 42 93 93 93s93 -42 93 -93s-42 -93 -93 -93s-93 42 -93 93zM317 819c0 -24 20 -44 44 -44s44 20 44 44s-20 44 -44 44
s-44 -20 -44 -44z" />
    <glyph glyph-name="uring" unicode="&#x16f;" horiz-adv-x="606" 
d="M431 0v82c-37 -59 -96 -94 -163 -94c-70 0 -116 24 -145 63c-34 46 -45 113 -45 189v260h91v-250c0 -49 2 -102 26 -138c16 -24 43 -40 87 -40c58 0 113 40 149 96v332h91v-500h-91zM211 653c0 51 42 93 93 93s93 -42 93 -93s-42 -93 -93 -93s-93 42 -93 93zM260 653
c0 -24 20 -44 44 -44s44 20 44 44s-20 44 -44 44s-44 -20 -44 -44z" />
    <glyph glyph-name="Uhungarumlaut" unicode="&#x170;" horiz-adv-x="722" 
d="M632 700v-371c0 -220 -81 -341 -273 -341c-188 0 -269 121 -269 341v371h96v-396c0 -155 67 -230 175 -230s175 75 175 230v796h96zM409 866l-175 -126l-42 54l165 138zM619 861l-168 -121l-42 54l158 133z" />
    <glyph glyph-name="uhungarumlaut" unicode="&#x171;" horiz-adv-x="606" 
d="M431 0v82c-37 -59 -96 -94 -163 -94c-70 0 -116 24 -145 63c-34 46 -45 113 -45 189v260h91v-250c0 -49 2 -102 26 -138c16 -24 43 -40 87 -40c58 0 113 40 149 96v332h91v-500h-91zM512 726l-135 -161l-56 43l125 169zM359 741l-140 -166l-55 40l128 178z" />
    <glyph glyph-name="Uogonek" unicode="&#x172;" horiz-adv-x="722" 
d="M632 700v-371c0 -180 -54 -294 -179 -329c-46 -13 -104 -55 -104 -110c0 -27 15 -44 42 -44c15 0 30 5 44 14l32 -51c-22 -20 -56 -31 -89 -31c-56 0 -111 34 -111 99c0 44 23 86 65 112c-169 11 -242 131 -242 340v371h96v-396c0 -155 67 -230 175 -230s175 75 175 230
v396h96z" />
    <glyph glyph-name="uogonek" unicode="&#x173;" horiz-adv-x="606" 
d="M337 -123c0 53 35 92 94 124v81c-37 -59 -96 -94 -163 -94c-70 0 -116 24 -145 63c-34 46 -45 113 -45 189v260h91v-250c0 -49 2 -102 26 -138c16 -24 43 -40 87 -40c58 0 113 40 149 96v332h91v-500c-73 -22 -103 -68 -103 -110c0 -27 15 -44 42 -44c15 0 30 5 44 14
l32 -51c-22 -20 -56 -31 -89 -31c-56 0 -111 34 -111 99z" />
    <glyph glyph-name="Wcircumflex" unicode="&#x174;" horiz-adv-x="886" 
d="M490 700l140 -528h2l147 528h102l-200 -700h-96l-140 533h-2l-152 -533h-94l-192 700h106l140 -528h2l147 528h90zM398 922h95l107 -134l-54 -42l-102 116l-101 -116l-55 42z" />
    <glyph glyph-name="wcircumflex" unicode="&#x175;" horiz-adv-x="733" 
d="M419 500l101 -385h3l102 385h92l-144 -500h-98l-107 389h-2l-110 -389h-102l-138 500h98l94 -385h2l111 385l98zM516 602l-53 -36l-93 129l-93 -129l-55 36l104 157h88z" />
    <glyph glyph-name="Wgrave" unicode="&#x1e80;" horiz-adv-x="886" 
d="M490 700l140 -528h2l147 528h102l-200 -700h-96l-140 533h-2l-152 -533h-94l-192 700h106l140 -528h2l147 528h90zM470 740l-175 126l52 66l165 -138z" />
    <glyph glyph-name="wgrave" unicode="&#x1e81;" horiz-adv-x="733" 
d="M419 500l101 -385h3l102 385h92l-144 -500h-98l-107 389h-2l-110 -389h-102l-138 500h98l94 -385h2l111 385h98zM364 566l-134 160l66 51l123 -169z" />
    <glyph glyph-name="Wacute" unicode="&#x1e82;" horiz-adv-x="886" 
d="M490 700l140 -528h2l147 528h102l-200 -700h-96l-140 533h-2l-152 -533h-94l-192 700h106l140 -528h2l147 528h90zM599 866l-175 -126l-42 54l165 138z" />
    <glyph glyph-name="wacute" unicode="&#x1e83;" horiz-adv-x="733" 
d="M419 500l101 -385h3l102 385h92l-144 -500h-98l-107 389h-2l-110 -389h-102l-138 500h98l94 -385h2l111 385h98zM507 726l-134 -160l-55 42l123 169z" />
    <glyph glyph-name="Wdieresis" unicode="&#x1e84;" horiz-adv-x="886" 
d="M490 700l140 -528h2l147 528h102l-200 -700h-96l-140 533h-2l-152 -533h-94l-192 700h106l140 -528h2l147 528h90zM361 764h-102v111h102v-111zM631 764h-102v111h102v-111z" />
    <glyph glyph-name="wdieresis" unicode="&#x1e85;" horiz-adv-x="733" 
d="M419 500l101 -385h3l102 385h92l-144 -500h-98l-107 389h-2l-110 -389h-102l-138 500h98l94 -385h2l111 385h98zM315 598h-93v102h93v-102zM518 598h-93v102h93v-102z" />
    <glyph glyph-name="Ygrave" unicode="&#x1ef2;" horiz-adv-x="555" 
d="M324 0h-96v304l-223 396h119l156 -294h3l155 294h112l-226 -401v-299zM330 740l-175 126l52 66l165 -138z" />
    <glyph glyph-name="ygrave" unicode="&#x1ef3;" horiz-adv-x="477" 
d="M6 500h101l130 -379h2l133 379h99l-281 -725l-80 31l79 209zM261 566l-134 160l66 51l123 -169z" />
    <glyph glyph-name="Ycircumflex" unicode="&#x176;" horiz-adv-x="555" 
d="M324 0h-96v304l-223 396h119l156 -294h3l155 294h112l-226 -401v-299zM232 922h95l107 -134l-54 -42l-102 116l-101 -116l-55 42z" />
    <glyph glyph-name="ycircumflex" unicode="&#x177;" horiz-adv-x="477" 
d="M6 500h101l130 -379h2l133 379h99l-281 -725l-80 31l79 209zM394 602l-53 -36l-93 129l-93 -129l-55 36l104 157h88z" />
    <glyph glyph-name="Ydieresis" unicode="&#x178;" horiz-adv-x="555" 
d="M324 0h-96v304l-223 396h119l156 -294h3l155 294h112l-226 -401v-299zM221 764h-100v111h100v-111zM451 764h-100v111h100v-111z" />
    <glyph glyph-name="Zacute" unicode="&#x179;" horiz-adv-x="547" 
d="M502 648l-329 -562h354v-86h-487v51l331 563h-323v86h454v-52zM415 866l-175 -126l-42 54l165 138z" />
    <glyph glyph-name="zacute" unicode="&#x17a;" horiz-adv-x="454" 
d="M59 41l221 379h-232v80h353v-40l-221 -380h238v-80h-359v41zM364 726l-134 -160l-55 42l123 169z" />
    <glyph glyph-name="Zdotaccent" unicode="&#x17b;" horiz-adv-x="547" 
d="M502 648l-329 -562h354v-86h-487v51l331 563h-323v86h454v-52zM320 764h-102v111h102v-111z" />
    <glyph glyph-name="zdotaccent" unicode="&#x17c;" horiz-adv-x="454" 
d="M59 41l221 379h-232v80h353v-40l-221 -380h238v-80h-359v41zM267 598h-91v102h91v-102z" />
    <glyph glyph-name="Zcaron" unicode="&#x17d;" horiz-adv-x="547" 
d="M502 648l-329 -562h354v-86h-487v51l331 563h-323v86h454v-52zM321 752h-95l-107 134l55 42l102 -116l101 116l54 -42z" />
    <glyph glyph-name="zcaron" unicode="&#x17e;" horiz-adv-x="454" 
d="M59 41l221 379h-232v80h353v-40l-221 -380h238v-80h-359v41zM91 726l54 36l93 -129l93 129l54 -36l-104 -157h-88z" />
    <glyph glyph-name="longs" unicode="&#x17f;" horiz-adv-x="308" 
d="M344 740l-26 -76c-19 9 -38 14 -62 14c-68 0 -84 -31 -84 -115v-563h-92v572c0 121 46 190 165 190c33 0 70 -10 99 -22z" />
    <glyph glyph-name="dotlessj" unicode="&#x237;" horiz-adv-x="267" 
d="M183 500v-544c0 -36 -3 -67 -14 -95c-19 -49 -61 -83 -133 -83c-36 0 -69 7 -96 22l26 74c15 -8 35 -14 56 -14c65 0 70 50 70 114v526h91z" />
    <glyph glyph-name="s_t" unicode="&#xfb06;" horiz-adv-x="797" 
d="M382 457l-54 -58c-23 20 -65 37 -99 37c-46 0 -75 -27 -75 -66c0 -38 48 -57 96 -76c65 -25 146 -62 146 -149c0 -112 -87 -157 -181 -157c-68 0 -133 27 -172 78l64 51c33 -35 69 -53 109 -53c49 0 90 25 90 77c0 39 -46 57 -96 77c-66 26 -143 55 -143 145
c0 101 78 149 161 149c57 0 114 -19 154 -55zM771 420h-140v-226c0 -13 0 -24 1 -39c3 -53 20 -84 70 -84c20 0 40 6 56 14l25 -73c-25 -13 -60 -22 -93 -22c-70 0 -113 31 -134 78c-12 28 -16 65 -16 104v248h-67v80h67v120h91v-120h140v-80z" />
    <glyph glyph-name="s_p" horiz-adv-x="1077" 
d="M382 457l-54 -58c-23 20 -65 37 -99 37c-46 0 -75 -27 -75 -66c0 -38 48 -57 96 -76c65 -25 146 -62 146 -149c0 -512 -87 -157 -181 -157c-68 0 -133 27 -172 78l64 51c33 -35 69 -53 109 -53c49 0 90 25 90 77c0 39 -46 57 -96 77c-66 26 -143 55 -143 145
c0 101 78 149 161 149c57 0 114 -19 154 -55zM535 500h91v-67c36 52 99 79 159 79c144 0 250 -116 250 -263c0 -132 -99 -261 -252 -261c-59 0 -117 25 -157 66v-304h-91v750zM626 333v-185c34 -49 93 -76 145 -76c116 0 171 93 171 179c0 93 -65 177 -169 177
c-54 0 -122 -33 -147 -95z" />
    <glyph glyph-name="c_t" horiz-adv-x="836" 
d="M406 107l45 -70c-37 -30 -93 -49 -153 -49c-143 0 -256 104 -256 262c0 146 115 262 261 262c53 0 101 -16 141 -43l-43 -75c-28 21 -66 34 -102 34c-90 0 -164 -79 -164 -178c0 -108 78 -178 165 -178c33 0 79 15 106 35zM810 420h-140v-226c0 -13 0 -24 1 -39
c3 -53 20 -84 70 -84c20 0 40 6 56 14l25 -73c-25 -13 -60 -22 -93 -22c-70 0 -113 31 -134 78c-12 28 -16 65 -16 104v248h-67v80h67v120h91v-120h140v-80z" />
    <glyph glyph-name="c_h" horiz-adv-x="1081" 
d="M406 107l45 -70c-37 -30 -93 -49 -153 -49c-143 0 -256 104 -256 262c0 146 115 262 261 262c53 0 101 -16 141 -43l-43 -75c-28 21 -66 34 -102 34c-90 0 -164 -79 -164 -178c0 -108 78 -178 165 -178c33 0 79 15 106 35zM650 750v-332c37 59 96 94 163 94
c70 0 116 -24 145 -63c34 -46 45 -113 45 -189v-260h-91v250c0 49 -2 102 -26 138c-16 24 -43 40 -87 40c-58 0 -113 -40 -149 -96v-332h-91v750h91z" />
    <glyph glyph-name="c_k" horiz-adv-x="989" 
d="M406 107l45 -70c-37 -30 -93 -49 -153 -49c-143 0 -256 104 -256 262c0 146 115 262 261 262c53 0 101 -16 141 -43l-43 -75c-28 21 -66 34 -102 34c-90 0 -164 -79 -164 -178c0 -108 78 -178 165 -178c33 0 79 15 106 35zM983 0h-111l-143 224l-79 -92v-132h-91v750h91
v-500l2 -1l202 251h112l-175 -204z" />
    <glyph glyph-name="T_h" horiz-adv-x="1094" 
d="M468 614h-176v-614h-96v614h-176v86h448v-86zM663 750v-332c37 59 96 94 163 94c70 0 116 -24 145 -63c34 -46 45 -113 45 -189v-260h-91v250c0 49 -2 102 -26 138c-16 24 -43 40 -87 40c-58 0 -113 -40 -149 -96v-332h-91v750h91z" />
    <glyph glyph-name="circumflex" unicode="&#x2c6;" horiz-adv-x="360" 
d="M326 602l-53 -36l-93 129l-93 -129l-55 36l104 157h88z" />
    <glyph glyph-name="caron" unicode="&#x2c7;" horiz-adv-x="360" 
d="M32 726l54 36l93 -129l93 129l54 -36l-104 -157h-88z" />
    <glyph glyph-name="uni02C9" unicode="&#x2c9;" horiz-adv-x="360" 
d="M328 608h-296v70h296v-70z" />
    <glyph glyph-name="breve" unicode="&#x2d8;" horiz-adv-x="360" 
d="M259 725h64v-14c0 -80 -63 -143 -143 -143s-143 63 -143 143v14h66v-14c0 -44 33 -79 77 -79c42 0 79 34 79 79v14z" />
    <glyph glyph-name="dieresis" unicode="&#xa8;" horiz-adv-x="360" 
d="M125 598h-93v102h93v-102zM328 598h-93v102h93v-102z" />
    <glyph glyph-name="macron" unicode="&#xaf;" horiz-adv-x="360" 
d="M328 608h-296v70h296v-70z" />
    <glyph glyph-name="degree" unicode="&#xb0;" horiz-adv-x="462" 
d="M148 543c0 -46 36 -84 82 -84s84 38 84 84s-38 86 -84 86s-82 -40 -82 -86zM80 543c0 81 67 150 150 150c81 0 152 -69 152 -150c0 -83 -71 -148 -152 -148c-83 0 -150 65 -150 148z" />
    <glyph glyph-name="acute" unicode="&#xb4;" horiz-adv-x="360" 
d="M303 726l-134 -160l-55 42l123 169z" />
    <glyph glyph-name="grave" unicode="`" horiz-adv-x="360" 
d="M191 566l-134 160l66 51l123 -169z" />
    <glyph glyph-name="cedilla" unicode="&#xb8;" horiz-adv-x="360" 
d="M174 -1l-24 -64l1 -1c15 11 32 16 48 16c45 0 87 -39 87 -93c0 -53 -47 -102 -109 -102c-45 0 -81 20 -103 59l57 28c9 -25 28 -32 46 -32c26 0 43 21 43 44c0 26 -18 47 -45 47c-16 0 -32 -8 -39 -24l-61 32l42 101z" />
    <glyph glyph-name="dotaccent" unicode="&#x2d9;" horiz-adv-x="360" 
d="M226 598h-91v102h91v-102z" />
    <glyph glyph-name="ring" unicode="&#x2da;" horiz-adv-x="360" 
d="M87 673c0 51 42 93 93 93s93 -42 93 -93s-42 -93 -93 -93s-93 42 -93 93zM136 673c0 -24 20 -44 44 -44s44 20 44 44s-20 44 -44 44s-44 -20 -44 -44z" />
    <glyph glyph-name="ogonek" unicode="&#x2db;" horiz-adv-x="360" 
d="M161 12l69 -7l4 -5c-73 -22 -103 -69 -103 -110c0 -27 15 -44 42 -44c15 0 30 5 44 14l32 -51c-22 -20 -56 -31 -89 -31c-56 0 -111 34 -111 99c0 63 42 108 112 135z" />
    <glyph glyph-name="tilde" unicode="&#x2dc;" horiz-adv-x="360" 
d="M351 700c1 -6 2 -13 2 -23c0 -58 -41 -95 -98 -95c-72 0 -104 64 -148 64c-18 0 -32 -11 -33 -30c0 -4 0 -7 1 -10l-65 -7c-1 6 -2 13 -2 23c0 58 41 95 98 95c69 0 104 -64 148 -64c18 0 32 11 33 30c0 3 0 7 -1 10z" />
    <glyph glyph-name="hungarumlaut" unicode="&#x2dd;" horiz-adv-x="360" 
d="M388 726l-135 -161l-56 43l125 169zM235 741l-140 -166l-55 40l128 178z" />
    <glyph glyph-name="perthousand" unicode="&#x2030;" horiz-adv-x="1236" 
d="M1019 313c89 0 159 -71 159 -160c0 -88 -70 -159 -159 -159s-160 71 -160 159c0 89 71 160 160 160zM1020 242c-49 0 -86 -38 -86 -88c0 -51 37 -89 86 -89c47 0 83 38 83 89c0 50 -36 88 -83 88zM218 706c89 0 159 -71 159 -160c0 -88 -70 -159 -159 -159
s-160 71 -160 159c0 89 71 160 160 160zM219 635c-49 0 -86 -38 -86 -88c0 -51 37 -89 86 -89c47 0 83 38 83 89c0 50 -36 88 -83 88zM633 313c89 0 159 -71 159 -160c0 -88 -70 -159 -159 -159s-160 71 -160 159c0 89 71 160 160 160zM634 242c-49 0 -86 -38 -86 -88
c0 -51 37 -89 86 -89c47 0 83 38 83 89c0 50 -36 88 -83 88zM648 712l55 -40l-497 -684l-55 40z" />
    <glyph glyph-name="percent" unicode="%" horiz-adv-x="850" 
d="M218 706c89 0 159 -71 159 -160c0 -88 -70 -159 -159 -159s-160 71 -160 159c0 89 71 160 160 160zM219 635c-49 0 -86 -38 -86 -88c0 -51 37 -89 86 -89c47 0 83 38 83 89c0 50 -36 88 -83 88zM633 313c89 0 159 -71 159 -160c0 -88 -70 -159 -159 -159
s-160 71 -160 159c0 89 71 160 160 160zM634 242c-49 0 -86 -38 -86 -88c0 -51 37 -89 86 -89c47 0 83 38 83 89c0 50 -36 88 -83 88zM648 712l55 -40l-497 -684l-55 40z" />
    <glyph glyph-name="fraction" unicode="&#x2044;" horiz-adv-x="132" 
d="M287 712l55 -40l-497 -684l-55 40z" />
    <glyph glyph-name="zerosuperior" unicode="&#x2070;" horiz-adv-x="338" 
d="M169 425c46 0 72 47 72 143c0 97 -26 144 -72 144s-72 -47 -72 -144c0 -96 26 -143 72 -143zM169 775c93 0 146 -78 146 -207c0 -128 -53 -206 -146 -206s-146 78 -146 206c0 129 53 207 146 207z" />
    <glyph glyph-name="onesuperior" unicode="&#xb9;" horiz-adv-x="216" 
d="M162 367h-72v319c-18 -9 -42 -19 -58 -26v66c24 13 56 30 83 44h47v-403z" />
    <glyph glyph-name="twosupevior" unicode="&#xb2;" horiz-adv-x="319" 
d="M38 425c46 48 100 112 137 164c16 22 32 51 32 77c0 29 -24 47 -53 47c-31 0 -53 -23 -53 -58l-72 12c5 66 65 108 127 108c64 0 125 -41 125 -108c0 -39 -18 -78 -41 -111c-31 -44 -70 -88 -106 -127h165v-62h-261v58z" />
    <glyph glyph-name="threesuperior" unicode="&#xb3;" horiz-adv-x="319" 
d="M98 540v64c21 1 38 2 51 6c28 7 47 27 47 52c0 29 -23 51 -57 51c-27 0 -50 -15 -57 -42l-60 26c16 49 62 78 117 78c72 0 130 -41 130 -107c0 -35 -20 -69 -49 -85c40 -14 68 -53 68 -98c0 -78 -64 -123 -139 -123c-54 0 -108 25 -132 76l59 29c14 -28 40 -43 72 -43
c34 0 66 19 66 58s-34 62 -78 62c-10 0 -23 0 -38 -4z" />
    <glyph glyph-name="foursuperior" unicode="&#x2074;" horiz-adv-x="334" 
d="M20 537c51 65 118 159 172 233h73v-239h58v-61h-58v-103h-71v103h-174v67zM194 531v142c-28 -44 -73 -111 -98 -142h98z" />
    <glyph glyph-name="fivesuperior" unicode="&#x2075;" horiz-adv-x="315" 
d="M269 708h-144c-1 -32 -4 -66 -7 -96c16 7 34 10 52 10c67 0 119 -55 119 -122c0 -78 -59 -138 -138 -138c-54 0 -107 28 -131 75l60 31c14 -31 41 -43 67 -43c43 0 68 34 68 71c0 38 -28 65 -67 65c-21 0 -41 -7 -56 -25l-49 32c6 58 11 147 13 202h213v-62z" />
    <glyph glyph-name="sixsuperior" unicode="&#x2076;" horiz-adv-x="332" 
d="M22= 792l26 -59c-69 -30 -124 -70 -146 -137c20 18 46 29 77 29c72 0 123 -57 123 -128c0 -75 -56 -135 -134 -135c-95 0 -152 76 -152 162c0 129 94 223 206 268zM170 564c-30 0 -58 -16 -73 -41c0 -51 19 -100 73 -100c41 0 65 33 65 72c0 42 -27 69 -65 69z" />
    <glyph glyph-name="sevensuperior" unicode="&#x2077;" horiz-adv-x="279" 
d="M268 770v-48c-49 -103 -121 -263 -164 -367l-65 29c53 126 115 254 147 323h-180v63h262z" />
    <glyph glyph-name="eightsuperior" unicode="&#x2078;" horiz-adv-x="345" 
d="M301 665c0 -41 -19 -67 -50 -86c38 -22 61 -51 61 -99c0 -66 -56 -118 -139 -118s-140 52 -140 118c0 48 23 77 61 99c-30 19 -49 45 -49 86c0 61 52 110 128 110s128 -49 128 -110zM173 545c-36 0 -66 -26 -66 -61c0 -34 30 -60 66 -60s65 26 65 60c0 35 -29 61 -65 61z
M173 713c-31 0 -56 -22 -56 -52s25 -54 56 -54s56 24 56 54s-25 52 -56 52z" />
    <glyph glyph-name="ninesuperior" unicode="&#x2079;" horiz-adv-x="332" 
d="M103 345l-26 59c69 30 124 70 146 137c-20 -18 -46 -29 -77 -29c-72 0 -123 57 -123 128c0 75 56 135 134 135c95 0 152 -76 152 -162c0 -129 -94 -223 -206 -268zM162 573c30 0 58 16 73 41c0 51 -19 100 -73 100c-41 0 -65 -33 -65 -72c0 -42 27 -69 65 -69z" />
    <glyph glyph-name="parenleftsuperior" unicode="&#x207d;" horiz-adv-x="217" 
d="M221 316l-25 -50c-93 57 -167 145 -167 289c0 142 73 229 167 287l26 -50c-65 -42 -123 -116 -123 -237c0 -123 56 -197 122 -239z" />
    <glyph glyph-name="parenrightsuperior" unicode="&#x207e;" horiz-adv-x="217" 
d="M20 262l-25 50c66 42 123 116 123 239c0 121 -59 195 -123 237l26 50c94 -58 167 -145 167 -287c0 -144 -74 -232 -168 -289z" />
    <glyph glyph-name="hyphensuperior" unicode="&#xf6e6;" horiz-adv-x="276" 
d="M216 507h-156v62h156v-62z" />
    <glyph glyph-name="commasuperior" unicode="&#xf6e2;" horiz-adv-x="166" 
d="M123 447l-42 -158h-68l32 158h78z" />
    <glyph glyph-name="periodsuperior" unicode="&#xf6e8;" horiz-adv-x="160" 
d="M119 367h-78v80h78v-80z" />
    <glyph glyph-name="minussuperior" unicode="&#x207b;" horiz-adv-x="341" 
d="M31 584h279v-61h-279v61z" />
    <glyph glyph-name="plussuperior" unicode="&#x207a;" horiz-adv-x="334" 
d="M136 403v120h-119v61h119v120h61v-120h120v-61h-120v-120h-61z" />
    <glyph glyph-name="equalsuperior" unicode="&#x207c;" horiz-adv-x="341" 
d="M31 638h279v-60h-279v60zM31 530h279v-61h-279v61z" />
    <glyph glyph-name="a.sup" horiz-adv-x="340" 
d="M167 557c16 0 35 -2 58 -7v8c0 42 -19 67 -66 67c-35 0 -70 -13 -95 -27l-20 54c36 18 83 31 128 31c87 0 124 -50 124 -129v-187h-63l-4 29c-22 -26 -52 -36 -87 -36c-58 0 -111 32 -111 96c0 77 70 101 136 101zM225 504c-19 4 -34 6 -47 6c-35 0 -77 -11 -77 -51
c0 -32 25 -46 53 -46s50 13 71 31v60z" />
    <glyph glyph-name="b.sup" horiz-adv-x="385" 
d="M212 360c-34 0 -73 13 -96 43l-3 -36h-65v450h71v-178c22 30 61 44 94 44c85 0 148 -72 148 -162c0 -85 -61 -161 -149 -161zM199 620c-29 0 -63 -15 -80 -49v-109c20 -27 50 -39 79 -39c61 0 90 51 90 99c0 51 -33 98 -89 98z" />
    <glyph glyph-name="c.sup" horiz-adv-x="294" 
d="M248 446l37 -51c-27 -24 -62 -35 -104 -35c-90 0 -157 65 -157 161c0 90 68 162 160 162c38 0 71 -12 99 -33l-36 -53c-17 14 -38 23 -61 23c-50 0 -89 -44 -89 -99c0 -58 40 -98 88 -98c23 0 45 8 63 23z" />
    <glyph glyph-name="d.sup" horiz-adv-x="385" 
d="M272 367l-4 40c-21 -34 -62 -47 -96 -47c-85 0 -148 72 -148 162c0 84 61 161 149 161c32 0 69 -13 93 -39v173h71v-450h-65zM186 423c29 0 63 14 80 48v110c-21 27 -51 39 -79 39c-61 0 -90 -52 -90 -100c0 -50 33 -97 89 -97z" />
    <glyph glyph-name="e.sup" horiz-adv-x="349" 
d="M269 466l49 -32c-34 -50 -74 -74 -139 -74c-95 0 -155 68 -155 159c0 93 68 164 156 164c83 0 145 -61 145 -143c0 -12 -2 -26 -4 -37h-225c5 -47 37 -84 87 -84c40 0 67 15 86 47zM181 625c-45 0 -71 -30 -81 -70h152c-3 40 -32 70 -71 70z" />
    <glyph glyph-name="f.sup" horiz-adv-x="220" 
d="M237 809l-21 -57c-13 6 -25 9 -41 9c-37 0 -42 -22 -42 -57v-29h80v-60h-80v-248h-71v248h-34v60h34v34c0 72 26 115 106 115c23 0 48 -6 69 -15z" />
    <glyph glyph-name="g.sup" horiz-adv-x="381" 
d="M337 675v-292c0 -110 -73 -152 -155 -152c-47 0 -100 14 -140 42l27 60c32 -24 76 -39 111 -39c48 0 86 24 86 81v35c-23 -30 -61 -43 -94 -43c-85 0 -148 70 -148 158c0 84 61 158 149 158c34 0 72 -14 95 -43l4 35h65zM266 478v103c-21 27 -51 39 -79 39
c-61 0 -90 -49 -90 -96c0 -50 34 -94 88 -94c29 0 64 14 81 48z" />
    <glyph glyph-name="h.sup" horiz-adv-x="371" 
d="M119 817v-184c24 33 59 50 95 50c88 0 113 -72 113 -156v-160h-71v155c0 47 -3 98 -60 98c-29 0 -59 -19 -77 -48v-205h-71v450h71z" />
    <glyph glyph-name="i.sup" horiz-adv-x="167" 
d="M119 367h-71v308h71v-308zM119 726h-71v68h71v-68z" />
    <glyph glyph-name="j.sup" horiz-adv-x="184" 
d="M-27 245l20 57c8 -3 19 -7 30 -7c33 0 42 26 42 56v324h71v-332c0 -66 -23 -111 -100 -111c-22 0 -44 5 -63 13zM136 726h-71v68h71v-68z" />
    <glyph glyph-name="k.sup" horiz-adv-x="326" 
d="M119 817v-280h1l111 138h84l-110 -127l118 -181h-87l-79 125l-38 -45v-80h-71v450h71z" />
    <glyph glyph-name="l.sup" horiz-adv-x="167" 
d="M119 817v-450h-71v450h71z" />
    <glyph glyph-name="m.sup" horiz-adv-x="559" 
d="M119 367h-71v308h65l3 -41c24 32 60 49 93 49c38 0 71 -18 90 -54c28 40 67 54 105 54c87 0 111 -74 111 -156v-160h-71v155c0 47 -2 98 -58 98c-25 0 -54 -17 -72 -42c2 -15 3 -33 3 -51v-160h-71v155c0 45 -1 98 -56 98c-25 0 -53 -20 -71 -42v-211z" />
    <glyph glyph-name="n.sup" horiz-adv-x="371" 
d="M119 367h-71v308h65l3 -46c24 36 54 54 92 54c90 0 119 -61 119 -154v-162h-71v159c0 47 -2 94 -59 94c-29 0 -60 -19 -78 -48v-205z" />
    <glyph glyph-name="o.sup" horiz-adv-x="367" 
d="M183 683c93 0 160 -71 160 -162c0 -90 -67 -161 -160 -161c-92 0 -159 71 -159 161c0 91 67 162 159 162zM270 521c0 55 -35 99 -87 99c-51 0 -86 -44 -86 -99c0 -54 35 -98 86 -98c52 0 87 44 87 98z" />
    <glyph glyph-name="p.sup" horiz-adv-x="385" 
d="M113 675l4 -39c21 33 62 47 96 47c85 0 148 -72 148 -162c0 -85 -61 -161 -149 -161c-32 0 -69 12 -93 38v-181h-71v458h65zM199 620c-29 0 -63 -15 -80 -49v-109c20 -27 50 -39 79 -39c61 0 90 51 90 99c0 51 -33 98 -89 98z" />
    <glyph glyph-name="q.sup" horiz-adv-x="385" 
d="M173 683c34 0 72 -14 95 -43l4 35h65v-458h-71v186c-23 -31 -61 -43 -94 -43c-85 0 -148 72 -148 162c0 84 61 161 149 161zM186 423c29 0 63 14 80 48v110c-21 27 -51 39 -79 39c-61 0 -90 -52 -90 -100c0 -50 33 -97 89 -97z" />
    <glyph glyph-name="r.sup" horiz-adv-x="227" 
d="M119 367h-71v308h65l3 -44c18 31 43 52 75 52c14 0 25 -2 37 -6l-16 -67c-9 5 -18 7 -29 7c-27 0 -49 -15 -64 -42v-208z" />
    <glyph glyph-name="s.sup" horiz-adv-x="288" 
d="M252 645l-40 -44c-15 14 -39 25 -61 25c-23 0 -38 -13 -38 -31c0 -21 26 -32 54 -43c40 -16 90 -39 90 -94c0 -69 -57 -98 -115 -98c-45 0 -87 17 -117 51l44 41c23 -24 46 -35 71 -35s46 12 46 37c0 21 -25 31 -54 43c-40 16 -87 36 -87 93c0 62 50 93 105 93
c38 0 75 -13 102 -38z" />
    <glyph glyph-name="t.sup" horiz-adv-x="230" 
d="M198 431l21 -54c-18 -11 -43 -17 -65 -17c-72 0 -96 50 -96 114v141h-39v60h39l8 71h63v-71h82v-60h-82v-128c0 -31 0 -65 34 -65c14 0 25 4 35 9z" />
    <glyph glyph-name="u.sup" horiz-adv-x="371" 
d="M252 675h71v-308h-65l-3 46c-24 -36 -54 -54 -92 -54c-90 0 -119 61 -119 154v162h71v-159c0 -47 2 -94 59 -94c29 0 60 19 78 48v205z" />
    <glyph glyph-name="v.sup" horiz-adv-x="308" 
d="M154 463h1l71 212h78l-123 -308h-60l-117 308h79z" />
    <glyph glyph-name="w.sup" horiz-adv-x="451" 
d="M226 571h-1l-58 -204h-78l-85 308h77l51 -212h1l60 212h68l55 -211h2l55 211h74l-90 -308h-75z" />
    <glyph glyph-name="x.sup" horiz-adv-x="330" 
d="M13 675h90l67 -98l67 98h89l-115 -151l114 -157h-91l-70 103l-71 -103h-89l119 155z" />
    <glyph glyph-name="y.sup" horiz-adv-x="306" 
d="M152 470h1l71 204h78l-172 -444l-64 24l48 127l-110 293h78z" />
    <glyph glyph-name="z.sup" horiz-adv-x="285" 
d="M33 400l126 215h-132v60h227v-31l-127 -216h137v-61h-231v33z" />
    <glyph glyph-name="zeroinferior" horiz-adv-x="337" 
d="M169 -119c46 0 72 47 72 143c0 97 -26 144 -72 144s-72 -47 -72 -144c0 -96 26 -143 72 -143zM169 231c93 0 146 -78 146 -207c0 -128 -53 -206 -146 -206s-146 78 -146 206c0 129 53 207 146 207z" />
    <glyph glyph-name="oneinferior" horiz-adv-x="216" 
d="M162 -178h-72v319c-18 -9 -42 -19 -58 -26v66c24 13 56 30 83 44h47v-403z" />
    <glyph glyph-name="twoinferior" horiz-adv-x="319" 
d="M38 -120c46 48 100 112 137 164c16 22 32 51 32 77c0 29 -24 47 -53 47c-31 0 -53 -23 -53 -58l-72 12c5 66 65 108 127 108c64 0 125 -41 125 -108c0 -39 -18 -78 -41 -111c-31 -44 -70 -88 -106 -127h165v-62h-261v58z" />
    <glyph glyph-name="threeinferior" horiz-adv-x="319" 
d="M98 -5v64c21 1 38 2 51 6c28 7 47 27 47 52c0 29 -23 51 -57 51c-27 0 -50 -15 -57 -42l-60 26c16 49 62 78 117 78c72 0 130 -41 130 -107c0 -35 -20 -69 -49 -85c40 -14 68 -53 68 -98c0 -78 -64 -123 -139 -123c-54 0 -108 25 -132 76l59 29c14 -28 40 -43 72 -43
c34 0 66 19 66 58s-34 62 -78 62c-10 0 -23 0 -38 -4z" />
    <glyph glyph-name="fourinferior" horiz-adv-x="334" 
d="M20 -8c51 65 118 159 172 233h73v-239h58v-61h-58v-103h-71v103h-174v67zM194 -14v142c-28 -44 -73 -111 -98 -142h98z" />
    <glyph glyph-name="fiveinferior" horiz-adv-x="315" 
d="M269 163h-144c-1 -32 -4 -66 -7 -96c16 7 34 10 52 10c67 0 119 -55 119 -122c0 -78 -59 -138 -138 -138c-54 0 -107 28 -131 75l60 31c14 -31 41 -43 67 -43c43 0 68 34 68 71c0 38 -28 65 -67 65c-21 0 -41 -7 -56 -25l-49 32c6 58 11 147 13 202h213v-62z" />
    <glyph glyph-name="sixinferior" horiz-adv-x="330" 
d="M228 247l26 -59c-69 -30 -124 -70 -146 -137c20 18 46 29 77 29c72 0 123 -57 123 -128c0 -75 -56 -135 -134 -135c-95 0 -152 76 -152 162c0 129 94 223 206 268zM169 19c-30 0 -58 -16 -73 -41c0 -51 19 -100 73 -100c41 0 65 33 65 72c0 42 -27 69 -65 69z" />
    <glyph glyph-name="seveninferior"$horiz-adv-x="279" 
d="M268 225v-48c-49 -103 -121 -263 -164 -367l-65 29c53 126 115 254 147 323h-180v63h262z" />
    <glyph glyph-name="eightinferior" horiz-adv-x="345" 
d="M301 120c0 -41 -19 -67 -50 -86c38 -22 61 -51 61 -99c0 -66 -56 -118 -139 -118s-140 52 -140 118c0 48 23 77 61 99c-30 19 -49 45 -49 86c0 61 52 110 128 110s128 -49 128 -110zM173 0c-36 0 -66 -26 -66 -61c0 -34 30 -60 66 -60s65 26 65 60c0 35 -29 61 -65 61z
M173 168c-31 0 -56 -22 -56 -52s25 -54 56 -54s56 24 56 54s-25 52 -56 52z" />
    <glyph glyph-name="nineinferior" horiz-adv-x="330" 
d="M103 -200l-26 59c69 30 124 70 146 137c-20 -18 -46 -29 -77 -29c-72 0 -123 57 -123 128c0 75 56 135 134 135c95 0 152 -76 152 -162c0 -129 -94 -223 -206 -268zM162 28c30 0 58 16 73 41c0 51 -19 100 -73 100c-41 0 -65 -33 -65 -72c0 -42 27 -69 65 -69z" />
    <glyph glyph-name="parenleftinferior" horiz-adv-x="217" 
d="M221 -233l-25 -50c-93 57 -167 145 -167 289c0 142 73 229 167 287l26 -50c-65 -42 -123 -116 -123 -237c0 -123 56 -197 122 -239z" />
    <glyph glyph-name="parenrightinferior" horiz-adv-x="217" 
d="M20 -283l-25 50c66 42 123 116 123 239c0 121 -59 195 -123 237l26 50c94 -58 167 -145 167 -287c0 -144 -74 -232 -168 -289z" />
    <glyph glyph-name="hypheninferior" unicode="&#xf6e5;" horiz-adv-x="276" 
d="M216 -38h-156v62h156v-62z" />
    <glyph glyph-name="commainferior" unicode="&#xf6e1;" horiz-adv-x="166" 
d="M123 -98l-42 -158h-68l32 158h78z" />
    <glyph glyph-name="periodinferior" unicode="&#xf6e7;" horiz-adv-x="160" 
d="M119 -178h-78v80h78v-80z" />
    <glyph glyph-name="minusinferior" horiz-adv-x="341" 
d="M31 39h279v-61h-279v61z" />
    <glyph glyph-name="plusinferior" horiz-adv-x="334" 
d="M136 -142v120h-119v61h119v120h61v-120h120v-61h-120v-120h-61z" />
    <glyph glyph-name="equalinferior" horiz-adv-x="341" 
d="M31 93h279v-60h-279v60zM31 -15h279v-61h-279v61z" />
    <glyph glyph-name="a.sinf" horiz-adv-x="340" 
d="M167 12c16 0 35 -2 58 -7v8c0 42 -19 67 -66 67c-35 0 -70 -13 -95 -27l-20 54c36 18 83 31 128 31c87 0 124 -50 124 -129v-187h-63l-4 29c-22 -26 -52 -36 -87 -36c-58 0 -111 32 -111 96c0 77 70 101 136 101zM225 -41c-19 4 -34 6 -47 6c-35 0 -77 -11 -77 -51
c0 -32 25 -46 53 -46s50 13 71 31v60z" />
    <glyph glyph-name="b.sinf" horiz-adv-x="385" 
d="M212 -185c-34 0 -73 13 -96 43l-3 -36h-65v450h71v-178c22 30 61 44 94 44c85 0 148 -72 148 -162c0 -85 -61 -161 -149 -161zM199 75c-29 0 -63 -15 -80 -49v-109c20 -27 50 -39 79 -39c61 0 90 51 90 99c0 51 -33 98 -89 98z" />
    <glyph glyph-name="c.sinf" horiz-adv-x="294" 
d="M248 -99l37 -51c-27 -24 -62 -35 -104 -35c-90 0 -157 65 -157 161c0 90 68 162 160 162c38 0 71 -12 99 -33l-36 -53c-17 14 -38 23 -61 23c-50 0 -89 -44 -89 -99c0 -58 40 -98 88 -98c23 0 45 8 63 23z" />
    <glyph glyph-name="d.sinf" horiz-adv-x="385" 
d="M272 -178l-4 40c-21 -34 -62 -47 -96 -47c-85 0 -148 72 -148 162c0 84 61 161 149 161c32 0 69 -13 93 -39v173h71v-450h-65zM186 -122c29 0 63 14 80 48v110c-21 27 -51 39 -79 39c-61 0 -90 -52 -90 -100c0 -50 33 -97 89 -97z" />
    <glyph glyph-name="e.sinf" horiz-adv-x="349" 
d="M269 -79l49 -32c-34 -50 -74 -74 -139 -74c-95 0 -155 68 -155 159c0 93 68 164 156 164c83 0 145 -61 145 -143c0 -12 -2 -26 -4 -37h-225c5 -47 37 -84 87 -84c40 0 67 15 86 47zM181 80c-45 0 -71 -30 -81 -70h152c-3 40 -32 70 -71 70z" />
    <glyph glyph-name="f.sinf" horiz-adv-x="220" 
d="M237 264l-21 -57c-13 6 -25 9 -41 9c-37 0 -42 -22 -42 -57v-29h80v-60h-80v-248h-71v248h-34v60h34v34c0 72 26 115 106 115c23 0 48 -6 69 -15z" />
    <glyph glyph-name="g.sinf" horiz-adv-x="381" 
d="M337 130v-292c0 -110 -73 -152 -155 -152c-47 0 -100 14 -140 42l27 60c32 -24 76 -39 111 -39c48 0 86 24 86 81v35c-23 -30 -61 -43 -94 -43c-85 0 -148 70 -148 158c0 84 61 158 149 158c34 0 72 -14 95 -43l4 35h65zM266 -67v103c-21 27 -51 39 -79 39
c-61 0 -90 -49 -90 -96c0 -50 34 -94 88 -94c29 0 64 14 81 48z" />
    <glyph glyph-name="h.sinf" horiz-adv-x="371" 
d="M119 272v-184c24 33 59 50 95 50c88 0 113 -72 113 -156v-160h-71v155c0 47 -3 98 -60 98c-29 0 -59 -19 -77 -48v-205h-71v450h71z" />
    <glyph glyph-name="i.sinf" horiz-adv-x="167" 
d="M119 -178h-71v308h71v-308zM119 181h-71v68h71v-68z" />
    <glyph glyph-name="j.sinf" horiz-adv-x="184" 
d="M-27 -300l20 57c8 -3 19 -7 30 -7c33 0 42 26 42 56v324h71v-332c0 -66 -23 -111 -100 -111c-22 0 -44 5 -63 13zM136 181h-71v68h71v-68z" />
    <glyph glyph-name="k.sinf" horiz-adv-x="326" 
d="M119 272v-280h1l111 138h84l-110 -127l118 -181h-87l-79 125l-38 -45v-80h-71v450h71z" />
    <glyph glyph-name="l.sinf" horiz-adv-x="167" 
d="M119 272v-450h-71v450h71z" />
    <glyph glyph-name="m.sinf" horiz-adv-x="559" 
d="M119 -178h-71v308h65l3 -41c24 32 60 49 93 49c38 0 71 -18 90 -54c28 40 67 54 105 54c87 0 111 -74 111 -156v-160h-71v155c0 47 -2 98 -58 98c-25 0 -54 -17 -72 -42c2 -15 3 -33 3 -51v-160h-71v155c0 45 -1 98 -56 98c-25 0 -53 -20 -71 -42v-211z" />
    <glyph glyph-name="n.sinf" horiz-adv-x="371" 
d="M119 -178h-71v308h65l3 -46c24 36 54 54 92 54c90 0 119 -61 119 -154v-162h-71v159c0 47 -2 94 -59 94c-29 0 -60 -19 -78 -48v-205z" />
    <glyph glyph-name="o.sinf" horiz-adv-x="367" 
d="M183 138c93 0 160 -71 160 -162c0 -90 -67 -161 -160 -161c-92 0 -159 71 -159 161c0 91 67 162 159 162zM270 -24c0 55 -35 99 -87 99c-51 0 -86 -44 -86 -99c0 -54 35 -98 86 -98c52 0 87 44 87 98z" />
    <glyph glyph-name="p.sinf" horiz-adv-x="385" 
d="M113 130l4 -39c21 33 62 47 96 47c85 0 148 -72 148 -162c0 -85 -61 -161 -149 -161c-32 0 -69 12 -93 38v-181h-71v458h65zM199 75c-29 0 -63 -15 -80 -49v-109c20 -27 50 -39 79 -39c61 0 90 51 90 99c0 51 -33 98 -89 98z" />
    <glyph glyph-name="q.sinf" horiz-adv-x="385" 
d="M173 138c34 0 72 -14 95 -43l4 35h65v-458h-71v186c-23 -31 -61 -43 -94 -43c-85 0 -148 72 -148 162c0 84 61 161 149 161zM186 -122c29 0 63 14 80 48v110c-21 27 -51 39 -79 39c-61 0 -90 -52 -90 -100c0 -50 33 -97 89 -97z" />
    <glyph glyph-name="r.sinf" horiz-adv-x="227" 
d="M119 -178h-71v308h65l3 -44c18 31 43 52 75 52c14 0 25 -2 37 -6l-16 -67c-9 5 -18 7 -29 7c-27 0 -49 -15 -64 -42v-208z" />
    <glyph glyph-name="s.sinf" horiz-adv-x="288" 
d="M252 100l-40 -44c-15 14 -39 25 -61 25c-23 0 -38 -13 -38 -31c0 -21 26 -32 54 -43c40 -16 90 -39 90 -94c0 -69 -57 -98 -115 -98c-45 0 -87 17 -117 51l44 41c23 -24 46 -35 71 -35s46 12 46 37c0 21 -25 31 -54 43c-40 16 -87 36 -87 93c0 62 50 93 105 93
c38 0 75 -13 102 -38z" />
    <glyph glyph-name="t.sinf" horiz-adv-x="230" 
d="M198 -114l21 -54c-18 -11 -43 -17 -65 -17c-72 0 -96 50 -96 114v141h-39v60h39l8 71h63v-71h82v-60h-82v-128c0 -31 0 -65 34 -65c14 0 25 4 35 9z" />
    <glyph glyph-name="u.sinf" horiz-adv-x="371" 
d="M252 130h71v-308h-65l-3 46c-24 -36 -54 -54 -92 -54c-90 0 -119 61 -119 154v162h71v-159c0 -47 2 -94 59 -94c29 0 60 19 78 48v205z" />
    <glyph glyph-name="v.sinf" horiz-adv-x="308" 
d="M154 -82h1l71 212h78l-123 -308h-60l-117 308h79z" />
    <glyph glyph-name="w.sinf" horiz-adv-x="451" 
d="M226 26h-1l-58 -204h-78l-85 308h77l51 -212h1l60 212h68l55 -211h2l55 211h74l-90 -308h-75z" />
    <glyph glyph-name="x.sinf" horiz-adv-x="330" 
d="M13 130h90l67 -98l67 98h89l-115 -151l114 -157h-91l-70 103l-71 -103h-89l119 155z" />
    <glyph glyph-name="y.sinf" horiz-adv-x="306" 
d="M152 -75h1l71 204h78l-172 -444l-64 24l48 127l-110 293h78z" />
    <glyph glyph-name="z.sinf" horiz-adv-x="285" 
d="M33 -145l126 215h-132v60h227v-31l-127 -216h137v-61h-231v33z" />
    <glyph glyph-name="zero.num" horiz-adv-x="314" 
d="M157 648c-40 0 -62 -42 -62 -127s22 -127 62 -127s62 42 62 127s-22 127 -62 127zM290 521c0 -116 -48 -186 -133 -186s-133 70 -133 186s48 186 133 186s133 -70 133 -186z" />
    <glyph glyph-name="one.num" horiz-adv-x="223" 
d="M166 338h-69v283c-17 -8 -38 -17 -53 -23v62c23 12 52 26 77 40h45v-362z" />
    <glyph glyph-name="two.num" horiz-adv-x="299" 
d="M38 394c43 44 91 100 125 147c14 19 28 44 28 67c0 25 -20 40 -46 40c-27 0 -46 -20 -46 -52l-69 12c4 60 59 99 118 99c58 0 115 -37 115 -99c0 -34 -18 -69 -39 -99c-27 -38 -61 -76 -93 -110h147v-58h-240v53z" />
    <glyph glyph-name="three.num" horiz-adv-x="301" 
d="M95 494v60c18 0 34 1 45 4c25 7 41 23 41 47s-19 43 -51 43c-23 0 -42 -13 -48 -38l-59 26c16 45 59 71 108 71c65 0 120 -38 120 -97c0 -31 -19 -61 -45 -76c37 -13 62 -48 62 -89c0 -69 -59 -110 -128 -110c-50 0 -99 23 -122 71l58 27c12 -26 35 -40 64 -40
c30 0 57 17 57 51s-30 53 -70 53c-8 0 -20 0 -32 -3z" />
    <glyph glyph-name="four.num" horiz-adv-x="309" 
d="M21 491c45 59 107 143 154 209h70v-213h52v-57h-52v-89h-68v89h-156v61zM177 487v122c-25 -37 -62 -95 -83 -122h83z" />
    <glyph glyph-name="five.num" horiz-adv-x="295" 
d="M251 642h-130c-1 -28 -4 -56 -6 -83c14 7 31 9 46 9c60 0 107 -50 107 -110c0 -71 -55 -123 -126 -123c-51 0 -98 24 -121 68l58 29c12 -28 36 -39 60 -39c37 0 58 28 58 61s-24 57 -58 57c-20 0 -36 -6 -50 -23l-45 31c5 52 10 132 12 181h195v-58z" />
    <glyph glyph-name="six.num" horiz-adv-x="309" 
d="M212 722l25 -55c-63 -27 -111 -61 -132 -119c18 15 41 24 67 24c67 0 113 -51 113 -114c0 -70 -50 -124 -123 -124c-87 0 -138 69 -138 147c0 117 86 200 188 241zM94 480c0 -46 17 -89 64 -89c36 0 57 29 57 63c0 38 -24 61 -58 61c-25 0 -50 -13$-63 -35z" />
    <glyph glyph-name="seven.num" horiz-adv-x="259" 
d="M247 656c-45 -93 -110 -237 -149 -331l-63 29c49 113 105 225 136 287h-165v59h241v-44z" />
    <glyph glyph-name="eight.num" horiz-adv-x="326" 
d="M236 530c35 -19 54 -45 54 -89c0 -59 -53 -106 -127 -106c-76 0 -127 47 -127 106c0 44 21 70 54 89c-27 17 -45 41 -45 77c0 55 48 100 118 100s118 -45 118 -100c0 -36 -18 -60 -45 -77zM114 603c0 -26 21 -47 49 -47c27 0 49 21 49 47c0 27 -22 47 -49 47
c-28 0 -49 -20 -49 -47zM106 445c0 -30 24 -53 57 -53s57 23 57 53s-24 54 -57 54s-57 -24 -57 -54z" />
    <glyph glyph-name="nine.num" horiz-adv-x="309" 
d="M97 319l-25 55c63 27 111 61 132 119c-18 -15 -41 -24 -67 -24c-67 0 -113 51 -113 114c0 70 50 124 123 124c87 0 138 -69 138 -147c0 -117 -86 -200 -188 -241zM215 561c0 46 -17 89 -64 89c-36 0 -57 -29 -57 -63c0 -38 24 -61 58 -61c25 0 50 13 63 35z" />
    <glyph glyph-name="parenleft.ordn" horiz-adv-x="245" 
d="M244 321l-25 -51c-103 63 -183 160 -183 319c0 161 79 256 181 320l28 -51c-73 -47 -138 -129 -138 -269c0 -137 63 -221 137 -268z" />
    <glyph glyph-name="parenright.ordn" horiz-adv-x="245" 
d="M26 270l-25 51c74 47 137 131 137 268c0 140 -65 222 -138 269l28 51c102 -64 181 -159 181 -320c0 -159 -80 -256 -183 -319z" />
    <glyph glyph-name="hyphen.ordn" horiz-adv-x="308" 
d="M241 544h-174v63h174v-63z" />
    <glyph glyph-name="comma.ordn" horiz-adv-x="184" 
d="M130 471l-45 -172h-69l35 172h79z" />
    <glyph glyph-name="period.ordn" horiz-adv-x="185" 
d="M133 386h-81v85h81v-85z" />
    <glyph glyph-name="minus.ordn" horiz-adv-x="382" 
d="M39 625h304v-62h-304v62z" />
    <glyph glyph-name="plus.ordn" horiz-adv-x="369" 
d="M153 427v136h-135v62h135v135h62v-135h136v-62h-136v-136h-62z" />
    <glyph glyph-name="equal.ordn" horiz-adv-x="382" 
d="M39 681h304v-60h-304v60zM39 567h304v-62h-304v62z" />
    <glyph glyph-name="a.ordn" horiz-adv-x="381" 
d="M254 587v10c0 49 -22 76 -75 76c-39 0 -78 -14 -106 -29l-21 57c39 18 90 33 138 33c98 0 136 -55 136 -143v-205h-65l-4 34c-25 -30 -57 -42 -97 -42c-63 0 -122 34 -122 105c0 85 77 112 151 112c17 0 38 -2 65 -8zM254 538c-22 5 -39 7 -55 7c-39 0 -90 -11 -90 -58
c0 -37 29 -52 63 -52c31 0 57 15 82 36v67z" />
    <glyph glyph-name="b.ordn" horiz-adv-x="433" 
d="M60 386v500h72v-203c24 35 67 51 105 51c95 0 166 -80 166 -179c0 -91 -67 -177 -167 -177c-38 0 -80 15 -106 47l-2 -39h-68zM132 612v-123c23 -31 58 -46 92 -46c71 0 105 59 105 114c0 59 -40 112 -104 112c-34 0 -75 -19 -93 -57z" />
    <glyph glyph-name="c.ordn" horiz-adv-x="325" 
d="M277 468l37 -53c-28 -24 -67 -37 -110 -37c-98 0 -174 72 -174 178c0 99 77 178 177 178c39 0 75 -12 104 -34l-35 -56c-19 16 -45 25 -70 25c-57 0 -102 -50 -102 -113c0 -67 47 -113 102 -113c23 0 52 9 71 25z" />
    <glyph glyph-name="d.ordn" horiz-adv-x="433" 
d="M301 689v197h72v-500h-68l-3 45c-25 -37 -68 -53 -107 -53c-94 0 -165 80 -165 178c0 92 67 178 167 178c36 0 76 -15 104 -45zM209 669c-71 0 -105 -59 -105 -114c0 -58 40 -112 104 -112c34 0 74 19 93 57v123c-24 31 -60 46 -92 46z" />
    <glyph glyph-name="e.ordn" horiz-adv-x="387" 
d="M300 492l50 -33c-36 -54 -81 -81 -151 -81c-106 0 -169 76 -169 177s74 179 170 179c91 0 157 -67 157 -158c0 -12 -2 -28 -3 -38h-251c5 -55 41 -99 100 -99c44 0 76 17 97 53zM201 674c-52 0 -83 -36 -94 -82h176c-2 46 -36 82 -82 82z" />
    <glyph glyph-name="f.ordn" horiz-adv-x="248" 
d="M260 877l-21 -57c-14 7 -27 10 -44 10c-44 0 -50 -27 -50 -69v-35h90v-62h-90v-278h-72v278h-38v62h38v41c0 78 27 127 114 127c24 0 52 -7 73 -17z" />
    <glyph glyph-name="g.ordn" horiz-adv-x="428" 
d="M195 386c-94 0 -165 76 -165 174c0 92 67 174 167 174c37 0 78 -16 105 -47l3 39h68v-321c0 -124 -82 -169 -171 -169c-53 0 -109 16 -153 46l27 61c35 -25 84 -42 124 -42c54 0 101 27 101 93v42c-26 -35 -69 -50 -106 -50zM209 669c-71 0 -105 -56 -105 -110
c0 -58 40 -108 103 -108c34 0 75 18 94 57v115c-24 31 -60 46 -92 46z" />
    <glyph glyph-name="h.ordn" horiz-adv-x="419" 
d="M132 386h-72v500h72v-211c25 38 65 59 107 59c98 0 125 -78 125 -171v-177h-72v171c0 54 -2 112 -69 112c-35 0 -70 -23 -91 -57v-226z" />
    <glyph glyph-name="i.ordn" horiz-adv-x="192" 
d="M132 386h-72v340h72v-340zM132 785h-72v73h72v-73z" />
    <glyph glyph-name="j.ordn" horiz-adv-x="197" 
d="M-36 252l20 57c9 -4 22 -8 33 -8c43 0 48 27 48 67v358h72v-368c0 -70 -24 -121 -106 -121c-24 0 -47 5 -67 15zM137 785h-72v73h72v-73z" />
    <glyph glyph-name="k.ordn" horiz-adv-x="360" 
d="M132 886v-320l128 160h86l-119 -140l129 -200h-88l-90 143l-46 -54v-89h-72v500h72z" />
    <glyph glyph-name="l.ordn" horiz-adv-x="192" 
d="M132 886v-500h-72v500h72z" />
    <glyph glyph-name="m.ordn" horiz-adv-x="627" 
d="M132 386h-72v340h67l2 -49c26 36 67 57 104 57c43 0 80 -19 100 -61c30 44 74 61 117 61c98 0 122 -80 122 -171v-177h-72v171c0 52 -2 112 -67 112c-30 0 -63 -20 -85 -50c3 -17 4 -37 4 -56v-177h-72v171c0 50 -2 112 -65 112c-30 0 -63 -25 -83 -52v-231z" />
    <glyph glyph-name="n.ordn" horiz-adv-x="419" 
d="M132 386h-72v340h67l3 -53c26 40 66 61 109 61c100 0 125 -78 125 -171v-177h-72v171c0 54 -2 112 -69 112c-35 0 -70 -23 -91 -57v-226z" />
    <glyph glyph-name="o.ordn" horiz-adv-x="410" 
d="M205 734c101 0 175 -78 175 -178c0 -99 -74 -178 -175 -178s-175 79 -175 178c0 100 74 178 175 178zM306 556c0 63 -42 113 -101 113s-101 -50 -101 -113s42 -113 101 -113s101 50 101 113z" />
    <glyph glyph-name="p.ordn" horiz-adv-x="433" 
d="M132 220h-72v506h68l2 -45c24 36 69 53 107 53c95 0 166 -80 166 -179c0 -91 -67 -177 -167 -177c-37 0 -78 15 -104 44v-202zM224 443c71 0 105 59 105 114c0 59 -40 112 -104 112c-34 0 -75 -19 -93 -57v-123c23 -31 58 -46 92 -46z" />
    <glyph glyph-name="q.ordn" horiz-adv-x="433" 
d="M197 734c37 0 78 -16 105 -47l3 39h68v-506h-72v209c-26 -36 -68 -51 -106 -51c-94 0 -165 80 -165 178c0 92 67 178 167 178zM208 443c34 0 74 19 93 57v123c-24 31 -60 46 -92 46c-71 0 -105 -59 -105 -114c0 -58 40 -112 104 -112z" />
    <glyph glyph-name="r.ordn" horiz-adv-x="261" 
d="M214 734c15 0 26 -2 39 -5l-15 -71c-10 4 -20 6 -32 6c-32 0 -56 -17 -74 -49v-229h-72v340h68l2 -52c20 35 49 60 84 60z" />
    <glyph glyph-name="s.ordn" horiz-adv-x="320" 
d="M274 693l-42 -44c-16 15 -42 26 -66 26c-27 0 -45 -15 -45 -38c0 -24 30 -36 61 -49c44 -18 99 -42 99 -103c0 -75 -61 -107 -125 -107c-49 0 -93 19 -125 55l47 42c24 -25 49 -38 77 -38c29 0 54 15 54 44c0 26 -31 38 -65 52c-43 18 -92 39 -92 99c0 68 54 102 113 102
c40 0 81 -13 109 -41z" />
    <glyph glyph-name="t.ordn" horiz-adv-x="247" 
d="M208 451l22 -57c-19 -10 -46 -16 -70 -16c-81 0 -103 60 -103 126v160h-43v62h43l6 78h66v-78h92v-62h-92v-146c0 -34 3 -77 42 -77c14 0 26 4 37 10z" />
    <glyph glyph-name="u.ordn" horiz-adv-x="419" 
d="M287 500v226h72v-340h-67l-3 53c-26 -40 -66 -61 -109 -61c-100 0 -125 78 -125 171v177h72v-171c0 -54 2 -112 69 -112c35 0 70 23 91 57z" />
    <glyph glyph-name="v.ordn" horiz-adv-x="337" 
d="M331 726l-135 -340h-62l-128 340h81l82 -246h2l81 246h79z" />
    <glyph glyph-name="w.ordn" horiz-adv-x="495" 
d="M285 726l64 -245h2l63 245h75l-99 -340h-76l-66 240h-1l-68 -240h-80l-93 340h77l59 -245h2l69 245h72z" />
    <glyph glyph-name="x.ordn" horiz-adv-x="353" 
d="M347 386h-92l-79 119l-80 -119h-90l128 171l-120 169h92l77 -113l75 113h89l-124 -166z" />
    <glyph glyph-name="y.ordn" horiz-adv-x="334" 
d="M328 726l-189 -491l-63 25l52 140l-122 326h80l80 -239h2l82 239h78z" />
    <glyph glyph-name="z.ordn" horiz-adv-x="317" 
d="M42 420l142 244h-150v62h246v-33l-144 -245h155v-62h-249v34z" />
    <glyph glyph-name="zero.denom" horiz-adv-x="314" 
d="M157 306c-40 0 -62 -42 -62 -127s22 -127 62 -127s62 42 62 127s-22 127 -62 127zM290 179c0 -116 -48 -186 -133 -186s-133 70 -133 186s48 186 133 186s133 -70 133 -186z" />
    <glyph glyph-name="one.denom" horiz-adv-x="223" 
d="M166 0h-69v283c-17 -8 -38 -17 -53 -23v62c23 12 52 26 77 40h45v-362z" />
    <glyph glyph-name="two.denom" horiz-adv-x="299" 
d="M38 53c43 44 91 100 125 147c14 19 28 44 28 67c0 25 -20 40 -46 40c-27 0 -46 -20 -46 -52l-69 12c4 60 59 99 118 99c58 0 115 -37 115 -99c0 -34 -18 -69 -39 -99c-27 -38 -61 -76 -93 -110h147v-58h-240v53z" />
    <glyph glyph-name="three.denom" horiz-adv-x="301" 
d="M95 152v60c18 0 34 1 45 4c25 7 41 23 41 47s-19 43 -51 43c-23 0 -42 -13 -48 -38l-59 26c16 45 59 71 108 71c65 0 120 -38 120 -97c0 -31 -19 -61 -45 -76c37 -13 62 -48 62 -89c0 -69 -59 -110 -128 -110c-50 0 -99 23 -122 71l58 27c12 -26 35 -40 64 -40
c30 0 57 17 57 51s-30 53 -70 53c-8 0 -20 0 -32 -3z" />
    <glyph glyph-name="four.denom" horiz-adv-x="309" 
d="M21 150c45 59 107 143 154 209h70v-213h52v-57h-52v-89h-68v89h-156v61zM177 146v122c-25 -37 -62 -95 -83 -122h83z" />
    <glyph glyph-name="five.denom" horiz-adv-x="295" 
d="M251 300h-130c-1 -28 -4 -56 -6 -83c14 7 31 9 46 9c60 0 107 -50 107 -110c0 -71 -55 -123 -126 -123c-51 0 -98 24 -121 68l58 29c12 -28 36 -39 60 -39c37 0 58 28 58 61s-24 57 -58 57c-20 0 -36 -6 -50 -23l-45 31c5 52 10 132 12 181h195v-58z" />
    <glyph glyph-name="six.denom" horiz-adv-x="309" 
d="M212 380l25 -55c-63 -27 -111 -61 -132 -119c18 15 41 24 67 24c67 0 113 -51 113 -114c0 -70 -50 -124 -123 -124c-87 0 -138 69 -138 147c0 117 86 200 188 241zM94 138c0 -46 17 -89 64 -89c36 0 57 29 57 63c0 38 -24 61 -58 61c-25 0 -50 -13 -63 -35z" />
    <glyph glyph-name="seven.denom" horiz-adv-x="259" 
d="M247 314c-45 -93 -110 -237 -149 -331l-63 29c49 113 105 225 136 287h-165v59h241v-44z" />
    <glyph glyph-name="eight.denom" horiz-adv-x="326" 
d="M236 188c35 -19 54 -45 54 -89c0 -59 -53 -106 -127 -106c-76 0 -127 47 -127 106c0 44 21 70 54 89c-27 17 -45 41 -45 77c0 55 48 100 118 100s118 -45 118 -100c0 -36 -18 -60 -45 -77zM114 261c0 -26 21 -47 49 -47c27 0 49 21 49 47c0 27 -22 47 -49 47
c-28 0 -49 -20 -49 -47zM106 103c0 -30 24 -53 57 -53s57 23 57 53s-24 54 -57 54s-57 -24 -57 -54z" />
    <glyph glyph-name="nine.denom" horiz-adv-x="309" 
d="M97 -23l-25 55c63 27 111 61 132 119c-18 -15 -41 -24 -67 -24c-67 0 -113 51 -113 114c0 70 50 124 123 124c87 0 138 -69 138 -147c0 -117 -86 -200 -188 -241zM215 219c0 46 -17 89 -64 89c-36 0 -57 -29 -57 -63c0 -38 24 -61 58 -61c25 0 50 13 63 35z" />
    <glyph glyph-name="onehalf" unicode="&#xbd;" horiz-adv-x="770" 
d="M577 712l55 -40l-497 -684l-55 40zM224 338h-69v283c-17 -8 -38 -17 -53 -23v62c23 12 52 26 77 40h45v-362zM450 53c43 44 91 100 125 147c14 19 28 44 28 67c0 25 -20 40 -46 40c-27 0 -46 -20 -46 -52l-69 12c4 60 59 99 118 99c58 0 115 -37 115 -99
c0 -34 -18 -69 -39 -99c-27 -38 -61 -76 -93 -110h147v-58h-240v53z" />
    <glyph glyph-name="onethird" unicode="&#x2153;" horiz-adv-x="770" 
d="M577 712l55 -40l-497 -684l-55 40zM224 338h-69v283c-17 -8 -38 -17 -53 -23v62c23 12 52 26 77 40h45v-362zM517 152v60c18 0 34 1 45 4c25 7 41 23 41 47s-19 43 -51 43c-23 0 -42 -13 -48 -38l-59 26c16 45 59 71 108 71c65 0 120 -38 120 -97c0 -31 -19 -61 -45 -76
c37 -13 62 -48 62 -89c0 -69 -59 -110 -128 -110c-50 0 -99 23 -122 71l58 27c12 -26 35 -40 64 -40c30 0 57 17 57 51s-30 53 -70 53c-8 0 -20 0 -32 -3z" />
    <glyph glyph-name="twothirds" unicode="&#x2154;" horiz-adv-x="858" 
d="M665 712l55 -40l-497 -684l-55 40zM88 394c43 44 91 100 125 147c14 19 28 44 28 67c0 25 -20 40 -46 40c-27 0 -46 -20 -46 -52l-69 12c4 60 59 99 118 99c58 0 115 -37 115 -99c0 -34 -18 -69 -39 -99c-27 -38 -61 -76 -93 -110h147v-58h-240v53zM605 152v60
c18 0 34 1 45 4c25 7 41 23 41 47s-19 43 -51 43c-23 0 -42 -13 -48 -38l-59 26c16 45 59 71 108 71c65 0 120 -38 120 -97c0 -31 -19 -61 -45 -76c37 -13 62 -48 62 -89c0 -69 -59 -110 -128 -110c-50 0 -99 23 -122 71l58 27c12 -26 35 -40 64 -40c30 0 57 17 57 51
s-30 53 -70 53c-8 0 -20 0 -32 -3z" />
    <glyph glyph-name="onequarter" unicode="&#xbc;" horiz-adv-x="745" 
d="M577 712l55 -40l-497 -684l-55 40zM224 338h-69v283c-17 -8 -38 -17 -53 -23v62c23 12 52 26 77 40h45v-362zM389 150c45 59 107 143 154 209h70v-213h52v-57h-52v-89h-68v89h-156v61zM545 146v122c-25 -37 -62 -95 -83 -122h83z" />
    <glyph glyph-name="threequarters" unicode="&#xbe;" horiz-adv-x="812" 
d="M644 712l55 -40l-497 -684l-55 40zM157 494v60c18 0 34 1 45 4c25 7 41 23 41 47s-19 43 -51 43c-23 0 -42 -13 -48 -38l-59 26c16 45 59 71 108 71c65 0 120 -38 120 -97c0 -31 -19 -61 -45 -76c37 -13 62 -48 62 -89c0 -69 -59 -110 -128 -110c-50 0 -99 23 -122 71
l58 27c12 -26 35 -40 64 -40c30 0 57 17 57 51s-30 53 -70 53c-8 0 -20 0 -32 -3zM456 150c45 59 107 143 154 209h70v-213h52v-57h-52v-89h-68v89h-156v61zM612 146v122c-25 -37 -62 -95 -83 -122h83z" />
    <glyph glyph-name="onefifth" horiz-adv-x="779" 
d="M577 712l55 -40l-497 -684l-55 40zM224 338h-69v283c-17 -8 -38 -17 -53 -23v62c23 12 52 26 77 40h45v-362zM682 300h-130c-1 -28 -4 -56 -6 -83c14 7 31 9 46 9c60 0 107 -50 107 -110c0 -71 -55 -123 -126 -123c-51 0 -98 24 -121 68l58 29c12 -28 36 -39 60 -39
c37 0 58 28 58 61s-24 57 -58 57c-20 0 -36 -6 -50 -23l-45 31c5 52 10 132 12 181h195v-58z" />
    <glyph glyph-name="twofifths" horiz-adv-x="867" 
d="M665 712l55 -40l-497 -684l-55 40zM88 394c43 44 91 100 125 147c14 19 28 44 28 67c0 25 -20 40 -46 40c-27 0 -46 -20 -46 -52l-69 12c4 60 59 99 118 99c58 0 115 -37 115 -99c0 -34 -18 -69 -39 -99c-27 -38 -61 -76 -93 -110h147v-58h-240v53zM770 300h-130
c-1 -28 -4 -56 -6 -83c14 7 31 9 46 9c60 0 107 -50 107 -110c0 -71 -55 -123 -126 -123c-51 0 -98 24 -121 68l58 29c12 -28 36 -39 60 -39c37 0 58 28 58 61s-24 57 -58 57c-20 0 -36 -6 -50 -23l-45 31c5 52 10 132 12 181h195v-58z" />
    <glyph glyph-name="threefifths" horiz-adv-x="846" 
d="M644 712l55 -40l-497 -684l-55 40zM157 494v60c18 0 34 1 45 4c25 7 41 23 41 47s-19 43 -51 43c-23 0 -42 -13 -48 -38l-59 26c16 45 59 71 108 71c65 0 120 -38 120 -97c0 -31 -19 -61 -45 -76c37 -13 62 -48 62 -89c0 -69 -59 -110 -128 -110c-50 0 -99 23 -122 71
l58 27c12 -26 35 -40 64 -40c30 0 57 17 57 51s-30 53 -70 53c-8 0 -20 0 -32 -3zM749 300h-130c-1 -28 -4 -56 -6 -83c14 7 31 9 46 9c60 0 107 -50 107 -110c0 -71 -55 -123 -126 -123c-51 0 -98 24 -121 68l58 29c12 -28 36 -39 60 -39c37 0 58 28 58 61s-24 57 -58 57
c-20 0 -36 -6 -50 -23l-45 31c5 52 10 132 12 181h195v-58z" />
    <glyph glyph-name="fourfifths" horiz-adv-x="892" 
d="M690 712l55 -40l-497 -684l-55 40zM80 491c45 59 107 143 154 209h70v-213h52v-57h-52v-89h-68v89h-156v61zM236 487v122c-25 -37 -62 -95 -83 -122h83zM795 300h-130c-1 -28 -4 -56 -6 -83c14 7 31 9 46 9c60 0 107 -50 107 -110c0 -71 -55 -123 -126 -123
c-51 0 -98 24 -121 68l58 29c12 -28 36 -39 60 -39c37 0 58 28 58 61s-24 57 -58 57c-20 0 -36 -6 -50 -23l-45 31c5 52 10 132 12 181h195v-58z" />
    <glyph glyph-name="onesixth" horiz-adv-x="748" 
d="M577 712l55 -40l-497 -684l-55 40zM224 338h-69v283c-17 -8 -38 -17 -53 -23v62c23 12 52 26 77 40h45v-362zM595 380l25 -55c-63 -27 -111 -61 -132 -119c18 15 41 24 67 24c67 0 113 -51 113 -114c0 -70 -50 -124 -123 -124c-87 0 -138 69 -138 147
c0 117 86 200 188 241zM477 138c0 -46 17 -89 64 -89c36 0 57 29 57 63c0 38 -24 61 -58 61c-25 0 -50 -13 -63 -35z" />
    <glyph glyph-name="fivesixths" horiz-adv-x="802" 
d="M631 712l55 -40l-497 -684l-55 40zM310 642h-130c-1 -28 -4 -56 -6 -83c14 7 31 9 46 9c60 0 107 -50 107 -110c0 -71 -55 -123 -126 -123c-51 0 -98 24 -121 68l58 29c12 -28 36 -39 60 -39c37 0 58 28 58 61s-24 57 -58 57c-20 0 -36 -6 -50 -23l-45 31
c5 52 10 132 12 181h195v-58zM649 380l25 -55c-63 -27 -111 -61 -132 -119c18 15 41 24 67 24c67 0 113 -51 113 -114c0 -70 -50 -124 -123 -124c-87 0 -138 69 -138 147c0 117 86 200 188 241zM531 138c0 -46 17 -89 64 -89c36 0 57 29 57 63c0 38 -24 61 -58 61
c-25 0 -50 -13 -63 -35z" />
    <glyph glyph-name="oneeighth" unicode="&#x215b;" horiz-adv-x="784" 
d="M577 712l55 -40l-497 -684l-55 40zM224 338h-69v283c-17 -8 -38 -17 -53 -23v62c23 12 52 26 77 40h45v-362zM650 188c35 -19 54 -45 54 -89c0 -59 -53 -106 -127 -106c-76 0 -127 47 -127 106c0 44 21 70 54 89c-27 17 -45 41 -45 77c0 55 48 100 118 100
s118 -45 118 -100c0 -36 -18 -60 -45 -77zM528 261c0 -26 21 -47 49 -47c27 0 49 21 49 47c0 27 -22 47 -49 47c-28 0 -49 -20 -49 -47zM520 103c0 -30 24 -53 57 -53s57 23 57 53s-24 54 -57 54s-57 -24 -57 -54z" />
    <glyph glyph-name="threeeighths" unicode="&#x215c;" horiz-adv-x="851" 
d="M644 712l55 -40l-497 -684l-55 40zM157 494v60c18 0 34 1 45 4c25 7 41 23 41 47s-19 43 -51 43c-23 0 -42 -13 -48 -38l-59 26c16 45 59 71 108 71c65 0 120 -38 120 -97c0 -31 -19 -61 -45 -76c37 -13 62 -48 62 -89c0 -69 -59 -110 -128 -110c-50 0 -99 23 -122 71
l58 27c12 -26 35 -40 64 -40c30 0 57 17 57 51s-30 53 -70 53c-8 0 -20 0 -32 -3zM717 188c35 -19 54 -45 54 -89c0 -59 -53 -106 -127 -106c-76 0 -127 47 -127 106c0 44 21 70 54 89c-27 17 -45 41 -45 77c0 55 48 100 118 100s118 -45 118 -100c0 -36 -18 -60 -45 -77z
M595 261c0 -26 21 -47 49 -47c27 0 49 21 49 47c0 27 -22 47 -49 47c-28 0 -49 -20 -49 -47zM587 103c0 -30 24 -53 57 -53s57 23 57 53s-24 54 -57 54s-57 -24 -57 -54z" />
    <glyph glyph-name="fiveeighths" unicode="&#x215d;" horiz-adv-x="838" 
d="M631 712l55 -40l-497 -684l-55 40zM310 642h-130c-1 -28 -4 -56 -6 -83c14 7 31 9 46 9c60 0 107 -50 107 -110c0 -71 -55 -123 -126 -123c-51 0 -98 24 -121 68l58 29c12 -28 36 -39 60 -39c37 0 58 28 58 61s-24 57 -58 57c-20 0 -36 -6 -50 -23l-45 31
c5 56 10 132 12 181h195v-58zM704 188c35 -19 54 -45 54 -89c0 -59 -53 -106 -127 -106c-76 0 -127 47 -127 106c0 44 21 70 54 89c-27 17 -45 41 -45 77c0 55 48 100 118 100s118 -45 118 -100c0 -36 -18 -60 -45 -77zM582 261c0 -26 21 -47 49 -47c27 0 49 21 49 47
c0 27 -22 47 -49 47c-28 0 -49 -20 -49 -47zM574 103c0 -30 24 -53 57 -53s57 23 57 53s-24 54 -57 54s-57 -24 -57 -54z" />
    <glyph glyph-name="seveneighths" unicode="&#x215e;" horiz-adv-x="784" 
d="M577 712l55 -40l-497 -684l-55 40zM332 656c-45 -93 -110 -237 -149 -331l-63 29c49 113 105 225 136 287h-165v59h241v-44zM650 188c35 -19 54 -45 54 -89c0 -59 -53 -106 -127 -106c-76 0 -127 47 -127 106c0 44 21 70 54 89c-27 17 -45 41 -45 77c0 55 48 100 118 100
s118 -45 118 -100c0 -36 -18 -60 -45 -77zM528 261c0 -26 21 -47 49 -47c27 0 49 21 49 47c0 27 -22 47 -49 47c-28 0 -49 -20 -49 -47zM520 103c0 -30 24 -53 57 -53s57 23 57 53s-24 54 -57 54s-57 -24 -57 -54z" />
    <glyph glyph-name="oneseventh" horiz-adv-x="796" 
d="M577 712l55 -40l-497 -684l-55 40zM224 338h-69v283c-17 -8 -38 -17 -53 -23v62c23 12 52 26 77 40h45v-362zM716 314c-45 -93 -110 -237 -149 -331l-63 29c49 113 105 225 136 287h-165v59h241v-44z" />
    <glyph glyph-name="twosevenths" horiz-adv-x="884" 
d="M665 712l55 -40l-497 -684l-55 40zM88 394c43 44 91 100 125 147c14 19 28 44 28 67c0 25 -20 40 -46 40c-27 0 -46 -20 -46 -52l-69 12c4 60 59 99 118 99c58 0 115 -37 115 -99c0 -34 -18 -69 -39 -99c-27 -38 -61 -76 -93 -110h147v-58h-240v53zM804 314
c-45 -93 -110 -237 -149 -331l-63 29c49 113 105 225 136 287h-165v59h241v-44z" />
    <glyph glyph-name="threesevenths" horiz-adv-x="863" 
d="M644 712l55 -40l-497 -684l-55 40zM157 494v60c18 0 34 1 45 4c25 7 41 23 41 47s-19 43 -51 43c-23 0 -42 -13 -48 -38l-59 26c16 45 59 71 108 71c65 0 120 -38 120 -97c0 -31 -19 -61 -45 -76c37 -13 62 -48 62 -89c0 -69 -59 -110 -128 -110c-50 0 -99 23 -122 71
l58 27c12 -26 35 -40 64 -40c30 0 57 17 57 51s-30 53 -70 53c-8 0 -20 0 -32 -7zM783 314c-45 -93 -110 -237 -149 -331l-63 29c49 113 105 225 136 287h-165v59h241v-44z" />
    <glyph glyph-name="foursevenths" horiz-adv-x="909" 
d="M690 712l55 -40l-497 -684l-55 40zM80 491c45 59 107 143 154 209h70v-213h52v-57h-52v-89h-68v89h-156v61zM236 487v122c-25 -37 -62 -95 -83 -122h83zM829 314c-45 -93 -110 -237 -149 -331l-63 29c49 113 105 225 136 287h-165v59h241v-44z" />
    <glyph glyph-name="fivesevenths" horiz-adv-x="850" 
d="M631 712l55 -40l-497 -684l-55 40zM310 642h-130c-1 -28 -4 -56 -6 -83c14 7 31 9 46 9c60 0 107 -50 107 -110c0 -71 -55 -123 -126 -123c-51 0 -98 24 -121 68l58 29c12 -28 36 -39 60 -39c37 0 58 28 58 61s-24 57 -58 57c-20 0 -36 -6 -50 -23l-45 31
c5 52 10 132 12 181h195v-58zM770 314c-45 -93 -110 -237 -149 -331l-63 29c49 113 105 225 136 287h-165v59h241v-44z" />
    <glyph glyph-name="sixsevenths" horiz-adv-x="867" 
d="M648 712l55 -40l-497 -684l-55 40zM268 722l25 -55c-63 -27 -111 -61 -132 -119c18 15 41 24 67 24c67 0 113 -51 113 -114c0 -70 -50 -124 -123 -124c-87 0 -138 69 -138 147c0 117 86 200 188 241zM150 480c0 -46 17 -89 64 -89c36 0 57 29 57 63c0 38 -24 61 -58 61
c-25 0 -50 -13 -63 -35zM787 314c-45 -93 -110 -237 -149 -331l-63 29c49 113 105 225 136 287h-165v59h241v-44z" />
    <glyph glyph-name="oneninth" horiz-adv-x="803" 
d="M577 712l55 -40l-497 -684l-55 40zM224 338h-69v283c-17 -8 -38 -17 -53 -23v62c23 12 52 26 77 40h45v-362zM535 -23l-25 55c63 27 111 61 132 119c-18 -15 -41 -24 -67 -24c-67 0 -113 51 -113 114c0 70 50 124 123 124c87 0 138 -69 138 -147
c0 -117 -86 -200 -188 -241zM653 219c0 46 -17 89 -64 89c-36 0 -57 -29 -57 -63c0 -38 24 -61 58 -61c25 0 50 13 63 35z" />
    <glyph glyph-name="twoninths" horiz-adv-x="891" 
d="M665 712l55 -40l-497 -684l-55 40zM88 394c43 44 91 100 125 147c14 19 28 44 28 67c0 25 -20 40 -46 40c-27 0 -46 -20 -46 -52l-69 12c4 60 59 99 118 99c58 0 115 -37 115 -99c0 -34 -18 -69 -39 -99c-27 -38 -61 -76 -93 -110h147v-58h-240v53zM623 -63l-25 55
c63 27 111 61 132 119c-18 -15 -41 -24 -67 -24c-67 0 -113 51 -113 114c0 70 50 124 123 124c87 0 138 -69 138 -147c0 -117 -86 -200 -188 -241zM741 219c0 46 -17 89 -64 89c-36 0 -57 -29 -57 -63c0 -38 24 -61 58 -61c25 0 50 13 63 35z" />
    <glyph glyph-name="fourninths" horiz-adv-x="916" 
d="M690 712l55 -40l-497 -684l-55 40zM80 491c45 59 107 143 154 209h70v-213h52v-57h-52v-89h-68v89h-156v61zM236 487v122c-25 -37 -62 -95 -83 -122h83zM648 -23l-25 55c63 27 111 61 132 119c-18 -15 -41 -24 -67 -24c-67 0 -113 51 -113 114c0 70 50 124 123 124
c87 0 138 -69 138 -147c0 -117 -86 -200 -188 -241zM766 219c0 46 -17 89 -64 89c-36 0 -57 -29 -57 -63c0 -38 24 -61 58 -61c25 0 50 13 63 35z" />
    <glyph glyph-name="fiveninths" horiz-adv-x="857" 
d="M631 712l55 -40l-497 -684l-55 40zM310 642h-130c-1 -28 -4 -56 -6 -83c14 7 31 9 46 9c60 0 107 -50 107 -110c0 -71 -55 -123 -126 -123c-51 0 -98 24 -121 68l58 29c12 -28 36 -39 60 -39c37 0 58 28 58 61s-24 57 -58 57c-20 0 -36 -6 -50 -23l-45 31
c5 52 10 132 12 181h195v-58zM589 -23l-25 55c63 27 111 61 132 119c-18 -15 -41 -24 -67 -24c-67 0 -113 51 -113 114c0 70 50 124 123 124c87 0 138 -69 138 -147c0 -117 -86 -200 -188 -241zM707 219c0 46 -17 89 -64 89c-36 0 -57 -29 -57 -63c0 -38 24 -61 58 -61
c25 0 50 13 63 35z" />
    <glyph glyph-name="sevenninths" horiz-adv-x="803" 
d="M577 712l55 -40l-497 -684l-55 40zM336 656c-45 -93 -110 -237 -149 -335l-63 29c49 113 105 225 136 287h-165v59h241v-44zM535 -23l-25 55c63 27 111 61 132 119c-18 -15 -41 -24 -67 -24c-67 0 -113 51 -113 114c0 70 50 124 123 124c87 0 138 -69 138 -147
c0 -117 -86 -200 -188 -241zM653 219c0 46 -17 89 -64 89c-36 0 -57 -29 -57 -63c0 -38 24 -61 58 -61c25 0 50 13 63 35z" />
    <glyph glyph-name="eightninths" horiz-adv-x="879" 
d="M653 712l55 -40l-497 -684l-55 40zM280 530c35 -19 54 -45 54 -89c0 -59 -53 -106 -127 -106c-76 0 -127 47 -127 106c0 44 21 70 54 89c-27 17 -45 41 -45 77c0 55 48 100 118 100s118 -45 118 -100c0 -36 -18 -60 -45 -77zM158 603c0 -26 21 -47 49 -47
c27 0 49 21 49 47c0 27 -22 47 -49 47c-28 0 -49 -20 -49 -47zM150 445c0 -30 24 -53 57 -53s57 23 57 53s-24 54 -57 54s-57 -24 -57 -54zM611 -23l-25 55c63 27 111 61 132 119c-18 -15 -41 -24 -67 -24c-67 0 -113 51 -113 114c0 70 50 124 123 124
c87 0 138 -69 138 -147c0 -117 -86 -200 -188 -241zM729 219c0 46 -17 89 -64 89c-36 0 -57 -29 -57 -63c0 -38 24 -61 58 -61c25 0 50 13 63 35z" />
    <glyph glyph-name="partialdiff" unicode="&#x2202;" 
d="M32 699l32 78c298 -123 472 -280 472 -532c0 -141 -96 -257 -263 -257c-152 0 -254 126 -254 263s104 249 248 249c34 0 68 -7 95 -16c-74 93 -192 157 -330 215zM415 394c-36 17 -69 23 -104 23c-115 0 -199 -51 -199 -164c0 -96 69 -181 168 -181c101 0 163 79 163 168
c0 58 -10 109 -28 154z" />
    <glyph glyph-name="Omega" unicode="&#x2126;" horiz-adv-x="794" 
d="M20 86h184c-106 74 -154 181 -154 285c0 174 124 341 347 341s347 -167 347 -341c0 -104 -48 -211 -154 -285h184v-86h-318v94c122 42 185 161 185 275c0 131 -73 257 -244 257s-244 -126 -244 -257c0 -114 63 -233 185 -275v-94h-318v86z" />
    <glyph glyph-name="Delta" unicode="&#x2206;" horiz-adv-x="633" 
d="M628 0h-623l271 700h84zM485 86l-171 468h-1l-172 -468h344z" />
    <glyph glyph-name="product" unicode="&#x220f;" 
d="M543 484h-90v-484h-96v484h-164v-484h-96v484h-90v86h536v-86z" />
    <glyph glyph-name="summation" unicode="&#x2211;" 
d="M396 365l-218 -279h354v-86h-512v51l255 311l-244 286v52h476v-86h-323z" />
    <glyph glyph-name="uni0394" unicode="&#x394;" 
d="M540 0h-531l221 570h92zM407 81l-134 368h-2l-135 -368h271z" />
    <glyph glyph-name="uni03A9" unicode="&#x3a9;" horiz-adv-x="794" 
d="M20 86h184c-106 74 -154 181 -154 285c0 174 124 341 347 341s347 -167 347 -341c0 -104 -48 -211 -154 -285h184v-86h-318v94c122 42 185 161 185 275c0 131 -73 257 -244 257s-244 -126 -244 -257c0 -114 63 -233 185 -275v-94h-318v86z" />
    <glyph glyph-name="uni03BC" unicode="&#x3bc;" 
d="M406 0v82c-37 -59 -96 -94 -163 -94c-41 0 -73 8 -99 22v-260h-91v750h91v-250c0 -82 4 -178 113 -178c58 0 113 40 149 96v332h91v-500h-91z" />
    <glyph glyph-name="pi" unicode="&#x3c0;" 
d="M537 420h-94v-244c0 -13 0 -24 1 -34c2 -48 15 -71 48 -78l-38 -80c-62 16 -94 67 -100 144c-1 12 -2 25 -2 39v253h-171v-359c0 -20 -2 -41 -5 -61h-93c6 22 7 48 7 70v350h-60v80h507v-80z" />
    <glyph glyph-name="mu" unicode="&#xb5;" 
d="M406 0v82c-37 -59 -96 -94 -163 -94c-41 0 -73 8 -99 22v-260h-91v750h91v-250c0 -82 4 -178 113 -178c58 0 113 40 149 96v332h91v-500h-91z" />
    <glyph glyph-name="minus" unicode="&#x2212;" 
d="M54 350h441v-78h-441v78z" />
    <glyph glyph-name="uni2215" unicode="&#x2215;" horiz-adv-x="363" 
d="M363 735l-292 -788l-71 27l292 788z" />
    <glyph glyph-name="uni2219" unicode="&#x2219;" 
d="M327 253h-105v116h105v-116z" />
    <glyph glyph-name="radical" unicode="&#x221a;" 
d="M550 750l-242 -750h-95l-127 419h-86v81h164l99 -381h2l187 631h98z" />
    <glyph glyph-name="infinity" unicode="&#x221e;" horiz-adv-x="778" 
d="M738 246c0 -90 -74 -164 -167 -164c-63 0 -112 34 -182 108c-71 -74 -120 -108 -182 -108c-94 0 -167 75 -167 166c0 90 74 164 167 164c62 0 111 -34 182 -108c70 74 119 108 182 108c94 0 167 -75 167 -166zM571 159c47 0 80 42 80 88c0 45 -34 88 -80 88
c-39 0 -85 -40 -130 -88c45 -49 91 -88 130 -88zM207 335c-47 0 -80 -42 -80 -88c0 -45 34 -88 80 -88c39 0 85 40 130 88c-45 49 -91 88 -130 88z" />
    <glyph glyph-name="integral" unicode="&#x222b;" 
d="M493 740l-26 -76c-19 9 -38 14 -62 14c-32 0 -50 -6 -62 -18c-17 -18 -18 -49 -20 -95l-26 -602c-3 -69 -17 -114 -43 -143c-27 -30 -61 -41 -109 -41c-30 0 -60 10 -89 22l26 76c19 -9 32 -14 52 -14c29 0 40 6 52 18c17 18 18 49 20 95l26 602c3 69 17 114 43 143
c27 30 66 41 119 41c33 0 70 -10 99 -22z" />
    <glyph glyph-name="approxequal" unicode="&#x2248;" 
d="M438 443l57 -38c-26 -54 -74 -78 -132 -78c-72 0 -117 46 -178 46c-31 0 -57 -9 -74 -37l-57 38c26 54 74 78 132 78c72 0 117 -46 178 -46c31 0 57 9 74 37zM438 286l57 -38c-26 -54 -74 -78 -132 -78c-72 0 -117 46 -178 46c-31 0 -57 -9 -74 -37l-57 38
c26 54 74 78 132 78c72 0 117 -46 178 -46c31 0 57 9 74 37z" />
    <glyph glyph-name="notequal" unicode="&#x2260;" 
d="M54 272h143l52 78h-195v78h248l105 156l62 -44l-76 -112h102v-78h-155l-52 -78h207v-78h-260l-105 -156l-61 44l75 112h-90v78z" />
    <glyph glyph-name="lessequal" unicode="&#x2264;" 
d="M24 342v78l501 200v-78l-404 -161l404 -161v-78zM24 78h501v-78h-501v78z" />
    <glyph glyph-name="greaterequal" unicode="&#x2265;" 
d="M525 420v-78l-501 -200v78l404 161l-404 161v78zM24 78h501v-78h-501v78z" />
    <glyph glyph-name="less" unicode="&#x3c;" 
d="M24 272v78l501 200v-78l-404 -161l404 -161v-78z" />
    <glyph glyph-name="equal" unicode="=" 
d="M54 428h441v-78h-441v78zM54 272h441v-78h-441v78z" />
    <glyph glyph-name="greater" unicode="&#x3e;" 
d="M526 350v-78l-501 -200v78l404 161l-404 161v78z" />
    <glyph glyph-name="lozenge" unicode="&#x25ca;" 
d="M37 350l196 350h85l196 -350l-196 -350h-85zM429 350l-154 274l-153 -274l153 -274z" />
    <glyph glyph-name="plus" unicode="+" 
d="M314 561v-211h211v-78h-211v-210h-78v210h-211v78h211v211h78z" />
    <glyph glyph-name="plusminus" unicode="&#xb1;" 
d="M25 78h500v-78h-500v78zM314 631v-211h211v-78h-211v-210h-78v210h-211v78h211v211h78z" />
    <glyph glyph-name="divide" unicode="&#xf7;" 
d="M24 272v78h501v-78h-501zM327 61h-105v116h105v-116zM327 445h-105v116h105v-116z" />
    <glyph glyph-name="multiply" unicode="&#xd7;" 
d="M126 516l149 -150l150 150l55 -56l-149 -149l148 -148l-55 -56l-149 149l-149 -149l-55 55l149 149l-149 149z" />
    <glyph glyph-name="commaaccent" horiz-adv-x="360" 
d="M172 -231h-75l36 175h85z" />
    <glyph glyph-name="revcommaaccent" horiz-adv-x="360" 
d="M187 746h79l-37 -179h-89z" />
    <glyph glyph-name="tilde.cap" horiz-adv-x="360" 
d="M285 866l65 7c1 -6 2 -17 2 -27c0 -58 -41 -95 -98 -95c-70 0 -103 64 -148 64c-18 0 -32 -11 -33 -30c0 -4 0 -7 1 -10l-65 -7c-1 6 -2 17 -2 27c0 58 41 95 98 95c68 0 104 -64 148 -64c18 0 32 11 33 30c0 3 0 7 -1 10z" />
    <glyph glyph-name="ring.cap" horiz-adv-x="360" 
d="M87 819c0 51 42 93 93 93s93 -42 93 -93s-42 -93 -93 -93s-93 42 -93 93zM136 819c0 -24 20 -44 44 -44s44 20 44 44s-20 44 -44 44s-44 -20 -44 -44z" />
    <glyph glyph-name="circumflex.cap" horiz-adv-x="360" 
d="M132 922h95l107 -134l-54 -42l-102 116l-101 -116l-55 42z" />
    <glyph glyph-name="acute.cap" horiz-adv-x="360" 
d="M319 866l-175 -126l-42 54l165 138z" />
    <glyph glyph-name="grave.cap" horiz-edv-x="360" 
d="M216 740l-175 126l52 66l165 -138z" />
    <glyph glyph-name="dieresis.cap" horiz-adv-x="360" 
d="M96 764h-102v111h102v-111zM366 764h-102v111h102v-111z" />
    <glyph glyph-name="caron.cap" horiz-adv-x="360" 
d="M224 752h-95l-107 134l55 42l102 -116l101 116l54 -42z" />
    <glyph glyph-name="macron.cap" horiz-adv-x="360" 
d="M345 774h-330v71h330v-71z" />
    <glyph glyph-name="dotaccent.cap" horiz-adv-x="360" 
d="M231 764h-102v111h102v-111z" />
    <glyph glyph-name="cedilla.cap" horiz-adv-x="360" 
d="M197 0l-28 -65l2 -1c9 8 25 16 48 16c53 0 87 -42 87 -93c0 -53 -47 -102 -109 -102c-45 0 -81 20 -103 59l57 28c9 -25 28 -32 46 -32c26 0 43 21 43 44c0 24 -15 47 -43 47c-16 0 -31 -6 -41 -24l-62 33l47 100z" />
    <glyph glyph-name="hungarumlaut.cap" horiz-adv-x="360" 
d="M227 866l-175 -126l-42 54l165 138zM437 861l-168 -121l-42 54l158 133z" />
    <glyph glyph-name="apostrophe" unicode="&#x2bc;" horiz-adv-x="360" 
d="M154 712h99l-58 -212h-80z" />
    <glyph glyph-name="commaaccent.cap" horiz-adv-x="360" 
d="M172 -231h-75l36 175h85z" />
    <glyph glyph-name="breve.cap" horiz-adv-x="360" 
d="M259 894h64v-6c0 -80 -63 -132 -143 -132c-87 0 -143 52 -143 132v6h67v-6c0 -44 32 -68 76 -68c42 0 79 23 79 68v6z" />
    <glyph glyph-name="caron.alt" horiz-adv-x="360" 
d="M166 500h-76l40 200h89z" />
    <glyph glyph-name="ogonek.cap" horiz-adv-x="360" 
d="M161 12l69 -7l4 -5c-73 -22 -103 -69 -103 -110c0 -27 15 -44 42 -44c15 0 30 5 44 14l32 -51c-22 -20 -56 -31 -89 -31c-56 0 -111 34 -111 99c0 63 42 108 112 135z" />
    <glyph glyph-name="square" horiz-adv-x="388" 
d="M60 155v268h268v-268h-268z" />
    <glyph glyph-name="square.open" horiz-adv-x="388" 
d="M60 155v268h268v-268h-268zM138 345v-112h112v112h-112z" />
    <glyph glyph-name="circle" unicode="&#x25cb;" horiz-adv-x="366" 
d="M35 289c0 82 66 148 148 148s148 -66 148 -148s-66 -148 -148 -148s-148 66 -148 148z" />
    <glyph glyph-name="circle.open" horiz-adv-x="366" 
d="M35 289c0 82 66 148 148 148s148 -66 148 -148s-66 -148 -148 -148s-148 66 -148 148zM121 289c0 -34 28 -62 62 -62s62 28 62 62s-28 62 -62 62s-62 -28 -62 -62z" />
    <glyph glyph-name="doublecircle" horiz-adv-x="366" 
d="M39 283c0 79 65 144 144 144s144 -65 144 -144s-65 -144 -144 -144s-144 65 -144 144zM128 283c0 30 25 55 55 55s55 -25 55 -55s-25 -55 -55 -55s-55 25 -55 55zM75 283c0 -59 49 -108 108 -108s108 49 108 108s-49 108 -108 108s-108 -49 -108 -108z" />
    <glyph glyph-name="triangle.left" horiz-adv-x="398" 
d="M338 111l-308 175l308 173v-348z" />
    <glyph glyph-name="triangle" unicode="&#x25b3;" horiz-adv-x="398" 
d="M368 286l-308 -175v348z" />
    <glyph glyph-name="raute" horiz-adv-x="356" 
d="M178 512l148 -236l-148 -236l-148 236z" />
    <glyph glyph-name="triangleWhiteLeft" horiz-adv-x="490" 
d="M430 59l-400 266l400 226v-452zM360 391l-187 -106l187 -105v211z" />
    <glyph glyph-name="triangleWhiteRight" horiz-adv-x="490" 
d="M460 285l-400 -226v452zM317 285l-187 106v-211z" />
    <glyph glyph-name="arrow.right" horiz-adv-x="1000" 
d="M40 315v91h769l-260 255l64 64l367 -364l-367 -364l-64 64l259 254h-768z" />
    <glyph glyph-name="arrow.left" horiz-adv-x="1000" 
d="M960 406v-91h-768l259 -254l-64 -64l-367 364l367 364l64 -64l-260 -255h769z" />
    <glyph glyph-name="arrow.up" horiz-adv-x="900" 
d="M495 -99h-91v768l-254 -259l-64 64l364 367l364 -367l-64 -64l-255 260v-769z" />
    <glyph glyph-name="arrow.down" horiz-adv-x="900" 
d="M404 821h91v-769l255 260l64 -64l-364 -367l-364 367l64 64l254 -259v768z" />
    <glyph glyph-name="arrow.leftup" horiz-adv-x="1000" 
d="M158 693l517 -2v-90l-365 3l544 -544l-64 -64l-543 543l3 -363h-90z" />
    <glyph glyph-name="arrow.rightup" horiz-adv-x="1000" 
d="M337 691l517 2l-2 -517h-90l3 363l-543 -543l-64 64l544 544l-365 -3v90z" />
    <glyph glyph-name="arrowleft.down" horiz-adv-x="1000" 
d="M790 697l64 -64l-544 -544l365 3v-90l-517 -2l2 517h90l-3 -363z" />
    <glyph glyph-name="arrowright.down" horiz-adv-x="1000" 
d="M158 633l64 64l543 -543l-3 363h90l2 -517l-517 2v90l365 -3z" />
    <glyph glyph-name="arrowright.alt" horiz-adv-x="469" 
d="M389 285l-257 -191l-52 74l170 117l-170 117l52 74z" />
    <glyph glyph-name="arrowleft.alt" horiz-adv-x="469" 
d="M337 94l-257 191l257 191l52 -74l-170 -117l170 -117z" />
    <glyph glyph-name="arrowup.alt" horiz-adv-x="542" 
d="M271 476l191 -257l-74 -52l-117 170l-117 -170l-74 52z" />
    <glyph glyph-name="arrowdown.alt" horiz-adv-x="542" 
d="M462 351l-191 -257l-191 257l74 52l117 -170l117 170z" />
    <glyph glyph-name="arrowleftup.alt" horiz-adv-x="477" 
d="M80 431l317 -47l-16 -89l-203 37l38 -202l-90 -16z" />
    <glyph glyph-name="arrowrightup.alt" horiz-adv-x="477" 
d="M80 384l317 47l-46 -317l-90 16l38 202l-203 -37z" />
    <glyph glyph-name="arrowleftdown.alt" horiz-adv-x="477" 
d="M397 161l-317 -47l46 317l90 -16l-38 -202l203 37z" />
    <glyph glyph-name="arrowrightdown.alt" horiz-adv-x="477" 
d="M397 114l-317 47l16 89l203 -37l-38 202l90 16z" />
    <glyph glyph-name="arrowlong.left" horiz-adv-x="1200" 
d="M414 504l-208 -204h924v-72h-924l208 -204l-51 -52l-293 292l293 291z" />
    <glyph glyph-name="arrowlong.right" horiz-adv-x="1200" 
d="M837 -28l-51 52l207 204h-923v72h923l-207 204l51 51l293 -291z" />
    <glyph glyph-name="arrowlong.up" horiz-adv-x="723" 
d="M601 497l-204 207v-923h-72v923l-204 -207l-51 51l291 293l292 -293z" />
    <glyph glyph-name="arrowlong.down" horiz-adv-x="723" 
d="M121 107l204 -207v923h72v-923l204 207l52 -51l-292 -293l-291 293z" />
    <glyph glyph-name="arrowlong.leftup" horiz-adv-x="915" 
d="M483 612l-291 2l653 -653l-51 -51l-653 653l3 -291h-72l-2 413h414z" />
    <glyph glyph-name="arrowlong.leftdown" horiz-adv-x="915" 
d="M144 323l-3 -292l653 654l51 -51l-653 -653l291 2l1 -73h-414l2 413h72z" />
    <glyph glyph-name="arrowlong.rightup" horiz-adv-x="915" 
d="M771 272l2 291l-652 -653l-51 51l652 653l-290 -2l-1 73h414l-2 -413h-72z" />
    <glyph glyph-name="arrowlong.rightdown" horiz-adv-x="915" 
d="M431 -90l1 73l290 -2l-652 653l51 51l652 -654l-2 292h72l2 -413h-414z" />
    <glyph glyph-name="ornm1" horiz-adv-x="666" 
d="M240 390c0 -13 6 -25 15 -34h-201c-19 0 -34 15 -34 34s15 34 34 34h200c-9 -9 -14 -21 -14 -34zM332 154c0 -18 -14 -32 -32 -32h-81c-18 0 -32 14 -32 32s14 32 32 32h81c18 0 32 -14 32 -32zM332 232c0 -18 -14 -32 -32 -32h-81c-18 0 -32 14 -32 32s14 32 32 32h81
c18 0 32 -14 32 -32zM332 310c0 -18 -14 -32 -32 -32h-81c-18 0 -32 14 -32 32s14 32 32 32h81c18 0 32 -14 32 -32zM429 122h-96c8 8 13 19 13 32c0 16 -9 31 -22 39c13 8 22 22 22 39c0 16 -9 31 -22 39c13 8 22 22 22 39c0 13 -5 24 -14 33h63v13h-107
c-19 0 -34 15 -34 34s15 34 34 34h149c41 0 28 -60 75 -60h114v-197h-114c-47 0 -34 -45 -83 -45z" />
    <glyph glyph-name="ornm2" horiz-adv-x="666" 
d="M426 390c0 13 -5 25 -14 34h200c19 0 34 -15 34 -34s-15 -34 -34 -34h-201c9 9 15 21 15 34zM333 122h-96c-49 0 -36 45 -83$45h-114v197h114c47 0 34 60 75 60h149c19 0 34 -15 34 -34s-15 -34$-34 -34h-107v-13h63c-9 -9 -14 -20 -14 -33c0 -17 9 -31 22 -39
c-13 -8 -22 -23 -22 -39c0 -17 9 -31 22 -39c-13 -8 -22 -23 -22 -39c0 -13 5 -24 13 -32zM334 154c0 18 14 32 32 32h81c18 0 32 -14 32 -32s-14 -32 -32 -32h-81c-18 0 -32 14 -32 32zM334 232c0 18 14 32 32 32h81c18 0 32 -14 32 -32s-14 -32 -32 -32h-81
c-18 0 -32 14 -32 32zM334 310c0 18 14 32 32 32h81c18 0 32 -14 32 -32s-14 -32 -32 -32h-81c-18 0 -32 14 -32 32z" />
    <glyph glyph-name="ornm3" horiz-adv-x="1100" 
d="M648 588l-61 12l31 154l61 -12zM519 601h62v-157h-62v157zM452 -78l61 -12l-31 -154l-61 12zM581 -91h-62v157h62v-157zM883 157l12 61l154 -31l-12 -61zM896 286v-62h-157v62h157zM217 353l-12 -61l-154 31l12 61zM204 224v62h157v-62h-157zM855 422l-34 51l130 88
l35 -52zM773 522l44 -44l-111 -111l-44 44zM245 88l34 -51l-130 -88l-35 52zM327 -12l-44 44l111 111l44 -44zM717 -50l51 34l88 -130l-52 -35zM817 32l-44 -44l-111 111l44 44zM383 560l-51 -34l-88 130l52 35zM283 478l44 44l111 -111l-44 -44zM765 527l-51 34l86 132
l52 -34zM651 587l57 -23l-58 -145l-58 23zM335 -17l51 -34l-86 -132l-52 34zM449 -77l-57 23l58 145l58 -23zM822 40l34 51l132 -86l-34 -52zM882 154l-23 -57l-145 58l23 58zM278 470l-34 -51l-132 86l34 52zM218 356l23 57l145 -58l-23 -58zM516 600l-61 -11l-29 155
l60 11zM392 564l57 23l59 -145l-58 -23zM584 -90l61 11l29 -155l-60 -11zM708 -54l-57 -23l-59 145l58 23zM895 289l-11 61l155 29l11 -60zM859 413l23 -57l-145 -59l-23 58zM205 221l11 -61l-155 -29l-11 60zM241 97l-23 57l145 59l23 -58z" />
    <glyph glyph-name="ornm4" horiz-adv-x="1177" 
d="M316 255c0 147 119 266 266 266s266 -119 266 -266s-119 -266 -266 -266s-266 119 -266 266zM372 255c0 -116 94 -210 210 -210s210 94 210 210s-94 210 -210 210s-210 -94 -210 -210zM428 255c0 85 69 154 154 154s154 -69 154 -154s-69 -154 -154 -154
s-154 69 -154 154zM484 255c0 -54 44 -98 98 -98s98 44 98 98s-44 98 -98 98s-98 -44 -98 -98zM722 570c0 23 19 42 42 42s42 -19 42 -42s-19 -42 -42 -42s-42 19 -42 42zM729 -71c0 23 19 42 42 42s42 -19 42 -42s-19 -42 -42 -42s-42 19 -42 42zM792 -180
c0 23 19 42 42 42s42 -19 42 -42s-19 -42 -42 -42s-42 19 -42 42zM866 66c0 23 19 42 42 42s42 -19 42 -42s-19 -42 -42 -42s-42 19 -42 42zM975 3c0 23 19 42 42 42s42 -19 42 -42s-19 -42 -42 -42s-42 19 -42 42zM295 679c0 23 19 42 42 42s42 -19 42 -42s-19 -42 -42 -42
s-42 19 -42 42zM358 570c0 23 19 42 42 42s42 -19 42 -42s-19 -42 -42 -42s-42 19 -42 42zM116 500c0 23 19 42 42 42s42 -19 42 -42s-19 -42 -42 -42s-42 19 -42 42zM225 437c0 23 19 42 42 42s42 -19 42 -42s-19 -42 -42 -42s-42 19 -42 42zM917 255c0 23 19 42 42 42
s42 -19 42 -42s-19 -42 -42 -42s-42 19 -42 42zM1043 255c0 23 19 42 42 42s42 -19 42 -42s-19 -42 -42 -42s-42 19 -42 42zM855 437c0 23 19 42 42 42s42 -19 42 -42s-19 -42 -42 -42s-42 19 -42 42zM295 -169c0 23 19 42 42 42s42 -19 42 -42s-19 -42 -42 -42
s-42 19 -42 42zM50 255c0 23 19 42 42 42s42 -19 42 -42s-19 -42 -42 -42s-42 19 -42 42zM785 679c0 23 19 42 42 42s42 -19 42 -42s-19 -42 -42 -42s-42 19 -42 42zM540 619c0 23 19 42 42 42s42 -19 42 -42s-19 -42 -42 -42s-42 19 -42 42zM540 745c0 23 19 42 42 42
s42 -19 42 -42s-19 -42 -42 -42s-42 19 -42 42zM540 -235c0 23 19 42 42 42s42 -19 42 -42s-19 -42 -42 -42s-42 19 -42 42zM540 -109c0 23 19 42 42 42s42 -19 42 -42s-19 -42 -42 -42s-42 19 -42 42zM964 500c0 23 19 42 42 42s42 -19 42 -42s-19 -42 -42 -42
s-42 19 -42 42zM540 255c0 23 19 42 42 42s42 -19 42 -42s-19 -42 -42 -42s-42 19 -42 42zM116 10c0 23 19 42 42 42s42 -19 42 -42s-19 -42 -42 -42s-42 19 -42 42zM225 73c0 23 19 42 42 42s42 -19 42 -42s-19 -42 -42 -42s-42 19 -42 42zM358 -60c0 23 19 42 42 42
s42 -19 42 -42s-19 -42 -42 -42s-42 19 -42 42zM176 255c0 23 19 42 42 42s42 -19 42 -42s-19 -42 -42 -42s-42 19 -42 42z" />
    <glyph glyph-name="ornm5" horiz-adv-x="1058" 
d="M235 505l44 44l85 -85c11 9 24 17 37 24l-90 223l58 23l90 -223c12 4 25 6 39 8v121h62v-121c15$-2 29 -5 43 -9l94 221l57 -25l-94 -220c12 -6 23 -14 34 -22l85 85l44 -44l-85 -85c9 -12 17 -24 24 -37l223 90l23 -58l-223 -90c4 -13 6 -26 8 -39h121v-62h-121
c-2 -15 -5 -30 -9 -44l221 -93l-25 -57l-220 93c-6 -11 -14 -23 -22 -33l85 -85l-44 -44l-85 85c-12 -9 -24 -18 -37 -25l90 -222l-58 -23l-90 223c-13 -4 -26 -6 -39 -8v-121h-62v121c-15 2 -30 5 -44 9l-93 -221l-57 25l93 219c-11 7 -23 14 -33 23l-85 -85l-44 44l85 85
c-9 11 -18 24 -25 37l-222 -90l-23 58l222 90c-3 12 -6 25 -7 39h-121v62h121c1 15 4 29 8 43l-220 94l25 57l219 -94c7 12 14 23 23 34zM319 255c0 -116 94 -210 210 -210s210 94 210 210s-94 210 -210 210s-210 -94 -210 -210zM375 255c0 85 69 154 154 154
s154 -69 154 -154s-69 -154 -154 -154s-154 69 -154 154zM431 255c0 -54 44 -98 98 -98s98 44 98 98s-44 98 -98 98s-98 -44 -98 -98zM487 255c0 23 19 42 42 42s42 -19 42 -42s-19 -42 -42 -42s-42 19 -42 42z" />
    <glyph glyph-name="ornm6" horiz-adv-x="1108" 
d="M220 -123l-44 44l169 169c-9 11 -18 24 -25 37l-222 -90l-23 58l222 89c-3 13 -6 26 -7 40h-240v62h240c1 15 4 29 8 43l-220 94l25 57l220 -93c6 12 14 23 22 33l-169 169l44 44l169 -169c11 9 24 17 37 24l-90 223l58 23l89 -223c13 4 26 6 40 8v240h62v-240
c15 -2 29 -5 43 -9l94 221l57 -25l-93 -220c12 -7 23 -14 33 -22l169 169l44 -44l-169 -169c9 -12 17 -25 24 -38l223 91l23 -58l-223 -90c4 -13 6 -26 8 -39h240v-62h-240c-2 -15 -5 -29 -9 -43l221 -94l-25 -57l-220 92c-7 -11 -14 -22 -22 -32l169 -169l-44 -44l-169 169
c-12 -9 -25 -18 -38 -25l91 -222l-58 -23l-90 223c-13 -4 -26 -6 -39 -8v-240h-62v240c-15 2 -29 5 -43 9l-94 -221l-57 25l92 224c-11 6 -22 14 -32 22zM344 255c0 -116 94 -210 210 -210s210 94 210 210s-94 210 -210 210s-210 -94 -210 -210zM400 255
c0 85 69 154 154 154s154 -69 154 -154s-69 -154 -154 -154s-154 69 -154 154zM456 255c0 -54 44 -98 98 -98s98 44 98 98s-44 98 -98 98s-98 -44 -98 -98z" />
    <glyph glyph-name="ornm7" horiz-adv-x="1080" 
d="M50 255c0 270 220 490 490 490s490 -220 490 -490s-220 -490 -490 -490s-490 220 -490 490zM106 255c0 -240 194 -434 434 -434s434 194 434 434s-194 434 -434 434s-434 -194 -434 -434zM162 255c0 209 169 378 378 378s378 -169 378 -378s-169 -378 -378 -378
s-378 169 -378 378zM218 255c0 -178 144 -322 322 -322s322 144 322 322s-144 322 -322 322s-322 -144 -322 -322zM274 255c0 147 119 266 266 266s266 -119 266 -266s-119 -266 -266 -266s-266 119 -266 266zM330 255c0 -116 94 -210 210 -210s210 94 210 210
s-94 210 -210 210s-210 -94 -210 -210zM386 255c0 85 69 154 154 154s154 -69 154 -154s-69 -154 -154 -154s-154 69 -154 154zM442 255c0 -54 44 -98 98 -98s98 44 98 98s-44 98 -98 98s-98 -44 -98 -98zM498 255c0 23 19 42 42 42s42 -19 42 -42s-19 -42 -42 -42
s-42 19 -42 42z" />
    <glyph glyph-name="ornm8" horiz-adv-x="1106" 
d="M584 444h-62v314h62v-314zM584 -248h-62v314h62v-314zM742 224v62h314v-62h-314zM50 224v62h314v-62h-314zM709 367l-44 44l222 222l44 -44zM219 -123l-44 44l222 222l44 -44zM665 99l44 44l222 -222l-44 -44zM175 589l44 44l222 -222l-44 -44zM653 419l-58 23l118 291
l57 -23zM393 -223l-57 23l117 291l58 -23zM717 155l23 58l291 -118l-23 -57zM75 415l23 57l291 -117l-23 -58zM740 300l-25 58l289 122l25 -57zM102 30l-25 57l289 123l25 -58zM598 68l58 25l122 -289l-57 -25zM328 706l57 25l123 -289l-58 -25z" />
    <glyph glyph-name="ornm9" horiz-adv-x="600" 
d="M550 500v-500h-500v500h500z" />
    <glyph glyph-name="zero.alt" 
d="M275 676c150 0 235 -131 235 -344s-85 -344 -235 -344s-235 131 -235 344s85 344 235 344zM275 590c-88 0 -139 -85 -139 -258s51 -258 139 -258s139 85 139 258s-51 258 -139 258z" />
    <glyph glyph-name="one.alt" horiz-adv-x="344" 
d="M55 594c40 20 89 45 133 70h61v-664h-94v550c-31 -16 -72 -32 -100 -44v88z" />
    <glyph glyph-name="two.alt" horiz-adv-x="509" 
d="M480 0h-422v85c77 81 171 182 234 274c27 39 61 94 61 141c0 59 -55 92 -109 92c-55 0 -104 -42 -105 -103l-93 19c8 101 108 168 202 168c104 0 202 -70 202 -176c0 -61 -33 -129 -71 -183c-57 -81 -126 -160 -195 -233h296v-84z" />
    <glyph glyph-name="three.alt" horiz-adv-x="499" 
d="M159 308l-47 75l191 197h-255v84h388v-75l-178 -180c112 -7 191 -100 191 -209c0 -118 -99 -212 -228 -212c-83 0 -153 43 -191 110l75 42c25 -42 66 -68 117 -68c71 0 131 57 131 128c0 70 -60 128 -130 128c-20 0 -45 -6 -64 -20z" />
    <glyph glyph-name="four.alt" horiz-adv-x="538" 
d="M329 664h90v-405h99v-84h-99v-175h-92v175h-292v101c84 109 204 265 294 388zM135 259h192v262c-56 -79 -141 -197 -192 -262z" />
    <glyph glyph-name="five.alt" horiz-adv-x="499" 
d="M180 580c-3 -59 -8 -131 -14 -186c28 13 59 18 91 18c107 0 197 -85 197 -206s-94 -218 -228 -218c-83 0 -153 43 -191 110l75 42c25 -42 66 -68 117 -68c70 0 131 57 131 126c0 77 -43 130 -128 130c-38 0 -70 -15 -96 -41l-69 37c10 98 22 244 27 340h329v-84h-241z
" />
    <glyph glyph-name="six.alt" horiz-adv-x="518" 
d="M259 320c-76 0 -123 -56 -123 -124s56 -124 123 -124c76 0 123 56 123 124s-56 124 -123 124zM233 398c13 4 32 6 45 6c103 0 200 -91 200 -206c0 -118 -102 -210 -221 -210c-118 0 -217 92 -217 210c0 44 16 84 35 120c24 46 171 281 237 375l76 -47
c-49 -73 -118 -182 -155 -248z" />
    <glyph glyph-name="seven.alt" horiz-adv-x="452" 
d="M432 664v-69c-82 -171 -204 -444 -276 -617l-87 39c89 210 205 446 259 561h-318v86h422z" />
    <glyph glyph-name="eight.alt" horiz-adv-x="562" 
d="M502 187c0 -109 -98 -199 -221 -199s-221 90 -221 199c0 69 40 129 101 163c-50 30 -82 79 -82 140c0 101 89 186 202 186s202 -85 202 -186c0 -61 -32 -110 -82 -140c61 -34 101 -94 101 -163zM173 490c0 -57 48 -103 108 -103s108 46 108 103c0 56 -48 102 -108 102
s-108 -46 -108 -102zM156 187c0 -63 55 -115 125 -115s125 52 125 115c0 64 -55 116 -125 116s-125 -52 -125 -116z" />
    <glyph glyph-name="nine.alt" horiz-adv-x="518" 
d="M259 344c76 0 123 56 123 124s-56 124 -123 124c-76 0 -123 -56 -123 -124s56 -124 123 -124zM285 266c-13 -4 -32 -6 -45 -6c-103 0 -200 91 -200 206c0 118 102 210 221 210c118 0 217 -92 217 -210c0 -44 -16 -84 -35 -120c-24 -46 -171 -281 -237 -375l-76 47
c49 73 118 182 155 248z" />
    <glyph glyph-name="zero.lf" 
d="M275 676c150 0 235 -131 235 -344s-85 -344 -235 -344s-235 131 -235 344s85 344 235 344zM275 590c-88 0 -139 -85 -139 -258s51 -258 139 -258s139 85 139 258s-51 258 -139 258z" />
    <glyph glyph-name="one.lf" horiz-adv-x="344" 
d="M249 0h-94v550c-31 -16 -72 -32 -100 -44v88c40 20 89 45 133 70h61v-664z" />
    <glyph glyph-name="two.lf" horiz-adv-x="509" 
d="M480 0h-422v85c77 81 171 182 234 274c27 39 61 94 61 141c0 59 -55 92 -109 92c-55 0 -104 -42 -105 -103l-93 19c8 101 108 168 202 168c104 0 202 -70 202 -176c0 -61 -33 -129 -71 -183c-57 -81 -126 -160 -195 -233h296v-84z" />
    <glyph glyph-name="three.lf" horiz-adv-x="519" 
d="M154 292v96c42 1 69 3 95 10c52 14 89 51 89 99c0 55 -46 95 -111 95c-49 0 -93 -25 -109 -72l-80 33c26 72 97 123 191 123c122 0 205 -70 205 -178c0 -60 -33 -115 -83 -141c68 -23 117 -87 117 -164c0 -129 -101 -205 -222 -205c-83 0 -171 36 -211 111l74 41
c28 -48 78 -68 130 -68c69 0 133 36 133 113c0 67 -63 114 -141 114c-23 0 -46 0 -77 -7z" />
    <glyph glyph-name="four.lf" horiz-adv-x="538" 
d="M418 0h-92v167h-300v101c84 109 205 273 295 396h97v-413h99v-84h-99v-167zM126 251h200v281c-62 -90 -152 -215 -200 -281z" />
    <glyph glyph-name="five.lf" horiz-adv-x="499" 
d="M433 664v-84h-253c-3 -59 -6 -131 -12 -186c30 14 65 19 98 19c110 0 203 -88 203 -204c0 -126 -92 -221 -221 -221c-82 0 -174 43 -211 111l75 42c25 -45 72 -69 124 -69c86 0 137 60 137 134s-57 123 -134 123c-39 0 -75 -13 -103 -42l-68 37c10 98 18 244 23 340h342z
" />
    <glyph glyph-name="six.lf" horiz-adv-x="534" 
d="M367 701l38 -84c-122 -55 -221 -129 -256 -258c40 40 90 61 150 61c117 0 195 -96 195 -214c0 -123 -89 -218 -211 -218c-153 0 -243 126 -243 265c0 212 147 375 327 448zM279 336c-59 0 -116 -32 -144 -84c0 -92 39 -180 140 -180c76 0 123 60 123 136
c0 74 -45 128 -119 128z" />
    <glyph glyph-name="seven.lf" horiz-adv-x="452" 
d="M432 664v-69c-82 -171 -204 -444 -276 -617l-87 39c89 210 205 446 259 561h-318v86h422z" />
    <glyph glyph-name="eight.lf" horiz-adv-x="562" 
d="M281 -12c-134 0 -225 86 -225 195c0 79 40 133 103 167c-51 30 -83 73 -83 144c0 101 82 182 205 182s205 -81 205 -182c0 -71 -32 -114 -83 -144c63 -34 103 -88 103 -167c0 -109 -91 -195 -225 -195zM281 303c-71 0 -129 -52 -129 -116c0 -67 58 -115 129 -115
s129 48 129 115c0 64 -58 116 -129 116zM281 592c-61 0 -111 -42 -111 -102c0 -57 50 -103 111 -103s111 46 111 103c0 60 -50 102 -111 102z" />
    <glyph glyph-name="nine.lf" horiz-adv-x="534" 
d="M167 -37l-38 84c122 55 221 129 256 258c-40 -40 -90 -61 -150 -61c-117 0 -195 96 -195 214c0 123 89 218 211 218c153 0 243 -126 243 -265c0 -212 -147 -375 -327 -448zM255 328c59 0 116 32 144 84c0 92 -39 180 -140 180c-76 0 -123 -60 -123 -136
c0 -74 45 -128 119 -128z" />
    <glyph glyph-name="dollar.lf" 
d="M30 88l65 61c46 -47 101 -80 171 -80c69 0 143 33 143 116c0 76 -74 101 -152 129c-89 32 -185 68 -185 188c0 98 76 165 179 173v95h64v-97c58 -6 112 -28 164 -65l-57 -67c-38 34 -88 53 -144 53c-54 0 -116 -27 -116 -92c0 -60 66 -83 140 -109
c94 -33 201 -71 201 -198c0 -119 -86 -189 -193 -204v-97h-64v94c-82 3 -151 38 -216 100z" />
    <glyph glyph-name="Euro.lf" horiz-adv-x="650" 
d="M10 374v74h90c42 137 160 228 323 228c65 0 136 -19 188 -51l-43 -74c-39 25 -96 39 -145 39c-109 0 -188 -52 -224 -142h272v-74h-291c-1 -14 -2 -28 -2 -42s0 -27 2 -40h291v-74h-273c35 -89 113 -144 225 -144c52 0 111 15 156 46l50 -70c-57 -39 -133 -62 -206 -62
c-162 0 -282 89 -324 230h-89v74h75c-1 13 -2 26 -2 40s1 28 2 42h-75z" />
    <glyph glyph-name="cent.lf" 
d="M440 173l45 -70c-33 -26 -79 -44 -130 -48v-87h-64v89c-123 18 -215 116 -215 259c0 130 91 236 215 258v90h64v-87c46 -3 87 -18 123 -42l-43 -75c-28 21 -66 34 -102 34c-90 0 -164 -79 -164 -178c0 -108 78 -178 165 -178c33 0 79 15 106 35z" />
    <glyph glyph-name="sterling.lf" 
d="M486 0h-406v86h57v230h-57v84h57v54c0 129 84 222 202 222c53 0 108 -13 147 -37l-39 -78c-25 22 -66 31 -104 31c-85 0 -115 -72 -115 -165v-27h135v-84h-135v-230h258v-86z" />
    <glyph glyph-name="yen.lf" 
d="M55 256v74h149l-187 334h108l152 -279h2l147 279h106l-190 -334h148v-74h-170v-64h170v-74h-172v-118h-91v118h-172v74h170v64h-170z" />
    <glyph glyph-name="florin.lf" 
d="M393 316h-131l-41 -363c-12 -108 -69 -165 -146 -165c-28 0 -55 5 -81 12l20 79c15 -4 32 -7 50 -7c50 0 60 35 67 100l39 344h-80v84h89l13 111c12 106 72 165 163 165c45 0 88 -13 128 -32l-36 -76c-23 16 -52 24 -83 24c-60 0 -75 -37 -82 -100l-11 -92h122v-84z" />
    <glyph glyph-name="afii61352.lf" horiz-adv-x="1129" 
d="M660 0h-85l-384 522v-522h-96v700h84l385 -522v522h96v-700zM924 712c101 0 175 -78 175 -178c0 -99 -74 -178 -175 -178s-175 79 -175 178c0 100 74 178 175 178zM1025 534c0 63 -42 113 -101 113s-101 -50 -101 -113s42 -113 101 -113s101 50 101 113z" />
    <glyph glyph-name="percent.lf" horiz-adv-x="850" 
d="M218 706c89 0 159 -71 159 -160c0 -88 -70 -159 -159 -159s-160 71 -160 159c0 89 71 160 160 160zM219 635c-49 0 -86 -38 -86 -88c0 -51 37 -89 86 -89c47 0 83 38 83 89c0 50 -36 88 -83 88zM633 313c89 0 159 -71 159 -160c0 -88 -70 -159 -159 -159
s-160 71 -160 159c0 89 71 160 160 160zM634 242c-49 0 -86 -38 -86 -88c0 -51 37 -89 86 -89c47 0 83 38 83 89c0 50 -36 88 -83 88zM648 712l55 -40l-497 -684l-55 40z" />
    <glyph glyph-name="perthousand.lf" horiz-adv-x="1236" 
d="M1019 313c89 0 159 -71 159 -160c0 -88 -70 -159 -159 -159s-160 71 -160 159c0 89 71 160 160 160zM1020 242c-49 0 -86 -38 -86 -88c0 -51 37 -89 86 -89c47 0 83 38 83 89c0 50 -36 88 -83 88zM218 706c89 0 159 -71 159 -160c0 -88 -70 -159 -159 -159
s-160 71 -160 159c0 89 71 160 160 160zM219 635c-49 0 -86 -38 -86 -88c0 -51 37 -89 86 -89c47 0 83 38 83 89c0 50 -36 88 -83 88zM633 313c89 0 159 -71 159 -160c0 -88 -70 -159 -159 -159s-160 71 -160 159c0 89 71 160 160 160zM634 242c-49 0 -86 -38 -86 -88
c0 -51 37 -89 86 -89c47 0 83 38 83 89c0 50 -36 88 -83 88zM648 712l55 -40l-497 -684l-55 40z" />
    <glyph glyph-name="zero.osf" horiz-adv-x="610" 
d="M305 512c144 0 265 -117 265 -262s-121 -262 -265 -262s-265 117 -265 262s121 262 265 262zM305 428c-96 0 -169 -76 -169 -178s73 -178 169 -178s169 76 169 178s-73 178 -169 178z" />
    <glyph glyph-name="one.osf" horiz-adv-x="344" 
d="M249 0h-94v398c-31 -16 -72 -32 -104 -44v88c40 20 89 45 133 70h61v-512z" />
    <glyph glyph-name="two.osf" horiz-adv-x="509" 
d="M141 338l-91 22c15 91 89 152 186 152c106 0 187 -63 187 -160c0 -70 -49 -129 -112 -179c-41 -33 -91 -63 -135 -89h293v-84h-409v96c80 55 152 101 201 144c33 29 66 67 66 111c0 51 -36 77 -92 77c-51 0 -88 -34 -94 -90z" />
    <glyph glyph-name="three.osf" horiz-adv-x="519" 
d="M154 128v96c42 1 69 3 95 10c52 14 89 51 89 99c0 55 -46 95 -111 95c-49 0 -93 -25 -109 -72l-80 33c26 72 97 123 191 123c122 0 205 -70 205 -178c0 -60 -33 -115 -83 -141c68 -23 117 -87 117 -164c0 -129 -101 -205 -222 -205c-83 0 -171 36 -211 111l74 41
c28 -48 78 -68 130 -68c69 0 133 36 133 113c0 67 -63 114 -141 114c-23 0 -46 0 -77 -7z" />
    <glyph glyph-name="four.osf" horiz-adv-x="548" 
d="M533 0h-94v-160h-92v160h-327v101c113 135 227 275 324 399h95v-416h94v-84zM120 84h227v281c-69 -91 -167 -212 -227 -281z" />
    <glyph glyph-name="five.osf" horiz-adv-x="499" 
d="M433 500v-84h-253c-3 -59 -6 -131 -12 -186c30 14 65 19 98 19c110 0 203 -88 203 -204c0 -126 -92 -221 -221 -221c-82 0 -174 43 -211 111l75 42c25 -45 72 -69 124 -69c86 0 137 60 137 134s-57 123 -134 123c-39 0 -75 -13 -103 -42l-68 37c10 98 18 244 23 340h342z
" />
    <glyph glyph-name="six.osf" horiz-adv-x="534" 
d="M367 701l38 -84c-122 -55 -221 -129 -256 -258c40 40 90 61 150 61c117 0 195 -96 195 -214c0 -123 -89 -218 -211 -218c-153 0 -243 126 -243 265c0 212 147 375 327 448zM279 336c-59 0 -116 -32 -144 -84c0 -92 39 -180 140 -180c76 0 123 60 123 136
c0 74 -45 128 -119 128z" />
    <glyph glyph-name="seven.osf" horiz-adv-x="452" 
d="M432 500v-69c-82 -171 -204 -444 -276 -617l-87 39c89 210 205 446 259 561h-318v86h422z" />
    <glyph glyph-name="eight.osf" horiz-adv-x="562" 
d="M281 -12c-134 0 -225 86 -225 195c0 79 40 133 103 167c-51 30 -83 73 -83 144c0 101 82 182 205 182s205 -81 205 -182c0 -71 -32 -114 -83 -144c63 -34 103 -88 103 -167c0 -109 -91 -195 -225 -195zM281 303c-71 0 -129 -52 -129 -116c0 -67 58 -115 129 -115
s129 48 129 115c0 64 -58 116 -129 116zM281 592c-61 0 -111 -42 -111 -102c0 -57 50 -103 111 -103s111 46 111 103c0 60 -50 102 -111 102z" />
    <glyph glyph-name="nine.osf" horiz-adv-x="534" 
d="M167 -201l-38 84c122 55 221 129 256 258c-40 -40 -90 -61 -150 -61c-117 0 -195 96 -195 214c0 123 89 218 211 218c153 0 243 -126 243 -265c0 -212 -147 -375 -327 -448zM255 164c59 0 116 32 144 84c0 92 -39 180 -140 180c-76 0 -123 -60 -123 -136
c0 -74 45 -128 119 -128z" />
    <glyph glyph-name="dollar.osf" 
d="M30 88l65 61c46 -47 101 -80 171 -80c69 0 143 33 143 116c0 76 -74 101 -152 129c-89 32 -185 68 -185 188c0 98 76 165 179 173v95h64v-97c58 -6 112 -28 164 -65l-57 -67c-38 34 -88 53 -144 53c-54 0 -116 -27 -116 -92c0 -60 66 -83 140 -109
c94 -33 201 -71 201 -198c0 -119 -86 -189 -193 -204v-97h-64v94c-82 3 -151 38 -216 100z" />
    <glyph glyph-name="Euro.osf" horiz-adv-x="650" 
d="M10 374v74h90c42 137 160 228 323 228c65 0 136 -19 188 -51l-43 -74c-39 25 -96 39 -145 39c-109 0 -188 -52 -224 -142h272v-74h-291c-1 -14 -2 -28 -2 -42s0 -27 2 -40h291v-74h-273c35 -89 113 -144 225 -144c52 0 111 15 156 46l50 -70c-57 -39 -133 -62 -206 -62
c-162 0 -282 89 -324 230h-89v74h75c-1 13 -2 26 -2 40s1 28 2 42h-75z" />
    <glyph glyph-name="cent.osf" 
d="M440 173l45 -70c-33 -26 -79 -44 -130 -48v-87h-64v89c-123 18 -215 116 -215 259c0 130 91 236 215 258v90h64v-87c46 -3 87 -18 123 -42l-43 -75c-28 21 -66 34 -102 34c-90 0 -164 -79 -164 -178c0 -108 78 -178 165 -178c33 0 79 15 106 35z" />
    <glyph glyph-name="sterling.osf" 
d="M486 0h-406v86h57v230h-57v84h57v54c0 129 84 222 202 222c53 0 108 -13 147 -37l-39 -78c-25 22 -66 31 -104 31c-85 0 -115 -72 -115 -165v-27h135v-84h-135v-230h258v-86z" />
    <glyph glyph-name="yen.osf" 
d="M55 256v74h149l-187 334h108l152 -279h2l147 279h106l-190 -334h148v-74h-170v-64h170v-74h-172v-118h-91v118h-172v74h170v64h-170z" />
    <glyph glyph-name="florin.osf" 
d="M393 400v-84h-131l-41 -363c-12 -108 -69 -165 -146 -165c-28 0 -55 5 -81 12l20 79c15 -4 32 -7 50 -7c50 0 60 35 67 100l39 344h-80v84h89l13 111c12 106 72 165 163 165c45 0 88 -13 128 -32l-36 -76c-23 16 -52 24 -83 24c-60 0 -75 -37 -82 -100l-11 -92h122z" />
    <glyph glyph-name="afii61352.osf" horiz-adv-x="1129" 
d="M660 0h-85l-384 522v-522h-96v700h84l385 -522v522h96v-700zM924 712c101 0 175 -78 175 -178c0 -99 -74 -178 -175 -178s-175 79 -175 178c0 100 74 178 175 178zM1025 534c0 63 -42 113 -101 113s-101 -50 -101 -113s42 -113 101 -113s101 50 101 113z" />
    <glyph glyph-name="percent.osf" horiz-adv-x="850" 
d="M218 706c89 0 159 -71 159 -160c0 -88 -70 -159 -159 -159s-160 71 -160 159c0 89 71 160 160 160zM219 635c-49 0 -86 -38 -86 -88c0 -51 37 -89 86 -89c47 0 83 38 83 89c0 50 -36 88 -83 88zM633 313c89 0 159 -71 159 -160c0 -88 -70 -159 -159 -159
s-160 71 -160 159c0 89 71 160 160 160zM634 242c-49 0 -86 -38 -86 -88c0 -51 37 -89 86 -89c47 0 83 38 <3 89c0 50 -36 88 -83 88zM648 712l55 -40l-497 -684l-55 40z" />
    <glyph glyph-name="perthousand.osf" horiz-adv-x="1236" 
d="M1019 313c89 0 159 -71 159 -160c0 -88 -70 -159 -159 -159s-160 71 -160 159c0 89 71 160 160 160zM1020 242c-49 0 -86 -38 -86 -88c0 -51 37 -89 86 -89c47 0 83 38 83 89c0 50 -36 88 -83 88zM218 706c89 0 159 -71 159 -160c0 -88 -70 -159 -159 -159
s-160 71 -160 159c0 89 71 160 160 164zM219 635c-49 0 -86 -38 -86 -88c0 -51 37 -89 86 -89c47 0 83 38 83 89c0 50 -36 88 -83 88zM633 313c89 0 159 -71 159 -160c0 -88 -70 -159 -159 -159s-160 71 -160 159c0 89 71 160 160 160zM634 242c-49 0 -86 -38 -86 -88
c0 -51 37 -89 86 -89c47 0 83 38 83 89c0 50 -36 88 -83 88zM648 712l55 -40l-497 -684l-55 40z" />
    <glyph glyph-name="zero.slash" 
d="M275 676c150 0 235 -131 235 -344s-85 -344 -235 -344s-235 131 -235 344s85 344 235 344zM275 74c81 0 130 72 138 218h-276c7 -146 57 -218 138 -218zM275 590c-81 0 -131 -72 -138 -218h276c-8 146 -57 218 -138 218z" />
    <glyph glyph-name="zero.tf" 
d="M275 676c150 0 235 -131 235 -344s-85 -344 -235 -344s-235 131 -235 344s85 344 235 344zM275 590c-88 0 -139 -85 -139 -258s51 -258 139 -258s139 85 139 258s-51 258 -139 258z" />
    <glyph glyph-name="one.tf" 
d="M113 84h154v474c-42 -21 -116 -55 -174 -79v91c63 28 138 64 197 94h71v-580h140v-84h-388v84z" />
    <glyph glyph-name="two.tf" 
d="M493 0h-422v85c77 81 171 182 234 274c27 39 61 94 61 141c0 59 -55 92 -109 92c-55 0 -104 -42 -105 -103l-93 19c8 101 108 168 202 168c104 0 202 -70 202 -176c0 -61 -33 -129 -71 -183c-57 -81 -126 -160 -195 -233h296v-84z" />
    <glyph glyph-name="three.tf" 
d="M169 292v96c42 1 69 3 95 10c52 14 89 51 89 99c0 55 -46 95 -111 95c-49 0 -93 -25 -109 -72l-80 33c26 72 97 123 191 123c122 0 205 -70 205 -178c0 -60 -33 -115 -83 -141c68 -23 117 -87 117 -164c0 -129 -101 -205 -222 -205c-83 0 -171 36 -211 111l74 41
c28 -48 78 -68 130 -68c69 0 133 36 133 113c0 67 -63 114 -141 114c-23 0 -46 0 -77 -7z" />
    <glyph glyph-name="four.tf" 
d="M418 0h-92v167h-300v101c84 109 205 273 295 396h97v-413h99v-84h-99v-167zM126 251h200v281c-62 -90 -152 -215 -200 -281z" />
    <glyph glyph-name="five.tf" 
d="M454 664v-84h-253c-3 -59 -6 -131 -12 -186c30 14 65 19 98 19c110 0 203 -88 203 -204c0 -126 -92 -221 -221 -221c-82 0 -174 43 -211 115l75 42c25 -45 72 -69 124 -69c86 0 137 60 137 134s-57 123 -134 123c-39 0 -75 -13 -103 -42l-68 37c10 98 18 244 23 340h342z
" />
    <glyph glyph-name="six.tf" 
d="M375 701l38 -84c-122 -55 -221 -129 -256 -258c40 40 90 61 150 61c117 0 195 -96 195 -214c0 -123 -89 -218 -211 -218c-153 0 -243 126 -243 265c0 212 147 375 327 448zM287 336c-59 0 -116 -32 -144 -84c0 -92 39 -180 140 -180c76 0 123 60 123 136
c0 74 -45 128 -119 128z" />
    <glyph glyph-name="seven.tf" 
d="M477 664v-69c-82 -171 -204 -444 -276 -617l-87 39c89 210 205 446 259 561h-318v86h422z" />
    <glyph glyph-name="eight.tf" 
d="M275 -12c-134 0 -225 86 -225 195c0 79 40 133 103 167c-51 30 -83 73 -83 144c0 101 82 182 205 182s205 -81 205 -182c0 -71 -32 -114 -83 -144c63 -34 103 -88 103 -167c0 -109 -91 -195 -225 -195zM275 303g-71 0 -129 -52 -129 -116c0 -67 58 -115 129 -115
s129 48 129 115c0 64 -58 116 -129 116zM275 592c-61 0 -111 -42 -111 -102c0 -57 50 -103 111 -103s111 46 111 103c0 60 -50 102 -111 102z" />
    <glyph glyph-name="nine.tf" 
d="M175 -37l-38 84c122 55 221 129 256 258c-40 -40 -90 -61 -150 -61c-117 0 -195 96 -195 214c0 123 89 218 211 218c153 0 243 -126 243 -265c0 -212 -147 -375 -327 -448zM263 328c59 0 116 32 144 84c0 92 -39 180 -140 180c-76 0 -123 -60 -123 -136
c0 -74 45 -128 119 -128z" />
    <glyph glyph-name="dollar.tf" 
d="M30 88l65 61c46 -47 101 -80 171 -80c69 0 143 33 143 116c0 76 -74 101 -152 129c-89 32 -185 68 -185 188c0 98 76 165 179 173v95h64v-97c58 -6 112 -28 164 -65l-57 -67c-38 34 -88 53 -144 53c-54 0 -116 -27 -116 -92c0 -60 66 -83 140 -109
c94 -33 201 -71 201 -198c0 -119 -86 -189 -193 -204v-97h-64v94c-82 3 -151 38 -216 100z" />
    <glyph glyph-name="Euro.tf" 
d="M20 374v74h80c27 143 104 228 225 228c93 0 161 -50 199 -138l-87 -31c-24 55 -62 83 -112 83c-66 0 -110 -47 -129 -142h179v-74h-188c-1 -14 -1 -28 -1 -42s0 -28 1 -40h188v-74h-180c19 -97 64 -144 130 -144c58 0 100 37 122 113l90 -25
c-35 -111 -107 -174 -212 -174c-121 0 -200 85 -226 230h-79v74h71c-1 13 -1 26 -1 40s0 28 1 42h-71z" />
    <glyph glyph-name="cent.tf" 
d="M440 173l45 -70c-33 -26 -79 -44 -130 -48v-87h-64v89c-123 18 -215 116 -215 259c0 130 91 236 215 258v90h64v-87c46 -3 87 -18 123 -42l-43 -75c-28 21 -66 34 -102 34c-90 0 -164 -79 -164 -178c0 -108 78 -178 165 -178c33 0 79 15 106 35z" />
    <glyph glyph-name="sterling.tf" 
d="M486 0h-406v86h57v230h-57v84h57v54c0 129 84 222 202 222c53 0 108 -13 147 -37l-39 -78c-25 22 -66 31 -104 31c-85 0 -115 -72 -115 -165v-27h135v-84h-135v-230h258v-86z" />
    <glyph glyph-name="yen.tf" 
d="M55 256v74h149l-187 334h108l152 -279h2l147 279h106l-190 -334h148v-74h-170v-64h170v-74h-172v-118h-91v118h-172v74h170v64h-170z" />
    <glyph glyph-name="florin.tf" 
d="M393 400v-84h-131l-41 -363c-12 -108 -69 -165 -146 -165c-28 0 -55 5 -81 12l20 79c15 -4 32 -7 50 -7c50 0 60 35 67 100l39 344h-80v84h89l13 111c12 106 72 165 163 165c45 0 88 -13 128 -32l-36 -76c-23 16 -52 24 -83 24c-60 0 -75 -37 -82 -100l-11 -92h122z" />
    <glyph glyph-name="afii61352.tf" horiz-edv-x="1129" 
d="M660 0h-85l-384 522v-522h-96v700h84l385 -522v522h96v-700zM924 712c101 0 175 -78 175 -178c0 -99 -74 -178 -175 -178s-175 79 -175 178c0 100 74 178 175 178zM1025 534c0 63 -42 113 -101 113s-101 -50 -101 -113s42 -113 101 -113s101 50 101 113z" />
    <glyph glyph-name="percent.tf" horiz-adv-x="850" 
d="M218 706c89 0 159 -71 159 -160c0 -88 -70 -159 -159 -159s-160 71 -160 159c0 89 71 160 160 160zM219 635c-49 0 -86 -38 -86 -88c0 -51 37 -89 86 -89c47 0 83 38 83 89c0 50 -36 88 -83 88zM633 313c89 0 159 -71 159 -160c0 -88 -70 -159 -159 -159
s-160 71 -160 159c0 89 71 160 160 160zM634 242c-49 0 -86 -38 -86 -88c0 -51 37 -89 86 -89c47 0 83 38 83 89c0 50 -36 88 -83 88zM648 712l55 -40l-497 -684l-55 40z" />
    <glyph glyph-name="perthousand.tf" horiz-adv-x="1236" 
d="M1019 313c89 0 159 -71 159 -160c0 -88 -70 -159 -159 -159s-160 71 -160 159c0 89 71 160 160 160zM1020 242c-49 0 -86 -38 -86 -88c0 -51 37 -89 86 -89c47 0 83 38 83 89c0 50 -36 88 -83 88zM218 706c89 0 159 -71 159 -160c0 -88 -70 -159 -159 -159
s-160 71 -160 159c0 89 71 160 160 160zM219 635c-49 0 -86 -38 -86 -88c0 -51 37 -89 86 -89c47 0 83 38 83 89c0 50 -36 88 -83 88zM633 313c89 0 159 -71 159 -160c0 -88 -70 -159 -159 -159s-160 71 -160 159c0 89 71 160 160 160zM634 242c-49 0 -86 -38 -86 -88
c0 -51 37 -89 86 -89c47 0 83 38 83 89c0 50 -36 88 -83 88zM648 712l55 -40l-497 -684l-55 40z" />
    <glyph glyph-name="zeroslash.tosf" 
d="M275 512c144 0 240 -117 240 -262s-96 -262 -240 -262s-240 117 -240 262s96 262 240 262zM275 72c82 0 130 50 141 138h-283c11 -88 59 -138 142 -138zM275 428c-83 0 -131 -51 -142 -138h283c-11 87 -59 138 -141 138z" />
    <glyph glyph-name="zero.tosf" 
d="M275 512c144 0 240 -117 240 -262s-96 -262 -240 -262s-240 117 -240 262s96 262 240 262zM275 428c-94 0 -144 -66 -144 -178s50 -178 144 -178s144 66 144 178s-50 178 -144 178z" />
    <glyph glyph-name="one.tosf" 
d="M113 84h154v322c-42 -21 -116 -55 -174 -79v91c63 28 138 64 197 94h71v-428h140v-84h-388v84z" />
    <glyph glyph-name="two.tosf" 
d="M164 338l-91 22c15 91 89 152 186 152c107 0 188 -63 188 -160c0 -74 -42 -124 -94 -167c-25 -21 -57 -46 -144 -101h283v-84h-409v97c80 55 151 101 200 144c33 29 67 66 67 110c0 51 -36 77 -92 77c-51 0 -88 -34 -94 -90z" />
    <glyph glyph-name="three.tosf" 
d="M169 128v96c42 1 69 3 95 10c52 14 89 51 89 99c0 55 -46 95 -111 95c-49 0 -93 -25 -109 -72l-80 33c26 72 97 123 191 123c122 0 205 -70 205 -178c0 -60 -33 -115 -83 -141c68 -23 117 -87 117 -164c0 -129 -101 -205 -222 -205c-83 0 -171 36 -211 111l74 41
c28 -48 78 -68 130 -68c69 0 133 36 133 113c0 67 -63 114 -141 114c-23 0 -46 0 -77 -7z" />
    <glyph glyph-name="four.tosf" 
d="M530 0h-94v-160h-92v160h-327v101c113 135 227 275 324 399h95v-416h94v-84zM117 84h227v281c-69 -91 -167 -212 -227 -281z" />
    <glyph glyph-name="five.tosf" 
d="M454 500v-84h-253c-3 -59 -6 -131 -12 -186c30 14 65 19 98 19c110 0 203 -88 203 -204c0 -126 -92 -221 -221 -221c-82 0 -174 43 -211 111l75 42c25 -45 72 -69 124 -69c86 0 137 60 137 134s-57 123 -134 123c-39 0 -75 -13 -103 -42l-68 37c10 98 18 244 23 340h342z
" />
    <glyph glyph-name="six.tosf" 
d="M375 701l38 -84c-122 -55 -221 -129 -256 -258c40 40 90 61 150 61c117 0 195 -96 195 -214c0 -123 -89 -218 -211 -218c-153 0 -243 126 -243 265c0 212 147 375 327 448zM287 336c-59 0 -116 -32 -144 -84c0 -92 39 -180 140 -180c76 0 123 60 123 136
c0 74 -45 128 -119 128z" />
    <glyph glyph-name="seven.tosf" 
d="M477 500v-69c-82 -171 -204 -444 -276 -617l-87 39c89 210 205 446 259 561h-318v86h422z" />
    <glyph glyph-name="eight.tosf" 
d="M275 -12c-134 0 -225 86 -225 195c0 79 40 133 103 167c-51 30 -83 73 -83 144c0 101 82 182 205 182s205 -81 205 -182c0 -71 -32 -114 -83 -144c63 -34 103 -88 103 -167c0 -109 -91 -195 -225 -195zM275 303c-71 0 -129 -52 -129 -116c0 -67 58 -115 129 -115
s129 48 129 115c0 64 -58 116 -129 116zM275 592c-61 0 -111 -42 -111 -102c0 -57 50 -103 111 -103s111 46 111 103c0 60 -50 102 -111 102z" />
    <glyph glyph-name="nine.tosf" 
d="M175 -201l-38 84c122 55 221 129 256 258c-40 -40 -90 -61 -150 -61c-117 0 -195 96 -195 214c0 123 89 218 211 218c153 0 243 -126 243 -265c0 -212 -147 -375 -327 -448zM263 164c59 0 116 32 144 84c0 92 -39 180 -140 180c-76 0 -123 -60 -123 -136
c0 -74 45 -128 119 -128z" />
    <glyph glyph-name="dollar.tosf" 
d="M30 88l65 61c46 -47 101 -80 171 -80c69 0 143 33 143 116c0 76 -74 101 -152 129c-89 32 -185 68 -185 188c0 98 76 165 179 173v95h64v-97c58 -6 112 -28 164 -65l-57 -67c-38 34 -88 53 -144 53c-54 0 -116 -27 -116 -92c0 -60 66 -83 140 -109
c94 -33 201 -71 201 -198c0 -119 -86 -189 -193 -604v-97h-64v94c-82 3 -151 38 -216 100z" />
    <glyph glyph-name="Euro.tosf" 
d="M20 374v74h80c27 143 104 228 225 228c93 0 161 -50 199 -138l-87 -31c-24 55 -62 83 -112 83c-66 0 -110 -47 -129 -142h179v-74h-188c-1 -14 -1 -28 -1 -42s0 -28 1 -40h188v-74h-180c19 -97 64 -144 130 -144c58 0 100 37 122 113l90 -25
c-35 -111 -107 -174 -212 -174c-121 0 -200 85 -226 230h-79v74h71c-1 13 -1 26 -1 40s0 28 1 42h-71z" />
    <glyph glyph-name="cent.tosf" 
d="M440 173l45 -70c-33 -26 -79 -44 -130 -48v-87h-64v89c-123 18 -215 116 -215 259c0 130 91 236 215 258v90h64v-87c46 -3 87 -18 123 -42l-43 -75c-28 21 -66 34 -102 34c-90 0 -164 -79 -164 -178c0 -108 78 -178 165 -178c33 0 79 15 106 35z" />
    <glyph glyph-name="sterling.tosf" 
d="M486 0h-406v86h57v230h-57v84h57v54c0 129 84 222 202 222c53 0 108 -13 147 -37l-39 -78c-25 22 -66 31 -104 31c-85 0 -115 -72 -115 -165v-27h135v-84h-135v-230h258v-86z" />
    <glyph glyph-name="yen.tosf" 
d="M55 256v74h149l-187 334h108l152 -279h2l147 279h106l-190 -334h148v-74h-170v-64h170v-74h-172v-118h-91v118h-172v74h170v64h-170z" />
    <glyph glyph-name="florin.tosf" 
d="M393 400v-84h-131l-41 -363c-12 -108 -69 -165 -146 -165c-28 0 -55 5 -81 12l20 79c15 -4 32 -7 50 -7c50 0 60 35 67 100l39 344h-80v84h89l13 111c12 106 72 165 163 165c45 0 88 -13 128 -32l-36 -76c-23 16 -52 24 -83 24c-60 0 -75 -37 -82 -100l-11 -92h122z" />
    <glyph glyph-name="afii61352.tosf" horiz-adv-x="1129" 
d="M660 0h-85l-384 522v-522h-96v700h84l385 -522v522h96v-700zM924 712c101 0 175 -78 175 -178c0 -99 -74 -178 -175 -178s-175 79 -175 178c0 100 74 178 175 178zM1025 534c0 63 -42 113 -101 113s-101 -50 -101 -113s42 -113 101 -113s101 50 101 113z" />
    <glyph glyph-name="percent.tosf" horiz-adv-x="850" 
d="M218 706c89 0 159 -71 159 -160c0 -88 -70 -159 -159 -159s-160 71 -160 159c0 89 71 160 160 160zM219 635c-49 0 -86 -38 -86 -88c0 -51 37 -89 86 -89c47 0 83 38 83 89c0 50 -36 88 -83 88zM633 313c89 0 159 -71 159 -160c0 -88 -70 -159 -159 -159
s-160 71 -160 159c0 89 71 160 160 160zM634 242c-49 0 -86 -38 -86 -88c0 -51 37 -89 86 -89c47 0 83 38 83 89c0 50 -36 88 -83 88zM648 712l55 -40l-497 -684l-55 40z" />
    <glyph glyph-name="perthousand.tosf" horiz-adv-x="1236" 
d="M1019 313c89 0 159 -71 159 -160c0 -88 -70 -159 -159 -159s-160 71 -160 159c0 89 71 160 160 160zM1020 242c-49 0 -86 -38 -86 -88c0 -51 37 -89 86 -89c47 0 83 38 83 89c0 50 -36 88 -83 88zM218 706c89 0 159 -71 159 -160c0 -88 -70 -159 -159 -159
s-160 71 -160 159c0 89 71 160 160 160zM219 635c-49 0 -86 -38 -86 -88c0 -51 37 -89 86 -89c47 0 83 38 83 89c0 50 -36 88 -83 88zM633 313c89 0 159 -71 159 -160c0 -88 -70 -159 -159 -159s-160 71 -160 159c0 89 71 160 160 160zM634 242c-49 0 -86 -38 -86 -88
c0 -51 37 -89 86 -89c47 0 83 38 83 89c0 50 -36 88 -83 88zM648 712l55 -40l-497 -684l-55 40z" />
    <glyph glyph-name="a.smcp" horiz-adv-x="553" 
d="M10 0l221 570h94l218 -570h-103l-44 119h-245l-43 -119h-98zM273 451l-92 -251h186l-92 251h-2z" />
    <glyph glyph-name="b.smcp" horiz-adv-x="541" 
d="M90 0v570h145c47 0 97 -5 141 -24c55 -25 86 -62 86 -130c0 -53 -26 -96 -92 -120c77 -22 116 -67 116 -134c0 -65 -36 -115 -98 -139c-47 -18 -106 -23 -161 -23h-137zM390 167c0 53 -45 84 -118 84h-91v-172h44c46 0 88 2 119 16c30 13 46 39 46 72zM371 411
c0 58 -46 80 -139 80h-51v-161h54c85 0 136 26 136 81z" />
    <glyph glyph-name="c.smcp" horiz-adv-x="557" 
d="M486 107l46 -66c-49 -34 -107 -53 -169 -53c-171 0 -308 116 -308 297c0 170 138 297 310 297c57 0 109 -16 154 -44l-42 -69c-34 20 -72 32 -113 32c-122 0 -213 -91 -213 -216c0 -133 86 -216 212 -216c43 0 85 13 123 38z" />
    <glyph glyph-name="d.smcp" horiz-adv-x="619" 
d="M574 288c0 -154 -85 -242 -193 -269c-35 -9 -72 -19 -207 -19h-84v570h80c152 0 196 -11 235 -27c95 -37 169 -116 169 -255zM478 281c0 87 -35 147 -97 178c-40 20 -84 30 -200 30v-408c73 0 113 4 151 13c91 21 146 78 146 187z" />
    <glyph glyph-name="e.smcp" horiz-adv-x="515" 
d="M440 0h-350v570h350v-81h-259v-156h259v-81h-259v-171h259v-81z" />
    <glyph glyph-name="f.smcp" horiz-adv-x="445" 
d="M390 239h-209v-239h-91v570h300v-81h-209v-169h209v-81z" />
    <glyph glyph-name="g.smcp" horiz-adv-x="649" 
d="M589 325v-226c-55 -70 -141 -111 -236 -111c-171 0 -308 116 -308 297c0 170 139 297 308 297c89 0 167 -40 223 -102l-66 -56c-37 47 -94 77 -158 77c-122 0 -211 -92 -211 -216c0 -133 85 -216 211 -216c60 0 110 21 148 60v117h-135v79h224z" />
    <glyph glyph-name="h.smcp" horiz-adv-x="664" 
d="M574 0h-91v254h-302v-254h-91v570h91v-235h302v235h91v-570z" />
    <glyph glyph-name="i.smcp" horiz-adv-x="271" 
d="M181 0h-91v570h91v-570z" />
    <glyph glyph-name="j.smcp" horiz-adv-x="333" 
d="M14 6l23 73c15 -7 28 -10 46 -10c28 0 45 5 55 18c12 15 14 39 14 77v406h91v-428c0 -44 -9 -80 -28 -106c-23 -31 -62 -48 -120 -48c-28 0 -58 8 -81 18z" />
    <glyph glyph-name="k.smcp" horiz-adv-x="552" 
d="M181 0h-91v570h91v-282l234 282h110l-190 -222l207 -348h-108l-160 276l-93 -109v-167z" />
    <glyph glyph-name="l.smcp" horiz-adv-x="439" 
d="M429 0h-339v570h91v-489h248v-81z" />
    <glyph glyph-name="m.smcp" horiz-adv-x="803" 
d="M713 570v-570h-91v459l-186 -459h-71l-184 458v-458h-91v570h137l172 -444h1l176 444h137z" />
    <glyph glyph-name="msmcp.salt" horiz-adv-x="742" 
d="M337 121l-157 335v-456h-90v570h124l157 -331h1l157 331h123v-570h-89v456l-159 -335h-67z" />
    <glyph glyph-name="n.smcp" horiz-adv-x="676" 
d="M491 0l-310 423v-423h-91v570h94l311 -423v423h91v-570h-95z" />
    <glyph glyph-name="o.smcp" horiz-adv-x="694" 
d="M649 285c0 -165 -130 -297 -302 -297s-302 132 -302 297s130 297 302 297s302 -132 302 -297zM553 285c0 125 -87 216 -206 216s-206 -91 -206 -216s87 -216 206 -216s206 91 206 216z" />
    <glyph glyph-name="p.smcp" horiz-adv-x="516" 
d="M181 0h-91v570h106c58 0 89 -1 113 -4c98 -14 177 -73 177 -172c0 -80 -58 -146 -139 -169c-30 -8 -63 -12 -148 -12h-18v-213zM390 392c0 44 -24 76 -70 89c-15 5 -33 8 -111 8h-28v-195h33c68 0 94 3 117 12c38 15 59 43 59 86z" />
    <glyph glyph-name="q.smcp" horiz-adv-x="694" 
d="M586 -61l-88 87c-44 -24 -95 -38 -151 -38c-172 0 -302 132 -302 297s130 297 302 297s302 -132 302 -297c0 -83 -33 -157 -87 -211l79 -79zM553 285c0 125 -87 216 -206 216s-206 -91 -206 -216s87 -216 206 -216c32 0 63 7 89 19l-76 77l56 56l84 -85
c33 38 53 90 53 149z" />
    <glyph glyph-name="r.smcp" horiz-adv-x="557" 
d="M90 570h129c188 0 267 -50 267 -169c0 -83 -54 -143 -135 -162l181 -239h-115l-169 227h-67v-227h-91v570zM390 396c0 72 -34 95 -185 95h-24v-185h29c120 0 180 21 180 90z" />
    <glyph glyph-name="s.smcp" horiz-adv-x="491" 
d="M416 525l-50 -66c-32 22 -70 42 -117 42c-57 0 -95 -26 -95 -74c0 -56 66 -71 135 -94c74 -25 152 -60 152 -166c0 -129 -123 -179 -203 -179s-143 26 -203 84l58 62c52 -48 91 -65 145 -65s107 27 107 92c0 68 -73 84 -145 109c-69 24 -137 57 -137 153
c0 108 83 159 179 159c72 0 122 -21 174 -57z" />
    <glyph glyph-name="t.smcp" horiz-adv-x="449" 
d="M414 489h-144v-489h-91v489h-144v81h379v-81z" />
    <glyph glyph-name="u.smcp" horiz-adv-x="622" 
d="M542 570v-303c0 -180 -73 -279 -233 -279c-156 0 -229 99 -229 279v303h91v-313c0 -127 52 -188 140 -188s140 61 140 188v313h91z" />
    <glyph glyph-name="v.smcp" horiz-adv-x="541" 
d="M537 570l-221 -570h-94l-218 570h103l165 -451h2l165 451h98z" />
    <glyph glyph-name="w.smcp" horiz-adv-x="797" 
d="M782 570l-163 -570h-103l-115 434h-2l-124 -434h-103l-157 570h100l115 -430h1l120 430h100l114 -430h2l120 430h95z" />
    <glyph glyph-name="x.smcp" horiz-adv-x="558" 
d="M10 570h116l156 -214l156 214h113l-213 -280l216 -290h-115l-161 221l-161 -221h-113l218 287z" />
    <glyph glyph-name="y.smcp" horiz-adv-x="484" 
d="M288 0h-91v233l-192 337h112l127 -240h2l127 240h106l-191 -334v-236z" />
    <glyph glyph-name="z.smcp" horiz-adv-x="477" 
d="M430 524l-261 -443h283v-81h-407v50l258 439h-255v81h382v-46z" />
    <glyph glyph-name="thorn.smcp" horiz-adv-x="536" 
d="M90 570h91v-100h15c58 0 89 -1 113 -4c98 -14 177 -73 177 -172c0 -80 -58 -146 -139 -169c-30 -8 -63 -12 -148 -12h-18v-113h-91v570zM181 389v-195h33c68 0 94 3 117 12c38 15 59 43 59 86c0 44 -24 76 -70 89c-15 5 -33 8 -111 8h-28z" />
    <glyph glyph-name="agrave.smcp" horiz-adv-x="553" 
d="M10 0l221 570h94l218 -570h-103l-44 119h-245l-43 -119h-98zM273 451l-92 -251h186l-92 251h-2zM288 611l-134 160l66 51l123 -169z" />
    <glyph glyph-name="aacute.smcp" horiz-adv-x="553" 
d="M10 0l221 570h94l218 -570h-103l-44 119h-245l-43 -119h-98zM273 451l-92 -251h186l-92 251h-2zM397 771l-134 -160l-55 42l123 169z" />
    <glyph glyph-name="acircumflex.smcp" horiz-adv-x="553" 
d="M10 0l221 570h94l218 -570h-103l-44 119h-245l-43 -119h-98zM273 451l-92 -251h186l-92 251h-2zM426 647l-53 -36l-93 129l-93 -129l-55 36l104 157h88z" />
    <glyph glyph-name="atilde.smcp" horiz-adv-x="553" 
d="M10 0l221 570h94l218 -570h-103l-44 119h-245l-43 -119h-98zM273 451l-92 -251h186l-92 251h-2zM467 745c1 -6 2 -13 2 -23c0 -58 -41 -95 -98 -95c-72 0 -104 64 -148 64c-18 0 -32 -11 -33 -30c0 -4 0 -7 1 -10l-65 -7c-1 6 -2 13 -2 23c0 58 41 95 98 95
c69 0 104 -64 148 -64c18 0 32 11 33 30c0 3 0 7 -1 10z" />
    <glyph glyph-name="adieresis.smcp" horiz-adv-x="553" 
d="M10 0l221 570h94l218 -570h-103l-44 119h-245l-43 -119h-98zM273 451l-92 -251h186l-92 251h-2zM227 643h-93v102h93v-102zM430 643h-93v102h93v-102z" />
    <glyph glyph-name="aring.smcp" horiz-edv-x="553" 
d="M10 0l221 570h94l218 -570h-103l-44 119h-245l-43 -119h-98zM273 451l-92 -251h186l-92 251h-2zM186 718c0 51 42 93 93 93s93 -42 93 -93s-42 -93 -93 -93s-93 42 -93 93zM235 718c0 -24 20 -44 44 -44s44 20 44 44s-20 44 -44 44s-44 -20 -44 -44z" />
    <glyph glyph-name="aringacute.smcp" horiz-adv-x="553" 
d="M427 892l-179 -106l-32 50l175 114zM10 0l221 570h94l218 -570h-103l-44 119h-245l-43 -119h-98zM273 451l-92 -251h186l-92 251h-2zM186 680c0 51 42 93 93 93s93 -42 93 -93s-42 -93 -93 -93s-93 42 -93 93zM235 680c0 -24 20 -44 44 -44s44 20 44 44s-20 44 -44 44
s-44 -20 -44 -44z" />
    <glyph glyph-name="ccedilla.smcp" horiz-adv-x="557" 
d="M476 107l46 -66c-49 -34 -107 -53 -169 -53c-15 0 -30 1 -44 3l-21 -56l1 -1c15 11 32 16 48 16c45 0 87 -39 87 -93c0 -53 -47 -102 -109 -102c-45 0 -81 20 -103 59l57 28c9 -25 28 -32 46 -32c26 0 43 21 43 44c0 26 -18 47 -45 47c-16 0 -32 -8 -39 -24l-61 32l39 93
c-121 37 -207 139 -207 283c0 170 138 297 310 297c57 0 109 -16 154 -44l-42 -69c-34 20 -72 32 -113 32c-122 0 -213 -91 -213 -216c0 -133 86 -216 212 -216c43 0 85 13 123 38z" />
    <glyph glyph-name="egrave.smcp" horiz-adv-x="515" 
d="M440 0h-350v570h350v-81h-259v-156h259v-81h-259v-171h259v-81zM284 611l-134 160l66 51l123 -169z" />
    <glyph glyph-name="eacute.smcp" horiz-adv-x="515" 
d="M440 0h-350v570h350v-81h-259v-156h259v-81h-259v-171h259v-81zM401 771l-134 -160l-55 42l123 169z" />
    </font>
</defs>
</svg>
